<svg width="47" height="31" viewBox="0 0 47 31" fill="none" xmlns="http://www.w3.org/2000/svg">
<path d="M5.03571 0C2.27446 0 0 2.08201 0 4.60962V26.1212C0 28.6488 2.27446 30.7308 5.03571 30.7308H41.9643C44.7255 30.7308 47 28.6488 47 26.1212V4.60962C47 2.08201 44.7255 0 41.9643 0H5.03571Z" fill="#DFDFDF"/>
<path d="M7.3445 10.8462L3.61523 20.7885H5.87485L6.60877 18.5289H10.846L11.5799 20.7885H15.8172V13.3318L18.5287 20.7885H20.5063L23.2739 13.5577V20.7885H25.2515V10.8462H22.0302L19.5464 17.569L17.059 10.8462H13.5575V20.2805L10.0542 10.8462H7.3445ZM27.963 10.8462V20.7885H35.9277L38.4133 17.569L40.8989 20.7885H43.3845L39.6552 15.8173L43.3845 10.8462H40.6729L38.1874 13.8397L36.1537 10.8462H27.963ZM8.58639 12.8238L9.83008 16.3253H7.3427L8.58639 12.8238ZM29.9407 13.1058H34.9118L36.9455 15.8173L34.6858 18.8109H29.9407V16.8351H34.4599V14.8014H29.9407V13.1058Z" fill="#1BACF4"/>
</svg>
