<svg width="30" height="36" viewBox="0 0 30 36" fill="none" xmlns="http://www.w3.org/2000/svg">
<path fill-rule="evenodd" clip-rule="evenodd" d="M14.8728 10.3421C12.7059 10.3421 9.75101 6.944 4.53077 10.0958C4.33378 10.1943 4.23529 10.2928 4.08755 10.4406C1.52667 12.3612 0 15.6116 0 18.9112C0 21.2258 0.19699 23.1957 0.886456 25.2641C2.11764 28.9577 3.0041 30.4843 5.31873 33.4884C6.05745 34.4241 7.68262 36 9.20929 36C11.5732 36 12.9521 34.6211 14.9713 34.6211C16.0547 34.6211 16.1039 34.5719 17.1874 34.8674C17.6799 35.0151 17.8769 35.1136 18.3201 35.2613C19.502 35.7046 20.7332 36.1478 22.0629 35.9508C22.4076 35.9016 22.9494 35.7046 23.1956 35.5568C24.1805 35.0151 24.5745 34.5226 25.2147 33.7839C26.4952 32.3557 29.2038 27.9235 29.3515 26.3968C28.3666 26.1505 26.8399 24.8209 26.1012 23.9344C24.9193 22.457 24.673 20.9795 24.5253 19.1081L24.7223 17.2367C24.9193 16.3503 25.1162 15.8578 25.5102 15.1683C26.1012 14.1834 26.9877 13.2969 27.9234 12.6567C28.1203 12.5582 28.2188 12.4597 28.3666 12.312C28.2188 11.7703 27.2831 10.9331 26.8399 10.5391C25.7072 9.50487 23.0971 8.66766 21.3734 8.66766C20.7332 8.66766 20.1422 8.76616 19.5513 8.9139C18.0246 9.25863 15.6115 10.3913 14.922 10.3913L14.8728 10.3421Z" fill="#DFDFDF"/>
<path fill-rule="evenodd" clip-rule="evenodd" d="M14.5801 7.48563V8.32283C16.353 8.32283 17.1902 8.22434 18.6184 7.09165C18.9631 6.79616 19.3078 6.54992 19.5541 6.20519C19.7018 6.0082 19.8003 5.9097 19.9973 5.71271C21.327 4.08755 21.8687 2.65937 21.8687 0C20.0958 0 17.9782 1.18194 16.7962 2.36388C15.565 3.59507 14.5801 5.61422 14.5801 7.43638V7.48563Z" fill="#DFDFDF"/>
</svg>
