<svg width="17" height="15" viewBox="0 0 17 15" fill="none" xmlns="http://www.w3.org/2000/svg">
<path d="M6.21666e-06 6.24879C0.00031239 4.89947 0.445857 3.58647 1.27005 2.50605C2.09424 1.42563 3.25282 0.635793 4.57262 0.2546C5.89243 -0.126592 7.30258 -0.0786745 8.59231 0.391193C9.88205 0.86106 10.9821 1.72764 11.7281 2.86142C12.474 3.9952 12.8258 5.33529 12.7309 6.68139C12.636 8.0275 12.0994 9.30733 11.2014 10.3296C10.3034 11.3519 9.09221 12.0617 7.7488 12.353C6.40539 12.6443 5.00194 12.5014 3.74821 11.9456C2.67924 12.1873 1.52784 12.3956 0.998451 12.489C0.86316 12.5127 0.724017 12.5037 0.593049 12.4629C0.46208 12.422 0.343227 12.3505 0.24676 12.2545C0.150294 12.1585 0.0791168 12.0409 0.0393815 11.9119C-0.000353694 11.7828 -0.00745186 11.6463 0.0187006 11.5139C0.11897 11.0056 0.341602 9.91556 0.597374 8.8947C0.202651 8.06641 -0.00129808 7.16306 6.21666e-06 6.24879ZM5.22081 2.75452C4.84522 2.95119 4.54952 3.25704 4.32603 3.66288C4.25289 3.80787 4.23991 3.97502 4.28982 4.12919C4.33973 4.28337 4.44865 4.41256 4.59368 4.48961C4.73871 4.56667 4.90855 4.58557 5.06749 4.54236C5.22644 4.49915 5.36211 4.39718 5.44599 4.2579C5.5709 4.03289 5.69921 3.92122 5.82158 3.85789C5.94904 3.79038 6.12238 3.74955 6.37306 3.74955C6.5634 3.74955 6.78688 3.81538 6.95088 3.94789C7.09619 4.06456 7.2228 4.25123 7.2228 4.58207C7.2228 4.74458 7.15907 4.81958 6.72315 5.15542C6.34077 5.45043 5.73575 5.92878 5.73575 6.8738C5.73575 7.03957 5.8029 7.19854 5.92242 7.31576C6.04193 7.43297 6.20403 7.49882 6.37306 7.49882C6.54208 7.49882 6.70418 7.43297 6.8237 7.31576C6.94322 7.19854 7.01036 7.03957 7.01036 6.8738C7.01036 6.56546 7.14972 6.41629 7.51001 6.13795L7.58224 6.08378C7.91109 5.83544 8.49741 5.3946 8.49741 4.58207C8.49741 3.87539 8.19915 3.3337 7.75983 2.98036C7.36667 2.67027 6.87758 2.50068 6.37306 2.49951C5.98643 2.49951 5.5896 2.56118 5.22081 2.75452ZM7.2228 9.16554C7.2228 8.94452 7.13327 8.73255 6.97392 8.57626C6.81456 8.41998 6.59842 8.33218 6.37306 8.33218C6.14769 8.33218 5.93156 8.41998 5.7722 8.57626C5.61284 8.73255 5.52332 8.94452 5.52332 9.16554C5.52332 9.38656 5.61284 9.59852 5.7722 9.75481C5.93156 9.91109 6.14769 9.99889 6.37306 9.99889C6.59842 9.99889 6.81456 9.91109 6.97392 9.75481C7.13327 9.59852 7.2228 9.38656 7.2228 9.16554ZM6.28808 13.3323C7.46549 14.4058 9.01417 15.0014 10.6218 14.999C11.5269 15.0002 12.4219 14.8116 13.2466 14.4457C14.3173 14.6874 15.4738 14.8957 16.0066 14.9874C16.1421 15.0108 16.2814 15.0015 16.4124 14.9602C16.5435 14.919 16.6623 14.847 16.7585 14.7505C16.8548 14.6541 16.9256 14.5361 16.9648 14.4067C17.0041 14.2773 17.0106 14.1406 16.9838 14.0082C16.8075 13.133 16.612 12.2617 16.3974 11.3948C16.7753 10.6014 16.979 9.73902 16.9954 8.86352C17.0117 7.98802 16.8404 7.11891 16.4925 6.31248C16.1446 5.50604 15.6279 4.78025 14.9758 4.18213C14.3237 3.58401 13.5507 3.12688 12.707 2.84036C13.3144 3.92537 13.6213 5.14754 13.5971 6.38509C13.5729 7.62264 13.2185 8.83237 12.5691 9.89375C11.9198 10.9551 10.9982 11.8311 9.89614 12.4344C8.7941 13.0378 7.5501 13.3473 6.28808 13.3323Z" fill="#0E9BE1"/>
</svg>
