<svg width="32" height="30" viewBox="0 0 32 30" fill="none" xmlns="http://www.w3.org/2000/svg">
<path fill-rule="evenodd" clip-rule="evenodd" d="M9.85004 16.9623V14.6341C9.85004 14.0354 10.3822 13.4368 11.0474 13.4368H20.4266C21.0918 13.4368 21.6904 13.9024 21.6904 14.5676V17.0288C21.6904 17.694 21.1583 18.1596 20.4266 18.1596H11.0474C10.4487 18.1596 9.85004 17.6275 9.85004 16.9623ZM1.53516 28.8027C1.53516 29.4679 2.13383 30 2.59946 30H28.808C29.4066 30 29.9388 29.4679 29.9388 28.8692V9.64519H1.60168V28.8027H1.53516Z" fill="#DFDFDF"/>
<path fill-rule="evenodd" clip-rule="evenodd" d="M0 1.13082V8.11532H31.53V1.19734C31.53 0.532152 30.9314 0 30.4657 0H1.13082C0.532152 0 0 0.532152 0 1.13082Z" fill="#DFDFDF"/>
</svg>
