<svg width="16" height="18" viewBox="0 0 16 18" fill="none" xmlns="http://www.w3.org/2000/svg">
<path d="M14.2222 1.73913H13.3333V0.869565C13.3333 0.391304 12.9333 0 12.4444 0C11.9556 0 11.5556 0.391304 11.5556 0.869565V1.73913H4.44444V0.869565C4.44444 0.391304 4.04444 0 3.55556 0C3.06667 0 2.66667 0.391304 2.66667 0.869565V1.73913H1.77778C0.791111 1.73913 0.00888888 2.52174 0.00888888 3.47826L0 15.6522C0 16.1134 0.187301 16.5558 0.520699 16.8819C0.854097 17.2081 1.30628 17.3913 1.77778 17.3913H14.2222C15.2 17.3913 16 16.6087 16 15.6522V3.47826C16 2.52174 15.2 1.73913 14.2222 1.73913ZM14.2222 14.7826C14.2222 15.2609 13.8222 15.6522 13.3333 15.6522H2.66667C2.17778 15.6522 1.77778 15.2609 1.77778 14.7826V6.08696H14.2222V14.7826ZM3.55556 7.82609H5.33333V9.56522H3.55556V7.82609Z" fill="white"/>
</svg>
