<svg width="15" height="15" viewBox="0 0 15 15" fill="none" xmlns="http://www.w3.org/2000/svg">
<path fill-rule="evenodd" clip-rule="evenodd" d="M13.1193 14.9919C13.5101 14.9919 13.6159 14.5529 13.7543 14.2765L14.1777 13.3824C14.2998 13.1304 15 11.7485 15 11.5371C15 11.1469 14.715 11.0331 14.2998 10.773C13.8357 10.4885 11.8492 9.13912 11.6293 9.13912C11.3118 9.13912 10.9699 9.57808 10.6849 9.86259C10.5383 10.0089 10.4162 10.1308 10.2778 10.269C10.1475 10.3991 10.0091 10.6023 9.75674 10.6023C9.31709 10.6023 8.71461 10.3828 8.3808 10.2446C7.20839 9.76504 6.23139 8.90339 5.48235 7.90354C5.22182 7.56213 5.0427 7.21259 4.83916 6.81428L4.5949 6.18024C4.52977 5.95263 4.47278 5.71689 4.42393 5.47303C4.36694 5.13975 4.42393 5.0422 4.61933 4.85524L5.49863 3.97733C6.06855 3.40831 5.93014 3.31076 5.34394 2.44098C5.1404 2.14021 3.95985 0.205556 3.77259 0.0836241C3.43064 -0.127725 3.17011 0.108011 2.79559 0.278716C2.55134 0.392519 2.35594 0.473807 2.11169 0.587611C1.77788 0.742058 0.239094 1.44927 0.141393 1.55494C-0.0540075 1.76629 -0.00515725 2.02641 0.043693 2.34343C0.0844015 2.62794 0.133252 2.93684 0.190244 3.19696L0.385644 4.00171C0.524053 4.57073 0.922997 5.6356 1.18353 6.16398L1.51734 6.83054C1.76973 7.31014 2.03841 7.76535 2.33965 8.20431C2.38036 8.26934 2.39665 8.30186 2.4455 8.36689L3.30037 9.48053C3.56091 9.77317 3.69932 9.96013 4.00056 10.269C4.09012 10.3584 4.17154 10.4316 4.24481 10.5292C4.3588 10.6836 5.28695 11.5127 5.52306 11.7078C5.71846 11.8623 5.87315 12.0005 6.07669 12.1468C6.5652 12.5126 6.75246 12.6345 7.25724 12.9597C8.77974 13.9433 10.4406 14.561 12.2318 14.8943C12.5005 14.9431 12.8262 15 13.1274 15L13.1193 14.9919Z" fill="#DFDFDF"/>
</svg>
