<svg width="47" height="36" viewBox="0 0 47 36" fill="none" xmlns="http://www.w3.org/2000/svg">
<path fill-rule="evenodd" clip-rule="evenodd" d="M21.9568 10.1747C26.7615 9.68008 30.5064 11.8705 32.7674 15.5447C34.3219 18.0883 34.6045 21.5505 33.686 24.3768C33.3327 25.4367 32.4848 27.0618 31.7782 27.8391C31.213 28.475 31.001 28.6869 30.4357 29.1816L29.6585 29.8175C25.7017 32.5731 20.261 32.4318 16.5869 29.3229C16.3042 29.1109 16.0922 28.9696 15.8096 28.6869C15.315 28.1923 15.0324 27.7684 14.6084 27.2031C13.6192 25.7193 12.9833 24.3062 12.7007 22.3984C12.1354 18.159 14.3258 13.6369 18 11.5878C19.1305 10.9519 20.5437 10.3867 22.0981 10.1747H21.9568ZM37.3602 10.2453C37.6428 10.104 41.8116 10.104 42.3768 10.1747C43.3661 10.2453 43.2247 10.9519 43.2247 11.8705C43.2247 12.6477 43.3661 13.5662 42.6595 13.7782C42.4475 13.8489 38.1374 13.8489 37.6428 13.8489C36.7242 13.7782 36.7949 13.001 36.7949 12.1531C36.7949 11.3052 36.5829 10.4573 37.2895 10.1747L37.3602 10.2453ZM5.14033 10.9519C6.05888 10.5986 6.90677 11.2345 7.1894 11.8705C7.89598 13.9195 4.92836 14.8381 4.22179 13.001C3.8685 12.1531 4.22179 11.3052 5.21099 10.8813L5.14033 10.9519ZM18.3533 2.3317C19.0599 2.19038 26.6202 2.26104 27.8921 2.26104C29.5172 2.26104 30.0824 3.25025 30.7184 4.23945C30.8597 4.45142 31.6369 5.36997 30.789 5.72326C30.4357 5.86457 18.4239 5.79392 16.5162 5.79392C15.6683 5.79392 15.315 5.158 15.8096 4.52208C16.5162 3.60353 16.8695 2.61433 18.3533 2.3317ZM17.5054 0C15.1737 0.211973 14.3965 1.69578 13.4073 2.89696C13.2659 3.03827 13.1953 3.10893 13.054 3.25025C10.0157 7.41904 9.23847 6.85378 3.65653 6.78312C1.89009 6.78312 0.900883 7.41904 0.335623 8.62022C-0.0883219 9.60942 0.0529931 12.2944 0.0529931 13.5662C0.0529931 17.0285 0.0529931 20.42 0.0529931 23.8822C0.0529931 25.578 -0.158979 32.9264 0.264966 33.9863C0.759568 35.3288 1.96075 35.9647 3.3739 35.9647H39.5505C40.6811 35.9647 43.578 36.106 44.4259 35.8234C45.6977 35.3994 46.475 34.1276 46.475 32.7144C46.475 25.8606 46.475 19.0069 46.475 12.1531C46.475 10.3867 46.6163 9.04416 45.6271 7.91364C43.7193 5.86457 38.5613 8.12561 35.947 6.07655C35.6644 5.86457 35.4524 5.79392 35.1698 5.51129C34.6752 5.01668 32.4141 1.90775 31.7076 1.27184C30.4357 0.211973 29.5878 0.141315 27.6801 0.141315C25.5604 0.141315 18.9892 0.0706575 17.3641 0.141315L17.5054 0Z" fill="#DFDFDF"/>
<path fill-rule="evenodd" clip-rule="evenodd" d="M15.6695 21.9744C16.1641 25.7899 19.8383 29.1815 24.2897 28.5456C25.3495 28.4043 26.4094 27.9803 27.1866 27.5564C28.0345 27.0618 28.6704 26.4259 29.2357 25.7899C32.062 22.469 31.2141 17.0284 28.1052 14.9087C27.6106 14.5554 27.8226 14.6261 26.9747 14.1315C23.9364 12.365 19.5556 13.2129 17.3652 15.9686C16.1641 17.4524 15.3868 19.3601 15.6695 21.9038V21.9744Z" fill="#DFDFDF"/>
<path fill-rule="evenodd" clip-rule="evenodd" d="M3.44336 5.86474H7.75437C7.75437 3.60322 7.89572 3.67389 5.70487 3.67389C3.44336 3.67389 3.44336 3.53255 3.51403 5.86474H3.44336Z" fill="#DFDFDF"/>
</svg>
