<svg width="13" height="13" viewBox="0 0 13 13" fill="none" xmlns="http://www.w3.org/2000/svg">
<path d="M3.9 10.4C3.185 10.4 2.6065 10.985 2.6065 11.7C2.6065 12.415 3.185 13 3.9 13C4.615 13 5.2 12.415 5.2 11.7C5.2 10.985 4.615 10.4 3.9 10.4ZM0 0V1.3H1.3L3.64 6.2335L2.7625 7.826C2.6585 8.008 2.6 8.2225 2.6 8.45C2.6 9.165 3.185 9.75 3.9 9.75H11.7V8.45H4.173C4.082 8.45 4.0105 8.3785 4.0105 8.2875L4.03 8.2095L4.615 7.15H9.4575C9.945 7.15 10.374 6.8835 10.595 6.4805L12.922 2.262C12.974 2.171 13 2.0605 13 1.95C13 1.5925 12.7075 1.3 12.35 1.3H2.7365L2.1255 0H0ZM10.4 10.4C9.685 10.4 9.1065 10.985 9.1065 11.7C9.1065 12.415 9.685 13 10.4 13C11.115 13 11.7 12.415 11.7 11.7C11.7 10.985 11.115 10.4 10.4 10.4Z" fill="url(#paint0_linear_2494_3063)"/>
<defs>
<linearGradient id="paint0_linear_2494_3063" x1="0" y1="0" x2="13.2442" y2="0.231861" gradientUnits="userSpaceOnUse">
<stop stop-color="#1BACF4"/>
<stop offset="1" stop-color="#19EEB5"/>
</linearGradient>
</defs>
</svg>
