<svg width="29" height="29" viewBox="0 0 29 29" fill="none" xmlns="http://www.w3.org/2000/svg">
<mask id="path-1-inside-1_1651_2662" fill="white">
<path fill-rule="evenodd" clip-rule="evenodd" d="M2.9 0H26.1C27.6994 0 29 1.30065 29 2.9V20.3C29 21.8994 27.6994 23.2 26.1 23.2H7.73285L0 29V2.9C0 1.30065 1.30065 0 2.9 0ZM6.76715 20.3H26.1V2.9H2.9V23.2L6.76715 20.3ZM21.75 7.25H7.25V10.15H21.75V7.25ZM17.4 13.05H7.25V15.95H17.4V13.05Z"/>
</mask>
<path fill-rule="evenodd" clip-rule="evenodd" d="M2.9 0H26.1C27.6994 0 29 1.30065 29 2.9V20.3C29 21.8994 27.6994 23.2 26.1 23.2H7.73285L0 29V2.9C0 1.30065 1.30065 0 2.9 0ZM6.76715 20.3H26.1V2.9H2.9V23.2L6.76715 20.3ZM21.75 7.25H7.25V10.15H21.75V7.25ZM17.4 13.05H7.25V15.95H17.4V13.05Z" fill="url(#paint0_linear_1651_2662)"/>
<path d="M7.73285 23.2V22.9H7.63285L7.55284 22.96L7.73285 23.2ZM0 29H-0.3V29.6L0.180007 29.24L0 29ZM26.1 20.3V20.6H26.4V20.3H26.1ZM6.76715 20.3V20H6.66716L6.58716 20.06L6.76715 20.3ZM26.1 2.9H26.4V2.6H26.1V2.9ZM2.9 2.9V2.6H2.6V2.9H2.9ZM2.9 23.2H2.6V23.8L3.07999 23.44L2.9 23.2ZM7.25 7.25V6.95H6.95V7.25H7.25ZM21.75 7.25H22.05V6.95H21.75V7.25ZM7.25 10.15H6.95V10.45H7.25V10.15ZM21.75 10.15V10.45H22.05V10.15H21.75ZM7.25 13.05V12.75H6.95V13.05H7.25ZM17.4 13.05H17.7V12.75H17.4V13.05ZM7.25 15.95H6.95V16.25H7.25V15.95ZM17.4 15.95V16.25H17.7V15.95H17.4ZM26.1 -0.3H2.9V0.3H26.1V-0.3ZM29.3 2.9C29.3 1.13496 27.865 -0.3 26.1 -0.3V0.3C27.5337 0.3 28.7 1.46634 28.7 2.9H29.3ZM29.3 20.3V2.9H28.7V20.3H29.3ZM26.1 23.5C27.865 23.5 29.3 22.065 29.3 20.3H28.7C28.7 21.7337 27.5337 22.9 26.1 22.9V23.5ZM7.73285 23.5H26.1V22.9H7.73285V23.5ZM0.180007 29.24L7.91286 23.44L7.55284 22.96L-0.180007 28.76L0.180007 29.24ZM-0.3 2.9V29H0.3V2.9H-0.3ZM2.9 -0.3C1.13496 -0.3 -0.3 1.13496 -0.3 2.9H0.3C0.3 1.46634 1.46634 0.3 2.9 0.3V-0.3ZM26.1 20H6.76715V20.6H26.1V20ZM25.8 2.9V20.3H26.4V2.9H25.8ZM2.9 3.2H26.1V2.6H2.9V3.2ZM3.2 23.2V2.9H2.6V23.2H3.2ZM6.58716 20.06L2.72001 22.96L3.07999 23.44L6.94714 20.54L6.58716 20.06ZM7.25 7.55H21.75V6.95H7.25V7.55ZM7.55 10.15V7.25H6.95V10.15H7.55ZM21.75 9.85H7.25V10.45H21.75V9.85ZM21.45 7.25V10.15H22.05V7.25H21.45ZM7.25 13.35H17.4V12.75H7.25V13.35ZM7.55 15.95V13.05H6.95V15.95H7.55ZM17.4 15.65H7.25V16.25H17.4V15.65ZM17.1 13.05V15.95H17.7V13.05H17.1Z" fill="#191919" mask="url(#path-1-inside-1_1651_2662)"/>
<defs>
<linearGradient id="paint0_linear_1651_2662" x1="0" y1="0" x2="29.5448" y2="0.517228" gradientUnits="userSpaceOnUse">
<stop stop-color="#1BACF4"/>
<stop offset="1" stop-color="#19EEB5"/>
</linearGradient>
</defs>
</svg>
