<svg width="74" height="73" viewBox="0 0 74 73" fill="none" xmlns="http://www.w3.org/2000/svg">
<path fill-rule="evenodd" clip-rule="evenodd" d="M11.9713 44.6203H16.9942C19.8406 44.6203 19.8406 40.1834 16.8268 40.1834H12.1387C9.54356 40.1834 9.45985 44.6203 11.9713 44.6203ZM30.6367 40.1422C28.0255 40.0374 25.2821 39.9272 25.2821 42.4437H25.1984C25.1984 42.5275 25.3658 43.2809 25.4495 43.3646C25.7007 43.9506 26.5378 44.6203 27.2075 44.6203H32.3979C34.9931 44.6203 35.1605 40.1834 32.1467 40.1834C31.6633 40.1834 31.1526 40.1629 30.6367 40.1422ZM11.9713 35.4116H16.9942C19.8406 35.4116 19.8406 30.9747 16.8268 30.9747H12.1387C9.54356 30.9747 9.45985 35.4116 11.9713 35.4116ZM30.6367 30.9335C28.0255 30.8287 25.2821 30.7185 25.2821 33.235H25.1984C25.1984 33.3188 25.3658 34.0722 25.4495 34.1559C25.7007 34.7419 26.5378 35.4116 27.2075 35.4116H32.3979C33.9048 35.4116 35.2442 33.1513 33.6536 31.5607C33.3188 31.2259 32.8165 30.9747 32.1467 30.9747C31.6633 30.9747 31.1526 30.9542 30.6367 30.9335ZM11.9713 26.2029H16.9942C19.8406 26.2029 19.8406 21.766 16.8268 21.766H12.1387C9.54356 21.766 9.45985 26.2029 11.9713 26.2029ZM30.6367 21.7248C28.0255 21.62 25.2821 21.5098 25.2821 24.0263H25.1984C25.1984 24.1101 25.3658 24.8635 25.4495 24.9472C25.5354 25.1189 25.5772 25.2026 25.6315 25.2772C25.683 25.3481 25.7457 25.4109 25.8681 25.5332C26.2029 25.8681 26.6215 26.2029 27.2075 26.2029H32.3979C34.9931 26.2029 35.1605 21.766 32.1467 21.766C31.6633 21.766 31.1526 21.7455 30.6367 21.7248ZM11.9713 16.9942H16.9942C17.5803 16.9942 18.1663 16.7431 18.5011 16.4082C19.7569 15.0688 18.9197 12.5573 16.8268 12.5573C16.3635 12.5573 15.8623 12.5384 15.3506 12.519C13.4583 12.4474 11.4226 12.3704 10.6319 13.227C9.54356 14.4828 10.2133 16.9942 11.9713 16.9942ZM30.6367 12.5161C28.0255 12.4113 25.2821 12.3011 25.2821 14.8176H25.1984C25.1984 14.9014 25.3658 15.6548 25.4495 15.7385C25.7007 16.3245 26.5378 16.9942 27.2075 16.9942H32.3979C33.9048 16.9942 35.2442 14.7339 33.6536 13.1433C33.3188 12.8085 32.8165 12.5573 32.1467 12.5573C31.6633 12.5573 31.1526 12.5368 30.6367 12.5161ZM0.0837155 69.9024V5.10664L0 5.02293C0 2.51146 2.42775 0 4.8555 0C7.09035 0 12.5734 0.928062 15.5238 1.42744C15.889 1.48925 16.2153 1.54449 16.492 1.59059C17.4523 1.7652 18.3671 1.89428 19.2957 2.02531C20.148 2.14558 21.012 2.26749 21.9335 2.42775L38.0905 4.93921C41.6903 5.4415 44.3692 6.61352 44.3692 11.1342V72.8325H31.2259V56.3405C31.2259 54.8336 30.3887 53.7453 29.5516 52.9082C28.7144 52.071 27.5424 51.485 25.9518 51.485H18.3337C15.4036 51.485 13.0596 53.829 13.0596 56.7591V72.7487H2.93004C1.42316 72.7487 0.0837155 71.4093 0.0837155 69.9024ZM61.4463 59.187H57.7628C54.0793 59.187 54.2467 63.7913 57.7628 63.7913H61.4463C65.046 63.7913 65.046 59.187 61.4463 59.187ZM61.4463 50.062H57.7628C54.0793 50.062 54.2467 54.6663 57.7628 54.6663H61.4463C65.046 54.6663 65.046 50.062 61.4463 50.062ZM61.4463 40.937H57.7628C54.0793 40.937 54.2467 45.5413 57.7628 45.5413H61.4463C65.046 45.5413 65.046 40.937 61.4463 40.937ZM47.2983 73V28.6308C47.2983 28.1366 47.7997 28.2806 48.298 28.4236C48.475 28.4744 48.6516 28.5251 48.8052 28.5471C50.1291 28.8229 51.5862 29.1229 53.1136 29.4374C58.5405 30.5549 64.8548 31.855 69.2318 32.9003C71.5758 33.4026 73.3338 35.4118 73.3338 37.6721V67.9771C73.3338 70.5723 70.9061 73 68.3109 73H47.2983Z" fill="url(#paint0_linear_2646_3109)"/>
<defs>
<linearGradient id="paint0_linear_2646_3109" x1="0" y1="0" x2="74.7113" y2="1.31392" gradientUnits="userSpaceOnUse">
<stop stop-color="#1BACF4"/>
<stop offset="1" stop-color="#19EEB5"/>
</linearGradient>
</defs>
</svg>
