<svg width="48" height="36" viewBox="0 0 48 36" fill="none" xmlns="http://www.w3.org/2000/svg">
<path fill-rule="evenodd" clip-rule="evenodd" d="M11.2246 2.49505V25.2178C11.2246 26.3762 12.5612 27.7128 13.7197 27.7128H23.6998V33.2376H20.7592C19.1553 33.2376 19.1553 35.9999 20.7592 35.9999H37.779C39.383 35.9999 39.383 33.2376 37.779 33.2376H34.8384V27.7128H44.8186C45.977 27.7128 47.3137 26.3762 47.3137 25.2178V2.49505C47.3137 1.33663 45.977 0 44.8186 0H13.8088C12.6503 0 11.3137 1.33663 11.3137 2.49505H11.2246Z" fill="#DFDFDF"/>
<path fill-rule="evenodd" clip-rule="evenodd" d="M6.95048 31.9901C6.95048 31.901 7.03959 31.5446 7.03959 31.4554C7.1287 31.1881 7.1287 31.1881 7.30692 31.0099C8.19801 30.0297 9.62375 30.7426 9.71286 31.8119C9.80196 32.9703 8.37622 33.7723 7.48514 32.8812C7.39603 32.7921 7.30692 32.703 7.21781 32.5248L7.03959 31.9901H6.95048ZM0 34.8416C0 35.3762 0.623761 36 1.15841 36H15.4158C15.9505 36 16.5742 35.3762 16.5742 34.8416V30.4753H14.2574C10.8713 30.4753 8.46533 28.0693 8.46533 24.6832V16.6634H0V34.8416Z" fill="#DFDFDF"/>
<path fill-rule="evenodd" clip-rule="evenodd" d="M0 4.00995V8.37628H8.46533V2.85153H1.15841C0.623761 2.85153 0 3.47529 0 4.00995Z" fill="#DFDFDF"/>
<path fill-rule="evenodd" clip-rule="evenodd" d="M0 13.9015H8.46533V11.1391H0V13.9015Z" fill="#DFDFDF"/>
</svg>
