<svg width="49" height="36" viewBox="0 0 49 36" fill="none" xmlns="http://www.w3.org/2000/svg">
<path d="M47.0608 16.9115C44.9239 7.10602 41.7079 1.87246 36.9373 0.442894C35.9345 0.144351 34.8943 -0.00479811 33.8492 0.000117655C32.4679 0.000117655 31.2649 0.341659 29.9924 0.703652C28.459 1.14029 26.717 1.63624 24.177 1.63624C21.6371 1.63624 19.8941 1.14132 18.3576 0.704674C17.0841 0.341659 15.8821 0.000117655 14.5048 0.000117655C13.4242 -0.0036854 12.3483 0.144989 11.308 0.441872C6.56255 1.8653 3.34855 7.09681 1.18037 16.9054C-1.15103 27.4604 -0.00346635 34.1246 4.39839 35.6707C5.00178 35.8866 5.63664 35.9979 6.27641 36C9.29192 36 11.71 33.4507 13.3623 31.3636C15.2292 29.0015 17.4145 27.803 24.177 27.803C30.2171 27.803 32.7168 28.6344 34.8759 31.3636C36.233 33.0795 37.5156 34.28 38.7951 35.0357C40.4968 36.0399 42.1975 36.2628 43.8489 35.6871C46.4503 34.7862 47.9414 32.4046 48.282 28.6068C48.5409 25.6945 48.1419 21.869 47.0608 16.9115ZM19.3409 16.3614H16.1169V19.6336C16.1169 20.0676 15.947 20.4837 15.6447 20.7905C15.3424 21.0974 14.9324 21.2698 14.5048 21.2698C14.0773 21.2698 13.6673 21.0974 13.365 20.7905C13.0626 20.4837 12.8928 20.0676 12.8928 19.6336V16.3614H9.66873C9.24119 16.3614 8.83117 16.189 8.52885 15.8822C8.22654 15.5753 8.0567 15.1592 8.0567 14.7253C8.0567 14.2913 8.22654 13.8752 8.52885 13.5683C8.83117 13.2615 9.24119 13.0891 9.66873 13.0891H12.8928V9.81687C12.8928 9.38295 13.0626 8.96679 13.365 8.65996C13.6673 8.35312 14.0773 8.18075 14.5048 8.18075C14.9324 8.18075 15.3424 8.35312 15.6447 8.65996C15.947 8.96679 16.1169 9.38295 16.1169 9.81687V13.0891H19.3409C19.7685 13.0891 20.1785 13.2615 20.4808 13.5683C20.7831 13.8752 20.953 14.2913 20.953 14.7253C20.953 15.1592 20.7831 15.5753 20.4808 15.8822C20.1785 16.189 19.7685 16.3614 19.3409 16.3614ZM27.8041 16.7704C27.4056 16.7704 27.016 16.6505 26.6846 16.4257C26.3532 16.201 26.095 15.8816 25.9424 15.5079C25.7899 15.1342 25.75 14.723 25.8278 14.3263C25.9055 13.9295 26.0974 13.5651 26.3793 13.2791C26.6611 12.9931 27.0201 12.7983 27.411 12.7194C27.8019 12.6405 28.207 12.681 28.5752 12.8358C28.9434 12.9906 29.2581 13.2527 29.4796 13.589C29.701 13.9253 29.8191 14.3208 29.8191 14.7253C29.8191 15.2677 29.6068 15.7879 29.229 16.1714C28.8511 16.5549 28.3385 16.7704 27.8041 16.7704V16.7704ZM32.2372 21.2698C31.8384 21.2698 31.4487 21.1497 31.1172 20.9247C30.7857 20.6998 30.5274 20.3801 30.3751 20.0061C30.2227 19.6321 30.1831 19.2206 30.2612 18.8237C30.3394 18.4269 30.5318 18.0625 30.8141 17.7766C31.0964 17.4908 31.456 17.2964 31.8472 17.2181C32.2384 17.1398 32.6437 17.181 33.0118 17.3366C33.3799 17.4922 33.6943 17.7551 33.9151 18.0921C34.1359 18.4291 34.2532 18.825 34.2522 19.2297C34.2509 19.7712 34.038 20.2901 33.6603 20.6725C33.2825 21.055 32.7707 21.2698 32.2372 21.2698V21.2698ZM32.2372 12.2711C31.8387 12.2711 31.4491 12.1511 31.1177 11.9264C30.7863 11.7017 30.5281 11.3823 30.3755 11.0086C30.223 10.6348 30.1831 10.2236 30.2609 9.82691C30.3386 9.43019 30.5305 9.06578 30.8123 8.77976C31.0942 8.49374 31.4532 8.29896 31.8441 8.22004C32.235 8.14113 32.6401 8.18163 33.0083 8.33643C33.3765 8.49122 33.6912 8.75335 33.9126 9.08968C34.1341 9.426 34.2522 9.82141 34.2522 10.2259C34.2522 10.7683 34.0399 11.2885 33.662 11.672C33.2842 12.0556 32.7716 12.2711 32.2372 12.2711ZM36.6703 16.7704C36.2717 16.7704 35.8822 16.6505 35.5508 16.4257C35.2194 16.201 34.9611 15.8816 34.8086 15.5079C34.6561 15.1342 34.6162 14.723 34.694 14.3263C34.7717 13.9295 34.9636 13.5651 35.2454 13.2791C35.5272 12.9931 35.8863 12.7983 36.2772 12.7194C36.6681 12.6405 37.0732 12.681 37.4414 12.8358C37.8096 12.9906 38.1243 13.2527 38.3457 13.589C38.5671 13.9253 38.6853 14.3208 38.6853 14.7253C38.6853 15.2677 38.473 15.7879 38.0951 16.1714C37.7172 16.5549 37.2047 16.7704 36.6703 16.7704V16.7704Z" fill="#DFDFDF"/>
</svg>
