<svg width="16" height="16" viewBox="0 0 16 16" fill="none" xmlns="http://www.w3.org/2000/svg">
<path fill-rule="evenodd" clip-rule="evenodd" d="M4.65622 1.00335C4.92232 0.542446 5.36062 0.206127 5.87469 0.0683817C6.38877 -0.069364 6.93651 0.00274652 7.39741 0.268851L8.18734 0.724918C8.64636 0.989584 9.19143 1.06196 9.70362 0.926266L10.5758 0.692561C10.8311 0.623393 11.0975 0.605367 11.3598 0.639519C11.622 0.673671 11.8749 0.759328 12.104 0.891564C12.333 1.0238 12.5337 1.20001 12.6944 1.41005C12.8551 1.6201 12.9727 1.85984 13.0404 2.11549L13.2741 2.98769C13.4127 3.4991 13.7479 3.93496 14.2066 4.20015L14.9965 4.65622C15.4575 4.92232 15.7938 5.36062 15.9315 5.87469C16.0693 6.38877 15.9972 6.93651 15.7311 7.39741L15.275 8.18734C15.0103 8.64637 14.9379 9.19143 15.0736 9.70362L15.3073 10.5758C15.3765 10.8311 15.3945 11.0975 15.3604 11.3598C15.3262 11.622 15.2406 11.8749 15.1083 12.104C14.9761 12.333 14.7999 12.5337 14.5898 12.6944C14.3798 12.8551 14.1401 12.9727 13.8844 13.0404L13.0122 13.2741C12.5008 13.4127 12.0649 13.7479 11.7998 14.2066L11.3437 14.9965C11.0776 15.4575 10.6393 15.7938 10.1252 15.9315C9.61113 16.0693 9.0634 15.9972 8.60249 15.7311L7.81256 15.275C7.35354 15.0103 6.80847 14.9379 6.29628 15.0736L5.42408 15.3073C5.16882 15.3765 4.90239 15.3945 4.64014 15.3604C4.37788 15.3262 4.12496 15.2406 3.89592 15.1083C3.66688 14.9761 3.46624 14.7999 3.30554 14.5898C3.14483 14.3798 3.02723 14.1401 2.9595 13.8844L2.72579 13.0122C2.58722 12.5008 2.252 12.0649 1.79328 11.7998L1.00335 11.3437C0.542446 11.0776 0.206127 10.6393 0.0683813 10.1252C-0.0693642 9.61114 0.00274735 9.0634 0.268852 8.60249L0.724918 7.81256C0.989585 7.35354 1.06196 6.80847 0.926266 6.29628L0.692561 5.42408C0.623393 5.16882 0.605368 4.90239 0.63952 4.64014C0.673672 4.37788 0.759328 4.12496 0.891564 3.89592C1.0238 3.66688 1.20001 3.46624 1.41005 3.30554C1.6201 3.14483 1.85984 3.02723 2.11549 2.9595L2.98769 2.72579C3.4991 2.58722 3.93496 2.252 4.20015 1.79328L4.65622 1.00335ZM11.2993 4.68522C11.6137 4.99958 11.6137 5.50926 11.2993 5.82362L5.82651 11.2964C5.51215 11.6108 5.00247 11.6108 4.68811 11.2964C4.37375 10.9821 4.37375 10.4724 4.68811 10.158L10.1609 4.68522C10.4753 4.37086 10.985 4.37086 11.2993 4.68522ZM5.75506 6.76716C6.31257 6.76716 6.76453 6.31521 6.76453 5.7577C6.76453 5.20018 6.31257 4.74823 5.75506 4.74823C5.19755 4.74823 4.74559 5.20018 4.74559 5.7577C4.74559 6.31521 5.19755 6.76716 5.75506 6.76716ZM10.2433 11.2521C10.8009 11.2521 11.2528 10.8001 11.2528 10.2426C11.2528 9.68508 10.8009 9.23312 10.2433 9.23312C9.68583 9.23312 9.23387 9.68508 9.23387 10.2426C9.23387 10.8001 9.68583 11.2521 10.2433 11.2521Z" fill="#0E9BE1"/>
</svg>
