<svg width="14" height="14" viewBox="0 0 14 14" fill="none" xmlns="http://www.w3.org/2000/svg">
<path d="M4.01752 1.25994H3.87899C3.95518 1.25994 4.01752 1.19694 4.01752 1.11995V1.25994H9.28186V1.11995C9.28186 1.19694 9.3442 1.25994 9.4204 1.25994H9.28186V2.51988H10.5287V1.11995C10.5287 0.502227 10.0317 0 9.4204 0H3.87899C3.2677 0 2.7707 0.502227 2.7707 1.11995V2.51988H4.01752V1.25994ZM12.7452 2.51988H0.554141C0.247632 2.51988 0 2.77012 0 3.07986V3.63983C0 3.71683 0.0623409 3.77982 0.138535 3.77982H1.18448L1.6122 12.9319C1.63991 13.5286 2.12825 13.9994 2.71875 13.9994H10.5806C11.1729 13.9994 11.6595 13.5304 11.6872 12.9319L12.1149 3.77982H13.1608C13.237 3.77982 13.2994 3.71683 13.2994 3.63983V3.07986C13.2994 2.77012 13.0518 2.51988 12.7452 2.51988ZM10.4473 12.7394H2.85209L2.43303 3.77982H10.8664L10.4473 12.7394Z" fill="white"/>
</svg>
