<svg width="15" height="17" viewBox="0 0 15 17" fill="none" xmlns="http://www.w3.org/2000/svg">
<path d="M14.0556 3.0924H11.6111V1.4924C11.6111 0.786402 11.063 0.212402 10.3889 0.212402H4.27778C3.60365 0.212402 3.05556 0.786402 3.05556 1.4924V3.0924H0.611111C0.27309 3.0924 0 3.3784 0 3.7324V4.3724C0 4.4604 0.06875 4.5324 0.152778 4.5324H1.30625L1.77795 14.9924C1.80851 15.6744 2.34705 16.2124 2.99826 16.2124H11.6684C12.3215 16.2124 12.8582 15.6764 12.8887 14.9924L13.3604 4.5324H14.5139C14.5979 4.5324 14.6667 4.4604 14.6667 4.3724V3.7324C14.6667 3.3784 14.3936 3.0924 14.0556 3.0924ZM10.2361 3.0924H4.43056V1.6524H10.2361V3.0924Z" fill="#DFDFDF"/>
</svg>
