<svg width="80" height="80" viewBox="0 0 80 80" fill="none" xmlns="http://www.w3.org/2000/svg">
<circle cx="40" cy="40" r="39.4866" stroke="url(#paint0_linear_2494_2716)" stroke-width="1.02671"/>
<path fill-rule="evenodd" clip-rule="evenodd" d="M27.1672 30.1638H30.259C31.8287 30.3065 32.5422 31.4957 32.4471 32.3043C32.4947 32.8751 32.352 33.5789 31.1628 34.7681C32.1617 35.6718 32.3995 35.9642 32.4471 36.9155C32.2568 37.8669 32.1101 38.2347 31.1588 39.0909C32.1577 39.7569 32.4947 40.5061 32.4471 41.2196C32.3814 41.7795 32.1197 42.2573 31.7549 42.6418L30.0203 43.6415H24.1048C24.0473 43.9932 23.993 44.3217 23.9422 44.6284C23.4927 47.3455 23.3249 48.3596 23.738 48.7357C23.984 48.9597 24.4359 48.9575 25.1569 48.9539C25.2515 48.9535 25.3508 48.953 25.4548 48.953C26.543 48.953 27.3289 48.9674 27.8955 48.9777C28.9426 48.9969 29.2404 49.0024 29.3118 48.8779C29.3402 48.8284 29.3328 48.7584 29.3225 48.6606C29.3158 48.5964 29.3077 48.5201 29.3077 48.4297C29.0047 47.0515 29.4089 44.7858 31.238 43.0825C31.4131 42.961 31.5779 42.8236 31.7265 42.6712C34.8408 41.0299 36.5095 41.4932 38.1076 42.1982C40.4383 43.3398 41.9129 45.4328 41.9129 48.0965C41.9129 48.2762 41.8917 48.371 41.8693 48.4711C41.8443 48.5831 41.8178 48.7016 41.8178 48.9527C41.9793 48.9527 42.1322 48.9532 42.277 48.9537H42.2775H42.2781C43.5028 48.9576 44.146 48.9596 44.5477 48.6492C44.9919 48.3059 45.1409 47.5804 45.4545 46.0524L45.4545 46.0522L45.4546 46.0515C45.5637 45.5201 45.6927 44.8916 45.861 44.1485C46.0988 43.1258 46.301 42.1268 46.5031 41.1279C46.7053 40.129 46.9074 39.1301 47.1453 38.1075L49.0955 29.1649C49.1906 28.6892 49.2858 28.2135 49.0004 27.7854C48.7625 27.4525 48.3344 27.1195 47.8112 27.1195H28.832C26.8921 27.1195 26.6084 28.17 26.3809 30.1638L27.1672 30.1638ZM31.7265 42.6712L31.7149 42.6774L31.7375 42.6599L31.7265 42.6712ZM48.5722 48.9529H49.2381L49.238 48.7562C49.2365 46.9666 49.2354 45.8029 50.4749 44.1962C50.7603 43.8157 50.903 43.673 51.1884 43.3876L51.1884 43.3876C51.6641 42.9119 52.3776 42.4362 53.0435 42.1508C53.424 41.9606 53.757 41.8654 54.1851 41.7703C55.6121 41.4849 56.8489 41.58 58.1807 42.1984C59.1796 42.6265 60.2737 43.5303 60.8445 44.4816C61.7007 45.861 61.8434 46.7173 61.8434 48.4772C61.8808 48.4697 61.91 48.4646 61.9331 48.4605C61.9828 48.4518 62.0048 48.448 62.021 48.4362C62.0339 48.4268 62.0431 48.4125 62.0597 48.3867C62.0744 48.3639 62.0949 48.3321 62.1288 48.287C62.3446 48.028 62.7563 45.9277 62.9017 45.1859C62.9166 45.1103 62.9286 45.0488 62.9374 45.0048C63.03 44.5562 63.1258 44.1374 63.2168 43.7395C63.7336 41.4798 64.0961 39.8946 62.8423 37.3466C61.5104 34.6353 58.5613 32.4948 55.0889 32.4948H51.1884C50.2846 32.4948 49.9041 33.1607 49.7614 33.8742L48.2868 40.819C48.2684 40.902 48.2396 41.0298 48.2028 41.1933C47.8604 42.7156 46.8215 47.3342 46.9074 47.7637C47.0976 48.5248 47.6684 48.9529 48.5722 48.9529ZM59.7487 49.8093C58.94 51.6168 57.4655 52.5206 55.325 52.5206C52.4234 52.5206 49.9975 49.0958 51.472 46.0039C51.7099 45.5282 51.9953 45.1001 52.3758 44.7196C54.2785 42.9596 56.9898 42.9596 58.7973 44.7672C60.0817 46.0515 60.5573 48.0017 59.7487 49.8093ZM31.0684 47.7905C31.076 49.6811 31.8848 51.2401 33.5418 52.0923C36.4434 53.5193 40.1536 51.4739 40.1536 48.0491C40.1536 43.8632 35.1591 42.0557 32.4954 44.7194C31.7854 45.4293 31.0755 46.4218 31.0684 47.7905ZM31.0684 47.7905L31.0684 47.8113V47.7637L31.0684 47.7905ZM17.7486 42.1091C17.0351 42.1091 16.3691 41.7286 16.3691 41.0626V41.0151C16.3691 40.6821 17.1302 40.2064 17.7486 40.2064H29.4025C31.4478 40.2064 31.4003 42.1091 29.4025 42.1091H17.7486ZM19.1289 36.9451C19.1289 37.4208 19.7473 37.8965 20.4132 37.8965H29.4509C31.306 37.8965 31.3536 35.9938 29.4509 35.9938H20.4132C19.7473 35.9938 19.1289 36.4694 19.1289 36.9451ZM29.5452 33.4934H23.0761C21.3161 33.4934 21.3161 31.5907 23.0761 31.5907H29.5452C31.3052 31.5907 31.3052 33.4934 29.5452 33.4934ZM52.2338 34.3595L51.2832 38.9749H61.0268C61.0268 38.9749 60.6216 37.3661 59.8386 36.3662C58.9431 35.2227 56.2738 34.3595 56.2738 34.3595H52.2338Z" fill="url(#paint1_linear_2494_2716)"/>
<defs>
<linearGradient id="paint0_linear_2494_2716" x1="0" y1="0" x2="81.5029" y2="1.42684" gradientUnits="userSpaceOnUse">
<stop stop-color="#1BACF4"/>
<stop offset="1" stop-color="#19EEB5"/>
</linearGradient>
<linearGradient id="paint1_linear_2494_2716" x1="16.3691" y1="27.1195" x2="64.5462" y2="28.6889" gradientUnits="userSpaceOnUse">
<stop stop-color="#1BACF4"/>
<stop offset="1" stop-color="#19EEB5"/>
</linearGradient>
</defs>
</svg>
