<svg width="13" height="17" viewBox="0 0 13 17" fill="none" xmlns="http://www.w3.org/2000/svg">
<path d="M11.8752 14.6078H0.794785C0.584877 14.6078 0.383567 14.6923 0.23514 14.8428C0.0867122 14.9932 0.00332646 15.1973 0.00332646 15.4101C0.00332646 15.6229 0.0867122 15.8269 0.23514 15.9774C0.383567 16.1279 0.584877 16.2124 0.794785 16.2124H11.8752C12.0851 16.2124 12.2864 16.1279 12.4349 15.9774C12.5833 15.8269 12.6667 15.6229 12.6667 15.4101C12.6667 15.1973 12.5833 14.9932 12.4349 14.8428C12.2864 14.6923 12.0851 14.6078 11.8752 14.6078ZM0.794785 13.0031H0.866017L4.1664 12.6983C4.52794 12.6617 4.86608 12.5003 5.12406 12.2409L12.2472 5.02008C12.5237 4.724 12.6731 4.32889 12.6627 3.92133C12.6523 3.51378 12.483 3.12702 12.1918 2.8458L10.0232 0.647451C9.74016 0.37795 9.36928 0.223313 8.9811 0.212958C8.59293 0.202603 8.21454 0.337251 7.91791 0.591289L0.794785 7.81214C0.538959 8.07367 0.379669 8.41645 0.343654 8.78295L0.00332646 12.1286C-0.00733531 12.2461 0.00770666 12.3646 0.04738 12.4755C0.0870534 12.5865 0.150381 12.6872 0.232849 12.7705C0.306803 12.8448 0.39451 12.9037 0.490939 12.9436C0.587368 12.9835 0.690624 13.0037 0.794785 13.0031ZM8.92307 1.7707L11.0837 3.96102L9.50083 5.52554L7.37972 3.37533L8.92307 1.7707Z" fill="#DFDFDF"/>
</svg>
