<svg width="80" height="80" viewBox="0 0 80 80" fill="none" xmlns="http://www.w3.org/2000/svg">
<circle cx="40" cy="40" r="39.4866" stroke="url(#paint0_linear_2494_2702)" stroke-width="1.02671"/>
<path fill-rule="evenodd" clip-rule="evenodd" d="M23.1621 30.4933V35.4397C23.1621 43.9711 27.0557 51.4805 33.0135 56.1538C34.0992 57.0081 38.2752 59.7856 39.8701 59.7856C41.1944 59.7856 45.5772 56.9496 46.5357 56.1967C52.5014 51.5039 56.4189 43.9828 56.4189 35.4397V30.4933C56.4189 29.2255 53.7065 28.1059 52.7401 27.5324C50.8111 26.3934 40.5303 20.2142 39.8701 20.2142C38.8996 20.2142 32.4686 24.2361 31.1363 25.0202C29.7045 25.8628 28.3284 26.6586 26.8927 27.5051C25.9222 28.0747 23.1661 29.2333 23.1661 30.4972L23.1621 30.4933ZM24.2717 31.1252V35.744C24.2717 43.7058 27.9068 50.712 33.4669 55.0771C34.481 55.8729 38.3786 58.4671 39.8661 58.4671C41.103 58.4671 45.1915 55.8183 46.0863 55.1162C51.6543 50.7393 55.3133 43.7136 55.3133 35.744V31.1252C55.3133 29.9432 52.7838 28.8978 51.881 28.3633C50.0794 27.2984 40.4825 21.5328 39.8701 21.5328C38.9672 21.5328 32.9618 25.2894 31.7209 26.0189C30.3846 26.8069 29.1 27.548 27.7597 28.336C26.8529 28.8705 24.2797 29.951 24.2797 31.1252H24.2717ZM37.4877 44.8488C36.3503 44.8488 33.7651 41.8334 33.7651 41.2638C33.7651 40.6553 34.306 40.1365 34.9145 40.1365C35.8492 40.1365 36.8633 41.966 37.4877 42.1298C38.6849 41.3458 43.704 35.5528 44.5312 35.5528C45.2949 35.5528 45.8159 35.9195 45.8159 36.6802C45.8159 37.4526 42.5308 40.3315 41.8705 40.9791C41.1666 41.6695 40.5104 42.3132 39.8064 43.0037C39.3172 43.4835 38.2832 44.8449 37.4877 44.8449V44.8488ZM25.5007 31.8313V36.0834C25.5007 43.4133 28.8454 49.8655 33.964 53.8835C34.8986 54.6168 38.486 57.0042 39.8541 57.0042C40.9916 57.0042 44.7579 54.5661 45.5812 53.9186C50.7077 49.8889 54.0764 43.4211 54.0764 36.0795V31.8274C54.0764 30.739 51.7458 29.7755 50.9146 29.284C49.2561 28.3048 40.4229 22.9956 39.8541 22.9956C39.0229 22.9956 33.4947 26.4519 32.3493 27.1267C31.1204 27.8523 29.9352 28.535 28.7023 29.2606C27.8671 29.7521 25.4967 30.7468 25.4967 31.8313H25.5007Z" fill="url(#paint1_linear_2494_2702)"/>
<defs>
<linearGradient id="paint0_linear_2494_2702" x1="0" y1="0" x2="81.5029" y2="1.42684" gradientUnits="userSpaceOnUse">
<stop stop-color="#1BACF4"/>
<stop offset="1" stop-color="#19EEB5"/>
</linearGradient>
<linearGradient id="paint1_linear_2494_2702" x1="23.1621" y1="20.2142" x2="57.0467" y2="20.7128" gradientUnits="userSpaceOnUse">
<stop stop-color="#1BACF4"/>
<stop offset="1" stop-color="#19EEB5"/>
</linearGradient>
</defs>
</svg>
