<svg width="12" height="14" viewBox="0 0 12 14" fill="none" xmlns="http://www.w3.org/2000/svg">
<path d="M10.4997 12.5954H0.702725C0.517131 12.5954 0.339138 12.6693 0.207903 12.801C0.0766683 12.9326 0.00294116 13.1112 0.00294116 13.2974C0.00294116 13.4835 0.0766683 13.6621 0.207903 13.7937C0.339138 13.9254 0.517131 13.9994 0.702725 13.9994H10.4997C10.6853 13.9994 10.8633 13.9254 10.9945 13.7937C11.1258 13.6621 11.1995 13.4835 11.1995 13.2974C11.1995 13.1112 11.1258 12.9326 10.9945 12.801C10.8633 12.6693 10.6853 12.5954 10.4997 12.5954ZM0.702725 11.1914H0.765706L3.6838 10.9246C4.00346 10.8927 4.30244 10.7514 4.53054 10.5245L10.8286 4.20652C11.073 3.94746 11.2051 3.60176 11.196 3.24517C11.1868 2.88857 11.0371 2.55017 10.7796 2.30412L8.8622 0.38065C8.61195 0.144847 8.28403 0.00954681 7.94082 0.000486312C7.5976 -0.00857418 7.26304 0.109238 7.00078 0.331511L0.702725 6.64946C0.476531 6.87829 0.335691 7.17821 0.303848 7.49888L0.00294116 10.4262C-0.00648566 10.529 0.00681399 10.6327 0.041892 10.7297C0.0769699 10.8268 0.132962 10.9149 0.205878 10.9878C0.271266 11.0529 0.348814 11.1043 0.434073 11.1393C0.519333 11.1742 0.610629 11.1919 0.702725 11.1914ZM7.8895 1.36344L9.79991 3.27989L8.40035 4.64878L6.52493 2.76743L7.8895 1.36344ZM1.66143 7.61822L5.60121 3.69407L7.49063 5.58945L3.57184 9.52062L1.47249 9.71718L1.66143 7.61822Z" fill="#DFDFDF"/>
</svg>
