<svg width="35" height="32" viewBox="0 0 35 32" fill="none" xmlns="http://www.w3.org/2000/svg">
<path fill-rule="evenodd" clip-rule="evenodd" d="M4.53514 24.0094C4.53514 23.2176 5.18302 22.8577 6.04686 22.8577H10.582C12.6696 22.8577 12.3097 25.0892 11.0139 25.0892H5.61494C4.96706 25.0892 4.53514 24.5853 4.53514 24.0094ZM11.1579 20.5541H5.54295C4.31918 20.5541 4.31918 18.3945 5.54295 18.3945H11.0859C12.5976 18.3945 12.3817 20.5541 11.2299 20.5541H11.1579ZM16.7008 17.2427C16.7008 14.0753 19.1484 11.6998 22.1718 11.5558C22.3158 11.5558 22.3878 11.5558 22.4598 11.5558C22.4598 11.5558 22.6757 11.5558 22.7477 11.5558C22.9637 11.5558 23.2516 11.5558 23.3956 11.6278C23.8275 11.6998 24.1874 11.7718 24.5474 11.9157C26.491 12.7076 28.0747 14.7232 28.0747 16.7388C28.0747 18.0346 28.0747 18.5385 27.4988 19.6903C27.1389 20.4101 26.8509 20.7701 26.347 21.274C24.5474 23.0736 21.5239 23.3616 19.2924 21.8499C18.5725 21.3459 17.7087 20.4101 17.3487 19.5463C17.0608 18.8984 16.8448 18.0346 16.8448 17.2427H16.7008ZM15.1891 13.7874C12.0937 13.7874 9.07029 13.7874 5.97487 13.7874C3.67131 13.7874 1.94363 13.4994 0.575891 15.2991C0.359932 15.587 0 16.4509 0 17.0268V26.601C0 27.8247 1.15178 29.2645 2.30357 29.5524C3.1674 29.7684 3.52733 29.7684 4.46316 29.7684C4.46316 30.3442 4.39117 31.1361 4.67912 31.496C5.25501 32.3599 6.76672 32.0719 6.76672 30.9201V29.7684H28.0027C28.0027 30.5602 27.7868 31.9999 29.0825 31.9999C30.3783 31.9999 30.3063 30.7042 30.3063 29.7684C31.2421 29.7684 31.602 29.7684 32.4659 29.5524C32.8258 29.4804 32.7538 29.4084 33.0418 29.2645C33.6177 28.9765 34.0496 28.4726 34.3375 27.8967C34.4815 27.5368 34.7694 27.0329 34.7694 26.529V16.9548C34.7694 16.4509 34.4815 15.731 34.2655 15.3711C34.1935 15.1551 34.1935 15.2271 34.0496 15.0831C33.9056 14.9392 33.9056 14.9392 33.8336 14.7952C33.7616 14.7232 33.6177 14.6512 33.5457 14.5792C33.4017 14.4353 33.4017 14.4353 33.2577 14.3633C32.1059 13.6434 31.3141 13.7874 29.5144 13.7874C29.2985 13.4994 29.2265 13.2115 29.0105 12.9235C28.5786 12.2757 28.5066 12.2757 28.0747 11.6998L26.8509 10.692C25.5552 9.82812 24.1154 9.32422 22.3878 9.32422C20.5881 9.32422 19.0764 9.90011 17.9246 10.692C16.5569 11.6278 15.909 12.4916 15.1891 13.8594V13.7874Z" fill="#DFDFDF"/>
<path fill-rule="evenodd" clip-rule="evenodd" d="M9.86328 5.86863C9.86328 6.51651 10.2952 7.02041 11.0871 7.02041C11.6629 7.02041 12.1668 6.37253 12.8147 5.79664C16.1981 2.91719 21.2371 1.69342 25.7723 2.77321C28.2198 3.42109 29.7315 4.21294 31.6752 5.72465C32.611 6.44452 32.683 6.94842 33.6908 6.94842C34.3387 6.94842 35.2745 5.79664 34.1227 4.78883C29.6595 0.757593 24.0446 -0.970081 18.1417 0.541634C16.9899 0.829579 15.7662 1.2615 14.8303 1.7654C13.8225 2.26931 12.8867 2.8452 12.0229 3.49308C11.375 3.99698 9.86328 5.07678 9.86328 5.86863Z" fill="#DFDFDF"/>
<path fill-rule="evenodd" clip-rule="evenodd" d="M13.0993 9.10796C13.0993 10.0438 14.1791 10.6197 14.899 10.1158C15.2589 9.89981 15.4749 9.61187 15.7628 9.32392L16.7706 8.60406C18.1384 7.74022 20.082 7.02035 21.8097 7.02035C24.1133 7.02035 25.7689 7.3083 27.7126 8.60406C28.0725 8.82001 28.3605 9.03597 28.6484 9.25193C29.3683 9.82782 29.8722 10.5477 30.664 10.2597C31.3119 10.0438 31.3839 9.53988 31.3839 9.03597C31.3839 8.17214 28.5044 6.44446 27.8565 6.08453C27.2087 5.7246 26.3448 5.36467 25.553 5.14871C23.1774 4.57282 21.3058 4.57282 18.8582 5.14871C18.4263 5.22069 18.0664 5.43665 17.6345 5.58063C16.1947 6.08453 14.755 7.09234 13.6752 8.10015C13.4593 8.31611 13.0273 8.60406 13.0273 9.10796H13.0993Z" fill="#DFDFDF"/>
<path fill-rule="evenodd" clip-rule="evenodd" d="M18.8594 17.0985C18.8594 17.7464 19.0753 18.6102 19.5073 19.1142C21.2349 21.3457 24.1864 20.9138 25.4101 18.6102C26.274 16.9546 25.4821 14.9389 23.6825 14.0751C21.4509 12.9953 18.8594 14.723 18.8594 17.1705V17.0985Z" fill="#DFDFDF"/>
</svg>
