<svg width="51" height="51" viewBox="0 0 51 51" fill="none" xmlns="http://www.w3.org/2000/svg">
<path d="M12.8036 35.5179V36.0179L13.2036 35.7179C13.8138 35.2602 14.5752 34.6511 15.3322 34.0455L15.3347 34.0434C16.0904 33.4389 16.8417 32.8379 17.4433 32.3863C17.6362 32.2704 17.7935 32.1732 17.93 32.0888C18.0672 32.0041 18.1833 31.9323 18.2934 31.8677C18.5049 31.7435 18.6557 31.6697 18.8174 31.6212C19.1526 31.5206 19.5611 31.5179 20.6429 31.5179H36.4286C37.213 31.5179 37.818 31.3623 38.2264 30.9994C38.6415 30.6303 38.8036 30.0925 38.8036 29.4464V5.46429C38.8036 4.95646 38.6351 4.44638 38.3335 4.05857C38.0298 3.66805 37.5821 3.39286 37.0357 3.39286H6.07143C5.55926 3.39286 5.11303 3.56467 4.79421 3.88349C4.47539 4.20231 4.30357 4.64855 4.30357 5.16071V29.4464C4.30357 30.1109 4.5142 30.6022 4.90044 30.943C5.27616 31.2746 5.78809 31.4366 6.33964 31.5153C6.8937 31.5945 7.51921 31.5937 8.14708 31.5747C8.36119 31.5682 8.57473 31.5596 8.78679 31.5511C9.20522 31.5344 9.61788 31.5179 10.0179 31.5179C10.7907 31.5179 11.2822 31.5199 11.6597 31.6229C12.0082 31.7179 12.2652 31.9021 12.542 32.3172L12.5557 32.3378L12.5732 32.3554C12.6803 32.4625 12.7592 32.6219 12.81 32.8419C12.8607 33.0619 12.8795 33.325 12.8795 33.6205C12.8795 33.9154 12.861 34.2304 12.8419 34.5545L12.8417 34.5586C12.8229 34.8783 12.8036 35.2069 12.8036 35.5179ZM39.6411 49.6089L39.6285 49.5964L39.6143 49.5857L32.3286 44.1214L32.3105 44.1079L32.2904 44.0978L32.2662 44.0857C31.9853 43.9452 31.8054 43.8552 31.5825 43.8107C31.3682 43.7678 31.1178 43.7678 30.6957 43.7679H30.6607H21.5696C21.0442 43.6982 20.6765 43.4373 20.4429 43.0871C20.2034 42.7278 20.0987 42.2634 20.1332 41.7975C20.2029 40.8571 20.8156 40.0179 21.8571 40.0179H32.4821C33.0115 40.0179 33.5661 40.285 34.1269 40.6589C34.404 40.8436 34.6732 41.0477 34.9345 41.2472L34.9801 41.2821C35.2227 41.4675 35.4608 41.6493 35.6828 41.7973L35.6957 41.8059L35.7096 41.8129C36.2761 42.0961 36.554 42.3718 37.1625 42.9804L37.1912 43.009L37.2275 43.0272C37.4892 43.158 37.6898 43.3558 37.9214 43.5875L37.9319 43.598C38.1531 43.8192 38.4053 44.0714 38.7453 44.2415L39.1071 44.4224V44.0179C39.1071 43.7863 39.1008 43.5553 39.0945 43.3269C39.0791 42.7729 39.0643 42.2346 39.142 41.7421C39.2479 41.0717 39.5164 40.5627 40.1643 40.3036L40.1739 40.2997L40.1832 40.295C40.219 40.2771 40.3064 40.2525 40.4624 40.2322C40.6106 40.2129 40.7974 40.2002 41.0139 40.1932C41.4466 40.1793 41.9807 40.1885 42.5293 40.2074C43.0253 40.2245 43.5378 40.2499 43.9918 40.2724C44.5286 40.2989 44.9835 40.3214 45.2321 40.3214C45.8782 40.3214 46.3997 40.1599 46.7628 39.8422C47.1304 39.5206 47.3036 39.0671 47.3036 38.5536V13.9643C47.3036 13.3829 47.1355 12.9494 46.8173 12.6489C46.5067 12.3555 46.0862 12.2209 45.6454 12.1608C45.2032 12.1005 44.7088 12.1113 44.2238 12.1351C44.0853 12.1419 43.9479 12.1497 43.812 12.1574C43.4636 12.1772 43.1253 12.1964 42.8036 12.1964H42.5536V12.4464V30.0536C42.5536 32.9431 40.2429 35.2739 37.3267 35.5714H37.322H37.3156H37.309H37.3021H37.2948H37.2873H37.2796H37.2715H37.2632H37.2546H37.2457H37.2365H37.227H37.2173H37.2073H37.197H37.1865H37.1756H37.1646H37.1532H37.1416H37.1297H37.1175H37.1051H37.0924H37.0794H37.0662H37.0528H37.039H37.025H37.0108H36.9963H36.9815H36.9665H36.9513H36.9357H36.92H36.904H36.8877H36.8712H36.8544H36.8374H36.8202H36.8027H36.785H36.767H36.7488H36.7303H36.7116H36.6927H36.6735H36.6541H36.6345H36.6147H36.5946H36.5742H36.5537H36.5329H36.5119H36.4907H36.4692H36.4475H36.4256H36.4035H36.3812H36.3586H36.3358H36.3128H36.2896H36.2662H36.2426H36.2187H36.1946H36.1704H36.1459H36.1212H36.0963H36.0712H36.0459H36.0204H35.9947H35.9687H35.9426H35.9163H35.8898H35.8631H35.8362H35.809H35.7817H35.7543H35.7266H35.6987H35.6706H35.6424H35.6139H35.5853H35.5565H35.5275H35.4983H35.4689H35.4394H35.4097H35.3798H35.3497H35.3194H35.289H35.2584H35.2276H35.1966H35.1655H35.1342H35.1028H35.0711H35.0393H35.0074H34.9752H34.9429H34.9105H34.8779H34.8451H34.8121H34.779H34.7458H34.7124H34.6788H34.6451H34.6112H34.5772H34.543H34.5087H34.4742H34.4396H34.4048H34.3699H34.3349H34.2997H34.2643H34.2288H34.1932H34.1575H34.1216H34.0855H34.0494H34.0131H33.9766H33.94H33.9033H33.8665H33.8296H33.7925H33.7552H33.7179H33.6804H33.6429H33.6051H33.5673H33.5294H33.4913H33.4531H33.4148H33.3764H33.3378H33.2992H33.2604H33.2215H33.1825H33.1434H33.1042H33.0649H33.0255H32.986H32.9464H32.9066H32.8668H32.8269H32.7868H32.7467H32.7065H32.6661H32.6257H32.5852H32.5446H32.5039H32.4631H32.4222H32.3813H32.3402H32.2991H32.2578H32.2165H32.1751H32.1336H32.0921H32.0504H32.0087H31.9669H31.925H31.8831H31.8411H31.799H31.7568H31.7146H31.6722H31.6299H31.5874H31.5449H31.5023H31.4597H31.417H31.3742H31.3313H31.2884H31.2455H31.2025H31.1594H31.1163H31.0731H31.0298H30.9866H30.9432H30.8998H30.8564H30.8129H30.7693H30.7258H30.6821H30.6385H30.5947H30.551H30.5072H30.4633H30.4194H30.3755H30.3316H30.2876H30.2436H30.1995H30.1554H30.1113H30.0671H30.0229H29.9787H29.9345H29.8902H29.846H29.8016H29.7573H29.713H29.6686H29.6242H29.5798H29.5353H29.4909H29.4464H29.402H29.3575H29.313H29.2685H29.2239H29.1794H29.1349H29.0903H29.0458H29.0012H28.9567H28.9121H28.8676H28.823H28.7785H28.7339H28.6893H28.6448H28.6003H28.5557H28.5112H28.4667H28.4222H28.3777H28.3332H28.2887H28.2443H28.1998H28.1554H28.111H28.0666H28.0223H27.9779H27.9336H27.8893H27.845H27.8007H27.7565H27.7123H27.6682H27.624H27.5799H27.5358H27.4918H27.4478H27.4038H27.3598H27.3159H27.2721H27.2283H27.1845H27.1407H27.097H27.0534H27.0097H26.9662H26.9227H26.8792H26.8358H26.7924H26.7491H26.7058H26.6626H26.6194H26.5763H26.5333H26.4903H26.4473H26.4045H26.3617H26.3189H26.2762H26.2336H26.191H26.1485H26.1061H26.0638H26.0215H25.9793H25.9371H25.8951H25.8531H25.8111H25.7693H25.7275H25.6858H25.6442H25.6027H25.5613H25.5199H25.4786H25.4374H25.3963H25.3553H25.3144H25.2735H25.2328H25.1921H25.1515H25.111H25.0707H25.0304H24.9902H24.9501H24.9101H24.8702H24.8304H24.7907H24.7511H24.7117H24.6723H24.633H24.5939H24.5548H24.5159H24.477H24.4383H24.3997H24.3612H24.3228H24.2846H24.2464H24.2084H24.1705H24.1327H24.095H24.0575H24.0201H23.9828H23.9456H23.9086H23.8717H23.8349H23.7983H23.7617H23.7254H23.6891H23.653H23.617H23.5812H23.5455H23.5099H23.4745H23.4392H23.404H23.369H23.3342H23.2995H23.2649H23.2305H23.1962H23.1621H23.1282H23.0944H23.0607H23.0272H22.9938H22.9606H22.9276H22.8947H22.862H22.8295H22.7971H22.7648H22.7328H22.7009H22.6691H22.6376H22.6062H22.575H22.5439H22.513H22.4823H22.4518H22.4214H22.3912H22.3612H22.3314H22.3017H22.2722H22.2429H22.2138H22.1849H22.1562H22.1276H22.0993H22.0711H22.0431H22.0153H21.9877H21.9603H21.933H21.906H21.8792H21.8525H21.8261H21.7999H21.7738H21.748H21.7223H21.6969H21.6717H21.6467H21.6218H21.5972H21.5728H21.5486H21.5247H21.5009H21.4773H21.454H21.4309H21.408H21.3853H21.3628H21.3405H21.3185H21.2967H21.2751H21.2537H21.2326H21.2117H21.191H21.1705H21.1503H21.1303H21.1106H21.091H21.0717H21.0527H21.0338H21.0152H20.9969H20.9788H20.9609H20.9432H20.9258H20.9087H20.8918H20.8751H20.8587H20.8426H20.8266H20.811H20.7956H20.7804H20.7655H20.7508H20.7364H20.7223H20.7084H20.6948H20.6814H20.6683H20.6554H20.6429C20.6264 35.5714 20.61 35.5714 20.5938 35.5714C20.0392 35.5711 19.6386 35.5709 19.265 35.9352L16.85 37.7464C16.6012 37.933 16.3638 38.1078 16.1357 38.2757C15.2689 38.9137 14.5345 39.4544 13.805 40.1807C13.3855 40.4615 13.0138 40.7417 12.677 40.9956C12.6494 41.0165 12.622 41.0371 12.5948 41.0576C12.2279 41.334 11.907 41.5719 11.5987 41.7533C11.292 41.9336 11.0105 42.0502 10.7267 42.0913C10.4492 42.1315 10.155 42.1018 9.81707 41.9683C9.56965 41.8415 9.30183 41.5796 9.09384 41.233C8.88478 40.8846 8.75 40.4731 8.75 40.0714V36.125V35.875H8.5H5.76786C2.87021 35.875 0.25 33.2548 0.25 30.3571V5.46429C0.25 4.17952 0.894899 2.87383 1.88437 1.88437C2.87383 0.894899 4.17952 0.25 5.46429 0.25H37.0357C37.7491 0.25 38.5472 0.465335 39.2434 0.795131C39.9446 1.12727 40.5061 1.55806 40.7741 1.9601L40.7738 1.96032L40.7821 1.97143C41.6741 3.16069 42.0328 4.03379 42.177 4.97105C42.2849 5.67207 42.2742 6.40646 42.2606 7.35116C42.2555 7.70207 42.25 8.08199 42.25 8.5V8.75H42.5C42.918 8.75 43.2979 8.7445 43.6488 8.73943C44.5935 8.72576 45.3279 8.71514 46.0289 8.82299C46.9662 8.96718 47.8393 9.32591 49.0286 10.2179L49.0283 10.2182L49.0399 10.2259C49.4343 10.4888 49.8658 11.117 50.2028 11.866C50.5368 12.6082 50.75 13.4063 50.75 13.9643V39.1607C50.75 39.7152 50.539 40.4354 50.2049 41.1407C49.8722 41.8431 49.4319 42.5003 49.0018 42.9304C47.9743 43.9579 47.0336 44.3882 46.023 44.5686C45.2302 44.7102 44.3988 44.6993 43.427 44.6865C43.1319 44.6826 42.8239 44.6786 42.5 44.6786H42.25V44.9286V49.1786C42.25 49.5723 42.1231 49.7911 41.9373 49.9238C41.7347 50.0685 41.4183 50.1429 40.9821 50.1429H40.6786C40.5875 50.1429 40.4033 50.0896 40.1832 49.9795C39.9711 49.8734 39.7681 49.736 39.6411 49.6089Z" fill="url(#paint0_linear_1651_2655)" stroke="#070707" stroke-width="0.5"/>
<path d="M15.4525 12.5043C15.8234 8.16559 20.5478 5.54883 24.4732 7.50743C27.1067 8.97337 28.5501 12.1795 27.3974 15.0766C27.2548 15.3601 27.1124 15.5741 26.9623 15.7994L26.9602 15.8025C26.8113 16.0257 26.6549 16.2605 26.4985 16.5708C25.9217 17.4276 24.7647 18.2929 23.6186 18.5794L23.4292 18.6268V18.822C23.4292 19.126 23.4627 19.4735 23.496 19.8184C23.5136 20.0012 23.5312 20.1832 23.5437 20.3576C23.5811 20.882 23.5773 21.3695 23.4435 21.7743C23.0362 22.8546 22.1063 23.1855 21.2617 23.0166C20.3988 22.844 19.6792 22.1648 19.6792 21.2505V16.697C19.6792 15.6208 20.478 14.822 21.5542 14.822H21.5667L21.5791 14.8207C22.3951 14.7391 22.9915 14.4085 23.3712 13.9366C23.7483 13.4678 23.8946 12.881 23.8526 12.3147C23.7695 11.1923 22.9299 10.072 21.5542 10.072C20.9794 10.072 20.5292 10.2164 20.1825 10.4585C19.8374 10.6996 19.6123 11.0252 19.4658 11.3602C19.1791 12.0154 19.1792 12.741 19.1792 13.0464L19.1792 13.0541C19.1792 13.1243 19.1425 13.222 19.0395 13.3595C18.9406 13.4914 18.8063 13.627 18.6553 13.778C17.9703 14.32 17.1664 14.3779 16.5385 14.0804C15.9915 13.8213 15.5558 13.2817 15.4525 12.5043Z" fill="url(#paint1_linear_1651_2655)" stroke="#070707" stroke-width="0.5"/>
<path d="M19.6774 27.0173V26.7673H19.4274H19.3964C19.4617 26.43 19.6621 26.2254 19.9077 25.9798C20.4371 25.4504 20.9489 25.4459 21.5524 25.4459C22.6286 25.4459 23.4274 26.2447 23.4274 27.3209C23.4274 28.3503 22.5287 28.9682 21.5524 28.9682C21.0724 28.9682 20.6042 28.8138 20.2591 28.5016C19.9187 28.1935 19.6774 27.7134 19.6774 27.0173Z" fill="url(#paint2_linear_1651_2655)" stroke="#070707" stroke-width="0.5"/>
<defs>
<linearGradient id="paint0_linear_1651_2655" x1="0" y1="0" x2="51.9577" y2="0.92056" gradientUnits="userSpaceOnUse">
<stop stop-color="#1BACF4"/>
<stop offset="1" stop-color="#19EEB5"/>
</linearGradient>
<linearGradient id="paint1_linear_1651_2655" x1="15.1792" y1="6.59749" x2="28.2922" y2="6.77429" gradientUnits="userSpaceOnUse">
<stop stop-color="#1BACF4"/>
<stop offset="1" stop-color="#19EEB5"/>
</linearGradient>
<linearGradient id="paint2_linear_1651_2655" x1="19.1238" y1="25.1959" x2="23.7625" y2="25.2878" gradientUnits="userSpaceOnUse">
<stop stop-color="#1BACF4"/>
<stop offset="1" stop-color="#19EEB5"/>
</linearGradient>
</defs>
</svg>
