<svg width="296" height="78" viewBox="0 0 296 78" fill="none" xmlns="http://www.w3.org/2000/svg">
<g clip-path="url(#clip0_811_3119)">
<path d="M298.874 40.2735C298.874 38.8658 296.759 38.0156 261.256 37.8793C228.9 37.755 161.005 37.4799 121.957 37.8555C82.8838 38.2314 44.1325 34.802 20.1314 35.1474C3.04522 35.3933 -1.75052 40.2735 -1.75052 40.2735L-2.36719 76.7455C-2.36719 76.7455 22.0086 82.1508 57.1586 81.3988C92.3086 80.6468 126.825 84.5909 155.808 83.8389C184.791 83.0869 215.865 79.8628 241.149 78.7348C266.432 77.6068 298.874 76.7455 298.874 76.7455C298.874 76.7455 298.874 45.1615 298.874 40.2735Z" fill="#28B4D2" fill-opacity="0.5"/>
<path d="M298.874 40.2735C298.874 38.8657 289.083 38.7248 253.579 38.5885C221.223 38.4642 180.074 31.8948 141.026 32.2704C101.953 32.6462 60.7632 38.895 36.762 39.2404C19.6759 39.4863 -1.75052 40.2735 -1.75052 40.2735L-2.36719 76.7454C-2.36719 76.7454 41.9066 92.7401 77.0566 91.9881C112.207 91.2361 125.329 77.0921 154.312 76.3401C183.295 75.5881 218.33 93.9796 243.613 92.8516C268.896 91.7236 298.874 76.7454 298.874 76.7454C298.874 76.7454 298.874 45.1615 298.874 40.2735Z" fill="#28B4D2" fill-opacity="0.5"/>
<g opacity="0.26">
<path d="M-564.234 19.3303C-598.866 15.8109 -633.498 26.369 -633.498 26.369C-633.498 26.369 -656.586 28.7153 -686.408 28.7153C-700.181 28.7153 -690.256 51.0045 -666.206 73.2938C-642.156 95.5831 -641.194 82.6788 -613.296 76.8132C-585.398 70.9476 -577.702 68.6013 -517.096 62.7357C-456.49 56.8701 -493.046 60.3895 -453.604 61.5626C-414.162 62.7357 -418.01 72.1207 -379.53 79.1594C-341.05 86.1981 -333.354 81.5057 -300.646 73.2938C-267.938 65.082 -260.242 61.5626 -226.572 60.3895C-192.902 59.2164 -187.13 75.6401 -155.384 87.3713C-123.638 99.1025 -121.714 88.5444 -95.7397 82.6788C-69.7657 76.8132 -70.7278 73.2938 -46.6777 72.1207C-22.6277 70.9476 -11.0837 79.1594 12.0043 79.1594C35.0922 79.1594 23.5848 75.8207 57.2552 82.8594C90.9252 89.8982 93.7742 82.6788 116.862 80.3325C139.95 77.9863 159.191 74.4669 188.05 70.9476C216.91 67.4282 200.063 58.4345 239.505 68.9926C278.947 79.5506 336.198 74.4669 370.83 88.5444C405.462 102.622 406.424 86.1981 416.044 76.8132C425.664 67.4282 428.55 45.1389 414.12 36.9271C399.69 28.7153 400.652 32.2346 358.324 43.9658C315.996 55.697 331.388 45.1389 295.794 34.5809C260.2 24.0228 278.478 28.7153 249.618 34.5809C220.758 40.4465 189.974 47.4852 159.19 36.9271C128.406 26.369 113.976 16.9841 90.8882 24.0228C67.8002 31.0615 54.3323 43.9658 14.8903 47.4852C-24.5518 51.0045 -51.4877 22.8497 -86.1198 35.754C-120.752 48.6583 -124.6 48.6583 -169.814 38.1002C-215.028 27.5421 -242.926 25.1959 -276.596 34.5809C-310.266 43.9658 -359.328 38.1002 -390.112 35.754C-420.896 33.4077 -442.06 20.5034 -502.666 26.369C-563.272 32.2346 -529.602 22.8497 -564.234 19.3303Z" fill="#28B4D2"/>
</g>
</g>
<defs>
<clipPath id="clip0_811_3119">
<path d="M0 6C0 2.68629 2.68629 0 6 0H296V78H6.00001C2.6863 78 0 75.3137 0 72V6Z" fill="white"/>
</clipPath>
</defs>
</svg>
