<svg width="20" height="13" viewBox="0 0 20 13" fill="none" xmlns="http://www.w3.org/2000/svg">
<path fill-rule="evenodd" clip-rule="evenodd" d="M7.22789 11.2022H6.95399C6.42365 11.2022 5.86016 10.6188 5.86016 10.0697C5.86016 9.59825 5.8654 9.39596 6.24047 9.00762C6.95748 8.26346 8.32172 8.74391 8.32172 9.94866C8.32172 10.6314 7.73032 11.2022 7.22789 11.2022ZM15.0016 9.94866C15.0016 8.594 16.8002 8.13522 17.3724 9.39415C17.9882 10.747 16.2507 11.8073 15.361 10.8301C15.2074 10.6603 15.0016 10.2593 15.0016 9.94866ZM18.5954 9.50433H18.2831C18.2744 9.13767 17.9813 8.66083 17.7388 8.40976C16.2681 6.88712 14.2462 8.35377 14.22 9.50433H12.2278C12.2278 9.29662 12.3185 8.96066 12.3691 8.76017L13.517 3.47697L16.5193 3.48239C16.9049 3.52394 17.3794 3.67566 17.6568 3.84183C17.7772 3.91408 17.99 4.05677 18.0964 4.15431C18.5238 4.54445 18.8187 4.88402 19.0297 5.53426C19.3158 6.41208 19.0088 7.16166 18.8396 8.18037C18.7646 8.63193 18.6896 9.08348 18.5936 9.50433H18.5954ZM3.3201 0.44433C3.3201 0.624952 3.4335 0.774868 3.5626 0.839892C3.71961 0.91756 3.96035 0.890467 4.17842 0.890467H13.203L11.4445 8.94079C11.4043 9.10696 11.3415 9.32552 11.3276 9.50614H9.13991C8.74041 7.72882 6.78826 7.30616 5.73107 8.28333C5.46066 8.53258 5.07512 9.04374 5.03848 9.50614C4.68608 9.50614 4.33543 9.50794 3.98303 9.50614C3.76845 9.50433 3.31836 9.46459 3.31836 9.95227C3.31836 10.2973 3.63936 10.3966 3.94116 10.3984C4.30577 10.4002 4.67213 10.3966 5.03674 10.3966C5.13792 10.8464 5.31586 11.1751 5.62639 11.4839C6.62253 12.4774 8.17867 12.2353 8.8887 11.027C9.0457 10.7578 9.03698 10.6495 9.0963 10.514C9.13468 10.4255 9.09106 10.3966 9.21667 10.3966H14.2165C14.2322 11.101 15.1551 12.0963 16.1303 12.0963C16.7985 12.0963 17.1352 11.9825 17.6219 11.5761C17.8766 11.3629 18.2464 10.8193 18.2796 10.3966C18.7558 10.3966 19.2216 10.4761 19.3577 10.0968C19.4066 9.9595 19.4449 9.65605 19.4746 9.48808C19.5165 9.24965 19.5444 9.10516 19.5863 8.87577C19.6874 8.31584 19.9997 6.80223 19.9997 6.26939C19.9997 5.53065 19.6805 4.81358 19.3909 4.35118C18.9826 3.70095 18.4122 3.21688 17.7353 2.90982C17.2294 2.68043 16.7845 2.5847 16.1722 2.58831C15.3522 2.59193 14.5306 2.58831 13.7106 2.58831C13.749 2.50342 14.1799 0.534641 14.1799 0.404593C14.1799 0.207715 13.9583 0 13.7507 0H3.74926C3.52073 0 3.3201 0.207715 3.3201 0.44433Z" fill="#9B9B9B"/>
<path fill-rule="evenodd" clip-rule="evenodd" d="M0 7.31896C0 7.63504 0.170965 7.80483 0.507662 7.80483H5.31388C6.03263 7.80483 5.95064 6.91437 5.47089 6.91437H0.392522C0.17271 6.91437 0.00174454 7.09138 0.00174454 7.31896H0Z" fill="#9B9B9B"/>
<path fill-rule="evenodd" clip-rule="evenodd" d="M0.818359 4.77164C0.818359 5.08412 1.10098 5.21598 1.40453 5.21598H5.31057C6.02932 5.21598 5.94733 4.3255 5.46758 4.3255H1.20914C0.985836 4.3255 0.818359 4.53864 0.818359 4.76983V4.77164Z" fill="#9B9B9B"/>
<path fill-rule="evenodd" clip-rule="evenodd" d="M2.18484 2.62821H5.31106C6.02981 2.62821 5.94782 1.73773 5.46807 1.73773H2.02958C1.54983 1.73773 1.46784 2.62821 2.18659 2.62821H2.18484Z" fill="#9B9B9B"/>
</svg>
