<svg width="36" height="48" viewBox="0 0 36 48" fill="none" xmlns="http://www.w3.org/2000/svg">
<path d="M28.2326 12.2887L28.2326 12.2887C27.9735 11.6451 27.5843 11.1283 27.1814 10.5945L27.1764 10.5879L27.1766 10.5877C26.3884 9.41315 24.9353 8.09898 23.6136 7.31047C22.1501 6.51775 20.1702 5.73449 18.3346 5.73449C16.609 5.73449 15.5551 5.8656 13.9695 6.39032C12.6458 6.91676 11.4598 7.57236 10.407 8.48667L10.4067 8.487L10.4059 8.48776L10.4051 8.48852L10.4044 8.48928L10.4036 8.49003L10.4029 8.49078L10.4021 8.49153L10.4014 8.49227L10.4006 8.49302L10.3999 8.49375L10.3991 8.49449L10.3984 8.49522L10.3977 8.49595L10.3969 8.49668L10.3962 8.49741L10.3955 8.49813L10.3947 8.49885L10.394 8.49957L10.3933 8.50028L10.3926 8.50099L10.3919 8.5017L10.3912 8.5024L10.3905 8.50311L10.3898 8.50381L10.3891 8.5045L10.3884 8.5052L10.3877 8.50589L10.387 8.50658L10.3863 8.50726L10.3856 8.50795L10.3849 8.50863L10.3842 8.50931L10.3835 8.50998L10.3829 8.51066L10.3822 8.51133L10.3815 8.512L10.3808 8.51266L10.3802 8.51332L10.3795 8.51398L10.3788 8.51464L10.3782 8.5153L10.3775 8.51595L10.3769 8.5166L10.3762 8.51725L10.3756 8.5179L10.3749 8.51854L10.3743 8.51918L10.3736 8.51982L10.373 8.52045L10.3724 8.52109L10.3717 8.52172L10.3711 8.52235L10.3705 8.52297L10.3698 8.52359L10.3692 8.52422L10.3686 8.52484L10.368 8.52545L10.3673 8.52607L10.3667 8.52668L10.3661 8.52729L10.3655 8.5279L10.3649 8.5285L10.3643 8.5291L10.3637 8.52971L10.3631 8.5303L10.3625 8.5309L10.3619 8.53149L10.3613 8.53209L10.3607 8.53268L10.3601 8.53326L10.3595 8.53385L10.3589 8.53443L10.3583 8.53501L10.3578 8.53559L10.3572 8.53617L10.3566 8.53674L10.356 8.53732L10.3555 8.53789L10.3549 8.53846L10.3543 8.53902L10.3537 8.53959L10.3532 8.54015L10.3526 8.54071L10.352 8.54127L10.3515 8.54182L10.3509 8.54238L10.3504 8.54293L10.3498 8.54348L10.3493 8.54403L10.3487 8.54457L10.3482 8.54512L10.3476 8.54566L10.3471 8.5462L10.3465 8.54674L10.346 8.54728L10.3455 8.54781L10.3449 8.54835L10.3444 8.54888L10.3439 8.54941L10.3433 8.54994L10.3428 8.55046L10.3423 8.55099L10.3417 8.55151L10.3412 8.55203L10.3407 8.55255L10.3402 8.55307L10.3397 8.55358L10.3391 8.55409L10.3386 8.55461L10.3381 8.55512L10.3376 8.55562L10.3371 8.55613L10.3366 8.55664L10.3361 8.55714L10.3356 8.55764L10.3351 8.55814L10.3346 8.55864L10.3341 8.55914L10.3336 8.55963L10.3331 8.56013L10.3326 8.56062L10.3321 8.56111L10.3316 8.5616L10.3311 8.56209L10.3306 8.56257L10.3301 8.56306L10.3296 8.56354L10.3291 8.56402L10.3287 8.5645L10.3282 8.56498L10.3277 8.56546L10.3272 8.56594L10.3267 8.56641L10.3263 8.56688L10.3258 8.56735L10.3253 8.56782L10.3248 8.56829L10.3244 8.56876L10.3239 8.56923L10.3234 8.56969L10.323 8.57016L10.3225 8.57062L10.322 8.57108L10.3216 8.57154L10.3211 8.572L10.3207 8.57245L10.3202 8.57291L10.3197 8.57336L10.3193 8.57382L10.3188 8.57427L10.3184 8.57472L10.3179 8.57517L10.3175 8.57562L10.317 8.57606L10.3166 8.57651L10.3161 8.57696L10.3157 8.5774L10.3152 8.57784L10.3148 8.57828L10.3143 8.57872L10.3139 8.57916L10.3135 8.5796L10.313 8.58004L10.3126 8.58047L10.3121 8.58091L10.3117 8.58134L10.3113 8.58178L10.3108 8.58221L10.3104 8.58264L10.31 8.58307L10.3095 8.5835L10.3091 8.58393L10.3087 8.58435L10.3083 8.58478L10.3078 8.58521L10.3074 8.58563L10.307 8.58605L10.3065 8.58648L10.3061 8.5869L10.3057 8.58732L10.3053 8.58774L10.3049 8.58816L10.3044 8.58858L10.304 8.58899L10.3036 8.58941L10.3032 8.58982L10.3028 8.59024L10.3023 8.59065L10.3019 8.59107L10.3015 8.59148L10.3011 8.59189L10.3007 8.5923L10.3003 8.59271L10.2999 8.59312L10.2994 8.59353L10.299 8.59394L10.2986 8.59435L10.2982 8.59476L10.2978 8.59516L10.2974 8.59557L10.297 8.59597L10.2966 8.59638L10.2962 8.59678L10.2958 8.59719L10.2954 8.59759L10.295 8.59799L10.2946 8.59839L10.2941 8.5988L10.2937 8.5992L10.2933 8.5996L10.2929 8.6L10.2925 8.6004L10.2921 8.60079L10.2917 8.60119L10.2913 8.60159L10.2909 8.60199L10.2905 8.60239L10.2901 8.60278L10.2897 8.60318L10.2893 8.60357L10.2889 8.60397L10.2885 8.60436L10.2881 8.60476L10.2877 8.60515L10.2874 8.60555L10.287 8.60594L10.2866 8.60633L10.2862 8.60673L10.2858 8.60712L10.2854 8.60751L10.285 8.60791L10.2846 8.6083L10.2842 8.60869L10.2838 8.60908L10.2834 8.60947L10.283 8.60986L10.2826 8.61025L10.2822 8.61065L10.2818 8.61104L10.2814 8.61143L10.281 8.61182L10.2806 8.61221L10.2803 8.6126L10.2799 8.61299L10.2795 8.61338L10.2791 8.61377L10.2787 8.61416L10.2783 8.61455L10.2779 8.61494L10.2775 8.61532L10.2771 8.61572L10.2767 8.6161L10.2763 8.61649L10.2759 8.61688L10.2755 8.61727L10.2752 8.61766L10.2748 8.61805L10.2744 8.61844L10.274 8.61883L10.2736 8.61922L10.2732 8.61961L10.2728 8.62L10.2724 8.62039L10.272 8.62078L10.2716 8.62117L10.2712 8.62156L10.2708 8.62195L10.2704 8.62234L10.2701 8.62274L10.2697 8.62313L10.2693 8.62352L10.2689 8.62391L10.2685 8.6243L10.2681 8.6247L10.2677 8.62509L10.2673 8.62548L10.2669 8.62587L10.2665 8.62627L10.2661 8.62666L10.2657 8.62706L10.2653 8.62745L10.2649 8.62784L10.2645 8.62824L10.2641 8.62863L10.2637 8.62903L10.2633 8.62943L10.2629 8.62982L10.2625 8.63022L10.2621 8.63062L10.2617 8.63102L10.2613 8.63141L10.2609 8.63181L10.2605 8.63221L10.2601 8.63261L10.2597 8.63301L10.2593 8.63341L10.2589 8.63381L10.2585 8.63422L10.2581 8.63462L10.2577 8.63502L10.2573 8.63543L10.2569 8.63583L10.2565 8.63623L10.2561 8.63664L10.2556 8.63704L10.2552 8.63745L10.2548 8.63786L10.2544 8.63827L10.254 8.63868L10.2536 8.63908L10.2532 8.63949L10.2528 8.6399L10.2524 8.64032L10.2519 8.64073L10.2515 8.64114L10.2511 8.64155L10.2507 8.64197L10.2503 8.64238L10.2499 8.6428L10.2494 8.64322L10.249 8.64363L10.2486 8.64405L10.2482 8.64447L10.2478 8.64489L10.2473 8.64531L10.2469 8.64573L10.2465 8.64616L10.2461 8.64658L10.2456 8.647L10.2452 8.64743L10.2448 8.64785L10.2443 8.64828L10.2439 8.64871L10.2435 8.64914L10.243 8.64957L10.2426 8.65L10.2422 8.65043L10.2417 8.65087L10.2413 8.6513L10.2409 8.65173L10.2404 8.65217L10.24 8.65261L10.2395 8.65305L10.2391 8.65349L10.2387 8.65393L10.2382 8.65437L10.2378 8.65481L10.2373 8.65525L10.2369 8.6557L10.2364 8.65614L10.236 8.65659L10.2355 8.65704L10.2351 8.65749L10.2346 8.65794L10.2342 8.65839L10.2337 8.65885L10.2332 8.6593L10.2328 8.65976L10.2323 8.66021L10.2319 8.66067L10.2314 8.66113L10.2309 8.66159L10.2305 8.66205L10.23 8.66252L10.2295 8.66298L10.2291 8.66345L10.2286 8.66392L10.2281 8.66438L10.2277 8.66485L10.2272 8.66533L10.2267 8.6658L10.2262 8.66627L10.2258 8.66675L10.2253 8.66723L10.2248 8.66771L10.2243 8.66819L10.2238 8.66867L10.2233 8.66915L10.2228 8.66963L10.2224 8.67012L10.2219 8.67061L10.2214 8.6711L10.2209 8.67159L10.2204 8.67208L10.2199 8.67257L10.2194 8.67307L10.2189 8.67357L10.2184 8.67407L10.2179 8.67457L10.2174 8.67507L10.2169 8.67557L10.2164 8.67608L10.2159 8.67658L10.2153 8.67709L10.2148 8.6776L10.2143 8.67811L10.2138 8.67863L10.2133 8.67914L10.2128 8.67966L10.2122 8.68018L10.2117 8.6807L10.2112 8.68122L10.2107 8.68175L10.2101 8.68227L10.2096 8.6828L10.2091 8.68333L10.2085 8.68386L10.208 8.68439L10.2075 8.68493L10.2069 8.68547L10.2064 8.68601L10.2058 8.68655L10.2053 8.68709L10.2047 8.68763L10.2042 8.68818L10.2036 8.68873L10.2031 8.68928L10.2025 8.68983L10.202 8.69039L10.2014 8.69094L10.2008 8.6915L10.2003 8.69206L10.1997 8.69262L10.1991 8.69319L10.1986 8.69375L10.198 8.69432L10.1974 8.69489L10.1968 8.69547L10.1963 8.69604L10.1957 8.69662L10.1951 8.6972L10.1945 8.69778L10.1939 8.69836L10.1933 8.69895L10.1928 8.69953L10.1922 8.70012L10.1916 8.70072L10.191 8.70131L10.1904 8.70191L10.1898 8.7025L10.1892 8.7031L10.1886 8.70371L10.1879 8.70431L10.1873 8.70492L10.1867 8.70553L10.1861 8.70614L10.1855 8.70676L10.1849 8.70737L10.1842 8.70799L10.1836 8.70861L10.183 8.70924L10.1824 8.70986L10.1817 8.71049L10.1811 8.71112L10.1805 8.71176L10.1798 8.71239L10.1792 8.71303L10.1785 8.71367L10.1779 8.71431L10.1772 8.71496L10.1766 8.71561L10.1759 8.71626L10.1753 8.71691L10.1746 8.71757L10.1739 8.71822L10.1733 8.71888L10.1726 8.71955L10.1719 8.72021L10.1713 8.72088L10.1706 8.72155L10.1699 8.72223L10.1692 8.7229L10.1686 8.72358L10.1679 8.72426L10.1672 8.72494L10.1665 8.72563L10.1658 8.72632L10.1651 8.72701L10.1644 8.72771L10.1637 8.7284L10.163 8.7291L10.1623 8.72981L10.1616 8.73051L10.1609 8.73122L10.1601 8.73193L10.1594 8.73264L10.1587 8.73336L10.158 8.73408L10.1573 8.7348L10.1565 8.73553L10.1558 8.73625L10.1551 8.73698L10.1543 8.73772L10.1536 8.73845L10.1528 8.73919L10.1521 8.73993L10.1513 8.74068L10.1506 8.74143L10.1498 8.74218L10.1491 8.74293L10.1483 8.74369L10.1475 8.74445L10.1468 8.74521L10.146 8.74598L10.1452 8.74675L10.1445 8.74752L10.1437 8.74829L10.1429 8.74907C9.21571 9.67027 8.02458 11.2498 7.49836 12.425C4.72483 19.1204 8.55644 26.3351 15.2906 27.9093C15.2906 27.9093 15.2906 27.9093 15.2907 27.9093L15.2565 28.0554L28.2326 12.2887ZM28.2326 12.2887L28.234 12.2921M28.2326 12.2887L28.234 12.2921M28.234 12.2921C29.0189 14.1116 29.2857 15.2815 29.2923 17.4676M28.234 12.2921L29.2923 17.4676M29.2923 17.4676C29.2857 18.7635 29.0228 20.0511 28.6355 20.9489L28.6353 20.9488L28.6327 20.9559C27.3131 24.4956 23.878 27.3841 20.0503 28.0403L29.2923 17.4676ZM16.8868 44.2467L17.7535 45.2308L17.6653 45.4063L17.905 45.5801C17.9779 45.5077 18.1143 45.3382 18.2421 45.1795L18.2507 45.1689C18.3881 44.9982 18.5148 44.8412 18.5741 44.7823L18.5746 44.7827L18.5833 44.7723L19.2525 43.9745L19.2527 43.9747L19.2582 43.9672C19.8713 43.1366 20.5308 42.3061 21.2 41.4635C21.3321 41.2972 21.4646 41.1303 21.5971 40.9629C22.4 39.9493 23.2052 38.916 23.944 37.8485C23.9443 37.848 23.9446 37.8476 23.9449 37.8471L25.6827 35.4566L25.6898 35.4468L25.6953 35.4359C25.755 35.3173 25.8463 35.1956 25.9487 35.0599L25.9533 35.0539C26.0485 34.9278 26.1534 34.7888 26.2263 34.6467C27.6978 32.4536 29.6066 29.5584 31.1483 26.5617C32.6893 23.5661 33.8749 20.4477 33.8749 17.8172C33.8749 15.4053 33.3361 12.9879 32.5206 11.3675C31.7376 9.81158 31.3307 9.25594 30.3329 7.89326C30.3001 7.84849 30.2667 7.80285 30.2326 7.75628L30.2271 7.74887L30.2209 7.74217L28.3472 5.74771L28.3382 5.73805L28.3275 5.73014C27.2545 4.93057 27.2522 4.92898 26.0457 4.12979C25.8371 3.99168 25.6294 3.88847 25.4306 3.78971L25.4273 3.7881C25.2256 3.6879 25.033 3.59203 24.8412 3.46497L24.8414 3.46468L24.8324 3.45958C23.88 2.91885 23.0631 2.64882 21.986 2.38121C19.5543 1.71055 16.3209 1.70987 13.8876 2.37917C13.2336 2.47299 12.8213 2.63487 12.3749 2.81013C12.1764 2.88805 11.9712 2.96861 11.735 3.047C11.4473 3.11963 11.0995 3.29401 10.7682 3.47502C10.6408 3.54464 10.516 3.61512 10.3959 3.68296C10.1928 3.79769 10.003 3.90488 9.83661 3.98755L9.82827 3.99169L9.82051 3.99683C8.61317 4.79652 7.66678 5.46773 6.58573 6.54179L6.58061 6.54687C6.18473 6.94019 5.90849 7.21464 5.63375 7.62289C4.553 8.96676 3.47624 10.9736 2.93613 12.583C1.72096 16.0713 1.72131 18.8969 2.93482 22.5155C3.07237 22.9923 3.44333 23.9291 3.84368 24.8572C4.24476 25.787 4.68209 26.7237 4.95453 27.1978L5.89043 28.9247L5.89028 28.9247L5.8939 28.9307C7.09568 30.9207 9.36742 34.5062 10.7127 36.2466C10.9864 36.7862 11.3913 37.3226 11.786 37.8454L11.7911 37.8521L11.791 37.8522L11.7939 37.8558L16.6118 43.8392L16.617 43.8457L16.6229 43.8516C16.6708 43.8992 16.6951 43.9456 16.7285 44.012L16.7304 44.0159C16.7631 44.0809 16.805 44.1642 16.8868 44.2467ZM17.859 47.7366L17.8416 47.7465L17.8274 47.7606L17.7802 47.8075L17.0791 47.3431L17.0714 47.3379L17.063 47.3338L16.8174 47.2118C16.6721 47.0649 16.2891 46.6522 15.9036 46.2213C15.52 45.7926 15.1466 45.3597 15.0011 45.1553C14.9873 45.062 14.939 44.9814 14.8911 44.9179C14.8344 44.8429 14.7612 44.7701 14.6972 44.7065L14.6952 44.7046C13.5651 43.4879 12.637 42.2743 11.6682 41.0075C11.2667 40.4824 10.8581 39.9482 10.4253 39.4008L8.01898 35.9475L8.01907 35.9474L8.01563 35.9429C7.81787 35.6809 7.6195 35.3853 7.41824 35.0854L7.41688 35.0834C7.21983 34.7897 7.01997 34.4919 6.81951 34.2254C6.79137 34.1686 6.76281 34.1052 6.7312 34.035L6.72576 34.0229C6.69026 33.9441 6.65142 33.8582 6.60797 33.7719C6.52426 33.6056 6.41954 33.4291 6.27645 33.2823L3.61268 28.6508L1.74453 24.6735C1.68167 24.5018 1.61893 24.3322 1.55671 24.164C1.08784 22.8965 0.649045 21.7103 0.415591 20.3187C0.282212 19.5236 0.15 18.4695 0.15 17.6842C0.15 16.4954 0.283226 15.0459 0.546953 13.9978L0.547068 13.9979L0.548294 13.992C1.21036 10.8346 2.39892 8.86135 4.26245 6.34774L4.26286 6.34733L4.26361 6.34658L4.26436 6.34584L4.2651 6.3451L4.26584 6.34437L4.26658 6.34363L4.26732 6.3429L4.26805 6.34217L4.26878 6.34145L4.26951 6.34073L4.27023 6.34001L4.27095 6.33929L4.27167 6.33858L4.27239 6.33787L4.2731 6.33716L4.27381 6.33645L4.27452 6.33575L4.27522 6.33505L4.27592 6.33435L4.27662 6.33366L4.27732 6.33297L4.27801 6.33228L4.2787 6.33159L4.27939 6.33091L4.28008 6.33023L4.28076 6.32955L4.28144 6.32887L4.28212 6.3282L4.28279 6.32753L4.28346 6.32686L4.28413 6.3262L4.2848 6.32553L4.28547 6.32487L4.28613 6.32421L4.28679 6.32356L4.28745 6.32291L4.2881 6.32226L4.28875 6.32161L4.2894 6.32096L4.29005 6.32032L4.29069 6.31968L4.29134 6.31904L4.29198 6.3184L4.29261 6.31777L4.29325 6.31714L4.29388 6.31651L4.29451 6.31589L4.29514 6.31526L4.29576 6.31464L4.29639 6.31402L4.29701 6.3134L4.29763 6.31279L4.29824 6.31218L4.29886 6.31157L4.29947 6.31096L4.30008 6.31036L4.30068 6.30975L4.30129 6.30915L4.30189 6.30855L4.30249 6.30796L4.30309 6.30736L4.30368 6.30677L4.30428 6.30618L4.30487 6.30559L4.30546 6.30501L4.30605 6.30443L4.30663 6.30384L4.30721 6.30327L4.30779 6.30269L4.30837 6.30211L4.30895 6.30154L4.30952 6.30097L4.31009 6.3004L4.31066 6.29984L4.31123 6.29927L4.3118 6.29871L4.31236 6.29815L4.31292 6.29759L4.31348 6.29703L4.31404 6.29648L4.3146 6.29593L4.31515 6.29538L4.3157 6.29483L4.31625 6.29428L4.3168 6.29374L4.31735 6.2932L4.31789 6.29265L4.31844 6.29212L4.31898 6.29158L4.31951 6.29104L4.32005 6.29051L4.32059 6.28998L4.32112 6.28945L4.32165 6.28892L4.32218 6.2884L4.32271 6.28787L4.32323 6.28735L4.32376 6.28683L4.32428 6.28631L4.3248 6.28579L4.32532 6.28528L4.32584 6.28476L4.32635 6.28425L4.32686 6.28374L4.32738 6.28323L4.32789 6.28273L4.32839 6.28222L4.3289 6.28172L4.32941 6.28121L4.32991 6.28071L4.33041 6.28022L4.33091 6.27972L4.33141 6.27922L4.33191 6.27873L4.3324 6.27824L4.3329 6.27775L4.33339 6.27726L4.33388 6.27677L4.33437 6.27628L4.33486 6.2758L4.33534 6.27532L4.33583 6.27483L4.33631 6.27435L4.33679 6.27387L4.33728 6.2734L4.33775 6.27292L4.33823 6.27245L4.33871 6.27197L4.33918 6.2715L4.33966 6.27103L4.34013 6.27056L4.3406 6.2701L4.34107 6.26963L4.34154 6.26917L4.342 6.2687L4.34247 6.26824L4.34293 6.26778L4.34339 6.26732L4.34385 6.26686L4.34431 6.2664L4.34477 6.26595L4.34523 6.26549L4.34569 6.26504L4.34614 6.26459L4.3466 6.26414L4.34705 6.26369L4.3475 6.26324L4.34795 6.26279L4.3484 6.26235L4.34885 6.2619L4.34929 6.26146L4.34974 6.26102L4.35018 6.26057L4.35063 6.26013L4.35107 6.25969L4.35151 6.25926L4.35195 6.25882L4.35239 6.25838L4.35283 6.25795L4.35326 6.25751L4.3537 6.25708L4.35413 6.25665L4.35457 6.25622L4.355 6.25579L4.35543 6.25536L4.35586 6.25493L4.35629 6.2545L4.35672 6.25408L4.35715 6.25365L4.35758 6.25323L4.358 6.2528L4.35843 6.25238L4.35885 6.25196L4.35928 6.25154L4.3597 6.25112L4.36012 6.2507L4.36054 6.25028L4.36096 6.24986L4.36138 6.24945L4.3618 6.24903L4.36222 6.24862L4.36263 6.2482L4.36305 6.24779L4.36347 6.24738L4.36388 6.24696L4.36429 6.24655L4.36471 6.24614L4.36512 6.24573L4.36553 6.24532L4.36594 6.24492L4.36635 6.24451L4.36676 6.2441L4.36717 6.24369L4.36758 6.24329L4.36799 6.24288L4.3684 6.24248L4.3688 6.24207L4.36921 6.24167L4.36961 6.24127L4.37002 6.24086L4.37042 6.24046L4.37083 6.24006L4.37123 6.23966L4.37163 6.23926L4.37204 6.23886L4.37244 6.23846L4.37284 6.23806L4.37324 6.23766L4.37364 6.23727L4.37404 6.23687L4.37444 6.23647L4.37484 6.23607L4.37524 6.23568L4.37564 6.23528L4.37604 6.23489L4.37643 6.23449L4.37683 6.2341L4.37723 6.2337L4.37762 6.23331L4.37802 6.23292L4.37842 6.23252L4.37881 6.23213L4.37921 6.23174L4.3796 6.23134L4.38 6.23095L4.38039 6.23056L4.38079 6.23017L4.38118 6.22978L4.38157 6.22938L4.38197 6.22899L4.38236 6.2286L4.38275 6.22821L4.38315 6.22782L4.38354 6.22743L4.38393 6.22704L4.38433 6.22665L4.38472 6.22626L4.38511 6.22587L4.3855 6.22548L4.3859 6.22509L4.38629 6.2247L4.38668 6.22431L4.38707 6.22392L4.38747 6.22353L4.38786 6.22314L4.38825 6.22275L4.38864 6.22236L4.38903 6.22197L4.38943 6.22158L4.38982 6.22119L4.39021 6.2208L4.3906 6.22042L4.39099 6.22003L4.39139 6.21964L4.39178 6.21925L4.39217 6.21886L4.39256 6.21846L4.39296 6.21807L4.39335 6.21768L4.39374 6.21729L4.39414 6.2169L4.39453 6.21651L4.39492 6.21612L4.39532 6.21573L4.39571 6.21534L4.39611 6.21495L4.3965 6.21455L4.3969 6.21416L4.39729 6.21377L4.39769 6.21338L4.39808 6.21298L4.39848 6.21259L4.39887 6.2122L4.39927 6.2118L4.39967 6.21141L4.40007 6.21101L4.40046 6.21062L4.40086 6.21022L4.40126 6.20983L4.40166 6.20943L4.40206 6.20903L4.40246 6.20864L4.40286 6.20824L4.40326 6.20784L4.40366 6.20744L4.40406 6.20704L4.40446 6.20665L4.40486 6.20624L4.40527 6.20584L4.40567 6.20544L4.40607 6.20504L4.40648 6.20464L4.40688 6.20424L4.40729 6.20384L4.4077 6.20343L4.4081 6.20303L4.40851 6.20262L4.40892 6.20222L4.40933 6.20181L4.40974 6.20141L4.41015 6.201L4.41056 6.20059L4.41097 6.20018L4.41138 6.19977L4.41179 6.19936L4.4122 6.19895L4.41262 6.19854L4.41303 6.19813L4.41345 6.19772L4.41387 6.1973L4.41428 6.19689L4.4147 6.19647L4.41512 6.19606L4.41554 6.19564L4.41596 6.19522L4.41638 6.19481L4.4168 6.19439L4.41722 6.19397L4.41765 6.19355L4.41807 6.19312L4.4185 6.1927L4.41892 6.19228L4.41935 6.19185L4.41978 6.19143L4.42021 6.191L4.42064 6.19057L4.42107 6.19015L4.4215 6.18972L4.42193 6.18929L4.42237 6.18886L4.4228 6.18842L4.42324 6.18799L4.42367 6.18756L4.42411 6.18712L4.42455 6.18669L4.42499 6.18625L4.42543 6.18581L4.42587 6.18537L4.42632 6.18493L4.42676 6.18449L4.42721 6.18405L4.42765 6.1836L4.4281 6.18316L4.42855 6.18271L4.429 6.18227L4.42945 6.18182L4.4299 6.18137L4.43036 6.18092L4.43081 6.18046L4.43127 6.18001L4.43173 6.17956L4.43218 6.1791L4.43264 6.17864L4.43311 6.17819L4.43357 6.17773L4.43403 6.17727L4.4345 6.1768L4.43496 6.17634L4.43543 6.17588L4.4359 6.17541L4.43637 6.17494L4.43684 6.17447L4.43732 6.174L4.43779 6.17353L4.43827 6.17306L4.43874 6.17258L4.43922 6.17211L4.4397 6.17163L4.44019 6.17115L4.44067 6.17067L4.44115 6.17019L4.44164 6.16971L4.44213 6.16922L4.44262 6.16874L4.44311 6.16825L4.4436 6.16776L4.44409 6.16727L4.44459 6.16678L4.44509 6.16628L4.44559 6.16579L4.44609 6.16529L4.44659 6.16479L4.44709 6.16429L4.4476 6.16379L4.4481 6.16329L4.44861 6.16278L4.44912 6.16227L4.44963 6.16176L4.45015 6.16125L4.45066 6.16074L4.45118 6.16023L4.4517 6.15971L4.45222 6.1592L4.45274 6.15868L4.45327 6.15816L4.45379 6.15763L4.45432 6.15711L4.45485 6.15658L4.45538 6.15606L4.45591 6.15553L4.45645 6.155L4.45698 6.15446L4.45752 6.15393L4.45806 6.15339L4.45861 6.15285L4.45915 6.15231L4.4597 6.15177L4.46024 6.15122L4.46079 6.15068L4.46135 6.15013L4.4619 6.14958L4.46246 6.14903L4.46301 6.14847L4.46357 6.14791L4.46414 6.14736L4.4647 6.1468L4.46527 6.14623L4.46583 6.14567L4.4664 6.1451L4.46698 6.14453L4.46755 6.14396L4.46813 6.14339L4.46871 6.14282L4.46929 6.14224L4.46987 6.14166L4.47045 6.14108L4.47104 6.1405L4.47163 6.13991L4.47222 6.13932L4.47281 6.13873L4.47341 6.13814L4.47401 6.13755L4.47461 6.13695L4.47521 6.13635L4.47582 6.13575L4.47642 6.13515L4.47703 6.13454L4.47764 6.13394L4.47826 6.13333L4.47887 6.13271L4.47949 6.1321L4.48011 6.13148L4.48074 6.13086L4.48136 6.13024L4.48199 6.12962L4.48262 6.12899L4.48325 6.12837L4.48389 6.12773L4.48452 6.1271L4.48516 6.12647L4.48581 6.12583L4.48645 6.12519L4.4871 6.12454L4.48775 6.1239L4.4884 6.12325L4.48905 6.1226L4.48971 6.12195L4.49037 6.12129L4.49103 6.12063L4.4917 6.11997L4.49237 6.11931L4.49304 6.11864L4.49371 6.11798L4.49438 6.11731L4.49506 6.11663L4.49574 6.11596L4.49642 6.11528L4.49711 6.1146L4.4978 6.11391L4.49849 6.11323L4.49918 6.11254L4.49988 6.11185L4.50058 6.11115L4.50128 6.11045L4.50198 6.10975L4.50269 6.10905L4.5034 6.10835L4.50411 6.10764L4.50483 6.10693L4.50555 6.10621L4.50627 6.1055L4.50699 6.10478L4.50772 6.10406L4.50845 6.10333L4.50918 6.1026L4.50992 6.10187L4.51065 6.10114L4.51139 6.1004L4.51214 6.09966L4.51289 6.09892L4.51364 6.09818L4.51439 6.09743L4.51514 6.09668L4.5159 6.09592L4.51666 6.09517L4.51743 6.09441L4.5182 6.09365L4.51897 6.09288L4.51974 6.09211L4.52052 6.09134L4.5213 6.09057L4.52208 6.08979L4.52236 6.09007L4.52957 6.08179C7.05311 3.17867 9.9709 1.33445 13.6867 0.411505L13.6868 0.41193L13.6977 0.408322C14.0832 0.280666 14.8702 0.15 15.3903 0.15H20.6097C21.1298 0.15 21.9168 0.280666 22.3023 0.408322L22.3023 0.40836L22.3056 0.409375C24.0358 0.938307 25.6307 1.59871 27.2251 2.52265C28.5506 3.31292 30.0104 4.49977 31.0704 5.6845L31.0702 5.68468L31.0764 5.6909L31.6077 6.21868C32.404 7.14199 32.7989 7.66582 33.3272 8.58448L33.3279 8.58564C34.2549 10.1645 34.7861 11.7453 35.3205 13.6038C35.8499 15.4445 35.85 16.3582 35.85 18.2161C35.85 18.8648 35.7188 19.75 35.5192 20.6259C35.3197 21.5014 35.0547 22.3553 34.7924 22.9415L34.7921 22.9414L34.7886 22.9508C33.3224 26.9239 31.1884 30.6355 28.7832 34.22C28.783 34.2204 28.7827 34.2208 28.7825 34.2211L27.5839 35.9412C27.1783 36.4122 26.7745 36.981 26.3747 37.5602C26.2938 37.6774 26.2132 37.7949 26.1326 37.9123C25.8116 38.38 25.4929 38.8445 25.174 39.267L25.1732 39.268C23.9139 40.966 22.898 42.2414 21.7966 43.6241C21.2607 44.297 20.7044 44.9953 20.0901 45.7801L20.0897 45.7799L20.0836 45.789C19.9534 45.9831 19.7565 46.244 19.5431 46.4887C19.3277 46.7355 19.1043 46.9557 18.9209 47.0772L18.9085 47.0854L18.898 47.0958L18.7784 47.2146L17.859 47.7366ZM18.0669 26.4769H18.2169V26.3426C22.5094 26.2693 26.3725 23.0574 27.1805 19.0435C27.588 17.0193 27.3173 14.8609 26.502 13.1038L26.5003 13.0995C26.3694 12.7744 26.2994 12.6005 26.1947 12.4098C26.0911 12.2211 25.9539 12.0167 25.6919 11.6262L25.6859 11.6173C25.1478 10.8153 24.3354 9.86919 23.3769 9.31944C23.2965 9.24395 23.1883 9.17435 23.0759 9.11055C22.9611 9.04538 22.8317 8.9807 22.7056 8.91802C22.6448 8.85769 22.5764 8.7909 22.506 8.73845C22.4388 8.68836 22.3529 8.63815 22.2535 8.62763C19.4044 7.29036 16.0206 7.42926 13.311 8.90992L13.3109 8.90983L13.3061 8.91271C7.87409 12.1508 6.77958 19.3129 11.2697 23.774C12.1612 24.6597 12.702 24.9573 13.7531 25.5357C13.826 25.5758 13.9014 25.6173 13.9796 25.6604L13.9795 25.6605L13.9853 25.6634C15.0825 26.2085 16.4454 26.4769 18.0669 26.4769Z" fill="url(#paint0_linear_1651_2683)" stroke="url(#paint1_linear_1651_2683)" stroke-width="0.3"/>
<defs>
<linearGradient id="paint0_linear_1651_2683" x1="0" y1="0" x2="36.6812" y2="0.481622" gradientUnits="userSpaceOnUse">
<stop stop-color="#1BACF4"/>
<stop offset="1" stop-color="#19EEB5"/>
</linearGradient>
<linearGradient id="paint1_linear_1651_2683" x1="0" y1="0" x2="36.6812" y2="0.481622" gradientUnits="userSpaceOnUse">
<stop stop-color="#1BACF4"/>
<stop offset="1" stop-color="#19EEB5"/>
</linearGradient>
</defs>
</svg>
