<svg width="10" height="7" viewBox="0 0 10 7" fill="none" xmlns="http://www.w3.org/2000/svg">
<path d="M1.53033 6.53033C1.23744 6.82322 0.762563 6.82322 0.46967 6.53033C0.176777 6.23744 0.176777 5.76256 0.46967 5.46967L1.53033 6.53033ZM5 2L4.46967 1.46967L5 0.93934L5.53033 1.46967L5 2ZM9.53033 5.46967C9.82322 5.76256 9.82322 6.23744 9.53033 6.53033C9.23744 6.82322 8.76256 6.82322 8.46967 6.53033L9.53033 5.46967ZM0.46967 5.46967L4.46967 1.46967L5.53033 2.53033L1.53033 6.53033L0.46967 5.46967ZM5.53033 1.46967L9.53033 5.46967L8.46967 6.53033L4.46967 2.53033L5.53033 1.46967Z" fill="url(#paint0_linear_1033_3355)"/>
<defs>
<linearGradient id="paint0_linear_1033_3355" x1="1" y1="6" x2="9.1428" y2="5.71489" gradientUnits="userSpaceOnUse">
<stop stop-color="#1BACF4"/>
<stop offset="1" stop-color="#19EEB5"/>
</linearGradient>
</defs>
</svg>
