<svg width="29" height="29" viewBox="0 0 29 29" fill="none" xmlns="http://www.w3.org/2000/svg">
<path fill-rule="evenodd" clip-rule="evenodd" d="M8.43939 1.81858C8.9217 0.983183 9.71612 0.373606 10.6479 0.123942C11.5796 -0.125722 12.5724 0.00497821 13.4078 0.487292L14.8396 1.31391C15.6715 1.79362 16.6595 1.92481 17.5878 1.67886L19.1687 1.25527C19.6313 1.1299 20.1142 1.09723 20.5896 1.15913C21.0649 1.22103 21.5233 1.37628 21.9385 1.61596C22.3536 1.85564 22.7173 2.17501 23.0085 2.55572C23.2998 2.93643 23.513 3.37096 23.6357 3.83433L24.0593 5.41519C24.3105 6.34213 24.9181 7.13211 25.7495 7.61277L27.1812 8.43939C28.0166 8.9217 28.6262 9.71612 28.8759 10.6479C29.1255 11.5796 28.9948 12.5724 28.5125 13.4078L27.6859 14.8396C27.2062 15.6715 27.075 16.6595 27.321 17.5878L27.7446 19.1687C27.8699 19.6313 27.9026 20.1142 27.8407 20.5896C27.7788 21.0649 27.6235 21.5233 27.3839 21.9385C27.1442 22.3536 26.8248 22.7173 26.4441 23.0085C26.0634 23.2998 25.6289 23.513 25.1655 23.6357L23.5846 24.0593C22.6577 24.3105 21.8677 24.9181 21.3871 25.7495L20.5604 27.1812C20.0781 28.0166 19.2837 28.6262 18.3519 28.8759C17.4202 29.1255 16.4274 28.9948 15.592 28.5125L14.1603 27.6859C13.3283 27.2062 12.3404 27.075 11.412 27.321L9.83115 27.7446C9.36848 27.8699 8.88559 27.9026 8.41025 27.8407C7.93491 27.7788 7.47649 27.6235 7.06136 27.3839C6.64622 27.1442 6.28256 26.8248 5.99128 26.4441C5.70001 26.0634 5.48686 25.6289 5.36409 25.1655L4.9405 23.5846C4.68934 22.6577 4.08175 21.8677 3.25033 21.3871L1.81858 20.5604C0.983183 20.0781 0.373605 19.2837 0.123941 18.3519C-0.125723 17.4202 0.0049793 16.4274 0.487293 15.592L1.31391 14.1603C1.79362 13.3283 1.92481 12.3404 1.67886 11.412L1.25527 9.83115C1.1299 9.36848 1.09723 8.88559 1.15913 8.41025C1.22103 7.93491 1.37628 7.47649 1.61596 7.06136C1.85564 6.64622 2.17501 6.28256 2.55572 5.99128C2.93643 5.70001 3.37096 5.48686 3.83433 5.36409L5.41519 4.9405C6.34213 4.68933 7.13211 4.08175 7.61277 3.25033L8.43939 1.81858ZM20.2575 8.7103C20.7066 9.15941 20.7066 9.88755 20.2575 10.3366L10.338 20.2561C9.88893 20.7052 9.16079 20.7052 8.71169 20.2561C8.26259 19.807 8.26259 19.0789 8.71169 18.6298L18.6311 8.7103C19.0802 8.2612 19.8084 8.2612 20.2575 8.7103ZM10.4347 12.2645C11.4449 12.2645 12.2637 11.4456 12.2637 10.4355C12.2637 9.42535 11.4449 8.60647 10.4347 8.60647C9.42458 8.60647 8.60569 9.42535 8.60569 10.4355C8.60569 11.4456 9.42458 12.2645 10.4347 12.2645ZM18.5637 20.3935C19.5738 20.3935 20.3927 19.5746 20.3927 18.5645C20.3927 17.5543 19.5738 16.7354 18.5637 16.7354C17.5536 16.7354 16.7347 17.5543 16.7347 18.5645C16.7347 19.5746 17.5536 20.3935 18.5637 20.3935Z" fill="url(#paint0_linear_1651_2511)"/>
<defs>
<linearGradient id="paint0_linear_1651_2511" x1="0" y1="0" x2="29.5448" y2="0.517228" gradientUnits="userSpaceOnUse">
<stop stop-color="#1BACF4"/>
<stop offset="1" stop-color="#19EEB5"/>
</linearGradient>
</defs>
</svg>
