<svg width="28" height="25" viewBox="0 0 28 25" fill="none" xmlns="http://www.w3.org/2000/svg">
<path d="M1.02392e-05 10.4146C0.000514524 8.16578 0.734353 5.97746 2.09185 4.17675C3.44934 2.37604 5.35759 1.05966 7.53138 0.424334C9.70517 -0.210987 12.0278 -0.131124 14.152 0.651988C16.2763 1.4351 18.0882 2.8794 19.3168 4.76904C20.5455 6.65867 21.1249 8.89215 20.9686 11.1357C20.8122 13.3792 19.9285 15.5122 18.4494 17.216C16.9704 18.9198 14.9754 20.1029 12.7627 20.5883C10.5501 21.0738 8.23849 20.8356 6.17352 19.9094C4.41286 20.3121 2.51644 20.6594 1.64451 20.8149C1.42168 20.8545 1.1925 20.8395 0.976786 20.7714C0.761074 20.7033 0.565314 20.5841 0.406428 20.4241C0.247542 20.2641 0.13031 20.0681 0.0648637 19.8531C-0.000582555 19.6381 -0.0122737 19.4104 0.0308009 19.1899C0.19595 18.3426 0.562638 16.5259 0.98391 14.8245C0.333779 13.444 -0.00213802 11.9384 1.02392e-05 10.4146ZM8.59898 4.59087C7.98037 4.91866 7.49332 5.42839 7.12523 6.1048C7.00476 6.34644 6.98338 6.62503 7.06558 6.88199C7.14779 7.13895 7.32719 7.35427 7.56606 7.48269C7.80493 7.61111 8.08466 7.64262 8.34646 7.5706C8.60825 7.49858 8.83172 7.32863 8.96987 7.0965C9.17561 6.72148 9.38694 6.53537 9.58848 6.42981C9.79841 6.31731 10.0839 6.24925 10.4968 6.24925C10.8103 6.24925 11.1784 6.35897 11.4485 6.57981C11.6878 6.77426 11.8964 7.08538 11.8964 7.63679C11.8964 7.90763 11.7914 8.03263 11.0734 8.59237C10.4436 9.08405 9.44712 9.8813 9.44712 11.4563C9.44712 11.7326 9.55771 11.9976 9.75457 12.1929C9.95142 12.3883 10.2184 12.498 10.4968 12.498C10.7752 12.498 11.0422 12.3883 11.239 12.1929C11.4359 11.9976 11.5465 11.7326 11.5465 11.4563C11.5465 10.9424 11.776 10.6938 12.3694 10.2299L12.4884 10.1396C13.03 9.72574 13.9957 8.99099 13.9957 7.63679C13.9957 6.45898 13.5045 5.55617 12.7809 4.96727C12.1333 4.45045 11.3278 4.16781 10.4968 4.16586C9.86 4.16586 9.2064 4.26864 8.59898 4.59087ZM11.8964 15.2759C11.8964 14.9075 11.7489 14.5542 11.4864 14.2938C11.224 14.0333 10.868 13.887 10.4968 13.887C10.1256 13.887 9.76962 14.0333 9.50715 14.2938C9.24468 14.5542 9.09723 14.9075 9.09723 15.2759C9.09723 15.6443 9.24468 15.9975 9.50715 16.258C9.76962 16.5185 10.1256 16.6648 10.4968 16.6648C10.868 16.6648 11.224 16.5185 11.4864 16.258C11.7489 15.9975 11.8964 15.6443 11.8964 15.2759ZM10.3568 22.2205C12.2961 24.0096 14.8469 25.0023 17.4947 24.9984C18.9855 25.0004 20.4596 24.6859 21.8179 24.0761C23.5814 24.4789 25.4862 24.8262 26.3638 24.9789C26.587 25.018 26.8164 25.0025 27.0322 24.9338C27.2481 24.865 27.4437 24.745 27.6023 24.5842C27.7608 24.4235 27.8775 24.2268 27.9421 24.0112C28.0068 23.7956 28.0174 23.5676 27.9733 23.347C27.6829 21.8883 27.3609 20.4361 27.0076 18.9913C27.6299 17.669 27.9654 16.2317 27.9923 14.7725C28.0193 13.3134 27.7372 11.8649 27.1642 10.5208C26.5911 9.17673 25.74 7.96709 24.666 6.97022C23.5919 5.97335 22.3189 5.21147 20.9292 4.73393C21.9296 6.54229 22.4351 8.57923 22.3952 10.6418C22.3554 12.7044 21.7716 14.7206 20.7021 16.4896C19.6326 18.2586 18.1146 19.7185 16.2995 20.7241C14.4844 21.7296 12.4355 22.2455 10.3568 22.2205Z" fill="url(#paint0_linear_995_2751)"/>
<defs>
<linearGradient id="paint0_linear_995_2751" x1="0" y1="0" x2="28.5238" y2="0.559276" gradientUnits="userSpaceOnUse">
<stop stop-color="#1BACF4"/>
<stop offset="1" stop-color="#19EEB5"/>
</linearGradient>
</defs>
</svg>
