<svg width="21" height="19" viewBox="0 0 21 19" fill="none" xmlns="http://www.w3.org/2000/svg">
<path d="M9.98292 13.1929C11.756 13.1929 13.1934 11.7555 13.1934 9.98243C13.1934 8.20934 11.756 6.77197 9.98292 6.77197C8.20983 6.77197 6.77246 8.20934 6.77246 9.98243C6.77246 11.7555 8.20983 13.1929 9.98292 13.1929Z" fill="url(#paint0_linear_1212_2335)"/>
<path d="M7.02288 0L5.1869 2.00654H2.00654C0.902941 2.00654 0 2.90948 0 4.01307V16.0523C0 17.1559 0.902941 18.0588 2.00654 18.0588H18.0588C19.1624 18.0588 20.0654 17.1559 20.0654 16.0523V4.01307C20.0654 2.90948 19.1624 2.00654 18.0588 2.00654H14.8785L13.0425 0H7.02288ZM10.0327 15.049C7.26366 15.049 5.01634 12.8017 5.01634 10.0327C5.01634 7.26366 7.26366 5.01634 10.0327 5.01634C12.8017 5.01634 15.049 7.26366 15.049 10.0327C15.049 12.8017 12.8017 15.049 10.0327 15.049Z" fill="url(#paint1_linear_1212_2335)"/>
<defs>
<linearGradient id="paint0_linear_1212_2335" x1="6.77246" y1="6.77197" x2="13.314" y2="6.88649" gradientUnits="userSpaceOnUse">
<stop stop-color="#1BACF4"/>
<stop offset="1" stop-color="#19EEB5"/>
</linearGradient>
<linearGradient id="paint1_linear_1212_2335" x1="0" y1="0" x2="20.4408" y2="0.39761" gradientUnits="userSpaceOnUse">
<stop stop-color="#1BACF4"/>
<stop offset="1" stop-color="#19EEB5"/>
</linearGradient>
</defs>
</svg>
