<svg width="82" height="82" viewBox="0 0 82 82" fill="none" xmlns="http://www.w3.org/2000/svg">
<g filter="url(#filter0_d_232_407)">
<circle cx="41" cy="38" r="29" fill="#FEFEFE"/>
</g>
<path fill-rule="evenodd" clip-rule="evenodd" d="M50.7401 50.9859C51.4175 50.9859 51.6009 50.2251 51.8408 49.746L52.5747 48.1961C52.7863 47.7593 54 45.364 54 44.9977C54 44.3214 53.5061 44.1241 52.7863 43.6732C51.9819 43.1801 48.5385 40.8411 48.1575 40.8411C47.6071 40.8411 47.0144 41.602 46.5205 42.0952C46.2665 42.3488 46.0548 42.5601 45.8149 42.7997C45.5891 43.0251 45.3492 43.3773 44.9117 43.3773C44.1496 43.3773 43.1053 42.9969 42.5267 42.7574C40.4945 41.9261 38.8011 40.4325 37.5027 38.6995C37.0511 38.1077 36.7407 37.5018 36.3879 36.8114L35.9645 35.7124C35.8516 35.3179 35.7528 34.9093 35.6681 34.4866C35.5694 33.9089 35.6681 33.7398 36.0068 33.4157L37.531 31.894C38.5188 30.9077 38.2789 30.7387 37.2628 29.231C36.91 28.7097 34.8637 25.3563 34.5392 25.1449C33.9464 24.7786 33.4949 25.1872 32.8457 25.4831C32.4223 25.6804 32.0836 25.8213 31.6603 26.0185C31.0817 26.2862 28.4144 27.5121 28.2451 27.6952C27.9064 28.0616 27.9911 28.5124 28.0757 29.062C28.1463 29.5551 28.231 30.0905 28.3298 30.5414L28.6685 31.9363C28.9084 32.9226 29.5999 34.7684 30.0515 35.6842L30.6301 36.8396C31.0675 37.6709 31.5332 38.4599 32.0554 39.2208C32.126 39.3335 32.1542 39.3899 32.2389 39.5026L33.7206 41.4329C34.1722 41.9402 34.4121 42.2642 34.9343 42.7997C35.0895 42.9546 35.2307 43.0814 35.3577 43.2505C35.5552 43.5182 37.164 44.9554 37.5733 45.2936C37.912 45.5613 38.1801 45.8008 38.5329 46.0544C39.3797 46.6885 39.7043 46.8998 40.5792 47.4634C43.2182 49.1683 46.0971 50.2391 49.2018 50.8168C49.6675 50.9014 50.232 51 50.7542 51L50.7401 50.9859Z" fill="#2196F3"/>
<path fill-rule="evenodd" clip-rule="evenodd" d="M40.0708 25.9198C40.0708 27.0611 41.6372 26.8075 42.3428 26.892C43.2884 27.0047 44.1774 27.2302 44.9536 27.5402C45.7016 27.8361 45.9415 27.9347 46.6047 28.3292C46.7882 28.4419 46.9293 28.5265 47.0987 28.6392L48.0442 29.3155C48.143 29.4 48.1571 29.4141 48.2559 29.5128C48.3547 29.6114 48.3829 29.6114 48.4817 29.6959C49.1873 30.2877 50.1751 31.5558 50.655 32.3871C51.0501 33.0634 51.1489 33.303 51.4453 34.0356C51.7557 34.8106 51.9815 35.7123 52.0944 36.6423C52.1791 37.3468 51.9251 38.9108 53.0682 38.9108C53.9008 38.9108 53.9714 38.2626 53.9855 37.7695V37.544C53.9855 34.9515 52.8141 31.9644 51.3041 30.0764L50.1893 28.8083L48.4958 27.3993C46.3084 25.8635 43.8952 25.0181 40.9175 25.0181C40.4236 25.0181 40.0566 25.4408 40.0566 25.9339L40.0708 25.9198Z" fill="#2196F3"/>
<path fill-rule="evenodd" clip-rule="evenodd" d="M40.0708 30.3865C40.0708 30.6965 40.2401 30.9642 40.4236 31.1051C40.9034 31.4574 41.5667 31.1333 43.0908 31.6406C45.1088 32.3169 46.6894 33.8809 47.3668 35.8957C47.8466 37.3611 47.5503 38.0938 47.9031 38.5587C48.3688 39.1787 49.526 38.9673 49.526 37.9529C49.526 34.9517 47.9172 32.4719 45.9132 31.0488C45.7157 30.9079 45.4899 30.7529 45.2641 30.6261C43.9234 29.8793 42.5969 29.4707 40.9739 29.4707C40.4659 29.4707 40.0566 29.8793 40.0566 30.3865H40.0708Z" fill="#2196F3"/>
<defs>
<filter id="filter0_d_232_407" x="0" y="0" width="82" height="82" filterUnits="userSpaceOnUse" color-interpolation-filters="sRGB">
<feFlood flood-opacity="0" result="BackgroundImageFix"/>
<feColorMatrix in="SourceAlpha" type="matrix" values="0 0 0 0 0 0 0 0 0 0 0 0 0 0 0 0 0 0 127 0" result="hardAlpha"/>
<feOffset dy="3"/>
<feGaussianBlur stdDeviation="6"/>
<feComposite in2="hardAlpha" operator="out"/>
<feColorMatrix type="matrix" values="0 0 0 0 0 0 0 0 0 0 0 0 0 0 0 0 0 0 0.25 0"/>
<feBlend mode="normal" in2="BackgroundImageFix" result="effect1_dropShadow_232_407"/>
<feBlend mode="normal" in="SourceGraphic" in2="effect1_dropShadow_232_407" result="shape"/>
</filter>
</defs>
</svg>
