<svg width="82" height="82" viewBox="0 0 82 82" fill="none" xmlns="http://www.w3.org/2000/svg">
<g filter="url(#filter0_d_242_237)">
<circle cx="41" cy="38" r="29" fill="#FEFEFE"/>
<path fill-rule="evenodd" clip-rule="evenodd" d="M27 37.6089V37.68V38.1156C27 39.1733 27.0267 39.5022 27.2844 40.8267C27.5776 42.3022 28.2796 44.1422 29.106 45.4044C29.8347 46.5067 29.7902 45.7867 28.7772 48.8089C28.6262 49.2711 27.9508 51.0844 27.9242 51.4044L32.616 49.92C33.5668 49.6 33.2913 49.7511 34.0289 50.16C34.491 50.4178 34.8731 50.6133 35.3796 50.8356C37.4056 51.7333 39.1206 52 41.3777 52C43.4925 52 45.0387 51.4844 46.8781 50.72C48.2199 50.1689 50.2904 48.6756 51.2945 47.4756L53.1162 45.0311C54.4935 42.6844 55 40.3822 55 37.6178C55 35.5111 54.4846 33.9644 53.7204 32.1156C53.3028 31.1111 52.4586 29.8667 51.7388 29.0133L51.3301 28.5511C48.913 25.8133 45.0565 24 41.3954 24C38.6319 24 37.4856 24.3111 35.1308 25.28C34.2155 25.6622 32.5538 26.7378 31.7896 27.4578L31.3275 27.8667C31.2387 27.9378 31.1942 28 31.1054 28.0889C30.3234 28.8711 29.4614 30.0089 28.9016 30.9689C27.782 32.88 27.0178 35.3333 27.0178 37.6178L27 37.6089Z" fill="#4CAF50"/>
<path fill-rule="evenodd" clip-rule="evenodd" d="M35.3723 30.4264C35.0436 30.4709 34.7948 30.5509 34.5371 30.7197C34.4038 30.8086 34.075 31.1109 33.9595 31.2353C32.6799 32.6931 32.6266 34.5597 33.293 36.3464C33.8528 37.8575 35.71 40.2575 36.963 41.5375C38.4736 43.0931 40.2686 44.222 42.339 45.022C43.2987 45.3953 44.8094 45.9286 45.9734 45.8131C47.1819 45.6886 48.346 44.942 48.8614 44.2753C49.1635 43.8753 49.3324 43.2442 49.4123 42.6397C49.5545 41.5731 49.2435 41.6709 48.5148 41.3064C48.0083 41.0486 45.9201 39.9375 45.4314 39.9553C44.9249 39.982 44.6405 40.5597 44.3117 41.0309C43.9296 41.5731 43.6097 42.0531 43.0233 41.9909C41.9925 41.8842 39.7354 40.2753 38.9534 39.4309C38.4825 38.9242 37.2118 37.3953 37.0874 36.862C36.9896 36.4442 37.5494 35.9731 37.9315 35.5286C38.3403 35.0575 38.6246 34.8264 38.3048 34.0531C37.9937 33.2975 37.3095 31.5731 36.9896 30.9331C36.6964 30.3464 36.1899 30.2931 35.3635 30.4086L35.3723 30.4264Z" fill="#F9F9F9"/>
</g>
<defs>
<filter id="filter0_d_242_237" x="0" y="0" width="82" height="82" filterUnits="userSpaceOnUse" color-interpolation-filters="sRGB">
<feFlood flood-opacity="0" result="BackgroundImageFix"/>
<feColorMatrix in="SourceAlpha" type="matrix" values="0 0 0 0 0 0 0 0 0 0 0 0 0 0 0 0 0 0 127 0" result="hardAlpha"/>
<feOffset dy="3"/>
<feGaussianBlur stdDeviation="6"/>
<feComposite in2="hardAlpha" operator="out"/>
<feColorMatrix type="matrix" values="0 0 0 0 0 0 0 0 0 0 0 0 0 0 0 0 0 0 0.25 0"/>
<feBlend mode="normal" in2="BackgroundImageFix" result="effect1_dropShadow_242_237"/>
<feBlend mode="normal" in="SourceGraphic" in2="effect1_dropShadow_242_237" result="shape"/>
</filter>
</defs>
</svg>
