<svg width="69" height="69" viewBox="0 0 69 69" fill="none" xmlns="http://www.w3.org/2000/svg">
<g filter="url(#filter0_d_3349_1593)">
<circle r="25.2063" transform="matrix(1 0 0 -1 33.2063 31.6454)" fill="white"/>
</g>
<circle r="21.2758" transform="matrix(1 0 0 -1 33.2057 31.6454)" stroke="url(#paint0_linear_3349_1593)" stroke-width="1.75044"/>
<path fill-rule="evenodd" clip-rule="evenodd" d="M32.0809 41.801C32.0809 39.1075 36.0499 39.0061 36.0499 41.9097C36.0499 42.84 35.1406 43.7508 34.2265 43.7508C33.3621 43.7508 32.6006 43.385 32.2632 42.5926C32.1765 42.389 32.0809 42.063 32.0809 41.8018V41.801ZM43.0216 37.4691H41.7348V30.2669C42.812 30.2669 43.5566 30.0933 44.0258 30.8785C44.2418 31.241 44.417 31.6611 44.417 32.2167V36.332C44.417 37.1666 43.8386 37.4691 43.0224 37.4691H43.0216ZM21.998 36.0611V31.8915C21.998 30.9912 22.5097 30.2669 23.3925 30.2669H25.0553V37.4691C23.8343 37.4691 21.998 37.7814 21.998 36.0611ZM23.6608 27.4509V28.8589C21.7811 28.8589 20.6035 30.0495 20.6035 31.9458V36.0068C20.6035 36.4845 20.7047 36.8641 20.8469 37.2226C21.0003 37.6087 21.1851 37.8122 21.4478 38.0783C22.4663 39.114 23.9203 38.8763 25.5911 38.8763C26.1317 38.8763 26.449 38.5949 26.449 38.0645V29.996C26.449 28.7008 25.8024 28.8589 25.0545 28.8589C25.0545 25.9415 25.1116 24.3591 26.8547 22.0119C28.1986 20.2016 30.7514 18.8407 32.9926 18.8407C35.1004 18.8407 36.4483 19.1789 38.1851 20.3671C40.1941 21.7418 41.681 24.4167 41.681 27.0178V28.8589C41.142 28.8589 40.3403 28.747 40.3403 29.6708V38.281C40.3403 38.9729 41.3275 38.8763 41.681 38.8763C41.5099 39.2024 41.1709 39.5025 40.9178 39.7304C39.9659 40.5861 38.7867 41.097 37.3368 41.097C37.3223 40.4595 36.6893 39.5414 36.3182 39.2551C35.4274 38.5681 35.0008 38.3897 33.8505 38.3897C32.9573 38.3897 32.0961 38.938 31.6375 39.4043C30.4968 40.5625 30.3851 42.3444 31.2856 43.6876C31.3555 43.7922 31.3676 43.8068 31.4503 43.9001C32.2737 44.8279 32.9741 45.1588 34.2795 45.1588C35.494 45.1588 36.7624 44.2237 37.2147 43.0322C37.2886 42.8384 37.3159 42.6056 37.3898 42.4507C38.6052 42.4507 39.4751 42.1766 40.3218 41.7832C41.5677 41.2049 42.4401 40.2519 43.1703 39.1359C43.2289 39.0459 43.2811 38.9493 43.3462 38.8796C43.5141 38.6987 43.3727 38.7952 43.7004 38.7498C43.9551 38.7149 44.1928 38.6509 44.4153 38.5511C45.25 38.174 45.8099 37.4927 45.8099 36.2769V32.2694C45.8099 30.5678 44.6925 28.8946 43.0747 28.8581C43.0747 26.7599 43.1229 25.0242 42.2176 23.1717C41.8432 22.4053 41.4095 21.6194 40.86 20.9681L40.2993 20.3428C40.1901 20.2333 40.1162 20.1481 40.0045 20.0443C38.4236 18.5682 36.0073 17.4319 33.7421 17.4319C31.9339 17.4319 30.635 17.6395 29.1296 18.4059C27.5536 19.2089 26.2787 20.32 25.3003 21.7962C24.967 22.299 24.6979 22.793 24.448 23.3729C23.9717 24.4776 23.6592 25.8856 23.6592 27.4501L23.6608 27.4509Z" fill="url(#paint1_linear_3349_1593)" stroke="url(#paint2_linear_3349_1593)" stroke-width="0.350088"/>
<defs>
<filter id="filter0_d_3349_1593" x="0.998239" y="0.837678" width="67.2163" height="67.2169" filterUnits="userSpaceOnUse" color-interpolation-filters="sRGB">
<feFlood flood-opacity="0" result="BackgroundImageFix"/>
<feColorMatrix in="SourceAlpha" type="matrix" values="0 0 0 0 0 0 0 0 0 0 0 0 0 0 0 0 0 0 127 0" result="hardAlpha"/>
<feOffset dx="1.40035" dy="2.8007"/>
<feGaussianBlur stdDeviation="4.20106"/>
<feComposite in2="hardAlpha" operator="out"/>
<feColorMatrix type="matrix" values="0 0 0 0 0 0 0 0 0 0 0 0 0 0 0 0 0 0 0.35 0"/>
<feBlend mode="normal" in2="BackgroundImageFix" result="effect1_dropShadow_3349_1593"/>
<feBlend mode="normal" in="SourceGraphic" in2="effect1_dropShadow_3349_1593" result="shape"/>
</filter>
<linearGradient id="paint0_linear_3349_1593" x1="0" y1="0" x2="45.1343" y2="0.790147" gradientUnits="userSpaceOnUse">
<stop stop-color="#1BACF4"/>
<stop offset="1" stop-color="#19EEB5"/>
</linearGradient>
<linearGradient id="paint1_linear_3349_1593" x1="20.6035" y1="17.4319" x2="46.2847" y2="17.8406" gradientUnits="userSpaceOnUse">
<stop stop-color="#1BACF4"/>
<stop offset="1" stop-color="#19EEB5"/>
</linearGradient>
<linearGradient id="paint2_linear_3349_1593" x1="20.6035" y1="17.4319" x2="46.2847" y2="17.8406" gradientUnits="userSpaceOnUse">
<stop stop-color="#1BACF4"/>
<stop offset="1" stop-color="#19EEB5"/>
</linearGradient>
</defs>
</svg>
