<svg width="22" height="22" viewBox="0 0 22 22" fill="none" xmlns="http://www.w3.org/2000/svg">
<path d="M0.998849 19.4016L0.998852 19.4015L2.06156 15.5975C1.32913 14.1759 0.947929 12.5993 0.950008 10.9999M0.998849 19.4016L6.41301 19.888C7.83083 20.6208 9.404 21.0022 11 21M0.998849 19.4016C0.936894 19.6236 0.935073 19.858 0.993573 20.081C1.05207 20.3039 1.16879 20.5073 1.33176 20.6702C1.49474 20.8332 1.69811 20.9499 1.92104 21.0084C2.14397 21.0669 2.37845 21.0651 2.60044 21.0032L6.40754 19.9414L0.998849 19.4016ZM0.950008 10.9999L1.00001 11M0.950008 10.9999C0.950008 11 0.950008 11 0.950008 11H1.00001M0.950008 10.9999C0.950044 5.44935 5.44942 0.95 11 0.95C16.5506 0.95 21.05 5.44939 21.05 11C21.05 16.5506 16.5507 21.05 11.0001 21.05C11.0001 21.05 11 21.05 11 21.05V21M1.00001 11C0.997931 12.5979 1.38036 14.1729 2.11501 15.592L11 21M1.00001 11C1.00001 5.477 5.47701 1 11 1C16.523 1 21 5.477 21 11C21 16.523 16.523 21 11 21M3.61672 15.1127L3.61667 15.1126C2.92081 13.8661 2.55001 12.4614 2.55001 11C2.55001 8.75892 3.44027 6.60963 5.02496 5.02495C6.60964 3.44027 8.75893 2.55 11 2.55C12.2903 2.55025 13.5634 2.84598 14.7217 3.41451C15.8799 3.98304 16.8926 4.80928 17.6821 5.82986C18.4716 6.85044 19.0168 8.03826 19.2761 9.30223C19.5353 10.5662 19.5016 11.8728 19.1777 13.1217C18.8537 14.3707 18.248 15.5288 17.407 16.5074C16.5661 17.486 15.5122 18.259 14.3262 18.7671C13.1401 19.2753 11.8535 19.5051 10.5649 19.4389C9.27633 19.3727 8.02002 19.0123 6.8923 18.3853L6.89229 18.3853L6.62229 18.2353L6.60435 18.2253L6.58458 18.2308L2.68301 19.319L3.77117 15.4204L3.77669 15.4007L3.76672 15.3827L3.61672 15.1127ZM12.7346 10.8942L12.7351 10.8936C13.1136 10.4995 13.3808 10.1576 13.5527 9.78481C13.7249 9.4113 13.8 9.01027 13.8 8.5C13.8 7.75739 13.505 7.0452 12.9799 6.5201C12.4548 5.995 11.7426 5.7 11 5.7C10.2574 5.7 9.54521 5.995 9.02011 6.5201C8.49501 7.0452 8.20001 7.75739 8.20001 8.5C8.20001 8.71217 8.28429 8.91566 8.43432 9.06569C8.58435 9.21571 8.78784 9.3 9.00001 9.3C9.21218 9.3 9.41566 9.21571 9.56569 9.06569C9.71539 8.91598 9.79964 8.71306 9.80001 8.50139L9.80686 8.376C9.83956 8.07128 9.98762 7.79059 10.2207 7.59153C10.4541 7.3922 10.755 7.28988 11.0615 7.30562C11.3681 7.32136 11.6569 7.45396 11.8687 7.67615C12.0804 7.89834 12.199 8.19323 12.2 8.50016C12.2 8.78678 12.1613 8.98981 12.0493 9.19696C11.9359 9.40665 11.7457 9.62364 11.4347 9.93464L11.4344 9.93485L11.2654 10.1058L11.2649 10.1064C10.8864 10.5005 10.6193 10.8424 10.4474 11.2152C10.2751 11.5887 10.2 11.9897 10.2 12.5C10.2 12.7122 10.2843 12.9157 10.4343 13.0657C10.5844 13.2157 10.7878 13.3 11 13.3C11.2122 13.3 11.4157 13.2157 11.5657 13.0657C11.7157 12.9157 11.8 12.7122 11.8 12.5C11.8 12.2133 11.8387 12.0102 11.9507 11.803C12.0642 11.5934 12.2544 11.3764 12.5654 11.0654L12.5656 11.0651L12.7346 10.8942ZM11.7425 14.7575C11.5456 14.5606 11.2785 14.45 11 14.45C10.7215 14.45 10.4545 14.5606 10.2575 14.7575C10.0606 14.9545 9.95001 15.2215 9.95001 15.5C9.95001 15.7785 10.0606 16.0455 10.2575 16.2425C10.4545 16.4394 10.7215 16.55 11 16.55C11.2785 16.55 11.5456 16.4394 11.7425 16.2425C11.9394 16.0455 12.05 15.7785 12.05 15.5C12.05 15.2215 11.9394 14.9545 11.7425 14.7575Z" fill="url(#paint0_linear_2032_3027)" stroke="url(#paint1_linear_2032_3027)" stroke-width="0.1"/>
<defs>
<linearGradient id="paint0_linear_2032_3027" x1="1" y1="1" x2="21.3757" y2="1.35669" gradientUnits="userSpaceOnUse">
<stop stop-color="#1BACF4"/>
<stop offset="1" stop-color="#19EEB5"/>
</linearGradient>
<linearGradient id="paint1_linear_2032_3027" x1="1" y1="1" x2="21.3757" y2="1.35669" gradientUnits="userSpaceOnUse">
<stop stop-color="#1BACF4"/>
<stop offset="1" stop-color="#19EEB5"/>
</linearGradient>
</defs>
</svg>
