<svg width="69" height="19" viewBox="0 0 69 19" fill="none" xmlns="http://www.w3.org/2000/svg">
<path fill-rule="evenodd" clip-rule="evenodd" d="M68.7375 8.98846C68.6475 8.89712 68.5395 8.84231 68.3954 8.84231C68.3054 8.84231 68.1613 8.89712 68.0533 8.93365C67.6212 9.31731 67.225 9.51827 66.9009 9.51827C66.3608 9.51827 65.8926 9.07981 65.2984 8.53173C64.7583 8.03846 64.1821 7.50865 63.4619 7.16154C63.1198 7.01538 62.7776 6.96058 62.3455 6.96058C61.6613 6.96058 60.9051 7.16154 60.1308 7.30769C59.4466 7.45385 58.8344 7.6 58.2942 7.6C57.9161 7.6 57.664 7.50865 57.466 7.3625C56.9798 6.92404 57.0879 6.63173 57.1239 6.52212C57.3579 5.88269 58.7264 5.35288 59.8787 5.35288C60.2208 5.35288 60.5089 5.40769 60.743 5.49904C60.833 5.55385 60.9411 5.59038 61.0851 5.7C61.6253 6.04712 62.4355 6.54038 63.2638 6.54038C63.894 6.54038 64.4162 6.24808 64.8123 5.66346C64.9023 5.4625 64.9023 5.225 64.7583 5.07885C64.6682 4.93269 64.5242 4.87788 64.3801 4.87788C64.3261 4.87788 64.2901 4.87788 64.2361 4.93269C64.1461 4.9875 64.038 4.9875 63.948 4.9875C63.1198 4.9875 62.3095 3.5625 61.8233 2.59423C61.6253 2.24712 61.4812 1.95481 61.3372 1.71731C60.563 0.548077 59.4106 0 58.0602 0C57.9521 0 52.0823 0 51.254 0C50.6599 0.0182692 50.0297 0.0182692 49.5075 0.0182692C49.2194 0.0182692 48.9313 0.0182692 48.6792 0.0182692H-51V18.9452H48.9673C49.0213 18.9452 49.0574 18.9452 49.1654 18.9452C49.2554 18.9452 49.3995 18.9452 49.5435 18.9452C50.6058 18.9452 51.5241 18.799 52.3884 18.7077C53.1086 18.6163 53.8288 18.5067 54.5131 18.5067C55.2873 18.5067 55.9535 18.6529 56.6377 18.9452C56.6917 19 56.7818 19 56.8358 19C56.9798 19 57.1239 18.9452 57.2139 18.799C57.3579 18.5981 57.3579 18.3606 57.2139 18.1596C56.0615 16.4971 55.2333 16.2048 54.315 16.2048C54.225 16.2048 54.1169 16.2048 54.0269 16.2048C53.9369 16.2048 53.8288 16.2048 53.7388 16.2048C53.3967 16.2048 52.9646 16.15 52.3884 15.7663C51.9563 15.4192 51.7042 14.6885 51.8122 14.3413C51.8122 14.2865 51.8662 14.1404 52.1903 14.1404C52.2443 14.1404 52.3344 14.1404 52.3884 14.1404C53.1086 14.2317 53.9369 14.9808 54.7111 15.6567C55.4854 16.351 56.1516 16.9721 56.9258 17.1183C57.1599 17.1731 57.466 17.1731 57.7001 17.1731C59.1405 17.1731 60.1668 16.4788 61.0851 15.8577C61.8053 15.3644 62.3815 14.9808 63.0657 14.9808C63.2638 14.9808 63.4439 15.0356 63.6419 15.0721C63.6959 15.0721 63.7319 15.1269 63.84 15.1269C64.038 15.1269 64.1821 15.0356 64.2721 14.8894C64.4162 14.6885 64.3621 14.3962 64.1821 14.25C63.804 13.9029 63.3178 13.7019 62.7776 13.7019C62.3455 13.7019 61.9134 13.7933 61.4812 13.9029C61.1031 13.9942 60.761 14.1038 60.4189 14.1038C60.3649 14.1038 60.2749 14.1038 60.2208 14.1038C59.5366 14.0125 59.5006 13.4096 59.5366 13.2269C59.5906 12.8433 59.8247 12.3865 60.3649 12.3865H60.4189C61.0491 12.3865 61.6253 12.6788 62.2015 12.9712C62.8317 13.2635 63.4979 13.6106 64.3261 13.6106C64.7583 13.6106 65.2444 13.5192 65.6766 13.2635C67.081 12.5692 67.9453 11.2538 68.7195 10.0846L68.9176 9.79231C69.0616 9.59135 69.0076 9.29904 68.8275 9.09808L68.7375 9.04327V8.98846Z" fill="url(#paint0_radial_2494_2872)"/>
<defs>
<radialGradient id="paint0_radial_2494_2872" cx="0" cy="0" r="1" gradientUnits="userSpaceOnUse" gradientTransform="translate(58.2271 1.47537) scale(104.66 44.1826)">
<stop stop-color="#F18917"/>
<stop offset="0.0705882" stop-color="#F18917"/>
<stop offset="1" stop-color="#E32124"/>
</radialGradient>
</defs>
</svg>
