<svg width="56" height="73" viewBox="0 0 56 73" fill="none" xmlns="http://www.w3.org/2000/svg">
<path fill-rule="evenodd" clip-rule="evenodd" d="M0 64.1758C0 65.3218 1.0314 66.124 1.8336 66.8116C2.292 67.27 2.5212 67.3846 3.09419 67.7284C3.55259 68.0722 3.89639 68.3014 4.35479 68.5306C9.97018 71.5102 17.3046 72.7708 24.5244 73H30.1397C32.8901 72.8854 35.6405 72.6562 38.1617 72.427C42.9749 71.854 51.9137 69.6766 55.0079 65.7802C55.4663 65.2072 55.8101 65.2072 55.8101 64.2904C55.8101 57.6436 55.8101 52.0282 53.4035 46.2982C53.1743 45.7252 53.1743 45.8398 52.9451 45.3814L51.6845 43.6624C50.6531 42.2872 49.1633 41.2558 47.5589 40.4536C45.2669 39.3076 43.7771 38.7346 41.0267 38.047C33.0047 36.2135 37.9325 36.901 33.0047 39.0784C29.2229 40.6828 23.9514 40.339 20.7426 37.7032C19.5966 36.7864 19.8258 36.7864 16.617 37.5886C12.7206 38.62 9.74098 39.3076 6.30299 41.5996C-0.1146 45.9544 0.1146 57.0706 0.1146 64.0612L0 64.1758Z" fill="url(#paint0_linear_872_2626)"/>
<path fill-rule="evenodd" clip-rule="evenodd" d="M13.0633 15.5856C13.0633 19.3674 12.9487 21.6594 14.4385 25.212C15.3553 27.504 15.9283 28.5353 17.3035 30.3689C18.9079 32.5463 21.6583 34.3799 24.2941 35.1821C27.5029 36.2135 31.0555 35.6405 33.9205 34.0361C39.1921 30.9419 42.5155 24.639 42.5155 18.7944C42.5155 14.5542 42.5155 10.4286 40.6819 6.64679C40.2235 5.72999 39.7651 5.15699 39.1921 4.35479C37.5877 2.1774 34.9519 0.916798 32.3161 0.343799C31.5139 0.1146 30.5971 0 29.6803 0H26.1277C23.1481 0.2292 20.1685 1.0314 18.1057 2.5212C16.7305 3.55259 15.5845 4.92779 14.7823 6.53219C13.5217 9.05338 12.9487 12.7206 12.9487 15.7002L13.0633 15.5856Z" fill="url(#paint1_linear_872_2626)"/>
<defs>
<linearGradient id="paint0_linear_872_2626" x1="0" y1="36.9908" x2="56.8341" y2="38.5329" gradientUnits="userSpaceOnUse">
<stop stop-color="#1BACF4"/>
<stop offset="1" stop-color="#19EEB5"/>
</linearGradient>
<linearGradient id="paint1_linear_872_2626" x1="12.9487" y1="0" x2="43.0738" y2="0.436778" gradientUnits="userSpaceOnUse">
<stop stop-color="#1BACF4"/>
<stop offset="1" stop-color="#19EEB5"/>
</linearGradient>
</defs>
</svg>
