<svg width="34" height="34" viewBox="0 0 34 34" fill="none" xmlns="http://www.w3.org/2000/svg">
<path d="M23.7042 11.5272C23.7042 10.8431 23.1569 10.2958 22.4728 10.2958C21.7887 10.2958 21.2414 10.8431 21.2414 11.5272C21.2414 12.2113 21.7887 12.7586 22.4728 12.7586C23.1569 12.7586 23.7042 12.2113 23.7042 11.5272ZM17 20.4205C15.1187 20.4205 13.5795 18.8813 13.5795 17C13.5795 15.1187 15.1187 13.5795 17 13.5795C18.8813 13.5795 20.4205 15.1187 20.4205 17C20.4205 18.8813 18.8813 20.4205 17 20.4205ZM17 11.7324C14.0926 11.7324 11.7324 14.0926 11.7324 17C11.7324 19.9074 14.0926 22.2676 17 22.2676C19.9074 22.2676 22.2676 19.9074 22.2676 17C22.2676 14.0926 19.9074 11.7324 17 11.7324ZM17 6.73843C14.1952 6.73843 13.8531 6.73843 12.7586 6.80684C11.664 6.84105 10.9115 7.04628 10.2616 7.28571C9.57747 7.55936 8.99598 7.90141 8.44869 8.4829C7.8672 9.06439 7.52515 9.61167 7.25151 10.2958C7.01207 10.9457 6.80684 11.6982 6.77264 12.7928C6.73843 13.8873 6.70423 14.2294 6.70423 17.0342C6.70423 19.839 6.70423 20.1811 6.77264 21.2757C6.80684 22.3702 7.01207 23.1227 7.25151 23.7726C7.52515 24.4567 7.8672 25.004 8.44869 25.5855C9.03018 26.167 9.57747 26.5091 10.2616 26.7827C10.9115 27.0221 11.664 27.2274 12.7586 27.2616C13.8531 27.33 14.1952 27.33 17 27.33C19.8048 27.33 20.1469 27.33 21.2414 27.2616C22.336 27.2274 23.0885 27.0221 23.7384 26.7827C24.4225 26.5091 24.9698 26.167 25.5513 25.5855C26.1328 25.004 26.4748 24.4567 26.7485 23.7726C26.9879 23.1227 27.1932 22.3702 27.2274 21.2757C27.2616 20.1811 27.2958 19.839 27.2958 17.0342C27.2958 14.2294 27.2958 13.8873 27.2274 12.7928C27.1932 11.6982 26.9879 10.9457 26.7485 10.2958C26.4748 9.61167 26.1328 9.03018 25.5513 8.4829C24.9698 7.90141 24.4225 7.55936 23.7384 7.28571C23.0885 7.04628 22.336 6.84105 21.2414 6.80684C20.1469 6.73843 19.8048 6.73843 17 6.73843ZM17 8.58551C19.7364 8.58551 20.0785 8.58551 21.1388 8.65392C22.1308 8.68813 22.6781 8.85915 23.0543 8.99598C23.5332 9.167 23.8753 9.40644 24.2515 9.7827C24.6278 10.1247 24.833 10.501 25.004 10.9457C25.1408 11.3219 25.3119 11.8692 25.3461 12.8612C25.3803 13.9557 25.4145 14.2636 25.4145 17C25.4145 19.7364 25.4145 20.0785 25.3461 21.1388C25.3119 22.1308 25.1408 22.6781 25.004 23.0543C24.833 23.5332 24.5936 23.8753 24.2515 24.2515C23.8753 24.5936 23.5332 24.833 23.0543 25.004C22.6781 25.1408 22.165 25.3119 21.1388 25.3461C20.0443 25.4145 19.7364 25.4145 17 25.4145C14.2636 25.4145 13.9215 25.4145 12.8612 25.3461C11.8692 25.3119 11.3219 25.1408 10.9457 25.004C10.4668 24.833 10.1247 24.5936 9.74849 24.2515C9.37223 23.8753 9.167 23.5332 8.99598 23.0543C8.85915 22.6781 8.68813 22.165 8.65392 21.1388C8.61972 20.0443 8.58551 19.7364 8.58551 17C8.58551 14.2636 8.58551 13.9215 8.65392 12.8612C8.68813 11.8692 8.85915 11.3219 8.99598 10.9457C9.167 10.4668 9.40644 10.1247 9.74849 9.7827C10.1247 9.40644 10.4668 9.20121 10.9457 8.99598C11.3219 8.85915 11.835 8.68813 12.8612 8.65392C13.9557 8.61972 14.2636 8.58551 17 8.58551ZM17 32.4608C8.44869 32.4608 1.53924 25.5513 1.53924 17C1.53924 8.44869 8.44869 1.53924 17 1.53924C25.5513 1.53924 32.4608 8.44869 32.4608 17C32.4608 25.5513 25.5513 32.4608 17 32.4608ZM17 0C7.59356 0 0 7.62777 0 17C0 26.4064 7.62777 34 17 34C26.4064 34 34 26.3722 34 17C34 7.59356 26.3722 0 17 0Z" fill="url(#paint0_linear_2609_2784)"/>
<defs>
<linearGradient id="paint0_linear_2609_2784" x1="11.2193" y1="-2.80483" x2="6.22535" y2="33.5895" gradientUnits="userSpaceOnUse">
<stop stop-color="#4857DF"/>
<stop offset="0.509804" stop-color="#EB068E"/>
<stop offset="0.760784" stop-color="#FF4957"/>
<stop offset="1" stop-color="#FFDB75"/>
</linearGradient>
</defs>
</svg>
