<svg width="34" height="34" viewBox="0 0 34 34" fill="none" xmlns="http://www.w3.org/2000/svg">
<path d="M23.7051 11.527C23.7051 10.8429 23.1578 10.2956 22.4737 10.2956C21.7896 10.2956 21.2423 10.8429 21.2423 11.527C21.2423 12.2111 21.7896 12.7584 22.4737 12.7584C23.1578 12.7584 23.7051 12.2111 23.7051 11.527ZM17.0009 20.4204C15.1196 20.4204 13.5803 18.8811 13.5803 16.9999C13.5803 15.1186 15.1196 13.5793 17.0009 13.5793C18.8821 13.5793 20.4214 15.1186 20.4214 16.9999C20.4214 18.8811 18.8821 20.4204 17.0009 20.4204ZM17.0009 11.7322C14.0934 11.7322 11.7332 14.0924 11.7332 16.9999C11.7332 19.9073 14.0934 22.2675 17.0009 22.2675C19.9083 22.2675 22.2685 19.9073 22.2685 16.9999C22.2685 14.0924 19.9083 11.7322 17.0009 11.7322ZM17.0009 6.73828C14.196 6.73828 13.854 6.73828 12.7594 6.80669C11.6648 6.8409 10.9123 7.04613 10.2624 7.28556C9.57832 7.55921 8.99683 7.90126 8.44954 8.48275C7.86806 9.06424 7.526 9.61152 7.25236 10.2956C7.01293 10.9455 6.80769 11.698 6.77349 12.7926C6.73928 13.8872 6.70508 14.2292 6.70508 17.0341C6.70508 19.8389 6.70508 20.1809 6.77349 21.2755C6.80769 22.3701 7.01293 23.1226 7.25236 23.7725C7.526 24.4566 7.86806 25.0039 8.44954 25.5854C9.03103 26.1669 9.57832 26.5089 10.2624 26.7825C10.9123 27.022 11.6648 27.2272 12.7594 27.2614C13.854 27.3298 14.196 27.3298 17.0009 27.3298C19.8057 27.3298 20.1477 27.3298 21.2423 27.2614C22.3369 27.2272 23.0894 27.022 23.7393 26.7825C24.4234 26.5089 24.9707 26.1669 25.5522 25.5854C26.1336 25.0039 26.4757 24.4566 26.7493 23.7725C26.9888 23.1226 27.194 22.3701 27.2282 21.2755C27.2624 20.1809 27.2966 19.8389 27.2966 17.0341C27.2966 14.2292 27.2966 13.8872 27.2282 12.7926C27.194 11.698 26.9888 10.9455 26.7493 10.2956C26.4757 9.61152 26.1336 9.03003 25.5522 8.48275C24.9707 7.90126 24.4234 7.55921 23.7393 7.28556C23.0894 7.04613 22.3369 6.8409 21.2423 6.80669C20.1477 6.73828 19.8057 6.73828 17.0009 6.73828ZM17.0009 8.58536C19.7373 8.58536 20.0793 8.58536 21.1397 8.65377C22.1316 8.68798 22.6789 8.85901 23.0552 8.99583C23.5341 9.16685 23.8761 9.40629 24.2524 9.78255C24.6286 10.1246 24.8339 10.5009 25.0049 10.9455C25.1417 11.3218 25.3127 11.8691 25.3469 12.861C25.3811 13.9556 25.4153 14.2634 25.4153 16.9999C25.4153 19.7363 25.4153 20.0783 25.3469 21.1387C25.3127 22.1306 25.1417 22.6779 25.0049 23.0542C24.8339 23.5331 24.5944 23.8751 24.2524 24.2514C23.8761 24.5934 23.5341 24.8328 23.0552 25.0039C22.6789 25.1407 22.1658 25.3117 21.1397 25.3459C20.0451 25.4143 19.7373 25.4143 17.0009 25.4143C14.2644 25.4143 13.9224 25.4143 12.862 25.3459C11.8701 25.3117 11.3228 25.1407 10.9465 25.0039C10.4677 24.8328 10.1256 24.5934 9.74934 24.2514C9.37309 23.8751 9.16785 23.5331 8.99683 23.0542C8.86001 22.6779 8.68898 22.1648 8.65478 21.1387C8.62057 20.0441 8.58637 19.7363 8.58637 16.9999C8.58637 14.2634 8.58637 13.9214 8.65478 12.861C8.68898 11.8691 8.86001 11.3218 8.99683 10.9455C9.16785 10.4667 9.40729 10.1246 9.74934 9.78255C10.1256 9.40629 10.4677 9.20106 10.9465 8.99583C11.3228 8.85901 11.8359 8.68798 12.862 8.65377C13.9566 8.61957 14.2644 8.58536 17.0009 8.58536Z" fill="url(#paint0_linear_2686_2650)"/>
<rect x="1" y="1" width="32" height="32" rx="6" stroke="url(#paint1_linear_2686_2650)" stroke-width="1.5"/>
<defs>
<linearGradient id="paint0_linear_2686_2650" x1="11.2193" y1="-2.80483" x2="6.22535" y2="33.5895" gradientUnits="userSpaceOnUse">
<stop stop-color="#4857DF"/>
<stop offset="0.509804" stop-color="#EB068E"/>
<stop offset="0.760784" stop-color="#FF4957"/>
<stop offset="1" stop-color="#FFDB75"/>
</linearGradient>
<linearGradient id="paint1_linear_2686_2650" x1="11.5594" y1="-1.63984" x2="6.85916" y2="32.6137" gradientUnits="userSpaceOnUse">
<stop stop-color="#4857DF"/>
<stop offset="0.509804" stop-color="#EB068E"/>
<stop offset="0.760784" stop-color="#FF4957"/>
<stop offset="1" stop-color="#FFDB75"/>
</linearGradient>
</defs>
</svg>
