<svg width="80" height="80" viewBox="0 0 80 80" fill="none" xmlns="http://www.w3.org/2000/svg">
<circle cx="40" cy="40" r="39.4866" stroke="url(#paint0_linear_2494_2705)" stroke-width="1.02671"/>
<path fill-rule="evenodd" clip-rule="evenodd" d="M41.8515 38.4864L41.9807 38.4056L41.9972 38.4385C41.9524 38.4557 41.9034 38.4715 41.8515 38.4864ZM41.5926 38.5527C41.682 38.5311 41.7702 38.5098 41.8515 38.4864L41.7178 38.57C39.4502 39.7695 37.5933 41.7414 36.1473 43.8283C33.9618 46.9668 32.7294 51.1242 32.1871 54.8707C32.0392 55.9224 31.8585 57.2534 31.8585 58.3708C32.1078 58.3708 32.3152 58.4022 32.5644 58.44L32.5649 58.4401L32.566 58.4402C32.6283 58.4497 32.6933 58.4595 32.7623 58.4694C33.4689 58.568 34.2247 58.6337 35.0299 58.6666H37.2647C39.138 58.6008 41.0112 58.3543 42.5394 57.9435C46.6311 56.8426 49.1288 54.9529 51.1171 51.5185C52.4809 49.1523 53.2368 45.1593 53.2368 42.5301C53.2368 38.57 52.2673 34.8234 50.8541 31.1919C50.6898 30.7811 50.5255 30.3703 50.3447 30.0088C50.2025 29.7305 50.0277 29.3569 49.8431 28.9622L49.843 28.9621C49.5371 28.308 49.2042 27.5964 48.948 27.166C48.8823 27.0592 48.833 26.9647 48.7837 26.8702C48.7344 26.7757 48.6851 26.6812 48.6194 26.5744L47.3376 24.4711C47.1076 24.0767 46.1545 22.6307 45.8916 22.45C45.908 22.669 45.9445 22.7877 45.9859 22.9222L45.9859 22.9222L45.9859 22.9222C46.0687 23.1912 46.171 23.5235 46.171 24.8491C46.171 26.2622 45.4315 27.9547 44.8564 28.8421C44.4949 29.4008 44.1334 29.8937 43.6733 30.3538L42.6873 31.3398C40.7319 33.1473 37.8563 34.5112 35.3914 35.4971C34.2734 35.9346 33.7306 36.2283 32.7547 36.7563L32.713 36.7788C31.1848 37.6169 29.4101 39.0794 28.3584 40.4925L28.274 40.6046L28.274 40.6046C28.1091 40.8232 27.9544 41.0282 27.7997 41.2813C25.4335 44.9949 25.565 48.7251 26.9617 52.7674C27.3889 53.9998 27.8326 54.8871 28.4406 56.021L29.0486 57.0398C29.0815 56.7111 29.1435 56.324 29.2056 55.937C29.2366 55.7434 29.2677 55.5499 29.2951 55.3637C29.3541 55.0095 29.419 54.6788 29.4828 54.3541L29.4828 54.3541C29.5255 54.1365 29.5677 53.9216 29.6073 53.704C29.8209 52.6195 30.1331 51.5514 30.4618 50.5819C30.9054 49.2673 31.5627 47.6077 32.2364 46.4246C32.9595 45.1757 33.3045 44.6006 34.1919 43.4996L34.2116 43.474C34.3644 43.2752 34.4628 43.1472 34.652 42.9738C34.833 42.7928 34.9944 42.6252 35.1489 42.4648L35.1489 42.4648L35.1489 42.4648L35.1489 42.4647L35.149 42.4647C35.6116 41.9844 36.0121 41.5686 36.6896 41.0512C37.2318 40.6568 37.8727 40.1967 38.4807 39.8681C39.4009 39.3751 40.2225 38.9808 41.2249 38.6521C41.3388 38.6141 41.4668 38.5832 41.5926 38.5527L41.5926 38.5527ZM28.6875 27.2319V26.8868C28.6875 25.6544 30.5115 24.6356 31.6782 25.8023C32.927 27.0511 31.8425 28.8587 30.5279 28.8587C29.4927 28.8587 28.6875 28.0699 28.6875 27.2319ZM39.0059 27.7908C39.0059 30.1904 42.2602 30.1082 42.2602 27.7908C42.2602 25.8185 39.0059 25.7856 39.0059 27.7908ZM26.9785 34.6595C26.9785 36.2702 28.9672 35.9908 28.9672 34.8075C28.9672 33.3776 26.9785 33.5584 26.9785 34.6595ZM30.3809 33.7387C30.3809 34.8066 31.7937 34.708 31.7937 33.7387C31.7937 32.868 30.3809 32.8515 30.3809 33.7387ZM35.3281 30.978C35.3281 32.0458 36.4617 31.7337 36.4617 31.1258C36.4617 30.2879 35.3281 30.4194 35.3281 30.978Z" fill="url(#paint1_linear_2494_2705)"/>
<defs>
<linearGradient id="paint0_linear_2494_2705" x1="0" y1="0" x2="81.5029" y2="1.42684" gradientUnits="userSpaceOnUse">
<stop stop-color="#1BACF4"/>
<stop offset="1" stop-color="#19EEB5"/>
</linearGradient>
<linearGradient id="paint1_linear_2494_2705" x1="25.957" y1="22.45" x2="53.753" y2="22.8165" gradientUnits="userSpaceOnUse">
<stop stop-color="#1BACF4"/>
<stop offset="1" stop-color="#19EEB5"/>
</linearGradient>
</defs>
</svg>
