<svg width="34" height="34" viewBox="0 0 34 34" fill="none" xmlns="http://www.w3.org/2000/svg">
<path fill-rule="evenodd" clip-rule="evenodd" d="M17 32.4744C8.44551 32.4744 1.52564 25.5545 1.52564 17C1.52564 8.44551 8.44551 1.52564 17 1.52564C25.5545 1.52564 32.4744 8.44551 32.4744 17C32.4744 25.5545 25.5545 32.4744 17 32.4744ZM17 0C7.60096 0 0 7.62821 0 17C0 26.399 7.62821 34 17 34C26.399 34 34 26.3718 34 17C34 7.60096 26.3718 0 17 0Z" fill="#78CD51"/>
<path d="M11.0806 15.2975L8.59316 17.7849C7.57307 18.805 7 20.1885 7 21.6311C7 23.0738 7.57307 24.4573 8.59316 25.4774C9.61324 26.4974 10.9968 27.0705 12.4394 27.0705C13.882 27.0705 15.2655 26.4974 16.2856 25.4774L19.5997 22.1614C20.2148 21.5462 20.6734 20.7924 20.9369 19.9633C21.2005 19.1342 21.2612 18.2539 21.1142 17.3965C20.9671 16.539 20.6165 15.7293 20.0918 15.0354C19.5671 14.3415 18.8835 13.7835 18.0986 13.4084L17.0362 14.4708C16.9283 14.5789 16.8345 14.7001 16.757 14.8316C17.3635 15.006 17.9139 15.3356 18.354 15.7879C18.7941 16.2402 19.1085 16.7995 19.2661 17.4105C19.4238 18.0216 19.4192 18.6632 19.2529 19.2719C19.0866 19.8807 18.7644 20.4355 18.3179 20.8815L15.0056 24.1956C14.3253 24.876 13.4025 25.2582 12.4403 25.2582C11.4781 25.2582 10.5553 24.876 9.87493 24.1956C9.19455 23.5152 8.81232 22.5924 8.81232 21.6302C8.81232 20.668 9.19455 19.7453 9.87493 19.0649L11.3126 17.629C11.1098 16.8689 11.0314 16.0809 11.0806 15.2957V15.2975Z" fill="#78CD51"/>
<path d="M14.4726 11.9073C13.8575 12.5225 13.3989 13.2763 13.1354 14.1054C12.8719 14.9345 12.8111 15.8148 12.9581 16.6722C13.1052 17.5297 13.4558 18.3394 13.9805 19.0333C14.5053 19.7273 15.1888 20.2852 15.9738 20.6603L17.3788 19.2534C16.7641 19.0885 16.2037 18.7648 15.7537 18.3147C15.3038 17.8646 14.9803 17.304 14.8157 16.6892C14.651 16.0744 14.6511 15.4272 14.8159 14.8125C14.9807 14.1977 15.3044 13.6372 15.7544 13.1872L19.0667 9.87311C19.7471 9.19274 20.6699 8.81051 21.6321 8.81051C22.5942 8.81051 23.517 9.19274 24.1974 9.87311C24.8778 10.5535 25.26 11.4763 25.26 12.4385C25.26 13.4007 24.8778 14.3234 24.1974 15.0038L22.7597 16.4397C22.9628 17.2011 23.0407 17.9898 22.9918 18.773L25.4792 16.2856C26.4993 15.2655 27.0723 13.882 27.0723 12.4394C27.0723 10.9968 26.4993 9.61324 25.4792 8.59316C24.4591 7.57308 23.0756 7 21.633 7C20.1903 7 18.8068 7.57308 17.7867 8.59316L14.4726 11.9073Z" fill="#78CD51"/>
</svg>
