<svg width="72" height="77" viewBox="0 0 72 77" fill="none" xmlns="http://www.w3.org/2000/svg">
<path d="M48.8262 50.7537C48.807 49.6138 48.0813 48.3167 46.9612 47.2891C45.8446 46.2648 44.4011 45.5694 43.0393 45.5694H18.8145C16.3332 45.5694 14.2259 46.6561 12.768 47.7592L48.8262 50.7537ZM48.8262 50.7537V50.7911V51.233L49.2563 51.1318C49.6969 51.0281 50.0368 50.7487 50.3093 50.4709C50.443 50.3345 50.5692 50.1892 50.6855 50.0552L50.6952 50.044C50.8167 49.9041 50.9268 49.7778 51.0373 49.6672C51.6188 49.0984 52.1463 48.5679 52.6563 48.0549C53.786 46.9188 54.8299 45.8689 56.1841 44.6802C56.3164 44.5742 56.4041 44.5001 56.4752 44.4401C56.6303 44.3091 56.7063 44.2449 56.9949 44.0612L56.9949 44.0613L57.0017 44.0568C59.2056 42.5809 61.4929 41.9501 63.7411 42.0815C65.9911 42.213 68.2265 43.1095 70.3202 44.7291C70.9993 45.2553 71.3122 45.7331 71.4223 46.1493C71.5311 46.56 71.4563 46.9634 71.2508 47.3743C71.0424 47.7912 70.708 48.1975 70.3276 48.5928C70.0973 48.832 69.8736 49.0447 69.6556 49.252C69.4999 49.4 69.3471 49.5454 69.1967 49.6958C68.6155 50.277 67.7 51.2027 66.6119 52.303C65.2856 53.6441 63.7028 55.2447 62.156 56.7971C59.3268 59.6363 56.63 62.3021 55.7793 62.9948C52.8764 65.3409 48.3894 67.358 44.4524 67.358H28.4237C27.9878 67.358 27.6254 67.3494 27.3141 67.342L27.2744 67.3411C26.9573 67.3336 26.6856 67.3275 26.4493 67.3355C25.9613 67.352 25.5919 67.4292 25.1915 67.6859C24.819 67.9248 24.43 68.3141 23.8727 68.8969C23.759 69.0159 23.6373 69.144 23.5061 69.282C22.9833 69.8323 22.3103 70.5406 21.3933 71.4576C21.2307 71.6202 20.9878 71.8765 20.6954 72.1848C20.5633 72.3243 20.4209 72.4744 20.2714 72.6314C19.7872 73.1395 19.2192 73.7275 18.6461 74.2856C18.0715 74.8452 17.4986 75.3678 17.0043 75.7485C16.7568 75.9391 16.5367 76.088 16.3517 76.1878C16.1568 76.2928 16.0402 76.3212 15.9883 76.3212C15.2028 76.3212 14.8871 76.231 14.6176 76.045C14.47 75.9431 14.3231 75.803 14.1233 75.5944C14.0661 75.5347 14.0044 75.4693 13.9379 75.3987C13.779 75.23 13.5919 75.0314 13.3692 74.8087L3.7197 65.1592C3.57188 65.0114 3.36295 64.8156 3.12513 64.5928C3.03036 64.504 2.931 64.4109 2.8291 64.3149C2.46695 63.9735 2.06344 63.586 1.68629 63.1915C1.30771 62.7955 0.963707 62.4006 0.716453 62.0446C0.457143 61.6712 0.35 61.4037 0.35 61.2481C0.35 60.414 0.466473 60.0566 0.691379 59.7488C0.814063 59.5809 0.977944 59.4162 1.21028 59.1983C1.26348 59.1484 1.32001 59.096 1.37974 59.0406C1.5753 58.8592 1.80512 58.646 2.06434 58.3868L2.06436 58.3868L2.06693 58.3841C3.01574 57.4151 5.40701 54.9734 7.70722 52.6631C8.85744 51.5079 9.98393 50.3864 10.8955 49.4988C11.8155 48.603 12.4961 47.9656 12.7677 47.7595L48.8262 50.7537ZM15.4188 71.348L15.6649 71.5921L15.9114 71.3484L22.9769 64.3636L22.9783 64.3622C23.5645 63.7761 23.8734 63.6051 24.2654 63.5417C24.4806 63.5069 24.7335 63.5032 25.091 63.5108C25.1866 63.5128 25.2892 63.5156 25.3993 63.5186C25.6923 63.5266 26.0383 63.5361 26.4453 63.5361C28.0262 63.5361 29.7106 63.5572 31.4355 63.5788C36.0285 63.6363 40.9084 63.6974 44.8845 63.3734L44.8873 63.3732C47.6569 63.1252 50.1734 62.0931 52.0305 60.8963L52.0305 60.8964L52.035 60.8933C53.524 59.9007 54.8047 58.5858 56.0341 57.3237C56.3362 57.0135 56.6351 56.7066 56.9333 56.4084C57.0651 56.2766 57.4089 55.9376 57.8909 55.4621C58.82 54.5458 60.2627 53.1228 61.6919 51.7003C62.7747 50.6225 63.8473 49.5475 64.6748 48.701C65.0883 48.2779 65.4421 47.9106 65.7058 47.6279C65.8375 47.4867 65.9484 47.3649 66.0337 47.267C66.1132 47.1756 66.1864 47.0872 66.2284 47.0199L66.4277 46.701L66.0954 46.5251C65.3508 46.1309 64.2835 45.8788 63.2265 45.8788C61.8001 45.8788 60.7691 46.1739 59.8916 46.6831C59.0343 47.1805 58.3404 47.8744 57.5871 48.6277L57.5688 48.646L53.6121 52.6027L53.6104 52.6045C53.4824 52.7343 53.3551 52.8639 53.2281 52.9931C50.5252 55.7439 47.9998 58.3141 43.8064 58.3141H24.3458C23.4193 58.3141 22.7948 57.4599 22.7627 56.4576C22.7472 55.9718 22.8802 55.5017 23.1598 55.1528C23.4329 54.812 23.8677 54.5588 24.5215 54.5323L24.5232 54.5322C26.3759 54.448 29.9724 54.4815 32.9703 54.5094C34.2681 54.5215 35.4537 54.5326 36.3371 54.5326C36.715 54.5326 37.2089 54.5461 37.7706 54.5616C37.8898 54.5649 38.0121 54.5682 38.137 54.5716C38.8465 54.5905 39.6338 54.6083 40.3971 54.6032C41.1588 54.5981 41.9056 54.5702 42.5328 54.4961C42.8464 54.459 43.137 54.4096 43.3882 54.3432C43.635 54.2781 43.8665 54.1909 44.046 54.0666L44.046 54.0667L44.0534 54.0613C45.0037 53.366 45.3454 52.19 45.0285 51.1809C44.7042 50.1477 43.716 49.351 42.151 49.351H19.8643C17.6818 49.351 16.1115 50.0263 14.8411 51.0427L14.8256 51.055L14.8117 51.069L5.20256 60.7185L4.95513 60.967L5.20406 61.214L15.4188 71.348Z" fill="url(#paint0_linear_1119_2883)" stroke="#0F0F0F" stroke-width="0.7"/>
<path d="M60.5614 18.3167H60.7063L60.7496 18.2734C61.6835 18.2376 62.8528 17.8789 63.52 17.6043C64.6884 17.1281 65.7485 16.1463 66.4243 15.1327L66.4243 15.1327L66.4271 15.1285C67.7377 13.0991 68.0399 10.5902 66.9755 8.29123L66.9757 8.29117L66.971 8.28175C66.8079 7.95569 66.5566 7.49294 66.3386 7.18723C64.4264 4.42723 60.7321 3.36442 57.6278 4.81028L57.6259 4.81118C54.0874 6.48507 53.0003 9.87231 53.7107 12.8251C54.4188 15.7684 56.9232 18.3167 60.5614 18.3167ZM49.6872 10.3359V9.98588H49.6567C49.7251 8.75957 50.143 7.52283 50.7182 6.40848C51.3475 5.18928 52.1536 4.13853 52.8551 3.43708C55.1936 1.09854 57.7177 0.35 61.2477 0.35C64.575 0.35 67.8681 2.64764 69.4766 5.00035C69.8684 5.5882 70.1023 6.01658 70.4191 6.6897L70.419 6.68974L70.4227 6.6972C71.2357 8.32325 71.3951 9.71435 71.3951 11.6682C71.3951 14.328 70.17 16.939 68.279 18.8888C66.3877 20.8391 63.8597 22.0982 61.2881 22.0982H59.7943C57.3652 22.0982 54.8346 20.8502 52.9033 18.9534C50.9721 17.0567 49.6872 14.5576 49.6872 12.1124V10.3359Z" fill="url(#paint1_linear_1119_2883)" stroke="#0F0F0F" stroke-width="0.7"/>
<path d="M35.1346 22.9404C32.9884 23.9752 31.3531 26.0231 31.0654 28.5524L30.9799 28.4669V29.3119C30.9799 32.1853 32.7356 34.5935 35.1136 35.7005C37.503 36.8127 40.5218 36.6133 43.0318 34.2945C43.8559 33.556 44.699 32.1176 44.9559 30.836C46.1863 25.0168 40.2387 20.5585 35.1386 22.9385L35.1386 22.9385L35.1346 22.9404ZM48.0109 24.8178L48.0108 24.8178L48.0129 24.822C50.1968 29.307 48.7161 35.1396 44.4897 38.1925C42.1464 39.8718 40.208 40.2264 37.3457 40.2264C34.9167 40.2264 32.386 38.9783 30.4547 37.0815C28.5235 35.1848 27.2387 32.6857 27.2387 30.2405V28.464C27.2387 25.9632 28.7913 23.2207 30.4469 21.5652C32.7464 19.2657 35.2312 18.4781 38.8395 18.4781C42.1668 18.4781 45.4599 20.7758 47.0684 23.1285C47.4602 23.7163 47.6941 24.1447 48.0109 24.8178Z" fill="url(#paint2_linear_1119_2883)" stroke="#0F0F0F" stroke-width="0.7"/>
<path d="M20.59 13.3983C20.9354 13.5455 21.3009 13.6673 21.6534 13.7445L21.5225 13.8755H22.3674C22.6566 13.8755 23.0662 13.7948 23.4236 13.7029C23.7769 13.6121 24.1347 13.4957 24.3327 13.3984C25.4233 12.9161 26.2877 12.0042 26.7634 10.9662L26.7635 10.9662L26.7654 10.9618C27.5918 9.09168 27.1973 7.08034 25.7641 5.64719C25.0369 4.91992 24.2099 4.44681 23.3045 4.26462C22.399 4.0824 21.4401 4.1963 20.4573 4.6022L20.4567 4.60247C17.6187 5.78132 16.4402 9.82932 19.0111 12.4002C19.397 12.7861 19.9857 13.1408 20.59 13.3983ZM29.0494 3.5019L29.0494 3.50192L29.0519 3.50468C31.5205 6.24326 31.6805 10.9431 29.4747 13.9228L29.4729 13.9252C29.1605 14.3548 28.8874 14.6672 28.5658 15.029L28.5657 15.029L28.5611 15.0344C28.0164 15.6731 27.112 16.3231 26.1006 16.814C25.0884 17.3054 24.0118 17.6167 23.1346 17.6167C21.5247 17.6167 20.5019 17.5349 19.5938 17.2401C18.6892 16.9465 17.8702 16.4322 16.688 15.5104C14.4262 13.747 13.7543 11.2514 13.7543 8.3979C13.7543 4.36958 17.2962 0.826455 21.4988 0.35H23.3157C25.2823 0.586053 27.2953 1.51388 29.0494 3.5019Z" fill="url(#paint3_linear_1119_2883)" stroke="#0F0F0F" stroke-width="0.7"/>
<path d="M62.4324 11.2241C62.4324 12.4359 61.497 13.1379 60.5353 13.1553C60.0583 13.1639 59.5934 13.001 59.2481 12.6568C58.9055 12.3152 58.6508 11.7647 58.6508 10.9414C58.6508 9.99474 59.5351 9.35098 60.5494 9.32813C61.0405 9.31707 61.5104 9.46041 61.8525 9.75776C62.187 10.0486 62.4324 10.5151 62.4324 11.2241Z" fill="url(#paint4_linear_1119_2883)" stroke="#0F0F0F" stroke-width="0.7"/>
<path d="M39.9851 29.3119C39.9851 30.5031 39.0497 31.2171 38.0848 31.2432C37.6079 31.2561 37.1444 31.0974 36.8005 30.7556C36.459 30.4161 36.2035 29.8638 36.2035 29.0293C36.2035 28.0826 37.0878 27.4388 38.1022 27.416C38.5932 27.4049 39.0632 27.5482 39.4052 27.8456C39.7397 28.1364 39.9851 28.603 39.9851 29.3119Z" fill="url(#paint5_linear_1119_2883)" stroke="#0F0F0F" stroke-width="0.7"/>
<defs>
<linearGradient id="paint0_linear_1119_2883" x1="0" y1="41.7145" x2="73.0993" y2="44.3439" gradientUnits="userSpaceOnUse">
<stop stop-color="#1BACF4"/>
<stop offset="1" stop-color="#19EEB5"/>
</linearGradient>
<linearGradient id="paint1_linear_1119_2883" x1="49.2969" y1="0" x2="72.1668" y2="0.400374" gradientUnits="userSpaceOnUse">
<stop stop-color="#1BACF4"/>
<stop offset="1" stop-color="#19EEB5"/>
</linearGradient>
<linearGradient id="paint2_linear_1119_2883" x1="26.8887" y1="18.1281" x2="49.7872" y2="18.5295" gradientUnits="userSpaceOnUse">
<stop stop-color="#1BACF4"/>
<stop offset="1" stop-color="#19EEB5"/>
</linearGradient>
<linearGradient id="paint3_linear_1119_2883" x1="13.4043" y1="0" x2="31.7105" y2="0.320514" gradientUnits="userSpaceOnUse">
<stop stop-color="#1BACF4"/>
<stop offset="1" stop-color="#19EEB5"/>
</linearGradient>
<linearGradient id="paint4_linear_1119_2883" x1="58.3008" y1="8.97754" x2="62.8666" y2="9.05665" gradientUnits="userSpaceOnUse">
<stop stop-color="#1BACF4"/>
<stop offset="1" stop-color="#19EEB5"/>
</linearGradient>
<linearGradient id="paint5_linear_1119_2883" x1="35.8535" y1="27.0654" x2="40.4193" y2="27.1445" gradientUnits="userSpaceOnUse">
<stop stop-color="#1BACF4"/>
<stop offset="1" stop-color="#19EEB5"/>
</linearGradient>
</defs>
</svg>
