<svg width="202" height="207" viewBox="0 0 202 207" fill="none" xmlns="http://www.w3.org/2000/svg">
<path d="M179.717 162.553C175.83 166.596 172.152 169.203 169.246 171.263C135.085 195.477 94.6639 188.418 86.0732 186.695C73.3875 184.149 48.8665 179.23 31.1382 158.634C4.31685 127.474 8.49342 78.3837 29.298 45.9783C33.1034 40.0508 53.2049 7.15171 94.0613 1.87578C118.787 -1.31716 147.61 5.12257 168.482 22.3976C212.295 58.6597 209.176 131.915 179.717 162.553Z" fill="url(#paint0_linear_811_2521)"/>
<g opacity="0.999994">
<path d="M107.45 181.71C107.45 181.71 144.694 87.4515 200.103 77.1223C201.086 76.939 201.982 77.7245 201.934 78.7237C201.382 90.348 194.322 151.87 107.45 181.71Z" fill="#7D97F4"/>
<g opacity="0.62">
<path opacity="0.62" d="M190.156 92.4138C187.329 96.4536 184.366 100.387 181.362 104.292C180.612 105.268 179.846 106.232 179.089 107.203C178.325 108.169 177.578 109.148 176.801 110.104L174.479 112.977C173.702 113.932 172.941 114.9 172.144 115.839C170.562 117.726 168.995 119.627 167.4 121.503L162.567 127.091C159.287 130.766 156.01 134.444 152.63 138.028L150.114 140.735C149.285 141.646 148.407 142.51 147.556 143.401L142.421 148.717L137.154 153.903C136.274 154.766 135.402 155.638 134.505 156.482L131.788 158.989C129.973 160.656 128.177 162.344 126.331 163.977L120.719 168.791L119.31 169.987C118.837 170.381 118.376 170.79 117.891 171.172L114.993 173.466C114.029 174.234 113.052 174.985 112.082 175.744C111.111 176.503 110.14 177.26 109.162 178.009C109.088 178.066 108.98 178.052 108.923 177.977C108.868 177.905 108.879 177.802 108.947 177.744L108.952 177.74C109.885 176.937 110.825 176.143 111.766 175.35C112.707 174.558 113.642 173.758 114.589 172.974L117.424 170.614C118.359 169.815 119.264 168.982 120.192 168.175L125.743 163.317L131.18 158.331L133.9 155.841C134.355 155.427 134.788 154.99 135.233 154.566L136.567 153.292L141.901 148.194C145.369 144.706 148.897 141.273 152.246 137.668C153.938 135.881 155.65 134.113 157.284 132.273C158.932 130.446 160.594 128.632 162.23 126.794L167.081 121.23C168.681 119.361 170.254 117.469 171.842 115.589C172.642 114.654 173.406 113.689 174.187 112.738L176.518 109.876C177.297 108.924 178.047 107.949 178.814 106.987C179.574 106.02 180.344 105.06 181.097 104.087C184.098 100.187 187.057 96.2498 189.874 92.2208L189.876 92.2178C189.93 92.1406 190.036 92.1217 190.114 92.1758C190.191 92.2298 190.21 92.3364 190.156 92.4135L190.156 92.4138Z" fill="white"/>
</g>
</g>
<g opacity="0.789996">
<path d="M98.4105 127.665C98.4105 127.665 115.929 44.3188 170.352 0.778737C171.062 0.211097 172.121 0.558912 172.345 1.43954C175.892 15.3479 194.477 104.089 98.4105 127.665Z" fill="#91B3FA"/>
<g opacity="0.62">
<path opacity="0.62" d="M164.716 24.8273C164.105 27.246 163.392 29.6293 162.637 32.0025C161.882 34.3744 161.087 36.7343 160.241 39.076C158.544 43.7573 156.693 48.3833 154.694 52.9457C154.198 54.088 153.675 55.2183 153.167 56.3553C152.656 57.4909 152.103 58.6067 151.573 59.7337C151.046 60.8624 150.476 61.9702 149.924 63.0862L149.087 64.7567L148.221 66.412C145.913 70.8269 143.48 75.1794 140.855 79.4157C138.221 83.6452 135.482 87.8137 132.524 91.826C132.158 92.3299 131.799 92.8392 131.427 93.339L130.292 94.8238L129.156 96.3084C128.776 96.8017 128.406 97.3037 128.007 97.7823L125.648 100.682L125.056 101.405L124.442 102.11L123.214 103.519C116.699 111.064 109.396 117.923 101.488 123.973C101.423 124.022 101.33 124.01 101.28 123.945C101.231 123.881 101.242 123.791 101.303 123.74L101.306 123.737L104.176 121.362L105.613 120.177L107.003 118.938L109.779 116.458L112.462 113.878C112.906 113.444 113.364 113.025 113.801 112.585L115.1 111.252C115.961 110.36 116.841 109.485 117.687 108.578C119.35 106.736 121.053 104.931 122.635 103.019L123.841 101.603L124.444 100.895L125.026 100.168L127.358 97.2696C127.754 96.792 128.119 96.2907 128.496 95.7982L129.621 94.316L130.746 92.8343C131.114 92.3355 131.47 91.827 131.832 91.3242C134.762 87.3197 137.473 83.1592 140.08 78.9387C142.701 74.7253 145.147 70.404 147.46 66.0133L148.33 64.3674L149.169 62.7062C149.724 61.5966 150.296 60.4951 150.825 59.3721C151.91 57.1399 152.957 54.8896 153.987 52.6312C156.032 48.1073 157.929 43.5158 159.677 38.868C160.564 36.5486 161.4 34.2102 162.199 31.8585C162.599 30.6833 162.984 29.5027 163.356 28.3182C163.734 27.1361 164.095 25.9463 164.428 24.7539L164.429 24.7508C164.451 24.6719 164.533 24.6256 164.612 24.6479C164.69 24.6696 164.736 24.7493 164.716 24.8273Z" fill="white"/>
</g>
</g>
<g opacity="0.759996">
<path d="M69.9606 123.199C69.9606 123.199 64.4076 49.2508 22.4325 5.42349C21.8853 4.85209 20.9311 5.03056 20.6363 5.76486C15.9788 17.3623 -10.249 91.8227 69.9606 123.199Z" fill="#91B3FA"/>
<g opacity="0.62">
<path opacity="0.62" d="M24.8109 26.794C25.455 31.0645 26.3146 35.3097 27.3106 39.5152C28.2895 43.726 29.4027 47.9049 30.6513 52.0424C31.2836 54.1085 31.9295 56.1704 32.6101 58.2208C32.9376 59.2504 33.3051 60.266 33.657 61.2875L34.1913 62.817L34.7529 64.3368C36.2461 68.3902 37.8627 72.399 39.6408 76.335C41.4044 80.276 43.2651 84.1779 45.3324 87.9697C45.5875 88.4452 45.836 88.9248 46.0966 89.3974L46.8965 90.8054L47.6963 92.2134C47.965 92.6814 48.2227 93.1561 48.5091 93.6137L50.1881 96.3833L50.606 97.0767L51.0444 97.7571L51.9217 99.1183C53.0655 100.951 54.3259 102.705 55.5482 104.486C56.1735 105.366 56.8313 106.222 57.4715 107.092L58.438 108.392C58.7644 108.822 59.1111 109.236 59.4437 109.662L61.4592 112.199L63.5671 114.661L64.6226 115.891L65.7251 117.079L67.9244 119.463L67.9269 119.466C67.9826 119.526 67.979 119.62 67.9186 119.676C67.8599 119.73 67.7689 119.727 67.7129 119.672C61.57 113.553 56.0451 106.796 51.2814 99.5377L50.3821 98.1809L49.9322 97.5021L49.5034 96.8103L47.7984 94.0364C47.5083 93.5773 47.2473 93.1014 46.9751 92.6322L46.165 91.22L45.3549 89.808C45.0908 89.3339 44.839 88.8531 44.5807 88.3761C42.4862 84.5726 40.5995 80.6594 38.81 76.7058C37.0303 72.7466 35.4307 68.7089 33.9465 64.6317L33.3891 63.1028L32.8592 61.5647C32.5102 60.5376 32.1459 59.5157 31.8213 58.4807C31.4932 57.4469 31.1441 56.4196 30.8332 55.3804C30.526 54.3402 30.205 53.3041 29.9093 52.2608C27.5318 43.9195 25.5882 35.4432 24.5156 26.8289C24.5056 26.7475 24.5633 26.6732 24.6449 26.6631C24.7251 26.6532 24.7981 26.7088 24.8101 26.7881L24.8109 26.794Z" fill="white"/>
</g>
</g>
<g opacity="0.999994">
<path d="M31.9483 10.8154C31.3344 39.7833 29.3434 139.704 30.2939 175.113C30.3946 178.864 32.9651 181.875 36.1717 181.997C52.0308 182.605 110.17 184.143 136.11 182.87C141.513 182.605 145.809 177.485 145.921 171.161C146.46 140.755 147.65 55.2364 144.823 16.0602C144.484 11.3664 141.335 7.62853 137.329 7.15953C120.057 5.13816 61.6684 0.197388 39.2576 1.89888C35.2158 2.20582 32.0488 6.07851 31.9483 10.8154Z" fill="url(#paint1_linear_811_2521)"/>
<path d="M39.0251 19.7029C38.1715 43.0842 35.4789 120.868 36.3334 149.631C36.4583 153.835 39.2906 157.235 42.8804 157.48C57.6603 158.492 108.086 160.723 129.764 158.692C133.668 158.327 136.731 154.633 136.942 150.059C138.041 126.205 141.195 53.7772 140.376 25.3366C140.245 20.7997 137.241 17.0944 133.376 16.6885C117.386 15.0088 63.8032 11.0129 45.3816 12.1887C41.9235 12.4096 39.1728 15.655 39.0251 19.7029Z" fill="#7D97F4"/>
<path d="M78.6699 7.6448C78.6699 8.53365 79.2619 9.26679 80.0207 9.31313C83.7666 9.54269 94.3187 10.1919 99.0347 10.512C99.9644 10.5752 100.694 9.59749 100.518 8.52753L100.488 8.34501C100.367 7.61493 99.8499 7.06548 99.2169 6.99774C96.0292 6.65599 86.4106 5.70857 80.0377 5.97459C79.2723 6.00658 78.6699 6.74866 78.6699 7.6448Z" fill="url(#paint2_linear_811_2521)"/>
</g>
<g opacity="0.999994">
<path d="M108.162 46.6214C108.162 58.8383 98.2576 68.7422 86.0407 68.7422C73.8238 68.7422 63.9199 58.8383 63.9199 46.6214C63.9199 34.4045 73.8238 24.5006 86.0407 24.5006C98.2576 24.5006 108.162 34.4045 108.162 46.6214Z" fill="url(#paint3_linear_811_2521)"/>
<path d="M92.8139 38.2627C92.8139 42.0084 89.7776 46.0518 86.032 46.0518C82.2863 46.0518 79.25 42.0084 79.25 38.2627C79.25 34.517 82.2863 31.8599 86.032 31.8599C89.7776 31.8599 92.8139 34.517 92.8139 38.2627Z" fill="white"/>
<path d="M77.6148 60.4728H94.1708C95.9137 60.4728 97.4566 59.3464 97.9877 57.6865L98.8785 54.9019C99.5307 52.8631 98.4701 50.6557 96.4598 49.9207C89.7221 47.4571 82.7552 47.7735 75.6183 50.1481C73.6188 50.8133 72.5093 52.952 73.0611 54.9856L73.747 57.5144C74.2207 59.2603 75.8055 60.4728 77.6148 60.4728Z" fill="white"/>
</g>
<g opacity="0.399998">
<path d="M128.468 104.069H47.7353C47.4888 104.069 47.2891 103.869 47.2891 103.623V91.9579C47.2891 91.7114 47.4888 91.5115 47.7353 91.5115H128.468C128.715 91.5115 128.915 91.7114 128.915 91.9579V103.623C128.915 103.869 128.715 104.069 128.468 104.069Z" fill="white"/>
</g>
<g opacity="0.399998">
<path d="M128.029 124.558H47.2958C47.0493 124.558 46.8496 124.358 46.8496 124.112V112.447C46.8496 112.201 47.0493 112.001 47.2958 112.001H128.029C128.275 112.001 128.475 112.201 128.475 112.447V124.112C128.475 124.358 128.275 124.558 128.029 124.558Z" fill="white"/>
</g>
<g opacity="0.399998">
<path d="M112.266 148.996H60.637C60.3327 148.996 60.0859 148.749 60.0859 148.445V133.536C60.0859 133.232 60.3327 132.986 60.637 132.986H112.266C112.57 132.986 112.817 133.232 112.817 133.536V148.445C112.817 148.749 112.57 148.996 112.266 148.996Z" fill="white"/>
</g>
<g opacity="0.75">
<path d="M98.7305 101.333H51.6996C51.2614 101.333 50.9062 100.978 50.9062 100.539V95.1494C50.9062 94.7112 51.2614 94.3561 51.6996 94.3561H98.7305C99.1687 94.3561 99.5238 94.7112 99.5238 95.1494V100.539C99.5238 100.978 99.1687 101.333 98.7305 101.333Z" fill="white"/>
</g>
<g opacity="0.75">
<path d="M55.4587 117.93C55.4587 119.512 54.1764 120.794 52.5946 120.794C51.0128 120.794 49.7305 119.512 49.7305 117.93C49.7305 116.348 51.0128 115.066 52.5946 115.066C54.1764 115.066 55.4587 116.348 55.4587 117.93Z" fill="white"/>
</g>
<g opacity="0.75">
<path d="M60.4521 115.213C62.0329 115.213 63.3164 116.496 63.3164 118.077C63.3164 119.658 62.0329 120.941 60.4521 120.941C58.8714 120.941 57.5879 119.658 57.5879 118.077C57.5879 116.496 58.8714 115.213 60.4521 115.213Z" fill="white"/>
</g>
<g opacity="0.75">
<path d="M70.8806 118.444C70.8806 120.026 69.5982 121.308 68.0165 121.308C66.4347 121.308 65.1523 120.026 65.1523 118.444C65.1523 116.862 66.4347 115.58 68.0165 115.58C69.5982 115.58 70.8806 116.862 70.8806 118.444Z" fill="white"/>
</g>
<g opacity="0.75">
<path d="M75.876 115.727C77.4567 115.727 78.7402 117.01 78.7402 118.591C78.7402 120.172 77.4567 121.455 75.876 121.455C74.2952 121.455 73.0117 120.172 73.0117 118.591C73.0117 117.01 74.2952 115.727 75.876 115.727Z" fill="white"/>
</g>
<g opacity="0.75">
<path d="M83.7334 115.653C85.3142 115.653 86.5976 116.937 86.5976 118.517C86.5976 120.098 85.3142 121.382 83.7334 121.382C82.1526 121.382 80.8691 120.098 80.8691 118.517C80.8691 116.937 82.1526 115.653 83.7334 115.653Z" fill="white"/>
</g>
<g opacity="0.75">
<path d="M91.5908 115.8C93.1716 115.8 94.455 117.084 94.455 118.664C94.455 120.245 93.1716 121.529 91.5908 121.529C90.01 121.529 88.7266 120.245 88.7266 118.664C88.7266 117.084 90.01 115.8 91.5908 115.8Z" fill="white"/>
</g>
<g opacity="0.999994">
<path d="M124.301 145.889L133.075 148.083L130.882 164.536C130.882 164.536 130.069 166.13 127.39 165.551C124.712 164.971 124.301 162.342 124.301 162.342V145.889Z" fill="#FF928E"/>
<path d="M130.882 164.536C130.882 164.536 134.172 167.826 135.269 172.214C136.366 176.601 137.377 195.023 137.377 195.023C137.377 195.023 137.338 196.202 136.36 196.496C135.383 196.79 134.584 195.858 134.63 195.835C131.339 187.06 124.301 162.342 124.301 162.342C124.301 162.342 124.712 160.302 126.753 160.747C128.793 161.192 130.882 164.536 130.882 164.536Z" fill="#FF928E"/>
<path d="M137.376 195.023L139.459 196.281L139.712 197.332L133.654 205.477L134.659 198.995C134.818 197.966 134.542 195.879 134.629 195.835C134.531 193.609 137.376 195.023 137.376 195.023Z" fill="#FF928E"/>
<path d="M133.437 206.446L136.009 205.364C136.49 205.162 136.851 204.75 136.984 204.245C137.347 202.866 138.153 200.135 138.925 199.748C139.964 199.227 141.426 203.085 141.426 203.085L142.026 202.833L140.798 197.791C140.489 196.522 139.403 195.594 138.101 195.486C138.101 195.486 138.617 197.396 137.629 198.753C136.64 200.11 133.777 204.684 133.777 204.684C133.777 204.684 133.249 204.822 132.744 205.151C131.994 205.639 132.613 206.793 133.437 206.446Z" fill="url(#paint4_linear_811_2521)"/>
<path d="M117.72 160.148C115.787 150.223 121.011 130.534 121.011 130.534L130.882 140.405L125.398 159.052C124.087 163.51 118.888 166.146 117.72 160.148Z" fill="#FFA7A4"/>
<path d="M122.02 197.445C121.596 192.155 119.658 168.874 117.719 160.148C116.348 153.979 120.8 154.346 123.5 156.049C125.119 157.071 125.397 159.052 125.397 159.052C129.155 164.689 124.784 197.703 124.878 197.689L124.872 197.762C124.872 197.762 124.572 198.753 123.393 198.753C122.215 198.753 121.972 197.448 122.02 197.445Z" fill="#FFA7A4"/>
<path d="M123.308 196.5C124.541 196.42 124.83 197.696 124.878 197.689L124.872 197.762L126.303 199.73L126.128 200.797L117.387 205.955L120.826 200.369C121.372 199.483 122.075 196.58 123.308 196.5Z" fill="#FFA7A4"/>
<path d="M116.812 206.764H119.602C120.124 206.764 120.616 206.525 120.935 206.111C121.804 204.981 123.606 202.776 124.468 202.719C125.628 202.641 125.479 206.764 125.479 206.764H126.129L126.953 201.641C127.16 200.351 126.519 199.074 125.361 198.47C125.361 198.47 125.096 200.431 123.659 201.298C122.221 202.166 117.809 205.272 117.809 205.272C117.809 205.272 117.268 205.195 116.675 205.302C115.795 205.461 115.917 206.764 116.812 206.764Z" fill="url(#paint5_linear_811_2521)"/>
<path d="M135.247 106.255L134.546 106.849C133.504 107.654 132.222 108.449 130.898 109.202C128.244 110.739 125.35 112.181 122.519 113.824L122.497 113.837C121.955 114.151 121.771 114.845 122.085 115.387C122.292 115.744 122.667 115.946 123.052 115.952C124.781 115.974 126.436 115.79 128.114 115.554C128.945 115.42 129.78 115.271 130.613 115.101C131.44 114.9 132.27 114.701 133.103 114.46C134.759 113.951 136.42 113.366 138.121 112.446C138.552 112.186 138.981 111.932 139.414 111.652C139.862 111.293 140.29 110.993 140.742 110.558C140.973 110.316 141.2 110.067 141.421 109.814C141.536 109.674 141.633 109.587 141.757 109.401C141.886 109.201 142.009 108.994 142.124 108.784C142.371 108.35 142.468 107.998 142.62 107.588C142.724 107.224 142.816 104.969 139.302 104.791C137.34 104.692 135.325 106.161 135.247 106.255Z" fill="#FFA7A4"/>
<path d="M130.463 89.2678C131.513 92.1792 132.737 95.128 133.778 97.9788C134.293 99.4112 134.784 100.827 135.171 102.182C135.361 102.86 135.495 103.517 135.613 104.116C135.728 104.71 135.838 105.354 135.88 105.493C135.902 105.592 136.243 107.622 137.416 108.928C139.8 111.581 141.198 110.068 141.42 109.814C141.534 109.674 141.631 109.587 141.756 109.401C141.884 109.201 142.008 108.994 142.123 108.784C142.37 108.35 142.467 107.998 142.618 107.588C142.723 107.224 142.799 106.87 142.866 106.518C143.077 105.177 142.995 104.096 142.878 103.091C142.761 102.087 142.553 101.159 142.322 100.273C141.863 98.5012 141.279 96.8556 140.598 95.2788C139.242 92.1115 137.67 89.2039 135.66 86.4075C134.697 85.068 132.831 84.7629 131.492 85.7256C130.383 86.5222 129.983 87.9382 130.424 89.162L130.463 89.2678Z" fill="#FFA7A4"/>
<path d="M124.248 114.284L121.18 112.753C121.18 112.753 117.703 114.079 117.53 114.584C117.358 115.089 117.672 115.763 117.672 115.763C117.672 115.763 117.631 117.329 118.946 118.001C120.261 118.672 125.67 115.834 124.248 114.284Z" fill="#FFA7A4"/>
<path d="M118.495 113.842C118.495 113.842 118.818 115.819 118.345 121.254C117.872 126.69 115.613 139.451 116.073 151.66C116.073 151.66 122.496 153.157 133.654 152.448C133.654 152.448 138.363 133.385 137.216 126.138C136.069 118.891 129.846 113.693 129.846 113.693C129.846 113.693 128.384 112.241 124.13 112.241C119.876 112.241 118.495 113.842 118.495 113.842Z" fill="url(#paint6_linear_811_2521)"/>
<path d="M123.24 77.5226L122.455 86.7529H129.913L128.059 72.6635L123.24 77.5226Z" fill="url(#paint7_linear_811_2521)"/>
<path d="M132.123 85.4767C129.549 85.3347 123.794 85.0722 119.718 85.2942C117.571 85.4111 115.773 86.951 115.334 89.0554L114.34 93.8205C113.969 95.5954 114.025 97.4326 114.501 99.1818L118.495 113.842C118.495 113.842 122.047 115.977 129.846 113.693C129.846 113.693 136.694 97.3613 133.891 86.9141C133.673 86.1029 132.961 85.5231 132.123 85.4767Z" fill="url(#paint8_linear_811_2521)"/>
<path d="M112.702 104.676L112.319 103.842C111.825 102.621 111.405 101.172 111.036 99.694C110.271 96.7236 109.662 93.5488 108.843 90.3792L108.837 90.3549C108.68 89.7483 108.061 89.3836 107.454 89.5404C107.054 89.6436 106.759 89.9499 106.65 90.3191C106.163 91.9782 105.894 93.6219 105.669 95.3013C105.575 96.1379 105.493 96.9822 105.433 97.8303C105.403 98.68 105.371 99.533 105.378 100.4C105.422 102.133 105.538 103.89 105.966 105.776C106.1 106.261 106.229 106.743 106.382 107.235C106.607 107.763 106.781 108.256 107.078 108.808C107.249 109.096 107.427 109.382 107.612 109.663C107.715 109.811 107.774 109.928 107.918 110.098C108.077 110.276 108.243 110.45 108.414 110.618C108.765 110.972 109.078 111.161 109.432 111.417C109.755 111.616 111.902 112.312 113.02 108.976C113.644 107.113 112.772 104.777 112.702 104.676Z" fill="#FFA7A4"/>
<path d="M115.53 88.2006C114.432 91.0943 113.44 94.1285 112.374 96.9703C111.832 98.3926 111.282 99.7869 110.694 101.067C110.396 101.705 110.07 102.291 109.77 102.822C109.47 103.348 109.134 103.909 109.075 104.042C109.028 104.131 107.965 105.893 108.005 107.649C108.086 111.214 110.133 110.976 110.466 110.928C110.643 110.897 110.774 110.893 110.989 110.834C111.218 110.765 111.446 110.689 111.67 110.604C112.14 110.436 112.443 110.232 112.825 110.02C113.141 109.811 113.43 109.593 113.71 109.369C114.744 108.488 115.385 107.615 115.951 106.776C116.515 105.938 116.962 105.098 117.364 104.275C118.169 102.631 118.797 101.003 119.308 99.3624C120.341 96.0759 121.042 92.8455 121.337 89.4143C121.479 87.7709 120.261 86.3239 118.618 86.1823C117.258 86.0651 116.032 86.879 115.57 88.0947L115.53 88.2006Z" fill="#FFA7A4"/>
<path d="M107.935 91.9207L110.236 89.3795L109.392 85.0404L109.357 84.8369C109.357 84.8369 109.051 84.1882 108.282 85.1896C108.282 85.1896 106.785 84.7282 105.784 85.8134C104.783 86.8987 106.059 92.8728 107.935 91.9207Z" fill="#FFA7A4"/>
<path d="M120.083 66.8627C119.817 67.0199 117.718 74.42 119.477 77.5226C121.235 80.6252 126.604 77.15 128.059 72.6635C129.514 68.1769 127.176 62.6793 120.083 66.8627Z" fill="url(#paint9_linear_811_2521)"/>
<path d="M133.999 72.6635C135.203 78.5639 139.194 76.949 142.02 79.5741C146.601 83.8288 153.153 79.4429 159.524 83.4746C164.122 86.3853 166.338 93.832 164.131 99.8441C161.074 108.171 150.629 111.596 145.215 109.06C140.042 106.636 140.778 99.3758 133.817 96.5703C130.862 95.3792 129.403 96.1532 127.633 94.3878C124.535 91.2974 125.371 85.3 125.693 82.9898C126.392 77.9766 128.073 77.0687 127.269 74.8655C125.707 70.58 118.419 71.4644 117.811 68.4391C117.258 65.6841 122.541 60.4621 127.512 61.2851C135.203 62.5582 133.463 70.0348 133.999 72.6635Z" fill="url(#paint10_linear_811_2521)"/>
<g opacity="0.6">
<path opacity="0.6" d="M161.835 98.434C161.926 98.434 162.008 98.3724 162.031 98.28C163.015 94.1918 162.569 90.8392 160.702 88.3147C157.605 84.1251 151.585 83.7105 151.524 83.7069C151.429 83.6912 151.318 83.7846 151.311 83.8958C151.304 84.0066 151.389 84.1023 151.5 84.1089C151.558 84.1124 157.396 84.5175 160.38 88.5565C162.171 90.9803 162.595 94.2203 161.639 98.1856C161.613 98.2936 161.679 98.4025 161.788 98.4286C161.803 98.4321 161.819 98.434 161.835 98.434Z" fill="white"/>
</g>
<g opacity="0.72">
<path opacity="0.72" d="M142.118 102.176C142.126 102.176 142.135 102.175 142.144 102.173C142.197 102.159 142.23 102.104 142.216 102.05C141.257 98.3698 139.573 95.814 137.214 94.4528C135.497 93.4626 133.889 93.3707 132.471 93.2893C131.104 93.2105 129.923 93.1425 128.972 92.2974C127.007 90.55 127.121 86.3492 129.31 79.8109C129.328 79.7582 129.3 79.7011 129.247 79.6834C129.194 79.6658 129.137 79.6945 129.119 79.7472C126.902 86.3687 126.808 90.6415 128.839 92.4475C129.841 93.3394 131.055 93.4095 132.46 93.4901C133.856 93.5703 135.438 93.6614 137.113 94.6276C139.424 95.9603 141.076 98.4749 142.021 102.101C142.033 102.147 142.073 102.176 142.118 102.176Z" fill="white"/>
</g>
<g opacity="0.72">
<path opacity="0.72" d="M131.15 71.1993C131.16 71.1993 131.171 71.1977 131.182 71.1942C131.235 71.1765 131.263 71.1191 131.245 71.0665C130.483 68.7981 128.286 69.1352 125.958 69.4929C124.485 69.7194 122.962 69.9527 121.67 69.5705C120.706 69.2847 120.133 68.8419 119.968 68.2538C119.685 67.253 120.675 66.1367 120.685 66.1254C120.723 66.084 120.719 66.0203 120.678 65.9834C120.637 65.946 120.573 65.9497 120.536 65.9909C120.492 66.0396 119.462 67.1994 119.774 68.3082C119.959 68.967 120.578 69.4565 121.612 69.7632C122.948 70.1588 124.494 69.9217 125.989 69.6921C128.325 69.3334 130.346 69.0223 131.054 71.1311C131.068 71.1732 131.108 71.1993 131.15 71.1993Z" fill="white"/>
</g>
</g>
<path d="M153.34 30.4087C153.34 20.0201 162.139 11.5998 172.7 11.6012C182.948 11.6024 191.036 19.5794 191.036 29.4183C191.036 39.2572 182.948 47.6591 172.7 48.1989C162.139 48.7552 153.34 40.797 153.34 30.4087Z" fill="#E1473D"/>
<path d="M155.105 30.3623C155.105 20.9474 163.081 13.3161 172.651 13.3173C181.939 13.3184 189.269 20.5481 189.269 29.4649C189.269 38.3817 181.939 45.9963 172.651 46.4855C163.081 46.9895 155.105 39.7772 155.105 30.3623Z" fill="#FE7062"/>
<path d="M167.761 23.4702L166.427 22.6371L169.746 17.3225C171.05 15.235 173.715 14.4471 175.944 15.4896L178.878 16.8614C180.141 17.4518 181.092 18.557 181.487 19.8938C181.883 21.2306 181.686 22.6754 180.947 23.8579L178.049 28.4977L176.716 27.6647L179.614 23.0249C180.114 22.224 180.247 21.2454 179.979 20.3399C179.711 19.4344 179.067 18.6855 178.212 18.2856L175.278 16.914C173.768 16.2079 171.963 16.7416 171.08 18.1556L167.761 23.4702Z" fill="white"/>
<path d="M164.93 27.8876L178.714 27.1241C179.274 27.093 179.745 27.5387 179.745 28.0994V39.0191C179.745 39.5586 179.308 39.9958 178.768 39.9958H165.316C164.789 39.9958 164.357 39.5777 164.339 39.0509L164.008 28.8947C163.991 28.3641 164.401 27.9171 164.93 27.8876Z" fill="white"/>
<path d="M174.124 36.8677L173.29 34.4693C173.189 34.181 173.258 33.8586 173.472 33.6412C173.9 33.208 174.154 32.6038 174.124 31.9405C174.071 30.7705 173.115 29.8218 171.945 29.7769C170.65 29.7272 169.584 30.7625 169.584 32.0466C169.584 32.7588 169.912 33.3944 170.425 33.8106C170.692 34.0267 170.801 34.3815 170.688 34.7053L169.936 36.8677C169.753 37.3936 170.144 37.943 170.701 37.943H173.359C173.916 37.943 174.307 37.3936 174.124 36.8677Z" fill="url(#paint11_linear_811_2521)"/>
<g opacity="0.999994">
<path d="M40.6303 113.645C40.6627 113.257 40.9749 112.937 41.3609 112.914C42.2048 112.862 43.0621 112.847 43.9087 112.869C44.3206 112.879 44.6322 113.232 44.6046 113.655C44.6041 113.66 44.6039 113.665 44.6035 113.67C44.5686 114.087 44.2161 114.413 43.8093 114.403C43.005 114.382 42.1907 114.396 41.3889 114.446C40.9763 114.471 40.6353 114.149 40.6277 113.726C40.6272 113.698 40.6281 113.672 40.6303 113.645ZM47.1126 113.991C47.1151 113.961 47.1193 113.931 47.1253 113.9C47.2087 113.482 47.6041 113.198 48.0082 113.267C48.8385 113.408 49.6697 113.586 50.4785 113.798C50.8742 113.902 51.0989 114.317 50.9824 114.73C50.8649 115.141 50.4489 115.39 50.0535 115.286C49.2847 115.085 48.4952 114.915 47.7061 114.781C47.3313 114.718 47.0805 114.374 47.1126 113.991ZM53.3 115.798C53.307 115.713 53.3284 115.627 53.365 115.543C53.5365 115.151 53.9795 114.962 54.355 115.122C55.1247 115.449 55.8887 115.816 56.6259 116.211C56.9853 116.405 57.1116 116.867 56.9092 117.244C56.7063 117.621 56.2504 117.771 55.891 117.578C55.191 117.202 54.4657 116.854 53.7347 116.543C53.4392 116.417 53.2736 116.113 53.3 115.798ZM58.882 119C58.8939 118.859 58.9435 118.718 59.0334 118.594C59.2843 118.247 59.7535 118.163 60.081 118.406C60.753 118.906 61.411 119.442 62.0366 120.001C62.3412 120.273 62.3631 120.756 62.0854 121.082C61.8074 121.406 61.335 121.449 61.0297 121.177C60.4358 120.647 59.811 120.137 59.1721 119.663C58.9618 119.506 58.8609 119.253 58.882 119ZM63.5764 123.429C63.593 123.232 63.6833 123.037 63.8433 122.894C64.1606 122.61 64.6319 122.635 64.8955 122.949C65.4352 123.592 65.9553 124.27 66.4398 124.962C66.6761 125.299 66.5933 125.781 66.2544 126.037C65.9159 126.294 65.45 126.228 65.2137 125.891C64.7531 125.233 64.2593 124.589 63.7464 123.978C63.6156 123.822 63.5602 123.624 63.5764 123.429ZM67.1554 128.856C67.1767 128.6 67.3222 128.355 67.5612 128.22C67.9292 128.013 68.3788 128.144 68.566 128.514C68.9495 129.271 69.3056 130.056 69.6237 130.846C69.7789 131.232 69.5946 131.687 69.2121 131.863C68.8298 132.038 68.3937 131.868 68.2386 131.482C67.9362 130.73 67.5983 129.985 67.234 129.265C67.1682 129.136 67.1438 128.994 67.1554 128.856ZM66.5816 157.027C66.5903 156.921 66.6208 156.814 66.6749 156.713C67.0684 155.979 67.4367 155.218 67.7694 154.452C67.94 154.059 68.3829 153.87 68.7586 154.029C69.1344 154.188 69.3009 154.635 69.1302 155.028C68.78 155.835 68.392 156.636 67.9777 157.41C67.7753 157.787 67.3196 157.938 66.9598 157.745C66.696 157.604 66.5572 157.319 66.5816 157.027ZM69.4389 135.009C69.4655 134.691 69.6841 134.403 70.0015 134.307C70.4019 134.187 70.8077 134.419 70.9084 134.825C71.1148 135.658 71.2879 136.512 71.4229 137.363C71.4867 137.778 71.2121 138.184 70.8045 138.269C70.3972 138.354 70.0134 138.086 69.9475 137.67C69.8192 136.862 69.6549 136.052 69.459 135.261C69.4384 135.177 69.432 135.092 69.4389 135.009ZM69.1126 150.766C69.1169 150.716 69.1259 150.665 69.1403 150.613C69.3675 149.813 69.5639 148.994 69.7252 148.178C69.8079 147.759 70.2029 147.475 70.6071 147.543C71.0113 147.61 71.2741 148.004 71.1895 148.423C71.0196 149.281 70.8127 150.144 70.5741 150.986C70.4575 151.397 70.0417 151.647 69.6459 151.544C69.2993 151.454 69.0827 151.123 69.1126 150.766ZM70.3043 141.588C70.3367 141.202 70.6481 140.882 71.0334 140.858C71.4462 140.831 71.7873 141.153 71.796 141.576C71.8133 142.442 71.7944 143.322 71.7393 144.191C71.7392 144.197 71.7387 144.202 71.7383 144.208C71.7035 144.624 71.3518 144.95 70.9453 144.94C70.5332 144.93 70.2212 144.579 70.2481 144.155C70.3001 143.329 70.3183 142.494 70.3016 141.671C70.3013 141.643 70.3019 141.616 70.3043 141.588Z" fill="url(#paint12_linear_811_2521)"/>
<path d="M63.6046 161.588C63.6173 161.437 63.673 161.286 63.7742 161.157C64.0207 160.842 64.2646 160.518 64.5003 160.192C64.751 159.845 65.2201 159.761 65.5478 160.004C65.8758 160.247 65.9387 160.726 65.6873 161.073C65.4398 161.416 65.1828 161.757 64.9237 162.088C64.66 162.425 64.1888 162.49 63.8716 162.232C63.6759 162.074 63.5844 161.83 63.6046 161.588Z" fill="url(#paint13_linear_811_2521)"/>
<path d="M43.3564 173.162C43.3874 172.792 43.675 172.479 44.0462 172.435C44.4304 172.39 44.8207 172.336 45.2056 172.274C45.6156 172.208 45.9861 172.494 46.0333 172.913C46.0804 173.333 45.7861 173.724 45.3763 173.79C44.9709 173.855 44.5599 173.912 44.1554 173.96C43.7437 174.008 43.3856 173.706 43.3554 173.285C43.3525 173.244 43.3531 173.203 43.3564 173.162Z" fill="url(#paint14_linear_811_2521)"/>
<path d="M12.2076 142.179C12.237 141.826 12.2727 141.472 12.314 141.117C12.3632 140.695 12.7353 140.379 13.1451 140.412C13.5549 140.445 13.8485 140.817 13.7981 141.237C13.7029 142.056 13.64 142.875 13.611 143.682C13.5951 144.106 13.2493 144.451 12.837 144.453C12.4243 144.455 12.1021 144.113 12.1172 143.689C12.1349 143.19 12.1656 142.682 12.2076 142.179ZM13.0506 137.11C13.0542 137.067 13.0612 137.024 13.0722 136.98C13.2825 136.143 13.5297 135.305 13.8063 134.489C13.9435 134.084 14.3701 133.856 14.7592 133.98C15.1485 134.104 15.3538 134.534 15.2155 134.939C14.9527 135.714 14.7186 136.511 14.5184 137.306C14.4142 137.72 14.0059 137.983 13.6067 137.893C13.2491 137.812 13.0199 137.477 13.0506 137.11ZM12.2457 147.716C12.2759 147.355 12.5521 147.044 12.9153 146.991C13.326 146.932 13.6924 147.223 13.7338 147.643C13.8127 148.446 13.9265 149.254 14.0722 150.046C14.1475 150.459 13.8808 150.871 13.4752 150.966C13.0694 151.061 12.6788 150.804 12.6029 150.391C12.4496 149.556 12.33 148.705 12.2467 147.86C12.2421 147.811 12.2419 147.763 12.2457 147.716ZM15.3405 130.872C15.3486 130.775 15.3755 130.677 15.4215 130.583C15.8035 129.808 16.2219 129.038 16.6649 128.296C16.8844 127.928 17.3458 127.801 17.6952 128.011C18.0448 128.222 18.1501 128.69 17.9302 129.058C17.5097 129.763 17.1123 130.494 16.7494 131.23C16.5602 131.615 16.1092 131.781 15.7426 131.603C15.4655 131.468 15.3154 131.174 15.3405 130.872ZM13.5883 154.082C13.6131 153.785 13.8048 153.511 14.0964 153.398C14.488 153.248 14.9113 153.447 15.0421 153.843C15.2917 154.6 15.577 155.356 15.8901 156.089C16.0533 156.471 15.8784 156.929 15.499 157.113C15.1199 157.296 14.6804 157.135 14.5174 156.753C14.1879 155.981 13.8874 155.186 13.6244 154.388C13.591 154.287 13.5798 154.183 13.5883 154.082ZM16.2721 159.933C16.2918 159.696 16.4179 159.467 16.6309 159.326C16.9843 159.092 17.4435 159.19 17.6567 159.543C18.0654 160.221 18.5075 160.888 18.9704 161.526C19.2126 161.858 19.1376 162.341 18.8026 162.603C18.4681 162.866 18.0011 162.808 17.7591 162.476C17.2718 161.805 16.8065 161.103 16.3767 160.389C16.292 160.249 16.259 160.089 16.2721 159.933ZM20.1596 164.99C20.1747 164.81 20.2512 164.632 20.3885 164.492C20.6868 164.187 21.16 164.178 21.4448 164.473C21.9917 165.037 22.5685 165.583 23.1598 166.096C23.4685 166.364 23.4973 166.847 23.2232 167.175C22.9493 167.504 22.4775 167.553 22.1684 167.285C21.5465 166.746 20.9389 166.171 20.3635 165.577C20.2095 165.418 20.1419 165.203 20.1596 164.99ZM25.0644 169.01C25.0749 168.885 25.1153 168.76 25.1876 168.646C25.4168 168.284 25.8806 168.169 26.2239 168.39C26.8824 168.813 27.5672 169.21 28.2591 169.572C28.6204 169.761 28.7518 170.223 28.5529 170.601C28.3537 170.981 27.8991 171.135 27.5378 170.946C26.8089 170.565 26.0875 170.146 25.3943 169.7C25.1593 169.549 25.0419 169.281 25.0644 169.01ZM30.7569 171.79C30.7628 171.72 30.7784 171.649 30.804 171.579C30.9517 171.177 31.3841 170.961 31.7692 171.097C32.5067 171.355 33.2657 171.585 34.026 171.778C34.4226 171.879 34.6504 172.296 34.5362 172.706C34.4214 173.118 34.0067 173.37 33.6102 173.269C32.8098 173.065 32.0105 172.824 31.2343 172.551C30.916 172.439 30.7291 172.123 30.7569 171.79ZM36.9529 173.191C36.9542 173.175 36.9562 173.159 36.9584 173.143C37.0186 172.722 37.3985 172.416 37.8068 172.461C38.3832 172.524 38.969 172.569 39.5483 172.596C39.758 172.605 39.9674 172.612 40.1763 172.617C40.5883 172.627 40.901 172.978 40.8742 173.402C40.8557 173.831 40.4926 174.161 40.0809 174.152C39.8609 174.146 39.6408 174.139 39.4201 174.129C38.8109 174.101 38.1943 174.053 37.5883 173.987C37.1954 173.944 36.9194 173.593 36.9529 173.191Z" fill="url(#paint15_linear_811_2521)"/>
<path d="M18.9055 125.236C18.9183 125.083 18.975 124.931 19.0774 124.802C19.3376 124.473 19.6092 124.143 19.8848 123.821C20.1629 123.497 20.6356 123.454 20.9404 123.727C21.2451 123.999 21.2675 124.483 20.9889 124.808C20.7273 125.113 20.4692 125.427 20.2222 125.739C19.957 126.074 19.4855 126.137 19.1694 125.878C18.9757 125.719 18.8854 125.477 18.9055 125.236Z" fill="url(#paint16_linear_811_2521)"/>
<path d="M27.455 126.665C27.3319 126.756 27.2756 126.916 27.3148 127.061L28.4346 131.221C27.0929 132.779 25.975 134.558 25.148 136.509L20.9445 137.319C20.797 137.347 20.6795 137.468 20.6518 137.619L19.705 142.8C19.6773 142.951 19.7459 143.1 19.8751 143.17L23.5642 145.175C23.6528 147.265 24.0779 149.277 24.7932 151.147L22.2542 154.753C22.1651 154.879 22.1617 155.046 22.2456 155.169L25.1192 159.368C25.2033 159.491 25.356 159.542 25.4997 159.496L29.6005 158.173C31.0636 159.487 32.7517 160.562 34.6196 161.332L35.2348 165.618C35.2564 165.768 35.3689 165.884 35.5154 165.906L40.5259 166.664C40.6724 166.686 40.8201 166.61 40.8939 166.474L43.0005 162.6C45.0417 162.422 47.0209 161.902 48.8727 161.09L52.2823 163.55C52.4017 163.636 52.5647 163.632 52.6877 163.541L56.8997 160.414C57.0229 160.323 57.0792 160.164 57.0401 160.018L55.92 155.858C57.2617 154.3 58.3799 152.521 59.2069 150.57L63.4104 149.76C63.5579 149.732 63.6754 149.611 63.7031 149.46L64.6497 144.279C64.6774 144.128 64.6092 143.979 64.4798 143.909L60.7905 141.904C60.702 139.814 60.277 137.802 59.5617 135.932L62.1006 132.326C62.1897 132.2 62.193 132.033 62.1091 131.91L59.2355 127.711C59.1517 127.588 58.999 127.537 58.8552 127.583L54.7542 128.906C53.2909 127.592 51.6032 126.517 49.7353 125.748L49.1201 121.461C49.0985 121.311 48.986 121.195 48.8395 121.173L43.829 120.415C43.6825 120.393 43.5346 120.469 43.4608 120.605L41.3544 124.479C39.3134 124.657 37.3342 125.177 35.4822 125.989L32.0726 123.529C31.953 123.443 31.7904 123.447 31.6672 123.538L27.455 126.665Z" fill="url(#paint17_linear_811_2521)"/>
<g opacity="0.7">
<path opacity="0.7" d="M37.0701 143.302C37.2842 140.74 39.3002 138.573 41.8667 138.304C44.6879 138.009 47.1217 140.117 47.2927 143.004C47.3757 144.403 46.9214 145.773 46.0138 146.863C45.1061 147.953 43.8536 148.632 42.487 148.775C39.6658 149.07 37.2318 146.962 37.0608 144.075C37.0454 143.814 37.0489 143.557 37.0701 143.302ZM46.092 143.727C46.1086 143.529 46.1113 143.33 46.0993 143.129C45.9683 140.916 44.1019 139.299 41.9392 139.525C39.7762 139.752 38.1224 141.736 38.2541 143.95C38.3852 146.163 40.2518 147.78 42.4144 147.554C43.4623 147.444 44.4224 146.923 45.1185 146.088C45.6842 145.408 46.0202 144.587 46.092 143.727Z" fill="white"/>
</g>
<g opacity="0.7">
<path opacity="0.7" d="M29.6855 143.072C29.7223 142.632 29.7809 142.191 29.8614 141.749C29.8869 141.61 29.9145 141.471 29.9441 141.332C30.0908 140.65 30.2894 139.978 30.5374 139.328C30.5407 139.319 30.5443 139.311 30.5476 139.302C30.5572 139.276 30.5669 139.251 30.5769 139.226C30.5959 139.177 30.6155 139.129 30.6349 139.08C30.6865 138.952 30.8101 138.875 30.9357 138.881C30.9662 138.882 30.997 138.888 31.0267 138.9C31.1788 138.959 31.2495 139.136 31.1858 139.295C30.8557 140.112 30.6079 140.967 30.449 141.837C29.6584 146.159 31.1488 150.294 34.0407 152.958C35.649 154.44 37.6914 155.468 40.0163 155.819C40.4239 155.881 40.8323 155.921 41.2401 155.94C43.9845 156.065 46.7037 155.222 49.0097 153.51C51.6587 151.543 53.4456 148.666 54.041 145.408C55.2699 138.68 50.9781 132.411 44.4739 131.427C44.073 131.366 43.6696 131.326 43.2656 131.308C41.5149 131.228 39.7508 131.544 38.1008 132.238C38.058 132.256 38.0146 132.263 37.972 132.261C37.8603 132.256 37.7584 132.186 37.717 132.073C37.6604 131.916 37.7388 131.737 37.8943 131.671C39.6267 130.942 41.4786 130.611 43.3164 130.695C43.7405 130.714 44.1637 130.755 44.5847 130.819C51.4134 131.852 55.9183 138.439 54.6286 145.497C54.0037 148.918 52.1278 151.938 49.3469 154.002C46.9261 155.799 44.0711 156.685 41.19 156.553C40.762 156.534 40.333 156.491 39.9052 156.427C36.5971 155.926 33.731 154.123 31.834 151.351C30.182 148.937 29.4376 146.039 29.6855 143.072Z" fill="white"/>
</g>
</g>
<g opacity="0.999994">
<path d="M54.9234 162.596C54.7541 162.479 54.668 162.262 54.7255 162.058C54.8329 161.677 54.9534 161.295 55.0834 160.921C55.1679 160.679 55.4314 160.561 55.6727 160.658C55.9145 160.754 56.0407 161.031 55.9564 161.273C55.8324 161.628 55.7178 161.993 55.6152 162.357C55.5455 162.604 55.2896 162.738 55.0438 162.656C55.0002 162.641 54.96 162.621 54.9234 162.596Z" fill="url(#paint18_linear_811_2521)"/>
<path d="M56.2062 159.263C56.0079 159.127 55.9327 158.86 56.0392 158.646C56.34 158.041 56.6754 157.446 57.0357 156.878C57.1116 156.759 57.1891 156.64 57.268 156.521C57.4091 156.31 57.7022 156.279 57.9091 156.416C58.1223 156.569 58.1809 156.865 58.0403 157.076C57.9649 157.189 57.8907 157.303 57.8182 157.417C57.4743 157.959 57.1545 158.526 56.8675 159.103C56.7538 159.332 56.4766 159.415 56.2477 159.289C56.2334 159.281 56.2194 159.272 56.2062 159.263ZM58.8534 155.288C58.8349 155.275 58.8167 155.261 58.7996 155.245C58.6052 155.067 58.5818 154.768 58.7474 154.577C59.2788 153.963 59.8537 153.379 60.4558 152.842C60.644 152.674 60.9372 152.701 61.1093 152.9C61.282 153.101 61.2694 153.398 61.0812 153.566C60.5067 154.079 59.9584 154.636 59.4517 155.221C59.3007 155.395 59.0448 155.42 58.8534 155.288ZM62.3934 152.131C62.3436 152.096 62.2992 152.052 62.2629 151.999C62.1148 151.78 62.1642 151.487 62.3723 151.345C63.0395 150.891 63.7438 150.475 64.4654 150.111C64.6906 149.997 64.9703 150.096 65.0919 150.331C65.213 150.567 65.1284 150.849 64.9036 150.963C64.2154 151.31 63.5442 151.706 62.908 152.14C62.7507 152.247 62.5473 152.237 62.3934 152.131ZM66.6228 149.995C66.5418 149.939 66.4761 149.858 66.4386 149.758C66.3462 149.511 66.4645 149.242 66.7026 149.158C67.4671 148.89 68.2566 148.668 69.0493 148.5C69.2971 148.447 69.5482 148.613 69.6104 148.868C69.6728 149.123 69.5227 149.373 69.2747 149.426C68.5191 149.587 67.766 149.798 67.0372 150.054C66.8951 150.104 66.7427 150.077 66.6228 149.995ZM71.2799 149.004C71.1667 148.926 71.0853 148.8 71.0674 148.653C71.0357 148.393 71.2158 148.165 71.4691 148.143C72.2816 148.076 73.1081 148.06 73.9255 148.095C74.1814 148.105 74.3886 148.326 74.389 148.587C74.3895 148.848 74.1827 149.051 73.9275 149.04C73.1474 149.007 72.359 149.022 71.5837 149.087C71.4734 149.096 71.3672 149.064 71.2799 149.004ZM76.0803 149.21C75.9336 149.109 75.8452 148.93 75.8676 148.744C75.8986 148.486 76.1294 148.312 76.3828 148.355C77.1956 148.492 78.0098 148.683 78.8024 148.921C79.0506 148.997 79.2005 149.26 79.1387 149.51C79.0766 149.76 78.8252 149.903 78.5776 149.828C77.8214 149.601 77.0456 149.419 76.2708 149.288C76.2006 149.276 76.1363 149.249 76.0803 149.21ZM80.7354 150.609C80.552 150.483 80.4701 150.241 80.5512 150.031C80.6434 149.792 80.9116 149.683 81.1498 149.787C81.9109 150.122 82.6633 150.51 83.3865 150.939C83.6099 151.077 83.6959 151.363 83.575 151.588C83.4542 151.812 83.1738 151.885 82.9486 151.752C82.2589 151.343 81.5412 150.973 80.8156 150.654C80.7871 150.641 80.7603 150.626 80.7354 150.609ZM86.8412 154.745C86.8187 154.729 86.7969 154.711 86.7763 154.691C86.2776 154.205 85.7453 153.737 85.194 153.301C85.1108 153.234 85.0283 153.17 84.9454 153.107C84.7368 152.947 84.6868 152.65 84.8342 152.443C84.9816 152.236 85.2756 152.193 85.4788 152.358C85.5671 152.426 85.6547 152.494 85.7419 152.564C86.3177 153.02 86.8761 153.51 87.3989 154.02C87.5879 154.205 87.6017 154.504 87.4297 154.689C87.2766 154.854 87.0274 154.873 86.8412 154.745Z" fill="url(#paint19_linear_811_2521)"/>
<path d="M63.5194 185.447C63.3057 185.3 63.2394 185.009 63.3718 184.794C63.5051 184.578 63.7902 184.52 64.0079 184.667C64.6637 185.106 65.3495 185.51 66.0464 185.866C66.2762 185.987 66.3814 186.27 66.275 186.503C66.1688 186.736 65.8942 186.828 65.662 186.709C64.9313 186.335 64.2121 185.912 63.5248 185.451C63.5248 185.451 63.5211 185.449 63.5194 185.447ZM61.5796 183.976C61.5655 183.966 61.5518 183.956 61.5385 183.944C60.907 183.406 60.2997 182.824 59.7331 182.215C59.5534 182.021 59.5542 181.722 59.7357 181.547C59.9172 181.37 60.2107 181.387 60.39 181.578C60.9307 182.16 61.5104 182.715 62.1128 183.23C62.3131 183.4 62.3469 183.699 62.1884 183.896C62.0399 184.081 61.7767 184.112 61.5796 183.976ZM67.8155 187.643C67.642 187.524 67.5568 187.299 67.6213 187.093C67.6981 186.848 67.9578 186.721 68.2015 186.811C68.9356 187.08 69.6894 187.306 70.4429 187.483C70.6943 187.543 70.8595 187.796 70.8125 188.051C70.7658 188.305 70.5244 188.464 70.2732 188.405C69.4833 188.219 68.6926 187.982 67.9234 187.699C67.8843 187.685 67.8484 187.666 67.8155 187.643ZM58.2548 180.397C58.2103 180.366 58.1698 180.328 58.1355 180.281C57.6425 179.608 57.1839 178.899 56.7727 178.173C56.6422 177.943 56.7145 177.656 56.9341 177.532C57.1532 177.409 57.437 177.496 57.5678 177.726C57.9599 178.418 58.3973 179.094 58.8673 179.736C59.0234 179.949 58.9866 180.244 58.7846 180.395C58.6266 180.512 58.4145 180.507 58.2548 180.397ZM72.458 188.734C72.3196 188.639 72.232 188.473 72.243 188.296C72.2588 188.035 72.4786 187.848 72.7334 187.875C73.4994 187.959 74.2763 187.995 75.0431 187.984C75.2985 187.98 75.517 188.189 75.5319 188.45C75.5468 188.711 75.3521 188.926 75.0971 188.93C74.2933 188.942 73.4786 188.903 72.6754 188.816C72.5952 188.807 72.5213 188.778 72.458 188.734ZM77.1727 188.665C77.0667 188.592 76.9882 188.477 76.9641 188.34C76.9187 188.082 77.0852 187.843 77.3367 187.808C78.094 187.702 78.8493 187.547 79.5816 187.349C79.826 187.283 80.085 187.435 80.1601 187.687C80.2354 187.94 80.0988 188.198 79.8549 188.264C79.0869 188.472 78.2954 188.634 77.5018 188.745C77.3834 188.762 77.2669 188.73 77.1727 188.665ZM81.6865 187.441C81.6118 187.39 81.5498 187.317 81.5113 187.227C81.4067 186.984 81.5113 186.709 81.7445 186.613C82.4468 186.324 83.1359 185.987 83.7924 185.612C84.0109 185.487 84.2954 185.571 84.4271 185.801C84.559 186.03 84.4887 186.317 84.2698 186.442C83.5815 186.836 82.8588 187.189 82.1223 187.493C81.9754 187.553 81.8128 187.529 81.6865 187.441Z" fill="url(#paint20_linear_811_2521)"/>
<path d="M55.8316 176.119C55.7561 176.067 55.6937 175.993 55.6551 175.902C55.496 175.524 55.3471 175.141 55.2119 174.762C55.1235 174.513 55.2457 174.246 55.4853 174.166C55.7247 174.087 55.9907 174.224 56.0798 174.472C56.2084 174.834 56.3509 175.2 56.5023 175.56C56.605 175.804 56.4982 176.077 56.2644 176.172C56.1185 176.23 55.9571 176.206 55.8316 176.119Z" fill="url(#paint21_linear_811_2521)"/>
<path d="M59.344 171.322C59.356 171.424 59.43 171.51 59.5278 171.536L62.3156 172.268C62.7743 173.565 63.4358 174.806 64.2942 175.935L63.3669 178.645C63.3345 178.74 63.3655 178.849 63.4442 178.915L66.1378 181.187C66.2166 181.254 66.3255 181.263 66.4095 181.212L68.7999 179.735C70.0432 180.379 71.3534 180.801 72.6768 181.007L73.9265 183.68C73.9704 183.774 74.0663 183.832 74.1655 183.824L77.5594 183.551C77.6586 183.543 77.7393 183.471 77.7601 183.372L78.3549 180.551C79.6046 180.138 80.7903 179.516 81.8579 178.687L84.5516 179.754C84.6461 179.792 84.7507 179.765 84.8123 179.687L86.9184 177.03C86.9799 176.952 86.9848 176.841 86.9304 176.753L85.3809 174.241C85.9562 172.997 86.3121 171.674 86.4559 170.329L89.018 169.167C89.1078 169.126 89.1597 169.031 89.1477 168.929L88.7324 165.443C88.7204 165.341 88.6465 165.255 88.5486 165.23L85.7608 164.497C85.3021 163.2 84.6404 161.96 83.782 160.83L84.7095 158.12C84.742 158.025 84.7109 157.917 84.6322 157.85L81.9386 155.578C81.8598 155.512 81.7508 155.502 81.6669 155.554L79.2766 157.03C78.0332 156.386 76.723 155.964 75.3996 155.758L74.1497 153.085C74.106 152.991 74.01 152.933 73.9108 152.941L70.517 153.214C70.4178 153.222 70.3373 153.294 70.3164 153.393L69.7213 156.214C68.4716 156.627 67.2861 157.25 66.2185 158.079L63.5248 157.011C63.4305 156.973 63.3255 157.001 63.2641 157.078L61.1581 159.736C61.0966 159.814 61.0916 159.925 61.146 160.013L62.6956 162.524C62.1202 163.768 61.7643 165.091 61.6205 166.436L59.0584 167.598C58.9686 167.639 58.9165 167.735 58.9286 167.837L59.344 171.322Z" fill="url(#paint22_linear_811_2521)"/>
<g opacity="0.7">
<path opacity="0.7" d="M72.1654 171.319C71.5343 170.884 71.0491 170.262 70.7749 169.526C70.4378 168.621 70.4605 167.65 70.8385 166.794C71.6181 165.027 73.688 164.302 75.4527 165.177C77.2181 166.057 78.0179 168.204 77.2378 169.971C76.86 170.828 76.1717 171.468 75.3003 171.773C74.4286 172.078 73.4777 172.013 72.623 171.588C72.4632 171.509 72.3104 171.419 72.1654 171.319ZM75.4122 166.221C75.3069 166.148 75.1956 166.083 75.0786 166.024C73.7807 165.381 72.2581 165.914 71.6843 167.214C71.4065 167.844 71.3896 168.558 71.6378 169.224C71.886 169.89 72.369 170.428 72.9974 170.741C73.626 171.053 74.3255 171.101 74.9664 170.877C75.6077 170.652 76.114 170.181 76.392 169.551C76.9141 168.369 76.4734 166.952 75.4122 166.221Z" fill="white"/>
</g>
<g opacity="0.7">
<path opacity="0.7" d="M69.4669 175.696C69.2194 175.525 68.9776 175.341 68.7422 175.143C68.2748 174.749 67.8443 174.307 67.4613 173.83C67.4442 173.808 67.427 173.787 67.4099 173.765C67.2781 173.598 67.2697 173.373 67.3736 173.209C67.3988 173.169 67.4308 173.133 67.4692 173.102C67.6653 172.944 67.9565 172.985 68.1205 173.192C68.4739 173.641 68.8747 174.055 69.3117 174.423L69.312 174.423C69.336 174.444 69.3601 174.464 69.3841 174.483C70.4255 175.345 71.6262 175.919 72.8889 176.178C73.5742 176.318 74.2783 176.366 74.9854 176.315C74.9912 176.315 74.9968 176.315 75.0026 176.314C75.0202 176.313 75.0379 176.312 75.0553 176.31C77.1203 176.144 78.9631 175.162 80.2444 173.545C80.4105 173.336 80.564 173.12 80.7056 172.897C81.6585 171.395 82.0594 169.596 81.8396 167.75C81.5866 165.629 80.5446 163.7 78.9059 162.318C77.2677 160.937 75.2273 160.266 73.1625 160.431C71.0978 160.597 69.2548 161.579 67.9735 163.196C67.8102 163.401 67.6586 163.615 67.5183 163.836C66.9103 164.794 66.5204 165.887 66.3799 167.037C66.3712 167.108 66.3477 167.172 66.3123 167.228C66.2198 167.373 66.0476 167.456 65.8639 167.425C65.6105 167.38 65.4302 167.137 65.4619 166.879C65.619 165.592 66.0555 164.37 66.7354 163.298C66.8924 163.051 67.0623 162.811 67.2446 162.581C68.6783 160.772 70.7402 159.674 73.0505 159.488C75.3603 159.303 77.6425 160.05 79.4758 161.599C81.3094 163.145 82.475 165.303 82.7575 167.676C83.004 169.742 82.5553 171.754 81.489 173.434C81.3308 173.684 81.1587 173.926 80.9733 174.16C78.1976 177.662 73.1993 178.268 69.4669 175.696Z" fill="white"/>
</g>
</g>
<defs>
<linearGradient id="paint0_linear_811_2521" x1="225.403" y1="245.129" x2="57.3998" y2="36.4794" gradientUnits="userSpaceOnUse">
<stop stop-color="#DAE3FE"/>
<stop offset="0.5" stop-color="#E1E9FD"/>
<stop offset="1" stop-color="#E9EFFD"/>
</linearGradient>
<linearGradient id="paint1_linear_811_2521" x1="138.611" y1="0.748713" x2="-61.6884" y2="364.15" gradientUnits="userSpaceOnUse">
<stop stop-color="#09005D"/>
<stop offset="0.5" stop-color="#120777"/>
<stop offset="1" stop-color="#1A0F91"/>
</linearGradient>
<linearGradient id="paint2_linear_811_2521" x1="78.6328" y1="-103.213" x2="85.4773" y2="-33.3987" gradientUnits="userSpaceOnUse">
<stop stop-color="#4F52FF"/>
<stop offset="0.5" stop-color="#474AF0"/>
<stop offset="1" stop-color="#4042E2"/>
</linearGradient>
<linearGradient id="paint3_linear_811_2521" x1="63.815" y1="46.6141" x2="108.057" y2="46.6141" gradientUnits="userSpaceOnUse">
<stop stop-color="#4F52FF"/>
<stop offset="0.5" stop-color="#474AF0"/>
<stop offset="1" stop-color="#4042E2"/>
</linearGradient>
<linearGradient id="paint4_linear_811_2521" x1="1834.73" y1="217.375" x2="1807.01" y2="265.279" gradientUnits="userSpaceOnUse">
<stop stop-color="#4F52FF"/>
<stop offset="0.5" stop-color="#474AF0"/>
<stop offset="1" stop-color="#4042E2"/>
</linearGradient>
<linearGradient id="paint5_linear_811_2521" x1="1780.78" y1="205.615" x2="1755.8" y2="243.939" gradientUnits="userSpaceOnUse">
<stop stop-color="#4F52FF"/>
<stop offset="0.5" stop-color="#474AF0"/>
<stop offset="1" stop-color="#4042E2"/>
</linearGradient>
<linearGradient id="paint6_linear_811_2521" x1="149.667" y1="100.712" x2="127.761" y2="130.377" gradientUnits="userSpaceOnUse">
<stop stop-color="#4F52FF"/>
<stop offset="0.5" stop-color="#474AF0"/>
<stop offset="1" stop-color="#4042E2"/>
</linearGradient>
<linearGradient id="paint7_linear_811_2521" x1="1852.18" y1="79.5428" x2="1844.72" y2="79.5428" gradientUnits="userSpaceOnUse">
<stop stop-color="#FEBBBA"/>
<stop offset="0.5" stop-color="#FEA7A4"/>
<stop offset="1" stop-color="#FF928E"/>
</linearGradient>
<linearGradient id="paint8_linear_811_2521" x1="216.466" y1="69.1937" x2="185.897" y2="79.2315" gradientUnits="userSpaceOnUse">
<stop stop-color="#FF928E"/>
<stop offset="0.5" stop-color="#FE8178"/>
<stop offset="1" stop-color="#FE7062"/>
</linearGradient>
<linearGradient id="paint9_linear_811_2521" x1="1834.6" y1="79.5428" x2="1849.09" y2="100.735" gradientUnits="userSpaceOnUse">
<stop stop-color="#FEBBBA"/>
<stop offset="0.5" stop-color="#FEA7A4"/>
<stop offset="1" stop-color="#FF928E"/>
</linearGradient>
<linearGradient id="paint10_linear_811_2521" x1="1822.36" y1="64.4895" x2="1842.89" y2="37.7995" gradientUnits="userSpaceOnUse">
<stop stop-color="#09005D"/>
<stop offset="0.5" stop-color="#120777"/>
<stop offset="1" stop-color="#1A0F91"/>
</linearGradient>
<linearGradient id="paint11_linear_811_2521" x1="177.189" y1="-18.0876" x2="169.03" y2="61.093" gradientUnits="userSpaceOnUse">
<stop stop-color="white"/>
<stop offset="1"/>
</linearGradient>
<linearGradient id="paint12_linear_811_2521" x1="-1972.52" y1="-24.0207" x2="-1975.32" y2="19.2402" gradientUnits="userSpaceOnUse">
<stop stop-color="#FF928E"/>
<stop offset="0.5" stop-color="#FE8178"/>
<stop offset="1" stop-color="#FE7062"/>
</linearGradient>
<linearGradient id="paint13_linear_811_2521" x1="-1990.32" y1="42.655" x2="-1990.49" y2="45.2246" gradientUnits="userSpaceOnUse">
<stop stop-color="#FF928E"/>
<stop offset="0.5" stop-color="#FE8178"/>
<stop offset="1" stop-color="#FE7062"/>
</linearGradient>
<linearGradient id="paint14_linear_811_2521" x1="-2050.12" y1="54.3954" x2="-2050.23" y2="56.1726" gradientUnits="userSpaceOnUse">
<stop stop-color="#FF928E"/>
<stop offset="0.5" stop-color="#FE8178"/>
<stop offset="1" stop-color="#FE7062"/>
</linearGradient>
<linearGradient id="paint15_linear_811_2521" x1="-2074.91" y1="6.00916" x2="-2077.81" y2="50.612" gradientUnits="userSpaceOnUse">
<stop stop-color="#FF928E"/>
<stop offset="0.5" stop-color="#FE8178"/>
<stop offset="1" stop-color="#FE7062"/>
</linearGradient>
<linearGradient id="paint16_linear_811_2521" x1="-2067.11" y1="-85.9973" x2="-2067.27" y2="-83.4595" gradientUnits="userSpaceOnUse">
<stop stop-color="#FF928E"/>
<stop offset="0.5" stop-color="#FE8178"/>
<stop offset="1" stop-color="#FE7062"/>
</linearGradient>
<linearGradient id="paint17_linear_811_2521" x1="27.319" y1="158.406" x2="70.7527" y2="115.557" gradientUnits="userSpaceOnUse">
<stop stop-color="#FF928E"/>
<stop offset="0.5" stop-color="#FE8178"/>
<stop offset="1" stop-color="#FE7062"/>
</linearGradient>
<linearGradient id="paint18_linear_811_2521" x1="-1188.62" y1="1807.81" x2="-1187.56" y2="1808.51" gradientUnits="userSpaceOnUse">
<stop stop-color="#FF928E"/>
<stop offset="0.5" stop-color="#FE8178"/>
<stop offset="1" stop-color="#FE7062"/>
</linearGradient>
<linearGradient id="paint19_linear_811_2521" x1="-1130.05" y1="1812.12" x2="-1109.91" y2="1825.45" gradientUnits="userSpaceOnUse">
<stop stop-color="#FF928E"/>
<stop offset="0.5" stop-color="#FE8178"/>
<stop offset="1" stop-color="#FE7062"/>
</linearGradient>
<linearGradient id="paint20_linear_811_2521" x1="-1167.62" y1="1882.6" x2="-1144.43" y2="1897.94" gradientUnits="userSpaceOnUse">
<stop stop-color="#FF928E"/>
<stop offset="0.5" stop-color="#FE8178"/>
<stop offset="1" stop-color="#FE7062"/>
</linearGradient>
<linearGradient id="paint21_linear_811_2521" x1="-1199.81" y1="1841.18" x2="-1198.2" y2="1842.24" gradientUnits="userSpaceOnUse">
<stop stop-color="#FF928E"/>
<stop offset="0.5" stop-color="#FE8178"/>
<stop offset="1" stop-color="#FE7062"/>
</linearGradient>
<linearGradient id="paint22_linear_811_2521" x1="79.9266" y1="191.968" x2="66.7217" y2="137.13" gradientUnits="userSpaceOnUse">
<stop stop-color="#FF928E"/>
<stop offset="0.5" stop-color="#FE8178"/>
<stop offset="1" stop-color="#FE7062"/>
</linearGradient>
</defs>
</svg>
