<svg width="31" height="20" viewBox="0 0 31 20" fill="none" xmlns="http://www.w3.org/2000/svg">
<path d="M19.3673 9.68653C19.3673 15.0374 15.0326 19.3731 9.68366 19.3731C4.33469 19.3731 0 15.0364 0 9.68653C0 4.33661 4.33576 0 9.68366 0C15.0316 0 19.3673 4.33661 19.3673 9.68653Z" fill="#F0F0F0"/>
<path d="M21.3136 0C19.1418 0 17.1424 0.723494 15.5267 1.93144L15.5345 1.9325C15.8523 2.23954 16.2028 2.45563 16.4731 2.80909L14.4582 2.84096C14.1425 3.15968 13.8549 3.50655 13.5837 3.86692H17.1365C17.4068 4.19138 17.6568 4.47334 17.8835 4.83168H12.9395C12.7584 5.1436 12.5908 5.46413 12.4446 5.7973H18.4464C18.6033 6.12951 18.7437 6.38045 18.8629 6.7321H12.0891C11.9816 7.06633 11.8896 7.40821 11.8198 7.75689H19.1466C19.2183 8.09208 19.2735 8.40198 19.3114 8.71783H11.6743C11.6423 9.03655 11.626 9.36005 11.626 9.68653H19.3664C19.3664 10.0295 19.3423 10.3471 19.3074 10.6552H11.6743C11.7073 10.9836 11.7558 11.3062 11.8198 11.6239H19.1349C19.0594 11.9378 18.9721 12.2535 18.8627 12.5809H12.0668C12.1694 12.9122 12.2943 13.2338 12.4309 13.5476H18.4464C18.2798 13.9002 18.0909 14.1821 17.8827 14.5124H12.9221C13.1178 14.8514 13.3339 15.1749 13.5683 15.4849L17.1366 15.5381C16.8325 15.9033 16.4423 16.1232 16.0867 16.4429C16.106 16.4584 15.5181 16.4409 14.3605 16.4226C16.1215 18.2398 18.5829 19.3731 21.3135 19.3731C26.6634 19.3731 30.9999 15.0363 30.9999 9.68653C30.9999 4.33671 26.6643 0 21.3136 0Z" fill="#F0F0F0"/>
<path d="M19.3673 9.68653C19.3673 15.0374 15.0326 19.3731 9.68366 19.3731C4.33469 19.3731 0 15.0364 0 9.68653C0 4.33661 4.33576 0 9.68366 0C15.0316 0 19.3673 4.33661 19.3673 9.68653Z" fill="#EA302A"/>
<path d="M21.3136 0C19.1418 0 17.1424 0.723494 15.5267 1.93144L15.5345 1.9325C15.8523 2.23954 16.2028 2.45563 16.4731 2.80909L14.4582 2.84096C14.1425 3.15968 13.8549 3.50655 13.5837 3.86692H17.1365C17.4068 4.19138 17.6568 4.47334 17.8835 4.83168H12.9395C12.7584 5.1436 12.5908 5.46413 12.4446 5.7973H18.4464C18.6033 6.12951 18.7437 6.38045 18.8629 6.7321H12.0891C11.9816 7.06633 11.8896 7.40821 11.8198 7.75689H19.1466C19.2183 8.09208 19.2735 8.40198 19.3114 8.71783H11.6743C11.6423 9.03655 11.626 9.36005 11.626 9.68653H19.3664C19.3664 10.0295 19.3423 10.3471 19.3074 10.6552H11.6743C11.7073 10.9836 11.7558 11.3062 11.8198 11.6239H19.1349C19.0594 11.9378 18.9721 12.2535 18.8627 12.5809H12.0668C12.1694 12.9122 12.2943 13.2338 12.4309 13.5476H18.4464C18.2798 13.9002 18.0909 14.1821 17.8827 14.5124H12.9221C13.1178 14.8514 13.3339 15.1749 13.5683 15.4849L17.1366 15.5381C16.8325 15.9033 16.4423 16.1232 16.0867 16.4429C16.106 16.4584 15.5181 16.4409 14.3605 16.4226C16.1215 18.2398 18.5829 19.3731 21.3135 19.3731C26.6634 19.3731 30.9999 15.0363 30.9999 9.68653C30.9999 4.33671 26.6643 0 21.3136 0Z" fill="#F6AB37"/>
</svg>
