<svg width="444" height="140" viewBox="0 0 444 140" fill="none" xmlns="http://www.w3.org/2000/svg">
<path d="M374.408 139.184H69.591C31.1568 139.184 0 108.027 0 69.5922C0 31.1574 31.1568 0 69.591 0H374.408C412.842 0 444 31.1574 444 69.5922C444 108.027 412.842 139.184 374.408 139.184Z" fill="#F7E4DF"/>
<path d="M257.213 80.8938C257.571 82.5098 257.994 84.1741 259.03 85.4655C260.981 87.8977 264.458 88.3189 267.568 88.5548C271.866 88.8805 276.496 89.13 280.156 86.8536C283.466 84.7953 285.323 81.0416 286.473 77.3173C287.433 74.2053 287.885 70.4441 285.709 68.0204C282.468 64.4093 275.574 66.1441 272.704 62.2312C271.503 60.5936 271.41 58.4291 271.182 56.4112C270.939 54.2513 270.491 52.1146 269.847 50.0388C269.454 48.7741 268.896 47.4229 267.724 46.8079C265.998 45.9036 263.817 47.1166 262.803 48.7797C261.553 50.8289 261.675 53.4464 260.473 55.4767C259.364 57.3508 256.06 59.2976 255.392 60.9386C253.234 66.2481 256.014 75.4933 257.213 80.8938Z" fill="#4180CE"/>
<path d="M115.233 53.0993C117.364 56.6132 119.983 59.8309 122.991 62.6304C125.334 64.8102 128.451 66.8531 131.526 65.9675C133.49 65.4019 134.941 63.7444 136.042 62.0216C137.409 59.8821 138.413 57.5346 139.411 55.1995C140.245 53.2476 141.094 51.2178 141.029 49.0965C140.964 46.9752 139.709 44.7317 137.645 44.2355C134.694 43.525 132.258 46.4432 130.506 48.9226C129.941 49.7229 129.152 50.6079 128.184 50.4522C127.61 50.3601 127.168 49.9162 126.75 49.512C121.092 44.0433 108.108 41.3491 115.233 53.0993Z" fill="#F395B9"/>
<path d="M124.484 68.5719C120.621 68.5719 115.996 63.0128 112.878 59.2658C112.264 58.528 111.734 57.8909 111.284 57.3855C109.462 55.3387 107.473 52.911 106.931 49.9905C106.39 47.0791 107.74 43.4163 110.863 42.575C113.895 41.7554 116.616 44.0444 117.643 45.0653C118.299 45.7167 118.898 46.4283 119.479 47.1161C120.307 48.0977 121.095 49.0311 122.028 49.8052C123.306 48.7395 124.23 47.3184 125.204 45.8212C125.677 45.0942 126.166 44.3428 126.699 43.6374C128.444 41.3245 131.377 39.1623 134.382 40.024C137.072 40.7971 138.398 43.6334 138.49 45.9406C138.59 48.4109 137.632 50.734 136.584 52.8758L136.367 53.3191C133.083 60.0503 128.84 67.8602 125.146 68.5145C124.928 68.5537 124.707 68.5719 124.484 68.5719ZM112.133 56.6296C112.595 57.1491 113.131 57.7931 113.752 58.5383C116.692 62.0721 121.614 67.987 124.947 67.3952C128.545 66.7575 133.664 56.2675 135.346 52.8206L135.562 52.3767C136.546 50.368 137.444 48.204 137.355 45.9861C137.275 44.0131 136.12 41.7065 134.067 41.1165C131.616 40.4151 129.125 42.3119 127.606 44.3223C127.098 44.9959 126.62 45.7309 126.157 46.4414C125.091 48.0801 123.988 49.7751 122.367 50.9858L122.024 51.2416L121.684 50.983C120.496 50.0837 119.537 48.9475 118.61 47.8493C118.045 47.1797 117.461 46.488 116.841 45.8713C115.954 44.9897 113.621 43.0099 111.158 43.6732C108.74 44.3246 107.598 47.3577 108.048 49.7831C108.537 52.4165 110.335 54.6089 112.133 56.6296Z" fill="#00397D"/>
<path d="M137.091 119.433C126.944 111.066 121.145 97.7948 121.864 84.6714C115.208 84.6566 106.918 84.6429 98.6692 84.6293C90.5761 84.6151 82.5223 84.6014 76.0919 84.5878C73.4215 84.5821 70.1816 84.2598 68.8168 81.7998C68.2154 80.7158 68.1506 79.4391 68.0978 78.4126C67.4538 65.7621 67.2787 52.9325 67.576 40.2797L68.7128 40.3064C68.4161 52.9308 68.5906 65.7319 69.2335 78.3546C69.2823 79.3107 69.3375 80.3946 69.811 81.2478C70.8824 83.1799 73.5881 83.4459 76.0936 83.451C82.5246 83.4646 90.5784 83.4783 98.6714 83.4925C107.171 83.5067 115.716 83.5209 122.47 83.5357L123.079 83.5368L123.035 84.1439C122.126 97.1042 127.789 110.29 137.813 118.557L137.091 119.433Z" fill="#00397D"/>
<path d="M183.258 86.5337L182.643 86.5104C171.978 86.1114 162.87 85.705 154.062 85.3127C145.255 84.9194 136.148 84.5136 125.487 84.114L125.529 82.9783C136.195 83.3773 145.304 83.7837 154.113 84.1771C162.749 84.5613 171.674 84.9592 182.07 85.3514L179.625 27.3463C142.283 25.4512 106.042 25.0471 68.8766 26.1151C69.0659 28.1528 69.0392 30.1997 69.013 32.1851C68.9846 34.3343 68.955 36.5574 69.2063 38.7253L68.0769 38.856C67.8177 36.6153 67.8472 34.3553 67.8762 32.1698C67.9046 30.0206 67.9336 27.7976 67.6829 25.6302L67.6113 25.0147L68.2309 24.9959C105.815 23.9017 142.439 24.3076 180.2 26.2373L180.718 26.264L183.258 86.5337Z" fill="#00397D"/>
<path d="M229.412 92.0869L229.485 91.4531C230.514 82.5268 230.453 73.4823 229.303 64.5713L230.054 64.4747L230.034 64.2786C232.281 64.0495 234.634 64.1655 236.91 64.2763C239.142 64.3866 241.452 64.5003 243.612 64.2786L244.206 64.2178L244.238 64.814C244.476 69.3403 244.344 73.8387 244.216 78.1887C244.089 82.5143 243.957 86.9871 244.194 91.4657L244.225 92.0631L229.412 92.0869ZM230.549 65.3722C231.57 73.8569 231.616 82.4529 230.686 90.9484L243.029 90.9285C242.831 86.6046 242.958 82.3131 243.08 78.1558C243.202 74.0183 243.328 69.7456 243.132 65.462C241.068 65.6172 238.929 65.5132 236.854 65.4114C234.757 65.3086 232.594 65.2011 230.549 65.3722Z" fill="#00397D"/>
<path d="M268.845 92.163C267.541 92.163 266.353 92.0556 265.411 91.9305C262.116 91.4934 258.143 91.6691 254.3 91.8401C252.393 91.9248 250.592 92.005 248.954 92.005H248.468L248.393 91.5235C247.408 85.1863 247.479 78.3523 247.547 71.744C247.575 68.9599 247.605 66.0809 247.55 63.3491L248.214 63.3355C253.071 60.0859 256.456 54.4518 258.005 47.0307C258.323 45.509 259.161 43.6094 260.563 42.8403C261.268 42.4538 262.049 42.4044 262.819 42.696C263.749 43.0484 264.46 43.8612 264.723 44.8724C266.362 51.1693 266.124 56.5197 263.906 62.6119L264.97 62.6563C268.633 62.8063 272.094 62.9484 275.713 63.4287C276.996 63.5987 278.051 64.4701 278.463 65.7024C278.878 66.9392 278.56 68.275 277.635 69.1879C276.993 69.8216 276.215 70.3611 275.399 70.7572C275.88 70.9664 276.337 71.2239 276.713 71.4876C277.322 71.914 278.075 72.5949 278.206 73.4208L278.225 73.5368L278.196 73.651C277.946 74.6298 277.238 75.4802 276.315 75.9542C277.213 76.5641 277.843 77.498 278.071 78.5882C278.345 79.8927 278.014 81.2279 277.162 82.2499C276.766 82.7257 276.611 83.3038 276.707 83.8705C276.804 84.4366 277.142 84.93 277.635 85.225L277.686 85.2557C278.404 85.6843 278.874 86.4437 278.94 87.2843C279.004 88.1108 278.68 88.885 278.051 89.4085C275.415 91.602 271.827 92.163 268.845 92.163ZM260.446 90.5186C262.237 90.5186 263.968 90.5919 265.561 90.8034C268.469 91.1887 273.868 91.4093 277.324 88.5348C277.666 88.2501 277.842 87.8266 277.806 87.3724C277.769 86.899 277.505 86.4715 277.1 86.2294L277.05 86.1992C276.274 85.7354 275.739 84.9556 275.587 84.0614C275.434 83.1673 275.68 82.2539 276.26 81.557C276.917 80.7687 277.16 79.7847 276.959 78.8218C276.763 77.8868 276.165 77.1087 275.321 76.6869L275.206 76.6312C274.903 76.4862 274.723 76.1753 274.75 75.8405C274.779 75.5012 275.011 75.2198 275.342 75.1238C276.14 74.893 276.813 74.249 277.058 73.4981C276.966 73.2372 276.668 72.8439 276.061 72.4187C275.174 71.798 273.977 71.3723 273.331 71.4211C273.274 71.4291 273.218 71.4371 273.162 71.4439L272.987 70.3213C273.055 70.3082 273.124 70.298 273.196 70.2911C274.45 70.095 275.83 69.3726 276.837 68.3784C277.461 67.7634 277.665 66.8983 277.386 66.0639C277.108 65.234 276.426 64.6701 275.563 64.5559C271.996 64.0824 268.56 63.9414 264.923 63.7919L262.283 63.6805L262.568 62.9422C264.948 56.7789 265.264 51.4608 263.623 45.1589C263.453 44.5041 263.001 43.9806 262.416 43.7595C261.954 43.5838 261.526 43.6094 261.109 43.8373C260.113 44.3836 259.392 45.9512 259.117 47.2626C257.492 55.0532 253.891 60.9704 248.704 64.374C248.735 66.8034 248.709 69.3163 248.684 71.7559C248.618 78.1494 248.549 84.7549 249.444 90.8659C250.925 90.8517 252.545 90.7801 254.249 90.7045C256.315 90.6124 258.419 90.5186 260.446 90.5186ZM275.7 75.6069L275.705 75.6098C275.704 75.6086 275.702 75.6081 275.7 75.6069Z" fill="#00397D"/>
<path d="M348.258 45.4632C348.061 45.4513 347.975 45.544 347.979 45.7415C348.021 48.1522 347.295 50.4255 346.63 52.6913C346.196 54.1717 345.525 55.5861 344.913 57.01C343.67 59.8976 342.772 62.8991 341.932 65.9192C341.041 69.1222 340.231 72.3458 339.475 75.5847C338.849 78.2702 338.291 80.9702 337.701 83.6627C337.13 86.2625 336.617 88.8747 335.948 91.4524C335.884 91.6985 335.899 91.9742 335.903 92.2159C335.908 92.5423 336.075 92.8137 336.571 92.7934C337.627 92.7499 338.66 92.5354 339.695 92.3896C340.994 92.2066 342.292 92.015 343.596 91.8669C344.637 91.7489 345.675 91.5921 346.727 91.6947" stroke="#013A7F" stroke-width="2.04" stroke-linecap="round" stroke-linejoin="round"/>
<path d="M348.049 45.4633C348.012 43.942 347.399 42.6656 346.378 41.5683C344.95 40.0345 343.185 39.0715 341.1 39.4556C338.77 39.8852 336.362 40.2691 334.41 41.8432C333.328 42.7163 332.713 43.9072 332.115 45.1151C332.102 45.143 332.07 45.1621 332.047 45.1853" stroke="#013A7F" stroke-width="2.04" stroke-linecap="round" stroke-linejoin="round"/>
<path d="M318.593 39.4852C317.517 39.0338 316.401 39.2982 315.327 39.4156C314.401 39.5168 313.462 39.6107 312.539 39.791C311.847 39.9261 311.141 39.9708 310.45 40.1302C310.109 40.2088 310.068 40.3244 310.098 40.6337C310.262 42.3525 310.482 44.0663 310.641 45.7836C310.881 48.3631 311.23 50.9289 311.501 53.5037C311.589 54.3417 311.694 55.181 311.86 56.0057C311.936 56.382 312.15 56.6452 312.679 56.6539C317.107 56.7266 320.593 58.6741 322.94 62.363C324.695 65.1207 325.677 68.2373 325.963 71.524C326.315 75.5503 325.792 79.4458 324.087 83.1414C322.715 86.1156 320.535 88.3796 317.829 90.1703C317.662 90.2802 317.488 90.3854 317.344 90.5202C316.888 90.9455 316.384 91.0492 315.81 90.7956" stroke="#013A7F" stroke-width="2.04" stroke-linecap="round" stroke-linejoin="round"/>
<path d="M373.993 74.1394C374.026 71.5637 373.956 68.9901 373.852 66.4171C373.793 64.9554 373.777 63.4886 373.633 62.0348C373.283 58.4822 373.249 54.894 372.465 51.3886C372.137 49.9238 371.931 48.4094 371.197 47.0835C369.996 44.9151 368.487 43.0752 365.858 42.529C365.382 42.4302 364.984 42.4571 364.529 42.5421C362.445 42.9328 361.206 44.1454 360.539 46.1619C359.882 48.1488 359.07 50.0743 358.662 52.1496C358.352 53.7277 358.29 55.3033 358.355 56.8846C358.436 58.857 358.321 60.8309 358.424 62.7984C358.526 64.7464 358.578 66.6968 358.701 68.6425C358.825 70.6176 358.993 72.5946 359.262 74.5542C359.528 76.4864 359.781 78.4214 360.189 80.3375C360.523 81.9038 360.832 83.4724 361.337 84.9908C362.269 87.7888 363.891 90.0529 366.551 91.4586C367.769 92.1018 369.02 91.9432 370.158 91.3075C371.962 90.2984 372.812 88.5588 373.359 86.6603C373.744 85.3251 373.879 83.9536 373.863 82.5578C373.829 79.8207 374.062 77.087 373.99 74.3484C373.989 74.3015 373.993 74.2557 374.063 74.2093" stroke="#013A7F" stroke-width="2.04" stroke-linecap="round" stroke-linejoin="round"/>
</svg>
