<svg width="28" height="28" viewBox="0 0 28 28" fill="none" xmlns="http://www.w3.org/2000/svg">
<path d="M19.6767 17.4055H18.4811L18.0573 16.9968C19.5405 15.2714 20.4335 13.0314 20.4335 10.5947C20.4335 5.16116 16.0292 0.756836 10.5957 0.756836C5.16214 0.756836 0.757812 5.16116 0.757812 10.5947C0.757812 16.0282 5.16214 20.4325 10.5957 20.4325C13.0324 20.4325 15.2724 19.5395 16.9978 18.0563L17.4065 18.4801V19.6758L24.974 27.2282L27.2292 24.9731L19.6767 17.4055ZM10.5957 17.4055C6.827 17.4055 3.78484 14.3633 3.78484 10.5947C3.78484 6.82603 6.827 3.78386 10.5957 3.78386C14.3643 3.78386 17.4065 6.82603 17.4065 10.5947C17.4065 14.3633 14.3643 17.4055 10.5957 17.4055Z" fill="#DFDFDF"/>
</svg>
