<svg width="14" height="24" viewBox="0 0 14 24" fill="none" xmlns="http://www.w3.org/2000/svg">
<path fill-rule="evenodd" clip-rule="evenodd" d="M5.56592 20.7088V20.4797C5.56592 19.9726 6.04248 19.5204 6.65955 19.5204C7.15749 19.5204 7.6646 19.9817 7.6646 20.4797V20.7088C7.6646 21.222 7.13916 21.668 6.61679 21.668C6.09441 21.668 5.56898 21.222 5.56898 20.7088H5.56592ZM1.27692 2.87461H11.9505V17.9289H1.27692V2.87461ZM4.19735 1.05087H9.03316C9.32948 1.05087 9.32338 1.82679 9.03316 1.82679H4.19735C3.91631 1.82679 3.91631 1.05087 4.19735 1.05087ZM0 1.55186V21.7596C0 22.5753 0.778984 23.3573 1.59768 23.3573H11.6328C12.4424 23.3573 13.2305 22.5722 13.2305 21.7596V1.55186C13.2305 1.39912 13.1236 1.05698 13.0656 0.940891C12.8028 0.442952 12.2744 0 11.6359 0H1.60074C0.754546 0 0.00305484 0.830917 0.00305484 1.55186H0Z" fill="#DFDFDF"/>
</svg>
