<svg width="48" height="48" viewBox="0 0 48 48" fill="none" xmlns="http://www.w3.org/2000/svg">
<rect width="48" height="48" rx="6" fill="#DFDFDF"/>
<path d="M17.35 28.7143V28.8643H17.5H19.9375C20.5354 28.8643 20.8131 29.5552 20.4084 29.9477L20.408 29.9473L20.3992 29.9575L16.3415 34.6663C16.218 34.7832 16.051 34.8496 15.876 34.8496C15.7011 34.8496 15.5341 34.7832 15.4106 34.6663L11.3528 29.9575L11.3533 29.9571L11.3434 29.9475C10.9366 29.5545 11.2156 28.8643 11.8125 28.8643H14.25H14.4V28.7143V13.7857C14.4 13.6188 14.4686 13.4576 14.5923 13.338C14.7162 13.2182 14.8852 13.15 15.0625 13.15H16.6875C16.8648 13.15 17.0339 13.2182 17.1578 13.338C17.2815 13.4576 17.35 13.6188 17.35 13.7857V28.7143ZM23.1875 32.0071H26.4375C26.6148 32.0071 26.7839 32.0753 26.9078 32.1951C27.0315 32.3147 27.1 32.4759 27.1 32.6429V34.2143C27.1 34.3812 27.0315 34.5424 26.9078 34.662C26.7839 34.7818 26.6148 34.85 26.4375 34.85H23.1875C23.0102 34.85 22.8412 34.7818 22.7173 34.662C22.5936 34.5424 22.525 34.3812 22.525 34.2143V32.6429C22.525 32.4759 22.5936 32.3147 22.7173 32.1951C22.8412 32.0753 23.0102 32.0071 23.1875 32.0071ZM23.1875 19.4357H32.9375C33.1148 19.4357 33.2839 19.5039 33.4078 19.6237C33.5315 19.7433 33.6 19.9045 33.6 20.0714V21.6429C33.6 21.8098 33.5315 21.971 33.4078 22.0906C33.2839 22.2104 33.1148 22.2786 32.9375 22.2786H23.1875C23.0102 22.2786 22.8412 22.2104 22.7173 22.0906C22.5936 21.971 22.525 21.8098 22.525 21.6429V20.0714C22.525 19.9045 22.5936 19.7433 22.7173 19.6237C22.8412 19.5039 23.0102 19.4357 23.1875 19.4357ZM23.1875 25.7214H29.6875C29.8648 25.7214 30.0339 25.7896 30.1578 25.9094C30.2815 26.029 30.35 26.1902 30.35 26.3571V27.9286C30.35 28.0955 30.2815 28.2567 30.1578 28.3763C30.0339 28.4961 29.8648 28.5643 29.6875 28.5643H23.1875C23.0102 28.5643 22.8412 28.4961 22.7173 28.3763C22.5936 28.2567 22.525 28.0955 22.525 27.9286V26.3571C22.525 26.1902 22.5936 26.029 22.7173 25.9094C22.8412 25.7896 23.0102 25.7214 23.1875 25.7214ZM23.1875 13.15H36.1875C36.3648 13.15 36.5339 13.2182 36.6577 13.338C36.7815 13.4576 36.85 13.6188 36.85 13.7857V15.3571C36.85 15.5241 36.7815 15.6853 36.6577 15.8049C36.5339 15.9247 36.3648 15.9929 36.1875 15.9929H23.1875C23.0102 15.9929 22.8412 15.9247 22.7173 15.8049C22.5936 15.6853 22.525 15.5241 22.525 15.3571V13.7857C22.525 13.6188 22.5936 13.4576 22.7173 13.338C22.8412 13.2182 23.0102 13.15 23.1875 13.15Z" fill="#050505" stroke="#DFDFDF" stroke-width="0.3"/>
</svg>
