<svg width="16" height="16" viewBox="0 0 16 16" fill="none" xmlns="http://www.w3.org/2000/svg">
<path fill-rule="evenodd" clip-rule="evenodd" d="M7.95 0C12.3422 0 15.9 3.55784 15.9 7.95C15.9 12.3422 12.3422 15.9 7.95 15.9C3.55784 15.9 0 12.3422 0 7.95C0 3.55784 3.55784 0 7.95 0ZM14.9 7.95C14.9 4.11012 11.7899 1 7.95 1C4.11012 1 1 4.11012 1 7.95C1 11.7899 4.11012 14.9 7.95 14.9C11.7899 14.9 14.9 11.7899 14.9 7.95ZM7.23828 7.23714C7.23828 6.78655 7.60355 6.42128 8.05414 6.42128C8.50473 6.42128 8.87 6.78655 8.87 7.23714V11.3164C8.87 11.767 8.50473 12.1323 8.05414 12.1323C7.60355 12.1323 7.23828 11.767 7.23828 11.3164V7.23714ZM8.05414 5.60486C8.50473 5.60486 8.87 5.23959 8.87 4.789C8.87 4.33842 8.50473 3.97314 8.05414 3.97314C7.60355 3.97314 7.23828 4.33842 7.23828 4.789C7.23828 5.23959 7.60355 5.60486 8.05414 5.60486Z" fill="url(#paint0_linear_2579_2857)"/>
<defs>
<linearGradient id="paint0_linear_2579_2857" x1="0" y1="0" x2="16.1987" y2="0.283583" gradientUnits="userSpaceOnUse">
<stop stop-color="#1BACF4"/>
<stop offset="1" stop-color="#19EEB5"/>
</linearGradient>
</defs>
</svg>
