<svg width="34" height="33" viewBox="0 0 34 33" fill="none" xmlns="http://www.w3.org/2000/svg">
<path fill-rule="evenodd" clip-rule="evenodd" d="M13.4961 20.5391C13.4961 20.1094 13.9257 19.5938 14.3554 19.5938H18.7382C19.8554 19.5938 19.7695 21.4844 18.6523 21.4844H14.3554C14.1836 21.4844 13.8398 21.3125 13.7539 21.2266C13.6679 21.1407 13.4961 20.711 13.4961 20.5391ZM7.22266 23.6328C7.22266 26.3828 8.42577 28.7031 9.8867 30.0781C11.5195 31.7109 13.7539 32.914 16.1601 32.914C17.9648 32.914 19.082 32.7422 20.5429 31.9687C21.5741 31.4531 21.746 31.2812 22.6054 30.6797C24.3241 29.3906 25.871 26.5547 25.871 23.6328C25.871 19.9376 23.6366 16.7579 20.7148 15.297C18.7382 14.2657 16.332 14.0938 14.1836 14.6954C13.4101 14.8673 12.5508 15.297 11.8633 15.7266C11.6054 15.8126 11.3476 16.0704 11.1758 16.1563C9.02733 17.7032 7.30859 20.4532 7.30859 23.6328H7.22266Z" fill="#DFDFDF"/>
<path fill-rule="evenodd" clip-rule="evenodd" d="M0 13.234V23.8043C0 24.3199 0.515622 24.7496 1.03124 24.7496H5.32809C5.32809 22.859 5.32809 21.7418 6.01559 19.8512C6.10153 19.5934 6.10153 19.5074 6.18746 19.3356C6.2734 19.1637 6.35934 18.9918 6.35934 18.734V12.4606C6.35934 12.2887 6.2734 12.2887 6.18746 12.2887H1.37499C1.03124 12.2887 0.687496 12.3747 0.429685 12.4606C0.257811 12.5465 0 12.8903 0 13.1481V13.234Z" fill="#DFDFDF"/>
<path fill-rule="evenodd" clip-rule="evenodd" d="M26.6406 12.4606V18.734C26.6406 18.9059 27.1562 20.5387 27.4141 20.5387H31.7109C32.0547 20.5387 32.3984 20.4527 32.6562 20.3668C32.8281 20.2809 33.0859 19.9371 33.0859 19.6793V13.234C33.0859 12.6325 32.3984 12.2887 31.7109 12.2887H26.8984C26.7266 12.2887 26.7266 12.3747 26.7266 12.4606H26.6406Z" fill="#DFDFDF"/>
<path fill-rule="evenodd" clip-rule="evenodd" d="M8.25 16.1557C8.50781 15.9838 8.67968 15.726 8.9375 15.4682C9.62499 14.8666 10.4844 14.2651 11.3437 13.8354C11.9453 13.5776 12.5468 13.2338 13.2343 13.062C13.75 12.8901 14.8671 12.6323 15.5546 12.6323V10.1401C15.5546 9.62447 15.039 9.19479 14.3515 9.19479H9.28124C8.67968 9.19479 8.25 9.62447 8.16406 10.1401V16.1557H8.25Z" fill="#DFDFDF"/>
<path fill-rule="evenodd" clip-rule="evenodd" d="M17.5352 10.1401V12.6323C19.7695 12.6323 22.4336 14.0073 24.1523 15.5541C24.4101 15.8119 24.582 16.0698 24.8398 16.2416V10.226C24.7539 9.71042 24.4101 9.28073 23.7226 9.28073H18.6523C17.9648 9.28073 17.4492 9.71042 17.4492 10.226L17.5352 10.1401Z" fill="#DFDFDF"/>
<path fill-rule="evenodd" clip-rule="evenodd" d="M3.09373 0.945307H0.945307C0.343748 0.945307 0 1.37499 0 1.80468V1.97655C0 2.40624 0.343748 2.92186 0.85937 2.92186H3.09373V10.4843H4.89841C5.07028 10.4843 5.07028 10.3984 5.07028 10.3124V2.92186H7.21871C8.07808 2.92186 8.50776 1.89061 7.82026 1.28906C7.47652 0.945307 7.21871 1.03124 6.61715 1.03124C6.10153 1.03124 5.5859 1.03124 5.07028 1.03124C4.89841 0.773433 5.07028 0.601559 4.81247 0.343748C4.6406 0.171874 4.38279 0 4.21091 0H3.9531C3.52342 0.085937 3.09373 0.429685 3.09373 1.03124V0.945307Z" fill="#DFDFDF"/>
<path fill-rule="evenodd" clip-rule="evenodd" d="M25.7734 32.9998C26.5469 32.9998 26.8047 32.4841 27.4922 31.7967C27.8359 31.4529 28.6094 30.5935 28.9531 30.3357C29.7265 30.8513 31.2734 32.9998 31.9609 32.9998C32.7343 32.9998 33.0781 32.656 33.0781 31.8826C33.0781 31.4529 32.6484 31.1951 32.3906 30.9373C32.0468 30.5935 29.9843 28.617 29.9843 28.3592V22.4295C27.664 22.4295 28.0078 22.2576 28.0078 23.117V27.6717C28.0078 28.7029 28.0078 28.4451 27.4922 29.0467C26.8906 29.6482 26.2891 30.2498 25.6875 30.8513C25.4297 31.1092 25 31.4529 25 31.9685C25 32.3982 25.4297 32.9138 25.8594 32.9138L25.7734 32.9998Z" fill="#DFDFDF"/>
<path fill-rule="evenodd" clip-rule="evenodd" d="M28.0137 4.03912C27.0683 4.03912 25.6934 3.86724 25.2637 4.29693C24.834 4.72661 24.834 5.32817 25.2637 5.75786C25.7793 6.18754 27.1543 6.01567 28.0137 6.01567V10.2266C28.0137 10.3985 28.0996 10.3985 28.1855 10.3985H29.9902V6.01567C31.3652 6.01567 33.0839 6.27348 33.0839 4.98442C33.0839 4.4688 32.6543 4.03912 32.1386 4.03912H29.9902C29.9902 3.00787 28.7871 2.75006 28.2715 3.26568C28.0137 3.60943 28.0996 3.69537 27.9277 4.03912H28.0137Z" fill="#DFDFDF"/>
<path fill-rule="evenodd" clip-rule="evenodd" d="M3.09373 28.3594C3.09373 28.7891 0 31.1094 0 31.8828C0 32.6563 0.343748 33 1.11718 33C1.46093 33 1.71874 32.6563 1.97655 32.4844C2.40624 32.0547 3.86717 30.5938 4.12498 30.336C4.38279 30.5078 5.84372 32.0547 6.2734 32.4844C6.61715 32.8281 6.78902 33 7.39058 33C7.9062 33 8.5937 32.2266 8.07808 31.4531C7.73433 31.0235 7.21871 30.5078 6.78902 30.0781C6.35934 29.6485 5.92965 29.2188 5.49997 28.7891C5.15622 28.4453 5.24216 28.4453 5.24216 27.7578C5.24216 26.2969 5.67184 26.5547 3.26561 26.5547V28.3594H3.09373Z" fill="#DFDFDF"/>
</svg>
