<svg width="17" height="17" viewBox="0 0 17 17" fill="none" xmlns="http://www.w3.org/2000/svg">
<path d="M8.5 16C12.6421 16 16 12.6421 16 8.5C16 4.35786 12.6421 1 8.5 1C4.35786 1 1 4.35786 1 8.5C1 12.6421 4.35786 16 8.5 16Z" stroke="white"/>
<path fill-rule="evenodd" clip-rule="evenodd" d="M9.24807 4.12518L10.2574 6.4299L12.6286 6.71601C13.0772 6.76369 13.3976 7.17695 13.3495 7.622C13.3175 7.82863 13.2214 8.01937 13.0772 8.14653L11.3148 9.84726L11.7955 12.3745C11.8756 12.8196 11.5872 13.2487 11.1386 13.3282C10.9303 13.3759 10.706 13.3282 10.5458 13.2169L8.49506 12.0089L6.4283 13.2328C6.04379 13.4712 5.5311 13.3441 5.3068 12.9467C5.19465 12.7719 5.16261 12.5652 5.21067 12.3745L5.69132 9.84726L3.89692 8.11474C3.57649 7.79685 3.56047 7.28822 3.8809 6.97032C4.02509 6.82727 4.1853 6.7478 4.37756 6.7319L6.74873 6.4458L7.75808 4.14107C7.93431 3.72781 8.41496 3.53708 8.83151 3.71192C9.03979 3.79139 9.18398 3.95034 9.26409 4.14107L9.24807 4.12518ZM8.49506 4.44307L9.68065 7.17695L12.5164 7.52664L10.4016 9.56115L10.9624 12.5176L8.46302 11.0394L5.96368 12.5176L6.52443 9.56115L4.4096 7.52664L7.24539 7.17695L8.43098 4.44307H8.49506Z" fill="white"/>
</svg>
