<svg width="12" height="15" viewBox="0 0 12 15" fill="none" xmlns="http://www.w3.org/2000/svg">
<path fill-rule="evenodd" clip-rule="evenodd" d="M3.65143 3.51152H0.916439V14.1152H10.94V0.870968H3.65143V3.51152ZM11.8421 0H3.06434C2.96872 0.0102575 2.94405 0.0357362 2.84995 0.132904C2.81722 0.166697 2.7761 0.209162 2.72068 0.262673L0.143194 2.75115C0.0572774 2.8341 0.0143194 2.87558 0 2.9447V3.42857V15H11.8421V0ZM2.735 2.64055L2.72068 1.52074L1.57513 2.64055H2.735ZM6.31166 7.97104V10.3158L8.21002 9.35302V7.0083L6.31166 7.97104ZM5.35501 7.97104L3.45665 7.0083V9.33749L5.35501 10.3002V7.97104ZM5.01318 5.6911C4.62165 5.90228 4.21254 6.12296 4.08445 6.15426V6.21638C4.22363 6.24851 4.65079 6.48007 5.04938 6.69615C5.42133 6.89779 5.76839 7.08594 5.83333 7.08594C5.90005 7.08594 6.26826 6.88734 6.65349 6.67954C7.04501 6.46836 7.45413 6.24768 7.58221 6.21638V6.15426C7.44303 6.12214 7.01587 5.89057 6.61729 5.67449C6.24534 5.47285 5.89827 5.2847 5.83333 5.2847C5.76661 5.2847 5.39841 5.48331 5.01318 5.6911ZM2.5 9.97414V5.85923L2.51495 5.87476C2.63641 5.84035 2.94547 5.67037 3.171 5.54633C3.25077 5.50245 3.3201 5.46432 3.36697 5.43998L5.83333 4.16669C5.9023 4.16669 6.71385 4.59524 7.52065 5.02129C8.28753 5.42626 9.05012 5.82897 9.16667 5.85923V9.97414C9.04356 9.99812 8.19967 10.4458 7.39129 10.8747C6.62917 11.2791 5.89862 11.6667 5.83333 11.6667C5.76436 11.6667 4.95282 11.2381 4.14602 10.8121C3.37914 10.4071 2.61655 10.0044 2.5 9.97414Z" fill="white"/>
</svg>
