<svg width="18" height="18" viewBox="0 0 18 18" fill="none" xmlns="http://www.w3.org/2000/svg">
<path fill-rule="evenodd" clip-rule="evenodd" d="M1.11584 17H9.8403C10.1675 17 10.3388 16.5638 10.074 16.3613C9.88704 16.2055 9.32618 16.2678 8.98343 16.2678L1.89481 16.2522C2.03502 14.741 2.56472 13.5414 3.77991 12.4976C4.44983 11.9212 4.90163 11.5628 5.77408 11.1578C7.00485 10.6281 6.39725 10.6748 7.86172 11.002C8.87438 11.1266 8.99901 11.1266 9.80914 10.9241L10.3077 10.7683C10.4946 10.7683 11.3982 11.1889 11.6787 11.3447C11.8968 11.4849 11.9279 11.5628 12.2084 11.5628C12.5044 11.5628 12.8315 11.1266 12.3797 10.8462C11.6631 10.3944 11.3203 10.3009 10.5258 10.0049C10.3856 9.95816 10.3388 9.91142 10.2142 9.95816C9.70008 10.0984 9.7624 10.1763 8.67184 10.2386C7.1139 10.223 6.98927 9.83352 6.64652 9.94258C5.54039 10.2853 4.18498 11.0331 3.35927 11.7342C2.96978 12.0614 2.68936 12.3262 2.37777 12.7157L1.95712 13.2921C1.83249 13.4947 1.70785 13.6972 1.61438 13.9153C1.34953 14.5073 1.03794 15.4577 1.03794 16.1743C1.03794 16.6417 0.913304 16.9689 1.11584 16.9689V17Z" fill="white" stroke="white" stroke-width="0.3"/>
<path fill-rule="evenodd" clip-rule="evenodd" d="M5.11663 5.31549C5.11663 3.43039 6.69015 1.87245 8.55968 1.87245C10.4448 1.87245 12.0027 3.44597 12.0027 5.31549C12.0027 7.2006 10.4292 8.75854 8.55968 8.75854C6.67457 8.75854 5.11663 7.18502 5.11663 5.31549ZM4.25977 5.05064C4.25977 5.90751 4.27535 6.39047 4.68041 7.18502C5.3659 8.54043 6.79921 9.63099 8.31041 9.63099C9.16728 9.63099 9.65024 9.61541 10.4448 9.21034C11.8002 8.52485 12.8908 7.09154 12.8908 5.58034C12.8908 4.72348 12.8752 4.24051 12.4701 3.44597C11.7846 2.09056 10.3513 1 8.84011 1C7.98324 1 7.50028 1.01558 6.70573 1.42064C6.19161 1.68549 5.92676 1.85687 5.5217 2.26193C4.82062 2.963 4.25977 4.00682 4.25977 5.05064Z" fill="white" stroke="white" stroke-width="0.3"/>
<path fill-rule="evenodd" clip-rule="evenodd" d="M13.1915 16.2209H12.0075C12.0075 14.6474 11.8205 15.1771 12.8799 14.1021L15.1389 11.8431C15.6219 11.3602 15.6998 11.2823 16.2918 11.8899C17.0864 12.6844 16.9773 12.4819 15.0143 14.4449L13.6589 15.8003C13.5654 15.8938 13.3006 16.2209 13.1759 16.2209H13.1915ZM11.2285 14.8811V16.9999H13.3162C13.6589 16.9999 13.8147 16.7974 14.0016 16.6104L16.728 13.884C17.0552 13.5569 17.6005 13.1674 17.6005 12.5598C17.6005 11.9678 17.211 11.6406 16.8994 11.329C16.5878 11.0174 16.2607 10.6279 15.6686 10.6279C15.0766 10.6279 14.6871 11.1576 14.36 11.4848L11.6492 14.1956C11.4622 14.3826 11.2285 14.5228 11.2285 14.8811Z" fill="white" stroke="white" stroke-width="0.3"/>
</svg>
