<svg width="4" height="10" viewBox="0 0 4 10" fill="none" xmlns="http://www.w3.org/2000/svg">
<path d="M0.0172912 1.98342C-0.0170617 1.7372 -9.83033e-05 1.48617 0.0670297 1.24737C0.134158 1.00858 0.249879 0.787605 0.406336 0.59946C0.562793 0.411315 0.756324 0.260403 0.973789 0.156969C1.19125 0.0535343 1.42756 0 1.66667 0C1.90577 0 2.14208 0.0535343 2.35954 0.156969C2.57701 0.260403 2.77054 0.411315 2.927 0.59946C3.08345 0.787605 3.19918 1.00858 3.2663 1.24737C3.33343 1.48617 3.35039 1.7372 3.31604 1.98342L2.76273 6.0117C2.72443 6.28575 2.59258 6.53629 2.39131 6.71747C2.19004 6.89865 1.9328 6.99837 1.66667 6.99837C1.40053 6.99837 1.14329 6.89865 0.94202 6.71747C0.740748 6.53629 0.608902 6.28575 0.570605 6.0117L0.0172912 1.98342ZM2.62728 9.00043C2.62728 9.26553 2.52607 9.51978 2.34592 9.70723C2.16577 9.89469 1.92144 10 1.66667 10C1.4119 10 1.16756 9.89469 0.98741 9.70723C0.807259 9.51978 0.706052 9.26553 0.706052 9.00043C0.706052 8.73532 0.807259 8.48108 0.98741 8.29362C1.16756 8.10617 1.4119 8.00085 1.66667 8.00085C1.92144 8.00085 2.16577 8.10617 2.34592 8.29362C2.52607 8.48108 2.62728 8.73532 2.62728 9.00043Z" fill="url(#paint0_linear_2866_7043)"/>
<defs>
<linearGradient id="paint0_linear_2866_7043" x1="1.92123" y1="-0.499776" x2="4.8659" y2="0.570241" gradientUnits="userSpaceOnUse">
<stop stop-color="#1BACF4"/>
<stop offset="1" stop-color="#19EEB5"/>
</linearGradient>
</defs>
</svg>
