<svg width="31" height="23" viewBox="0 0 31 23" fill="none" xmlns="http://www.w3.org/2000/svg">
<path d="M0 3.83333C0 2.81667 0.408258 1.84165 1.13496 1.12276C1.86166 0.403868 2.84729 0 3.875 0H27.125C28.1527 0 29.1383 0.403868 29.865 1.12276C30.5917 1.84165 31 2.81667 31 3.83333V5.75H0V3.83333ZM0 9.58333V19.1667C0 20.1833 0.408258 21.1584 1.13496 21.8772C1.86166 22.5961 2.84729 23 3.875 23H27.125C28.1527 23 29.1383 22.5961 29.865 21.8772C30.5917 21.1584 31 20.1833 31 19.1667V9.58333H0ZM5.8125 13.4167H7.75C8.26386 13.4167 8.75667 13.6186 9.12002 13.978C9.48337 14.3375 9.6875 14.825 9.6875 15.3333V17.25C9.6875 17.7583 9.48337 18.2458 9.12002 18.6053C8.75667 18.9647 8.26386 19.1667 7.75 19.1667H5.8125C5.29864 19.1667 4.80583 18.9647 4.44248 18.6053C4.07913 18.2458 3.875 17.7583 3.875 17.25V15.3333C3.875 14.825 4.07913 14.3375 4.44248 13.978C4.80583 13.6186 5.29864 13.4167 5.8125 13.4167Z" fill="#DFDFDF"/>
</svg>
