<svg width="18" height="19" viewBox="0 0 18 19" fill="none" xmlns="http://www.w3.org/2000/svg">
<path fill-rule="evenodd" clip-rule="evenodd" d="M6.93017 10.6319C6.57889 10.6319 5.19884 11.1965 4.83501 11.3972C3.6306 12.0747 2.82766 12.7145 1.93691 13.7935C1.64835 14.1447 1.39743 14.5462 1.17161 14.9351C0.883052 15.437 0.619588 16.0643 0.431399 16.6163C0.167936 17.3941 0.130298 17.8207 0.0299309 18.5985C0.017385 18.6864 0.0299309 18.7616 0.017385 18.8369C0.00483912 18.8996 -0.0327986 19 0.0675686 19H17.958C17.958 18.5484 17.9078 18.2096 17.8326 17.7956C17.7698 17.4694 17.682 17.0805 17.5942 16.7919C17.3182 15.8886 17.0547 15.3617 16.6156 14.634C16.5403 14.5086 16.4525 14.3706 16.3647 14.2451C16.1765 13.9816 15.7625 13.4422 15.5241 13.2163C14.6961 12.3883 14.1064 11.8865 12.9898 11.3345C12.3625 11.0208 11.8482 10.8326 11.1581 10.6444C11.0327 10.6068 11.0578 10.6068 10.9449 10.6444C10.0165 10.9957 8.91242 11.071 7.93384 10.8954C7.74566 10.8577 7.5951 10.8201 7.41946 10.7824C7.294 10.7574 7.01799 10.6319 6.93017 10.6319Z" fill="#DFDFDF"/>
<path fill-rule="evenodd" clip-rule="evenodd" d="M8.83806 10.2178C9.71627 10.2178 10.3436 10.1175 11.1214 9.75364C11.1967 9.716 11.2469 9.70346 11.3221 9.66582L11.8993 9.31454C11.962 9.26435 12.0122 9.23926 12.0749 9.18908C12.2505 9.03853 12.6018 8.76252 12.7273 8.59942C13.2166 7.99722 13.066 8.22304 13.4926 7.52047C13.5302 7.4452 13.5679 7.39501 13.6055 7.30719C13.756 6.95591 13.8313 6.8179 13.9317 6.40389C14.2328 5.27476 14.1073 3.93235 13.6055 2.92868C13.3671 2.43939 13.3044 2.36411 13.0033 1.96264C12.6646 1.51099 11.9871 0.921332 11.4852 0.657868C11.3974 0.620231 11.3598 0.582593 11.2845 0.544955C10.3185 0.0180278 8.97606 -0.132523 7.87203 0.118395C7.52074 0.206216 7.23218 0.306583 6.91854 0.432042C6.47943 0.607685 5.91487 0.984062 5.57613 1.31025C5.5134 1.37298 5.47576 1.38553 5.40048 1.46081C5.33775 1.52354 5.30012 1.56117 5.24993 1.6239C5.19975 1.69918 5.14957 1.72427 5.09938 1.787C5.0492 1.84973 5.01156 1.89991 4.96138 1.96264C4.73555 2.23865 4.50973 2.61503 4.34663 2.94122C4.22117 3.21723 4.09571 3.56852 4.02044 3.88216C3.89498 4.384 3.83225 5.08657 3.90752 5.60095C4.00789 6.26588 4.03298 6.45407 4.29645 7.119C4.52227 7.67102 4.92374 8.24813 5.31266 8.6496C5.77686 9.1138 6.19088 9.42745 6.79308 9.716C7.30746 9.96692 8.09785 10.2053 8.8506 10.2053L8.83806 10.2178Z" fill="#DFDFDF"/>
</svg>
