<svg width="11" height="16" viewBox="0 0 11 16" fill="none" xmlns="http://www.w3.org/2000/svg">
<path fill-rule="evenodd" clip-rule="evenodd" d="M5.29797 2.17681C5.95508 2.17681 6.36577 2.21852 6.94075 2.51049C6.98182 2.5522 7.02289 2.5522 7.06395 2.59391C7.47465 2.84416 7.80321 3.05271 8.09069 3.46981C8.17283 3.55323 8.2139 3.63665 8.25497 3.72007C8.37818 3.88691 8.46032 4.05375 8.54246 4.2623C8.6246 4.47085 8.66567 4.63769 8.7478 4.88794C8.95315 5.76385 8.70673 6.80659 8.2139 7.55737L7.84428 8.01618C7.80321 8.05789 7.80321 8.05789 7.72107 8.0996L7.39251 8.39157C7.22823 8.5167 7.06395 8.60011 6.85861 8.68353C5.99615 9.05892 4.96941 9.10063 4.14802 8.68353C4.10695 8.64182 4.06588 8.64182 4.02481 8.64182C3.98374 8.60011 3.94267 8.60011 3.9016 8.5584C3.73732 8.47499 3.40877 8.26644 3.28556 8.0996L3.08021 7.89105C2.66952 7.47395 2.4231 6.97343 2.25882 6.3895C2.01241 5.38846 2.21775 4.2623 2.87487 3.46981C3.08021 3.21955 3.24449 3.05271 3.49091 2.84416C3.98374 2.46878 4.68192 2.17681 5.33904 2.17681H5.29797ZM0 5.76385C0 7.55737 1.43743 9.89312 2.17668 11.061C2.29989 11.2695 2.4231 11.4364 2.54631 11.6032L2.91593 12.1454C2.99807 12.2289 3.03914 12.3123 3.12128 12.3957C3.20342 12.4791 3.24449 12.5625 3.32663 12.6877C3.73732 13.2299 4.10695 13.7304 4.55871 14.2726L5.17476 15.0234C5.42117 15.3154 5.54438 15.232 5.74973 15.0234L6.77647 13.7304C7.51572 12.7294 8.46032 11.4781 9.07636 10.4353C9.19957 10.2268 9.32278 10.06 9.40492 9.85141L9.73347 9.26747C10.8013 7.2654 11.3763 5.72214 10.4317 3.46981C10.2263 3.011 9.93882 2.59391 9.65133 2.21852C9.48706 2.05168 9.11743 1.67629 8.95315 1.50945C7.72107 0.424997 5.87294 -0.0338105 4.23016 0.341578C3.28556 0.591836 2.71059 0.883805 1.97134 1.46774C1.93027 1.50945 1.93027 1.50945 1.8892 1.55116C1.84813 1.59287 1.84813 1.59287 1.80706 1.63458C1.23209 2.21852 0.86246 2.67733 0.492834 3.4281C0.205348 4.05375 0 4.80452 0 5.72214V5.76385Z" fill="#DFDFDF"/>
</svg>
