<svg width="16" height="16" viewBox="0 0 16 16" fill="none" xmlns="http://www.w3.org/2000/svg">
<path d="M8 0C12.42 0 16 3.58 16 8C16 12.42 12.42 16 8 16C3.58 16 0 12.42 0 8C0 3.58 3.58 0 8 0ZM9 4C9 3.45 8.55 3 8 3C7.45 3 7 3.45 7 4C7 4.55 7.45 5 8 5C8.55 5 9 4.55 9 4ZM9 13V7H7V13H9Z" fill="url(#paint0_linear_2650_4452)"/>
<defs>
<linearGradient id="paint0_linear_2650_4452" x1="0" y1="0" x2="16.3006" y2="0.285367" gradientUnits="userSpaceOnUse">
<stop stop-color="#1BACF4"/>
<stop offset="1" stop-color="#19EEB5"/>
</linearGradient>
</defs>
</svg>
