<svg width="39" height="48" viewBox="0 0 39 48" fill="none" xmlns="http://www.w3.org/2000/svg">
<path d="M5.75738 38.2506L5.75745 38.2507C9.37853 43.1574 13.9571 46.299 19.4985 47.6904C21.157 47.2572 22.7474 46.6513 24.2701 45.8729C25.7134 45.1343 27.06 44.2753 28.3105 43.2959L25.3199 40.3514C24.4418 40.9771 23.5541 41.525 22.6567 41.9946M5.75738 38.2506L22.5176 41.7288M5.75738 38.2506C2.11738 33.322 0.3 27.8546 0.3 21.84V7.40903M5.75738 38.2506L0.3 7.40903M22.6567 41.9946L22.5176 41.7288M22.6567 41.9946C22.6568 41.9946 22.6568 41.9945 22.6569 41.9945L22.5176 41.7288M22.6567 41.9946C21.6842 42.5043 20.6608 42.9218 19.587 43.2471L19.4986 43.2739L19.4105 43.2463C15.1162 41.9047 11.5696 39.2209 8.7727 35.2116C5.97499 31.2012 4.575 26.7412 4.575 21.84V10.5V10.291L4.77109 10.2186L19.3961 4.81857L19.5 4.7802L19.6039 4.81857L34.2289 10.2186L34.425 10.291V10.5V21.84C34.425 23.744 34.1987 25.6083 33.7458 27.4323C33.2938 29.253 32.6567 30.9935 31.8344 32.6532L31.6505 33.0245L31.3551 32.7338L27.6989 29.1338L27.5322 28.9696L27.6508 28.7679C28.0846 28.0301 28.4096 27.2643 28.6266 26.4701M22.5176 41.7288C21.5621 42.2296 20.5562 42.64 19.5 42.96C15.275 41.64 11.7812 39 9.01875 35.04C6.25625 31.08 4.875 26.68 4.875 21.84V10.5L19.5 5.1L34.125 10.5V21.84C34.125 23.72 33.9016 25.56 33.4547 27.36C33.0336 29.0562 32.4501 30.6814 31.7043 32.2356L31.7761 32.3062L31.5656 32.52L31.2968 32.3868C31.3114 32.3573 31.326 32.3278 31.3405 32.2983L27.9094 28.92C28.3562 28.16 28.6918 27.3696 28.9161 26.5488M28.6266 26.4701L28.9161 26.5488M28.6266 26.4701C28.842 25.6775 28.95 24.8544 28.95 24C28.95 21.4417 28.0285 19.2583 26.1755 17.4338C24.3222 15.6091 22.1025 14.7 19.5 14.7C16.8975 14.7 14.6778 15.6091 12.8245 17.4338C10.9715 19.2583 10.05 21.4417 10.05 24C10.05 26.5583 10.9715 28.7417 12.8245 30.5662C14.6778 32.3909 16.8975 33.3 19.5 33.3C20.3271 33.3 21.1448 33.1938 21.9538 32.9811M28.6266 26.4701C28.6266 26.47 28.6266 26.4699 28.6267 26.4697L28.9161 26.5488M28.9161 26.5488C29.1387 25.7296 29.25 24.88 29.25 24C29.25 21.36 28.2953 19.1 26.3859 17.22C24.4766 15.34 22.1812 14.4 19.5 14.4C16.8188 14.4 14.5234 15.34 12.6141 17.22C10.7047 19.1 9.75 21.36 9.75 24C9.75 26.64 10.7047 28.9 12.6141 30.78C14.5234 32.66 16.8188 33.6 19.5 33.6C20.3531 33.6 21.1965 33.4904 22.0301 33.2712M24.375 32.28L31.9611 39.7494C32.0286 39.6754 32.0957 39.6011 32.1622 39.5264M24.375 32.28L5.51606 38.4288C1.83869 33.4496 0 27.92 0 21.84V7.2L19.5 0L39 7.2V21.84C39 25.24 38.4109 28.5104 37.2328 31.6512C36.091 34.6937 34.4721 37.389 32.3763 39.7372L32.1622 39.5264M24.375 32.28C23.6437 32.72 22.8621 33.0504 22.0301 33.2712M24.375 32.28L0.3 7.40903M32.1622 39.5264C34.2279 37.2094 35.8245 34.5499 36.9519 31.5458C38.1172 28.4392 38.7 25.2045 38.7 21.84V7.40903L19.5 0.319797L0.3 7.40903M32.1622 39.5264L24.5855 32.0662L24.4197 31.903L24.2203 32.0229C23.5137 32.4481 22.7584 32.7675 21.9538 32.9811M21.9538 32.9811C21.9538 32.9811 21.9538 32.9811 21.9538 32.9811L22.0301 33.2712M21.9538 32.9811C21.9536 32.9811 21.9534 32.9812 21.9532 32.9812L22.0301 33.2712M28.5473 43.1081L28.7625 43.32C28.684 43.3832 28.6052 43.4459 28.526 43.5082L28.5473 43.1081ZM23.1549 20.3952L23.1545 20.3949C22.1428 19.4005 20.9192 18.9 19.5 18.9C18.0807 18.9 16.8579 19.4005 15.8478 20.395C14.836 21.3912 14.325 22.5982 14.325 24C14.325 25.4016 14.8359 26.6078 15.8476 27.6024C16.8576 28.5986 18.0806 29.1 19.5 29.1C20.9194 29.1 22.1431 28.5986 23.1547 27.6026C24.1649 26.6079 24.675 25.4016 24.675 24C24.675 22.5984 24.1649 21.3914 23.1549 20.3952Z" fill="url(#paint0_linear_1812_3199)" stroke="#070707" stroke-width="0.6"/>
<defs>
<linearGradient id="paint0_linear_1812_3199" x1="0" y1="0" x2="39.7368" y2="0.565219" gradientUnits="userSpaceOnUse">
<stop stop-color="#1BACF4"/>
<stop offset="1" stop-color="#19EEB5"/>
</linearGradient>
</defs>
</svg>
