<svg width="156" height="156" viewBox="0 0 156 156" fill="none" xmlns="http://www.w3.org/2000/svg">
<circle cx="78" cy="78" r="77" stroke="url(#paint0_linear_2719_5004)" stroke-width="2"/>
<mask id="mask0_2719_5004" style="mask-type:alpha" maskUnits="userSpaceOnUse" x="9" y="13" width="138" height="138">
<circle cx="78" cy="82" r="69" fill="#C4C4C4"/>
</mask>
<g mask="url(#mask0_2719_5004)">
<path fill-rule="evenodd" clip-rule="evenodd" d="M75.3727 47.2698C87.3241 45.2481 99.2756 53.9293 101.119 66.4753C103.14 80.0916 93.0917 90.7349 81.8538 92.3404C68.2375 94.2431 57.7726 84.5511 55.9888 73.1348C54.0266 60.5293 62.4104 49.4698 75.3132 47.2698H75.3727ZM67.8807 35.0805C61.0429 36.9238 64.551 42.8103 58.7834 45.1887C55.8104 46.3779 53.7888 44.7725 50.8158 46.7941C49.2103 47.9238 47.486 50.3617 48.0211 53.5131C48.259 55.059 48.913 55.5347 49.0914 57.1996C49.6266 62.6104 45.1076 63.6807 43.5617 65.8213C42.0157 67.9618 41.8373 70.9943 43.2644 73.3132C44.6914 75.6321 46.7725 75.6321 48.259 78.1295C51.2914 83.3619 44.5725 87.3457 50.459 92.3998C54.2644 95.6701 60.6266 90.9728 62.8861 99.4161C63.5402 101.913 65.1456 103.697 67.5834 104.351C74.0051 106.135 75.3727 98.3458 81.8538 101.913C83.8754 103.043 85.0646 105.184 88.8701 104.53C95.7674 103.281 92.7944 96.9188 97.9674 94.4809C100.703 93.1728 103.259 94.6593 105.995 92.935C107.659 91.8647 109.503 89.5457 109.205 86.4538C108.908 83.4214 107.005 82.5295 108.551 78.7835C109.74 75.9889 111.643 76.0484 113.368 74.0267C114.795 72.3024 115.389 68.9726 114.022 66.5348C112.297 63.4429 107.838 63.1456 108.016 57.7942C108.076 55.8915 108.67 55.4158 109.027 53.9293C109.74 50.8968 108.195 48.3401 106.708 47.1509C103.497 44.6535 102.011 46.4968 98.8593 45.4265C92.4377 43.286 96.2431 37.34 89.6431 35.1994C85.8971 34.0102 83.8754 36.2697 82.5079 37.2211C80.3079 38.6481 77.3943 38.8859 75.0159 37.4589C73.7078 36.6859 71.6267 34.0697 67.8807 35.0805Z" fill="url(#paint1_linear_2719_5004)"/>
<path fill-rule="evenodd" clip-rule="evenodd" d="M88.9893 60.3503C89.4649 60.7071 89.1676 60.4693 89.5839 60.8855C89.8217 61.1828 89.9406 61.3017 90.119 61.4801L93.0325 65.5233L73.054 80.3883L65.2053 69.8639L65.9188 69.1504C66.2161 68.9126 66.2756 68.9126 66.5729 68.6747L70.3783 65.8206C71.8054 67.4855 72.8756 69.3288 74.3621 70.9937L88.9893 60.2909V60.3503ZM75.6703 49.7665C64.0756 51.6692 56.9404 61.8368 58.6053 72.8964C60.0918 82.8856 69.7243 91.5668 81.6757 89.783C91.546 88.2965 100.584 78.7234 98.6218 66.7125C96.838 55.653 86.5514 47.9827 75.6703 49.8259V49.7665Z" fill="url(#paint2_linear_2719_5004)"/>
<path fill-rule="evenodd" clip-rule="evenodd" d="M36.9609 109.643C38.6258 109.703 48.734 107.146 51.8259 106.67L55.9881 121L65.2638 105.778C59.9719 102.924 61.7557 98.5837 58.6043 96.681C56.1665 95.1945 53.3124 97.1567 49.4475 94.4215C48.5556 93.8269 48.2583 92.9945 47.2475 92.5188L39.5177 105.362C38.6258 106.789 37.6745 108.216 36.9609 109.643Z" fill="url(#paint3_linear_2719_5004)"/>
<path fill-rule="evenodd" clip-rule="evenodd" d="M90.8318 106.491L99.6319 120.999L103.913 106.788L118.718 109.821C118.183 108.512 109.383 94.0042 108.848 93.5286C108.432 93.8259 108.372 94.0042 107.897 94.361C103.437 97.7502 100.226 94.5988 97.5508 97.5718C96.2427 99.0583 96.421 101.08 95.1129 102.923C94.4589 103.815 94.0426 104.35 93.2102 104.945C92.4372 105.539 91.3669 105.896 90.7129 106.55L90.8318 106.491Z" fill="url(#paint4_linear_2719_5004)"/>
</g>
<defs>
<linearGradient id="paint0_linear_2719_5004" x1="0" y1="0" x2="158.931" y2="2.78233" gradientUnits="userSpaceOnUse">
<stop stop-color="#1BACF4"/>
<stop offset="1" stop-color="#19EEB5"/>
</linearGradient>
<linearGradient id="paint1_linear_2719_5004" x1="42.291" y1="34.8514" x2="116.154" y2="36.1946" gradientUnits="userSpaceOnUse">
<stop stop-color="#1BACF4"/>
<stop offset="1" stop-color="#19EEB5"/>
</linearGradient>
<linearGradient id="paint2_linear_2719_5004" x1="58.3652" y1="49.5522" x2="99.6533" y2="50.2762" gradientUnits="userSpaceOnUse">
<stop stop-color="#1BACF4"/>
<stop offset="1" stop-color="#19EEB5"/>
</linearGradient>
<linearGradient id="paint3_linear_2719_5004" x1="36.9609" y1="92.5188" x2="65.7956" y2="93.0204" gradientUnits="userSpaceOnUse">
<stop stop-color="#1BACF4"/>
<stop offset="1" stop-color="#19EEB5"/>
</linearGradient>
<linearGradient id="paint4_linear_2719_5004" x1="90.7129" y1="93.5286" x2="119.244" y2="94.0378" gradientUnits="userSpaceOnUse">
<stop stop-color="#1BACF4"/>
<stop offset="1" stop-color="#19EEB5"/>
</linearGradient>
</defs>
</svg>
