<svg width="20" height="17" viewBox="0 0 20 17" fill="none" xmlns="http://www.w3.org/2000/svg">
<path fill-rule="evenodd" clip-rule="evenodd" d="M1 7.75432L3.80356 10.5736L6.63227 7.76061L4.47931 7.75118C4.67417 6.91514 4.84075 6.25511 5.29335 5.50707C5.69879 4.83761 6.10739 4.34102 6.66684 3.82242C6.74542 3.75013 6.77999 3.73756 6.86171 3.66527L8.28549 2.76951C10.0079 1.99633 12.1357 1.88633 13.8643 2.72551C13.9618 2.77266 14.0561 2.80094 14.1566 2.85437C14.8638 3.23468 15.2693 3.53012 15.8633 4.099C16.1336 4.35673 16.429 4.71189 16.6396 5.01048C16.7527 5.16763 16.8659 5.34364 16.9665 5.52593C17.0262 5.63593 17.0545 5.69251 17.1173 5.79623C17.1833 5.90938 17.1928 5.96909 17.2493 6.08538C17.4474 6.50969 17.5542 6.83971 17.6799 7.34259C17.7428 7.59717 17.7711 7.77947 17.8057 8.05919L17.8717 8.83866C17.8748 9.02724 17.8465 9.08696 17.8371 9.22839C17.8025 9.66841 17.8119 9.87585 17.6957 10.3504C17.3782 11.6485 16.8282 12.6857 15.8821 13.6317C15.461 14.0529 14.999 14.4269 14.4741 14.7192C13.8863 15.0461 13.3426 15.2598 12.6574 15.4327C11.6076 15.6967 10.4384 15.6684 9.38869 15.3887C8.36406 15.1152 7.59089 14.6878 6.7957 14.0466C6.69513 13.9649 6.64798 13.8926 6.54112 13.8109C6.3494 13.6632 5.94395 13.2137 5.81823 13.022C5.60136 13.1351 5.04819 13.6506 4.90361 13.6883C4.98219 13.836 5.02619 13.8549 5.12991 13.99C5.80251 14.8544 7.05029 15.7156 8.04662 16.1336C10.0204 16.9602 12.5285 16.9853 14.4426 16.0204C14.8889 15.7941 15.2567 15.6087 15.6464 15.3258C16.3473 14.8167 16.803 14.3704 17.3562 13.6977C18.274 12.5851 19 10.6962 19 9.11839C19 7.49345 18.7391 6.31168 17.9471 4.93504C17.5668 4.27816 17.2462 3.86957 16.6899 3.31011C15.3227 1.9429 13.3866 1 11.3719 1C9.84442 1 8.90152 1.18229 7.55317 1.8549C7.05657 2.1032 6.7077 2.34835 6.28654 2.66265C5.49136 3.25354 4.85333 4.03929 4.35045 4.87533C3.90728 5.61079 3.49555 6.63855 3.37611 7.52174C3.34154 7.78575 3.37297 7.75746 3.08067 7.75432C2.39235 7.74175 1.6946 7.75118 1.00629 7.75118L1 7.75432Z" fill="#DFDFDF" stroke="#DFDFDF" stroke-width="0.1"/>
<path fill-rule="evenodd" clip-rule="evenodd" d="M9.99728 9.51118C9.99728 9.77205 10.4467 10.1209 10.673 10.3472L12.9831 12.6416C13.0743 12.5788 13.7186 11.9722 13.7563 11.8339C13.596 11.5981 12.0214 10.0895 11.6945 9.78148C11.6631 9.75319 11.6662 9.75633 11.6411 9.73119C11.6002 9.69033 11.5971 9.68404 11.5562 9.64319L11.3173 9.3886C11.2419 9.29746 11.2356 9.26603 11.1193 9.2346V5.51013H9.99414V9.51747L9.99728 9.51118Z" fill="#DFDFDF" stroke="#DFDFDF" stroke-width="0.1"/>
</svg>
