<svg width="22" height="22" viewBox="0 0 22 22" fill="none" xmlns="http://www.w3.org/2000/svg">
<path fill-rule="evenodd" clip-rule="evenodd" d="M11.278 11.1812C13.6417 12.0676 13.4506 11.9887 14.5 13C14.2032 13.1521 13.5 13 12.5 13.5C11.9486 13.7757 11.7897 13.9582 11 15C9.66445 16.6729 9.1936 18.7058 9.1936 20.9871H0C0 18.0975 0.890365 15.9684 2.22591 14.4476C2.96788 13.383 3.85825 12.6226 5.0454 11.8622C5.34219 11.7101 5.49059 11.558 5.78737 11.4059C5.78737 11.4059 6.15679 11.2539 6.23256 11.2539V11.1814C6.83143 11.4019 7.88079 11.5429 8.91955 11.5429C9.95831 11.5429 11.1296 11.1812 11.278 11.1812Z" fill="#DFDFDF"/>
<path fill-rule="evenodd" clip-rule="evenodd" d="M15.9346 12.1921C16.2225 12.48 17.8057 13.9193 17.8057 14.2071C16.6543 14.2071 16.0785 14.0632 14.9271 14.3511C14.2074 14.495 13.4878 14.9268 12.9121 15.3586L12.4803 15.6464C12.3364 15.6464 12.3364 15.7904 12.3364 15.7904C11.9046 16.2221 12.0485 16.0782 11.4728 16.9418C10.6092 18.3811 10.7531 19.6765 10.7531 21.2597H12.4803C12.4803 19.3886 12.3364 17.8054 13.9196 16.51C15.215 15.5025 16.0785 15.6464 17.6618 15.6464L15.6467 17.6614C15.6467 17.8054 16.7982 18.8129 16.9421 18.9568L21.1161 14.7828L16.9421 10.6089L15.6467 11.9043L15.9346 12.1921Z" fill="#DFDFDF"/>
<path fill-rule="evenodd" clip-rule="evenodd" d="M8.35647 10.7222C9.27803 10.7222 9.93629 10.6169 10.7525 10.2351C10.8315 10.1956 10.8842 10.1824 10.9632 10.1429L11.5688 9.77429C11.6346 9.72163 11.6873 9.6953 11.7531 9.64264C11.9374 9.48466 12.306 9.19503 12.4377 9.02388C12.9511 8.39195 12.7931 8.62892 13.2407 7.89168C13.2802 7.81269 13.3197 7.76002 13.3592 7.66787C13.5172 7.29924 13.5962 7.15443 13.7015 6.71998C14.0175 5.53511 13.8858 4.12644 13.3592 3.07323C13.1091 2.55979 13.0433 2.4808 12.7273 2.05952C12.3718 1.58557 11.6609 0.966808 11.1343 0.69034C11.0422 0.650845 11.0027 0.611349 10.9237 0.571854C9.90996 0.0189176 8.50129 -0.139064 7.34275 0.124239C6.97413 0.216395 6.67133 0.321716 6.3422 0.453368C5.88142 0.63768 5.28899 1.03263 4.93353 1.37493C4.8677 1.44075 4.82821 1.45392 4.74922 1.53291C4.68339 1.59874 4.6439 1.63823 4.59124 1.70406C4.53858 1.78305 4.48592 1.80938 4.43325 1.8752C4.38059 1.94103 4.3411 1.99369 4.28844 2.05952C4.05147 2.34915 3.81449 2.7441 3.64335 3.0864C3.51169 3.37603 3.38004 3.74465 3.30105 4.07378C3.1694 4.60039 3.10357 5.33764 3.18257 5.87741C3.28789 6.57516 3.31422 6.77264 3.59069 7.47039C3.82766 8.04966 4.24894 8.65525 4.65706 9.07654C5.14417 9.56365 5.57862 9.89278 6.21055 10.1956C6.75032 10.4589 7.57973 10.709 8.36963 10.709L8.35647 10.7222Z" fill="#DFDFDF"/>
</svg>
