<svg width="77" height="77" viewBox="0 0 77 77" fill="none" xmlns="http://www.w3.org/2000/svg">
<path fill-rule="evenodd" clip-rule="evenodd" d="M46.0619 5.77343C46.0619 6.71475 46.5012 6.96577 47.4425 6.96577C47.9446 6.96577 49.2624 5.52241 49.7645 5.20864C50.4548 4.7066 51.5216 4.0163 52.2747 3.70253C58.5501 1.00407 65.0766 2.0709 69.846 6.77751C75.1174 12.0489 75.9332 20.2698 71.7286 26.4825L69.0302 29.4947C68.6536 29.8712 68.4026 30.0595 67.9633 30.3733C67.2103 30.9381 66.3945 31.4401 65.5159 31.8166C63.6332 32.5697 61.5623 33.3227 58.8639 33.3227C48.1956 33.3227 41.4808 23.3447 43.991 13.6178C44.3048 12.4254 45.2461 10.7311 45.2461 9.91524C45.2461 9.28769 43.8655 8.09535 42.8615 10.229C40.7905 14.4963 40.4768 20.458 42.5477 24.7881L33.0717 29.4319C29.8085 23.282 21.1483 20.0187 19.705 20.9601C18.9519 21.4621 19.0147 22.5917 19.8305 22.9682C20.2698 23.1565 20.8973 23.2192 21.3993 23.3447C26.0432 24.5998 29.8712 27.6748 31.8794 32.1304C35.0171 39.0962 32.3814 46.7522 26.859 50.9568C26.4825 51.2706 26.2315 51.4588 25.7922 51.7099C21.2738 54.22 15.8142 54.8476 11.0448 52.4002C7.78158 50.7685 4.95762 48.1956 3.57702 44.7441C1.56887 39.7865 1.81989 34.3268 4.83211 29.8085C6.96577 26.6707 10.0407 24.3488 13.806 23.4703C14.5591 23.282 16.3162 23.282 16.3162 22.0896C16.3162 18.7009 7.84434 23.0937 5.33415 25.6667C4.26732 26.7335 3.326 27.8631 2.57294 29.1809C2.25917 29.683 1.9454 30.1222 1.75713 30.6243C0.690302 33.009 0.125509 35.3309 0 37.6528V39.4727C0.125509 41.6691 0.690302 43.9283 1.69438 46.2502C1.88264 46.6895 2.19641 47.1915 2.44743 47.6308C3.76528 49.89 5.58517 51.8354 7.78158 53.2787C13.7433 57.2323 21.1483 57.3578 27.1728 53.718C29.4319 52.3374 31.9421 49.89 33.1972 47.5681L42.6104 52.2747C40.1002 57.4833 41.1671 64.3863 44.3048 69.1557C45.6227 71.1638 47.7563 73.172 49.8272 74.4271C52.5884 76.0587 55.5379 76.8745 58.4874 77H59.4914C65.8924 76.8117 72.0424 73.172 75.1801 66.8965C77.251 62.6919 77.4393 57.044 75.6821 52.6512C75.4939 52.0864 74.8663 50.7058 74.5526 50.3293C73.925 49.7017 72.5444 50.141 72.5444 50.9568C72.5444 51.5216 72.9837 52.2747 73.172 52.7139C75.1174 56.4792 74.9291 61.6879 73.2975 65.3904C72.1679 67.9633 70.348 70.2852 68.0261 71.7914C62.6919 75.4311 55.7889 75.6194 50.392 71.9169C46.1874 69.0302 43.6145 64.3235 43.6145 59.0522C43.6145 48.3211 54.3456 40.3513 65.6414 44.9951C68.1516 46.0619 69.5949 48.0701 70.6618 48.0701C71.5403 48.0701 71.7286 47.5053 71.7286 46.6895C71.7286 45.4344 66.7082 42.8615 65.5159 42.3594C63.0057 41.3553 59.5542 40.8533 56.4165 41.4181C52.965 41.9829 50.0782 43.4262 47.5053 45.5599C45.9992 46.815 44.8696 48.3211 43.8028 49.9527L34.3268 45.3089C36.2095 41.7319 36.2095 35.0799 34.3268 31.5029L43.74 26.7962C45.2461 29.1809 46.7522 30.8753 49.0742 32.5069C55.2869 37.0253 65.3904 36.586 70.9128 31.1891C72.8582 29.2437 74.4898 27.361 75.5566 24.7253C76.3725 22.6544 76.8117 20.6463 76.9372 18.6381V16.9438C76.498 7.59332 68.5909 0 59.9935 0C55.2869 0 51.9609 0.878566 48.4466 3.51426C47.8191 4.0163 46.313 5.08313 46.313 5.89894L46.0619 5.77343Z" fill="url(#paint0_linear_1651_2665)"/>
<path fill-rule="evenodd" clip-rule="evenodd" d="M51.7725 23.2192C51.7725 20.458 54.1572 18.5753 57.3577 18.5753C59.6168 18.5753 62.6918 18.3243 64.3234 19.7049C66.3944 21.5248 66.0806 23.2819 66.0806 25.9176H51.8353V23.2192H51.7725ZM58.9893 16.3162C55.6633 16.3162 54.0317 12.4254 56.2281 10.1034C58.3618 7.84428 62.6291 9.09937 62.6291 12.7391C62.6291 13.6805 62.0643 14.7473 61.5622 15.2493C61.0602 15.7514 59.9306 16.3162 59.0521 16.3162H58.9893ZM52.8393 12.5509C52.8393 14.308 53.6552 15.5631 54.3455 16.6299C52.7138 17.5085 52.149 17.634 50.9567 19.0774C49.2623 21.0228 49.3878 23.2819 49.3878 25.6666C49.3878 27.1727 50.5802 28.3651 52.0863 28.3651H65.7668C68.6535 28.3651 68.4653 25.4156 68.4653 23.8467C68.4653 20.207 65.7041 17.0065 63.5076 16.8182C63.5704 16.0651 66.0806 13.806 64.3862 10.1034C62.7546 6.65194 57.9225 5.20858 54.7847 8.34632C53.6552 9.4759 52.9021 10.8565 52.9021 12.6136L52.8393 12.5509Z" fill="url(#paint1_linear_1651_2665)"/>
<path fill-rule="evenodd" clip-rule="evenodd" d="M65.5785 67.2093H51.7725C51.7725 64.9501 51.4587 62.691 53.3414 61.1221C55.3495 59.4277 57.9225 59.867 60.9347 59.867C62.5036 59.867 63.5704 60.369 64.449 61.1848C66.3316 63.0047 66.0806 64.2598 66.0806 66.77C66.0806 67.1465 65.9551 67.2093 65.6413 67.2093H65.5785ZM55.224 54.1563C55.224 51.7089 56.9184 50.2655 58.2362 50.2655H59.3031C63.2566 50.2655 64.1352 57.1058 59.0521 57.5451C57.1694 57.7333 55.224 56.039 55.224 54.1563ZM52.8393 53.8425C52.8393 54.7839 53.2159 56.1645 53.7807 56.9803C54.0944 57.4196 54.2199 57.4196 54.3455 57.9216C52.7138 58.6747 52.2745 58.6747 50.9567 60.369C49.2623 62.5027 49.3878 64.3853 49.3878 66.9583C49.3878 67.7741 49.8271 68.5271 50.2664 68.9664C50.7684 69.4057 51.4587 69.7195 52.4001 69.7195H65.6413C68.6535 69.7195 68.4653 66.77 68.4653 65.2011C68.4653 63.193 67.8377 61.6869 66.9591 60.5573C66.1433 59.5532 64.8255 58.3609 63.3821 57.9844C63.5704 57.6706 63.6959 57.6706 63.9469 57.2941C65.453 55.1604 65.3275 51.9599 63.3821 49.889L63.1939 49.638C61.4367 47.8808 58.7383 47.3788 56.4791 48.4456C54.4082 49.4497 52.9021 51.4579 52.9021 53.9053L52.8393 53.8425Z" fill="url(#paint2_linear_1651_2665)"/>
<path fill-rule="evenodd" clip-rule="evenodd" d="M10.4853 46.1887V43.9295C10.4853 41.4821 12.6817 39.2857 15.1291 39.2857C18.5807 39.2857 21.4046 38.7209 23.35 40.6663C25.0444 42.3607 24.7306 43.9923 24.7306 46.1887C24.7306 46.5652 24.6051 46.628 24.2913 46.628H10.9246C10.5481 46.628 10.4853 46.5025 10.4853 46.1887ZM13.9368 33.2612C13.9368 28.4291 21.2791 28.1153 21.2791 33.3867C21.2791 35.2694 19.7102 36.8382 17.3883 36.8382C15.5684 36.8382 13.9368 35.0811 13.9368 33.2612ZM11.6776 32.6337C11.6776 35.2694 11.8659 35.3321 13.1837 37.2775C11.8659 37.403 10.297 38.8464 9.54398 39.7877C7.72409 42.2351 6.97104 48.8244 10.6108 48.8244H24.8561C25.9857 48.8244 27.1153 47.5065 27.1153 46.2514C27.1153 43.4275 27.3036 41.9841 25.6092 39.6622C24.8561 38.6581 23.601 37.5913 22.1577 37.2148C22.3459 36.5872 23.6638 35.2694 23.6638 33.1357C23.6638 30.0607 21.0281 27.1113 18.0786 27.1113C16.1332 27.1113 14.7526 27.2995 13.3093 28.8056C12.5562 29.5587 11.6149 31.0021 11.6149 32.5082L11.6776 32.6337Z" fill="url(#paint3_linear_1651_2665)"/>
<defs>
<linearGradient id="paint0_linear_1651_2665" x1="0" y1="0" x2="78.3826" y2="1.37109" gradientUnits="userSpaceOnUse">
<stop stop-color="#1BACF4"/>
<stop offset="1" stop-color="#19EEB5"/>
</linearGradient>
<linearGradient id="paint1_linear_1651_2665" x1="49.3857" y1="6.61249" x2="68.8276" y2="6.91106" gradientUnits="userSpaceOnUse">
<stop stop-color="#1BACF4"/>
<stop offset="1" stop-color="#19EEB5"/>
</linearGradient>
<linearGradient id="paint2_linear_1651_2665" x1="49.3857" y1="47.8885" x2="68.8275" y2="48.186" gradientUnits="userSpaceOnUse">
<stop stop-color="#1BACF4"/>
<stop offset="1" stop-color="#19EEB5"/>
</linearGradient>
<linearGradient id="paint3_linear_1651_2665" x1="8.02832" y1="27.1113" x2="27.4815" y2="27.4107" gradientUnits="userSpaceOnUse">
<stop stop-color="#1BACF4"/>
<stop offset="1" stop-color="#19EEB5"/>
</linearGradient>
</defs>
</svg>
