<svg width="18" height="18" viewBox="0 0 18 18" fill="none" xmlns="http://www.w3.org/2000/svg">
<path d="M4.9375 12.4375H1.1875M1.1875 12.4375C1.1875 12.4375 4.625 16.5 9 16.8125M1.1875 12.4375L2.125 16.8125M1.1875 12.4375C1.1875 12.4375 4.9375 16.8125 9 16.8125M9 16.8125C13.315 16.8125 16.8125 13.6875 16.8125 9.9375C16.8125 9.9375 16.8125 16.1198 9 16.8125ZM13.0625 5.5625H16.8125M16.8125 5.5625C16.8125 5.5625 13.6875 1.1875 9 1.1875C4.685 1.1875 1.1875 4.3125 1.1875 8.0625M16.8125 5.5625V1.1875" stroke="url(#paint0_linear_1140_3468)" stroke-width="2" stroke-linecap="round" stroke-linejoin="round"/>
<defs>
<linearGradient id="paint0_linear_1140_3468" x1="1.1875" y1="1.1875" x2="17.106" y2="1.46618" gradientUnits="userSpaceOnUse">
<stop stop-color="#1BACF4"/>
<stop offset="1" stop-color="#19EEB5"/>
</linearGradient>
</defs>
</svg>
