<svg width="90" height="77" viewBox="0 0 90 77" fill="none" xmlns="http://www.w3.org/2000/svg">
<path d="M19.808 14.7142C19.4069 15.0294 18.9903 15.3568 18.4578 15.7178H18.1789L18.3388 15.9523C18.502 16.1917 18.7298 16.4265 18.9708 16.6591C19.0508 16.7364 19.1321 16.8132 19.2137 16.8903C19.382 17.0494 19.5515 17.2096 19.7141 17.3774C20.1984 17.877 20.5693 18.3931 20.5693 18.9859C20.5693 19.3391 20.354 19.7325 20.0086 20.0438C19.665 20.3535 19.2172 20.5591 18.791 20.5591C18.5875 20.5591 18.3555 20.4669 18.0998 20.3001C17.8462 20.1348 17.585 19.9065 17.3256 19.6573C17.1567 19.4951 16.9929 19.3282 16.8335 19.1658C16.7469 19.0776 16.6617 18.9908 16.5777 18.9068C16.3438 18.673 16.1188 18.4602 15.9201 18.3278L15.7892 18.2405L15.7083 18.3754C15.5917 18.5697 15.4344 18.767 15.2599 18.9774C15.2307 19.0125 15.2011 19.0481 15.1711 19.084C15.0245 19.2598 14.8706 19.4442 14.7314 19.6356C13.6552 21.0845 12.5928 23.0765 11.7992 25.1481C11.006 27.2185 10.4763 29.3816 10.4763 31.1714V31.3214H10.6263C10.8895 31.3214 11.1739 31.3108 11.4611 31.3001C11.6448 31.2933 11.8296 31.2864 12.0107 31.2822C12.4819 31.2714 12.9395 31.2781 13.3403 31.345C13.7422 31.4119 14.0704 31.5367 14.2973 31.7484C14.5191 31.9553 14.6612 32.2612 14.6612 32.7304C14.6612 33.3092 14.5536 33.6925 14.3746 33.95C14.198 34.204 13.9384 34.355 13.5904 34.4414C13.2384 34.5288 12.8074 34.5472 12.303 34.5421C12.0967 34.54 11.8742 34.5338 11.641 34.5273C11.3181 34.5183 10.9749 34.5088 10.6263 34.5088H10.4763V34.6588C10.4763 36.1799 10.9128 38.126 11.546 39.9844C12.1794 41.8435 13.0152 43.6306 13.8247 44.8347C13.8248 44.8349 13.825 44.8352 13.8252 44.8354L15.5474 47.4598L15.607 47.5506L15.7118 47.5224C16.2951 47.3654 16.6811 46.9394 17.0377 46.5268C17.0579 46.5034 17.0781 46.4801 17.0981 46.4567C17.4404 46.0596 17.7672 45.6804 18.2367 45.4631C18.9368 45.161 19.513 45.3399 19.9211 45.6776C20.3406 46.0248 20.5693 46.5289 20.5693 46.8442C20.5693 47.6779 20.142 48.1215 19.6336 48.5444C19.5717 48.5958 19.508 48.6473 19.4435 48.6994C18.9879 49.0675 18.4929 49.4673 18.3177 50.1291L18.2903 50.2328L18.3795 50.2923L20.3489 51.6052L20.3496 51.6056C22.162 52.8002 24.8049 54.1646 26.9629 54.6626L27.1466 54.705V54.5165C27.1466 52.4581 27.0943 50.784 27.0519 49.4267C27.0446 49.1927 27.0376 48.9682 27.0312 48.7527C26.9875 47.2817 26.973 46.2452 27.0834 45.5126C27.1929 44.7862 27.4195 44.3949 27.8302 44.1705C28.2607 43.9352 28.9203 43.8657 29.9492 43.876H29.9507H52.5983H52.7123L52.7428 43.7662C52.7649 43.6868 52.8201 43.553 52.9068 43.3611C52.9642 43.2339 53.033 43.0864 53.111 42.9192C53.1489 42.8377 53.1891 42.7516 53.2312 42.6609C53.4875 42.1085 53.811 41.3946 54.1282 40.5694C54.7619 38.9205 55.3741 36.8186 55.3741 34.6588V34.5088H55.2241C54.9609 34.5088 54.6765 34.5193 54.3894 34.53C54.2057 34.5369 54.0209 34.5437 53.8398 34.5479C53.3686 34.5588 52.911 34.552 52.5101 34.4852C52.1082 34.4182 51.7801 34.2934 51.5531 34.0817C51.3313 33.8748 51.1892 33.5689 51.1892 33.0997C51.1892 32.521 51.2969 32.1376 51.4759 31.8801C51.6524 31.6261 51.9121 31.4751 52.2601 31.3887C52.612 31.3013 53.0431 31.2829 53.5475 31.288C53.7537 31.2901 53.9763 31.2963 54.2094 31.3028C54.5323 31.3118 54.8755 31.3214 55.2241 31.3214H55.3741V31.1714C55.3741 27.3538 53.2638 22.5638 51.0368 19.5532L51.0368 19.5531L51.0333 19.5487C50.9226 19.4104 50.8154 19.2848 50.7128 19.1648C50.4983 18.9137 50.3042 18.6865 50.1422 18.4164L50.065 18.2878L49.9364 18.365C49.8959 18.3892 49.8515 18.4276 49.8086 18.4677C49.7634 18.51 49.7109 18.5627 49.653 18.6224C49.6045 18.6724 49.5529 18.7263 49.4976 18.7842C49.417 18.8685 49.3284 18.9613 49.2294 19.0624C48.9003 19.3986 48.4901 19.7918 48.0506 20.099C47.6077 20.4085 47.155 20.6162 46.7383 20.6111C46.3375 20.6061 45.9374 20.4032 45.5889 19.8128C45.339 19.38 45.2913 19.0018 45.3596 18.6609C45.4291 18.315 45.6212 17.9926 45.8777 17.6812C46.1112 17.3979 46.3894 17.1336 46.663 16.8736C46.6906 16.8474 46.7182 16.8212 46.7456 16.795C47.0401 16.5146 47.3277 16.2336 47.5133 15.9499L47.5974 15.8212L47.4667 15.7402C47.0999 15.5132 46.8177 15.2869 46.4984 15.0309C46.4508 14.9928 46.4025 14.9541 46.353 14.9145C45.9707 14.6098 45.5241 14.267 44.8396 13.8522C42.1218 12.205 38.032 10.5072 34.6689 10.5072H34.5189V10.6572C34.5189 10.9204 34.5295 11.2048 34.5402 11.4919C34.547 11.6756 34.5539 11.8604 34.5581 12.0415C34.5689 12.5127 34.5621 12.9703 34.4953 13.3712C34.4284 13.7731 34.3036 14.1013 34.0919 14.3282C33.885 14.55 33.579 14.6921 33.1099 14.6921C32.5311 14.6921 32.1478 14.5844 31.8903 14.4054C31.6363 14.2289 31.4853 13.9692 31.3989 13.6212C31.3115 13.2693 31.2931 12.8382 31.2982 12.3338C31.3003 12.1276 31.3065 11.905 31.313 11.6719C31.322 11.349 31.3315 11.0058 31.3315 10.6572V10.5072H31.1815C30.0738 10.5072 28.6735 10.7885 27.3466 11.1536C26.0172 11.5195 24.7497 11.9728 23.9031 12.3239L23.903 12.3239C21.667 13.2531 20.7836 13.9475 19.808 14.7142ZM7.16584 32.4022V32.2522H7.08427C7.11942 26.815 9.0626 22.0157 11.7714 18.0515L14.6343 14.6978C26.5857 2.7515 46.2841 5.2793 55.0958 19.8431C58.4389 25.3879 59.5004 32.6499 57.9094 39.1361L57.9089 39.1381C57.7265 39.9285 57.3601 41.0082 57.0318 41.9213C56.8898 42.3162 56.7555 42.6784 56.6471 42.971C56.6304 43.016 56.6143 43.0593 56.5989 43.1008C56.5413 43.2565 56.4929 43.3878 56.4576 43.4867C56.4245 43.5795 56.3978 43.6575 56.3899 43.6966L56.3541 43.876H56.537H60.1886H60.2797L60.3217 43.7951C60.9069 42.6665 61.5254 40.3093 61.813 38.7895L61.8131 38.7889C63.3792 30.3398 61.689 22.956 57.4413 16.605L57.4413 16.6049L57.4395 16.6023C56.8622 15.7777 55.9874 14.6354 55.0716 13.5601C54.1593 12.4889 53.1976 11.4739 52.4452 10.9088C51.9538 10.4993 51.4628 10.0901 50.931 9.64005L50.9297 9.63899C45.1913 4.89138 36.5729 2.58474 28.3701 3.78009C25.5237 4.19261 22.432 5.18185 20.2032 6.25497C18.8185 6.91631 16.9849 8.02923 15.2666 9.2794C13.5501 10.5282 11.9359 11.9231 10.9994 13.151L10.9987 13.152C10.7688 13.4584 10.5432 13.7117 10.2931 13.9925C10.1442 14.1596 9.98662 14.3364 9.81435 14.54L9.8143 14.54L9.81158 14.5434C4.78038 20.853 2.55358 28.977 3.70814 37.0594C4.28531 41.1819 5.81041 45.4294 7.99856 48.7323L7.9988 48.7326C8.90117 50.0862 10.3853 52.1491 11.5469 53.2695C12.9004 54.623 14.2634 55.9453 15.8768 57.0209L15.8777 57.0215C17.196 57.8866 19.2126 59.0596 21.2814 60.0271C23.344 60.9917 25.4817 61.7634 27.0336 61.8054L27.1877 61.8095V61.6554V58.168V58.0287L27.0487 58.0184C26.5165 57.979 25.7125 57.7494 24.9122 57.4724C24.1166 57.197 23.3407 56.8805 22.8716 56.6765L22.8707 56.6761C19.2397 55.1258 15.8536 52.6778 13.2844 49.6601C9.53195 45.2141 7.16584 39.7093 7.16584 32.4022ZM0.191028 31.7047L0.150173 31.6951C0.181058 23.5241 4.3341 15.1922 9.70669 9.8196C19.3877 0.138634 34.9092 -2.71721 46.8279 3.28298L46.8283 3.28317C49.3671 4.55257 51.9388 6.06382 54.0171 7.89768C63.2929 16.1111 67.4565 26.9309 65.129 39.5117C65.0268 39.9816 64.8225 40.8394 64.5978 41.6768C64.3714 42.5208 64.1284 43.3276 63.9507 43.7028L63.8492 43.9171H64.0863H64.1125H64.1387H64.1649H64.1911H64.2173H64.2435H64.2697H64.2959H64.3221H64.3483H64.3745H64.4007H64.4269H64.4531H64.4793H64.5055H64.5317H64.5579H64.5841H64.6103H64.6365H64.6627H64.6889H64.7151H64.7413H64.7675H64.7937H64.82H64.8462H64.8724H64.8986H64.9248H64.951H64.9772H65.0034H65.0296H65.0558H65.082H65.1082H65.1344H65.1606H65.1868H65.213H65.2392H65.2654H65.2916H65.3178H65.344H65.3702H65.3964H65.4226H65.4488H65.475H65.5012H65.5275H65.5536H65.5799H65.6061H65.6323H65.6585H65.6847H65.7109H65.7371H65.7633H65.7895H65.8157H65.8419H65.8681H65.8943H65.9205H65.9467H65.9729H65.9991H66.0253H66.0515H66.0777H66.1039H66.1301H66.1563H66.1825H66.2087H66.2349H66.2612H66.2874H66.3136H66.3398H66.366H66.3922H66.4184H66.4446H66.4708H66.497H66.5232H66.5494H66.5756H66.6018H66.628H66.6542H66.6804H66.7066H66.7328H66.759H66.7852H66.8114H66.8376H66.8638H66.89H66.9162H66.9424H66.9687H66.9949H67.0211H67.0473H67.0735H67.0997H67.1259H67.1521H67.1783H67.2045H67.2307H67.2569H67.2831H67.3093H67.3355H67.3617H67.3879H67.4141H67.4403H67.4665H67.4927H67.5189H67.5451H67.5713H67.5975H67.6237H67.6499H67.6761H67.7024H67.7286H67.7548H67.781H67.8072H67.8334H67.8596H67.8858H67.912H67.9382H67.9644H67.9906H68.0168H68.043H68.0692H68.0954H68.1216H68.1478H68.174H68.2002H68.2264H68.2526H68.2788H68.305H68.3312H68.3574H68.3836H68.4099H68.4361H68.4623H68.4885H68.5147H68.5409H68.5671H68.5933H68.6195H68.6457H68.6719H68.6981H68.7243H68.7505H68.7767H68.8029H68.8291H68.8553H68.8815H68.9077H68.9339H68.9601H68.9863H69.0125H69.0387H69.0649H69.0911H69.1173H69.1436H69.1698H69.196H69.2222H69.2484H69.2746H69.3008H69.327H69.3532H69.3794H69.4056H69.4318H69.458H69.4842H69.5104H69.5366H69.5628H69.589H69.6152H69.6414H69.6676H69.6938H69.72H69.7462H69.7724H69.7986H69.8248H69.8511H69.8773H69.9035H69.9297H69.9559H69.9821H70.0083H70.0345H70.0607H70.0869H70.1131H70.1393H70.1655H70.1917H70.2179H70.2441H70.2703H70.2965H70.3227H70.3489H70.3751H70.4013H70.4275H70.4537H70.4799H70.5061H70.5323H70.5585H70.5847H70.611H70.6372H70.6634H70.6896H70.7158H70.742H70.7682H70.7944H70.8206H70.8468H70.873H70.8992H70.9254H70.9516H70.9778H71.004H71.0302H71.0564H71.0826H71.1088H71.135H71.1612H71.1874H71.2136H71.2398H71.266H71.2923H71.3185H71.3447H71.3709H71.3971H71.4233H71.4495H71.4757H71.5019H71.5281H71.5543H71.5805H71.6067H71.6329H71.6591H71.6853H71.7115H71.7377H71.7639H71.7901H71.8163H71.8425H71.8687H71.8949H71.9211H71.9473H71.9735H71.9997H72.0259H72.0522H72.0784H72.1046H72.1308H72.157H72.1832H72.2094H72.2356H72.2618H72.288H72.3142H72.3404H72.3666H72.3928H72.419H72.4452H72.4714H72.4976H72.5238H72.55H72.5762H72.6024H72.6286H72.6548H72.681H72.7072H72.7335H72.7597H72.7859H72.8121H72.8383H72.8645H72.8907H72.9169H72.9431H72.9693H72.9955H73.0217H73.0479H73.0741H73.1003H73.1265H73.1527H73.1789H73.2051H73.2313H73.2575H73.2837H73.3099H73.3361H73.3623H73.3885H73.4147H73.4409H73.4671H73.4934H73.5196H73.5458H73.572H73.5982H73.6244H73.6506H73.6768H73.703H73.7292H73.7554H73.7816H73.8078H73.834H73.8602H73.8864H73.9126H73.9388H73.965H73.9912H74.0174H74.0436H74.0698H74.096H74.1222H74.1484H74.1747H74.2009H74.2271H74.2533H74.2795H74.3057H74.3319H74.3581H74.3843H74.4105H74.4367H74.4629H74.4891H74.5153H74.5415H74.5677H74.5939H74.6201H74.6463H74.6725H74.6987H74.7249H74.7511H74.7773H74.8035H74.8297H74.8559H74.8821H74.9083H74.9346H74.9608H74.987H75.0132H75.0394H75.0656H75.0918H75.118H75.1442H75.1704H75.1966H75.2228H75.249H75.2752H75.3014H75.3276H75.3538H75.38H75.4062H75.4324H75.4586H75.4848H75.511H75.5372H75.5634H75.5896H75.6159H75.6421H75.6683H75.6945H75.7207H75.7469H75.7731H75.7993H75.8255H75.8517H75.8779H75.9041H75.9303H75.9565H75.9827H76.0089H76.0351H76.0613H76.0875H76.1137H76.1399H76.1661H76.1923H76.2185H76.2447H76.2709H76.2971H76.3233H76.3495H76.3758H76.402H76.4282H76.4544H76.4806H76.5068H76.533H76.5592H76.5854H76.6116H76.6378H76.664H76.6902H76.7164H76.7426H76.7688H76.795H76.8212H76.8474H76.8736H76.8998H76.926H76.9522H76.9784H77.0046H77.0308H77.057H77.0833H77.1095H77.1357H77.1619H77.1881H77.2143H77.2405H77.2667H77.2929H77.3191H77.3453H77.3715H77.3977H77.4239H77.4501H77.4763H77.5025H87.4282C87.8954 43.937 88.2899 44.0732 88.5651 44.307C88.8372 44.5383 89.0046 44.875 89.0046 45.3261V75.4409C89.0046 76.2197 88.3742 76.85 87.5955 76.85H65.8094C64.841 76.85 64.3137 76.1217 64.2564 75.3377C64.1989 74.552 64.6158 73.7769 65.4907 73.6626H83.2465C83.3898 73.6626 83.5626 73.6726 83.7544 73.6837C83.8163 73.6872 83.8801 73.6909 83.9456 73.6944C84.2096 73.7086 84.4952 73.7193 84.7582 73.7033C85.0179 73.6876 85.2739 73.6451 85.4691 73.5411C85.5687 73.488 85.6572 73.4164 85.7205 73.3201C85.7845 73.2226 85.8172 73.1081 85.8172 72.9792V47.7468C85.8172 47.5369 85.7882 47.348 85.6604 47.2202C85.5326 47.0924 85.3437 47.0634 85.1338 47.0634H30.6482H30.4982V47.2134V73.5126V73.6626H30.6482H50.3418C50.8183 73.6626 51.1679 73.8591 51.4016 74.1512C51.6384 74.4472 51.7611 74.8483 51.7611 75.2563C51.7611 75.6643 51.6384 76.0654 51.4016 76.3614C51.1679 76.6535 50.8183 76.85 50.3418 76.85H28.3916C28.1859 76.85 27.8745 76.6902 27.6055 76.3918C27.342 76.0995 27.1466 75.7031 27.1466 75.2768V65.348V65.2018L27.0005 65.198C26.2227 65.1781 25.1116 64.9069 24.0244 64.5787C23.0553 64.2861 22.1187 63.9526 21.4759 63.7237C21.4003 63.6968 21.3288 63.6713 21.2618 63.6475C14.8567 61.3628 9.99744 57.1194 6.0719 51.8044C5.94896 51.6201 5.83621 51.4561 5.72408 51.293L5.72397 51.2928C5.61176 51.1296 5.50016 50.9673 5.37859 50.785C3.43466 47.5106 2.13959 44.7753 1.32927 41.8449C0.518647 38.9134 0.191028 35.779 0.191028 31.7047Z" fill="url(#paint0_linear_1119_2894)" stroke="#0F0F0F" stroke-width="0.3"/>
<path d="M51.3911 66.924L51.3906 66.9235C43.4437 59.0573 54.0106 46.0425 63.5895 52.6699C65.8097 54.2446 67.6284 57.2775 67.6284 60.4655V60.5066C67.6284 61.7082 67.1038 63.4904 66.6989 64.3818C66.2157 65.388 65.6525 66.1132 64.922 66.8844L64.6788 67.1277C64.6785 67.1279 64.6783 67.1282 64.678 67.1284C61.7689 69.9562 57.9383 70.6423 54.1796 68.9456C53.5083 68.6201 53.0562 68.3582 52.6513 68.0583C52.2454 67.7576 51.8827 67.4156 51.3911 66.924ZM58.0137 54.2434C54.7717 54.2434 51.9556 57.0594 51.9556 60.3014C51.9556 63.6605 54.6837 66.5647 58.0137 66.5647C60.0746 66.5647 61.6315 65.7969 62.6718 64.6365C63.7097 63.4787 64.2256 61.939 64.2256 60.404C64.2256 58.869 63.7097 57.3293 62.6718 56.1716C61.6315 55.0111 60.0746 54.2434 58.0137 54.2434Z" fill="url(#paint1_linear_1119_2894)" stroke="#0F0F0F" stroke-width="0.3"/>
<path d="M78.5699 54.2024H75.6018V54.1613H75.4518C74.7992 54.1613 74.3237 53.9455 74.0143 53.6349C73.7037 53.3231 73.5512 52.9068 73.5606 52.4889C73.57 52.0712 73.7411 51.6537 74.0771 51.34C74.4122 51.0272 74.92 50.8098 75.6159 50.8098C76.0751 50.8098 76.5615 50.7936 77.0497 50.7774C77.3159 50.7685 77.5827 50.7596 77.8459 50.7533C78.5967 50.7354 79.3245 50.7383 79.9614 50.8189C80.6008 50.8997 81.1301 51.0569 81.4971 51.3335C81.855 51.6032 82.0714 51.9959 82.0714 52.5881V68.0968C82.0714 68.6891 81.855 69.0818 81.4971 69.3515C81.1301 69.6281 80.6008 69.7852 79.9614 69.8661C79.3245 69.9467 78.5967 69.9496 77.8459 69.9316C77.5827 69.9253 77.3159 69.9165 77.0497 69.9076C76.5615 69.8914 76.0751 69.8752 75.6159 69.8752C74.92 69.8752 74.4122 69.6578 74.0771 69.345C73.7411 69.0313 73.57 68.6137 73.5606 68.196C73.5512 67.7782 73.7037 67.3619 74.0143 67.0501C74.3237 66.7395 74.7992 66.5237 75.4518 66.5237H78.5699H78.7199V66.3737V54.3524V54.2024H78.5699Z" fill="url(#paint2_linear_1119_2894)" stroke="#0F0F0F" stroke-width="0.3"/>
<path d="M34.1617 53.4908V53.1286L34.1307 53.1597C34.1653 52.5455 34.2916 52.0554 34.5393 51.7055C34.8273 51.2987 35.2982 51.056 36.0631 51.056C36.6054 51.056 37.179 51.0326 37.7501 51.0093C37.9606 51.0007 38.1707 50.9921 38.3789 50.9847C39.1554 50.9572 39.9059 50.946 40.5619 51.0091C41.2209 51.0725 41.7649 51.2092 42.1412 51.463C42.5063 51.7093 42.7239 52.0723 42.7239 52.6292C42.7239 53.1997 42.5466 53.5802 42.2637 53.8415C41.9754 54.1078 41.5606 54.2658 41.0583 54.3533C40.5571 54.4406 39.9852 54.4549 39.3969 54.4466C39.1477 54.4431 38.8921 54.4354 38.6387 54.4277C38.3034 54.4175 37.9717 54.4075 37.6633 54.4075H37.5133V54.5575V66.2095V66.3595H37.6633H40.6173C41.3887 66.3595 41.9156 66.5791 42.2484 66.8897C42.5813 67.2006 42.7341 67.6156 42.7341 68.0353C42.7341 68.8845 42.1166 69.7111 41.1507 69.7111C40.2965 69.7111 39.5216 69.7345 38.8284 69.7555C38.5211 69.7648 38.2298 69.7736 37.9548 69.7797C37.0538 69.7996 36.3306 69.7898 35.764 69.678C35.2016 69.567 34.8123 69.3591 34.5576 68.996C34.2991 68.6274 34.1617 68.0745 34.1617 67.2352V53.4908Z" fill="url(#paint3_linear_1119_2894)" stroke="#0F0F0F" stroke-width="0.3"/>
<path d="M31.2243 31.3624H31.3743V31.2124V20.0527C31.3743 19.5092 31.575 19.1348 31.8651 18.8936C32.1594 18.649 32.5588 18.5308 32.968 18.5308C33.3774 18.5308 33.7821 18.6493 34.0803 18.8598C34.3761 19.0685 34.5617 19.3624 34.5617 19.7245V33.1407C34.5617 33.9195 33.9314 34.5498 33.1527 34.5498H22.6904C22.2139 34.5498 21.8643 34.3533 21.6306 34.0612C21.3938 33.7653 21.2711 33.3641 21.2711 32.9561C21.2711 32.5482 21.3938 32.147 21.6306 31.851C21.8643 31.5589 22.2139 31.3624 22.6904 31.3624H31.2243Z" fill="url(#paint4_linear_1119_2894)" stroke="#0F0F0F" stroke-width="0.3"/>
<path d="M75.0544 60.4169L75.0544 60.4172C75.0255 61.0053 74.8011 61.4075 74.4932 61.6591C74.1826 61.9131 73.7736 62.0245 73.3606 62.003C72.5264 61.9597 71.7438 61.3872 71.7438 60.4656C71.7438 59.8583 71.9616 59.423 72.2757 59.1396C72.5924 58.8539 73.0173 58.7132 73.4435 58.718C73.8699 58.7228 74.2876 58.873 74.5895 59.1557C74.8885 59.4357 75.0831 59.8537 75.0544 60.4169Z" fill="url(#paint5_linear_1119_2894)" stroke="#0F0F0F" stroke-width="0.3"/>
<path d="M59.7906 75.2769C59.7906 75.8184 59.5811 76.2062 59.2745 76.4594C58.9643 76.7156 58.5445 76.8419 58.1174 76.8347C57.6903 76.8275 57.2683 76.6869 56.9559 76.4254C56.6467 76.1666 56.4391 75.7852 56.4391 75.2769C56.4391 74.2952 57.2607 73.722 58.1207 73.6882C58.5472 73.6714 58.9653 73.7905 59.274 74.0478C59.5792 74.3021 59.7906 74.7019 59.7906 75.2769Z" fill="url(#paint6_linear_1119_2894)" stroke="#0F0F0F" stroke-width="0.3"/>
<path d="M44.4898 60.3015C44.4898 60.8902 44.2858 61.319 43.9911 61.6009C43.6946 61.8847 43.2969 62.0285 42.896 62.0285C42.4952 62.0285 42.0975 61.8847 41.801 61.6009C41.5063 61.319 41.3023 60.8902 41.3023 60.3015C41.3023 59.7796 41.5023 59.3985 41.7952 59.1457C42.0912 58.8904 42.4909 58.7591 42.896 58.7591C43.3012 58.7591 43.7008 58.8904 43.9969 59.1457C44.2898 59.3985 44.4898 59.7796 44.4898 60.3015Z" fill="url(#paint7_linear_1119_2894)" stroke="#0F0F0F" stroke-width="0.3"/>
<defs>
<linearGradient id="paint0_linear_1119_2894" x1="0" y1="0" x2="90.8199" y2="1.84092" gradientUnits="userSpaceOnUse">
<stop stop-color="#1BACF4"/>
<stop offset="1" stop-color="#19EEB5"/>
</linearGradient>
<linearGradient id="paint1_linear_1119_2894" x1="48.4434" y1="50.6985" x2="68.1416" y2="51.0438" gradientUnits="userSpaceOnUse">
<stop stop-color="#1BACF4"/>
<stop offset="1" stop-color="#19EEB5"/>
</linearGradient>
<linearGradient id="paint2_linear_1119_2894" x1="73.4102" y1="50.5944" x2="82.3892" y2="50.6654" gradientUnits="userSpaceOnUse">
<stop stop-color="#1BACF4"/>
<stop offset="1" stop-color="#19EEB5"/>
</linearGradient>
<linearGradient id="paint3_linear_1119_2894" x1="33.9707" y1="50.8127" x2="43.0537" y2="50.8869" gradientUnits="userSpaceOnUse">
<stop stop-color="#1BACF4"/>
<stop offset="1" stop-color="#19EEB5"/>
</linearGradient>
<linearGradient id="paint4_linear_1119_2894" x1="21.1211" y1="18.3808" x2="34.9683" y2="18.5827" gradientUnits="userSpaceOnUse">
<stop stop-color="#1BACF4"/>
<stop offset="1" stop-color="#19EEB5"/>
</linearGradient>
<linearGradient id="paint5_linear_1119_2894" x1="71.5938" y1="58.5679" x2="75.2751" y2="58.6328" gradientUnits="userSpaceOnUse">
<stop stop-color="#1BACF4"/>
<stop offset="1" stop-color="#19EEB5"/>
</linearGradient>
<linearGradient id="paint6_linear_1119_2894" x1="56.2891" y1="73.5366" x2="60.009" y2="73.6056" gradientUnits="userSpaceOnUse">
<stop stop-color="#1BACF4"/>
<stop offset="1" stop-color="#19EEB5"/>
</linearGradient>
<linearGradient id="paint7_linear_1119_2894" x1="41.1523" y1="58.6091" x2="44.7053" y2="58.6698" gradientUnits="userSpaceOnUse">
<stop stop-color="#1BACF4"/>
<stop offset="1" stop-color="#19EEB5"/>
</linearGradient>
</defs>
</svg>
