<svg width="9" height="13" viewBox="0 0 9 13" fill="none" xmlns="http://www.w3.org/2000/svg">
<path d="M0.00195312 4.88722V3.67757H4.50034C4.43734 3.31216 4.31763 2.97194 4.14123 2.65693C3.96482 2.34192 3.78841 2.0773 3.612 1.86309H0.00195312V0.653444H8.12929V1.86309H5.27527C5.41388 2.0395 5.55879 2.27891 5.70999 2.58133C5.8612 2.88374 5.9809 3.24915 6.06911 3.67757H8.12929V4.88722H6.12581C6.10061 5.29044 5.9998 5.66845 5.8234 6.02127C5.65959 6.37408 5.42648 6.6891 5.12407 6.96631C4.82166 7.24352 4.46254 7.46403 4.04672 7.62784C3.63091 7.79164 3.17099 7.88615 2.66696 7.91135L6.01241 11.8994L4.72715 12.75L2.08104 9.27221C1.86683 8.98239 1.66522 8.73038 1.47621 8.51617C1.28721 8.30197 1.1171 8.11296 0.965894 7.94915L0.474473 7.45773L0.946993 6.53159C1.1234 6.59459 1.28721 6.645 1.43841 6.6828C1.60222 6.708 1.79753 6.7206 2.02434 6.7206C2.80557 6.7206 3.4104 6.54419 3.83881 6.19138C4.26723 5.83856 4.50664 5.40384 4.55704 4.88722H0.00195312Z" fill="white"/>
</svg>
