<svg width="16" height="16" viewBox="0 0 16 16" fill="none" xmlns="http://www.w3.org/2000/svg">
<path d="M11.2444 9.94601H10.5612L10.319 9.71249C11.1666 8.72655 11.6768 7.44655 11.6768 6.05412C11.6768 2.94925 9.16008 0.432495 6.05522 0.432495C2.95035 0.432495 0.433594 2.94925 0.433594 6.05412C0.433594 9.15898 2.95035 11.6757 6.05522 11.6757C7.44765 11.6757 8.72765 11.1655 9.71359 10.3179L9.94711 10.5601V11.2433L14.2714 15.559L15.5601 14.2703L11.2444 9.94601ZM6.05522 9.94601C3.9017 9.94601 2.16332 8.20763 2.16332 6.05412C2.16332 3.9006 3.9017 2.16222 6.05522 2.16222C8.20873 2.16222 9.94711 3.9006 9.94711 6.05412C9.94711 8.20763 8.20873 9.94601 6.05522 9.94601Z" fill="url(#paint0_linear_2494_3059)"/>
<defs>
<linearGradient id="paint0_linear_2494_3059" x1="0.433594" y1="0.432495" x2="15.8442" y2="0.702283" gradientUnits="userSpaceOnUse">
<stop stop-color="#1BACF4"/>
<stop offset="1" stop-color="#19EEB5"/>
</linearGradient>
</defs>
</svg>
