<svg width="36" height="36" viewBox="0 0 36 36" fill="none" xmlns="http://www.w3.org/2000/svg">
<path fill-rule="evenodd" clip-rule="evenodd" d="M9.8369 15.2015C8.90868 15.2015 8.07329 14.3658 8.07329 13.2516H7.98047C7.98047 12.7288 8.40095 12.0857 8.71037 11.6125C8.78558 11.4975 8.85423 11.3925 8.90868 11.3017C9.18715 10.7446 9.55844 10.1875 9.92972 9.63042C10.9508 7.86625 13.0857 4.33791 14.1067 2.75944C14.2923 2.48089 14.4548 2.20234 14.6172 1.92378C14.7796 1.64523 14.9421 1.36668 15.1277 1.08813C15.7775 -0.0260873 17.077 -0.30464 18.0052 0.345317C18.6445 0.710739 22.1591 6.73885 22.8911 7.99418L22.9247 8.05196C23.4817 8.88762 25.9879 12.6945 25.9879 13.3445C25.9879 14.273 25.1525 15.2015 24.2242 15.2015H9.8369ZM27.2885 36C34.807 36 38.2414 27.7362 34.4358 22.4437C34.2965 22.258 34.1805 22.1188 34.0645 21.9795C33.9484 21.8402 33.8324 21.7009 33.6932 21.5152C33.554 21.376 33.4148 21.2599 33.2755 21.1439L33.2755 21.1438C33.1363 21.0278 32.997 20.9117 32.8578 20.7724C32.4865 20.401 31.4655 19.751 30.9085 19.5653C29.1449 18.9154 27.4741 18.6368 25.5249 19.0082C21.4407 19.9368 18.5633 23.7436 18.9346 28.2933C19.0116 29.1412 19.2166 29.7331 19.4433 30.3878C19.4897 30.5218 19.537 30.6584 19.5843 30.8003C20.6982 33.6787 23.9469 35.9071 27.2885 35.9071V36ZM0 21.7939V33.1217C0 34.0502 0.928216 34.9787 1.85643 34.9787H13.4591C14.2017 34.9787 15.1299 33.9574 15.1299 33.3074V21.701C15.1299 20.7725 14.2017 19.844 13.2735 19.844H1.94925C0.928216 19.844 0 20.7725 0 21.7939Z" fill="url(#paint0_linear_2494_2858)"/>
<defs>
<linearGradient id="paint0_linear_2494_2858" x1="0" y1="0" x2="36.6752" y2="0.642039" gradientUnits="userSpaceOnUse">
<stop stop-color="#1BACF4"/>
<stop offset="1" stop-color="#19EEB5"/>
</linearGradient>
</defs>
</svg>
