<svg width="15" height="12" viewBox="0 0 15 12" fill="none" xmlns="http://www.w3.org/2000/svg">
<path d="M3.43063 8.50153V8.57154H3.50064H4.81338C5.14364 8.57154 5.30045 8.95667 5.07438 9.17693L5.07418 9.17673L5.0701 9.18149L2.88438 11.7294C2.81581 11.7949 2.72308 11.8319 2.62604 11.8319C2.52899 11.8319 2.43626 11.7949 2.36769 11.7294L0.181972 9.18149L0.182195 9.1813L0.177592 9.17684C-0.0497284 8.95623 0.107872 8.57154 0.437599 8.57154H1.75033H1.82035V8.50153V0.425076C1.82035 0.331573 1.85856 0.241475 1.92728 0.17472C1.99607 0.107899 2.08978 0.0700126 2.18791 0.0700126H3.06307C3.1612 0.0700126 3.25491 0.107899 3.3237 0.17472C3.39241 0.241475 3.43063 0.331573 3.43063 0.425076V8.50153ZM6.56369 10.2718H8.314C8.41213 10.2718 8.50585 10.3097 8.57463 10.3766C8.64335 10.4433 8.68157 10.5334 8.68157 10.6269V11.4771C8.68157 11.5706 8.64335 11.6607 8.57463 11.7274C8.50585 11.7942 8.41213 11.8321 8.314 11.8321H6.56369C6.46556 11.8321 6.37185 11.7942 6.30306 11.7274C6.23434 11.6607 6.19613 11.5706 6.19613 11.4771V10.6269C6.19613 10.5334 6.23434 10.4433 6.30306 10.3766C6.37185 10.3097 6.46556 10.2718 6.56369 10.2718ZM6.56369 3.47062H11.8146C11.9128 3.47062 12.0065 3.50851 12.0753 3.57533C12.144 3.64209 12.1822 3.73218 12.1822 3.82569V4.67584C12.1822 4.76934 12.144 4.85944 12.0753 4.9262C12.0065 4.99302 11.9128 5.0309 11.8146 5.0309H6.56369C6.46556 5.0309 6.37185 4.99302 6.30306 4.9262C6.23434 4.85944 6.19613 4.76934 6.19613 4.67584V3.82569C6.19613 3.73218 6.23434 3.64209 6.30306 3.57533C6.37185 3.50851 6.46556 3.47062 6.56369 3.47062ZM6.56369 6.87123H10.0643C10.1624 6.87123 10.2562 6.90912 10.3249 6.97594C10.3937 7.0427 10.4319 7.13279 10.4319 7.2263V8.07645C10.4319 8.16995 10.3937 8.26005 10.3249 8.32681C10.2562 8.39363 10.1624 8.43151 10.0643 8.43151H6.56369C6.46556 8.43151 6.37185 8.39363 6.30306 8.32681C6.23434 8.26005 6.19613 8.16995 6.19613 8.07645V7.2263C6.19613 7.13279 6.23434 7.0427 6.30306 6.97594C6.37185 6.90912 6.46556 6.87123 6.56369 6.87123ZM6.56369 0.0700126H13.5649C13.6631 0.0700126 13.7568 0.107899 13.8256 0.17472C13.8943 0.241475 13.9325 0.331573 13.9325 0.425076V1.27523C13.9325 1.36873 13.8943 1.45883 13.8256 1.52558C13.7568 1.59241 13.6631 1.63029 13.5649 1.63029H6.56369C6.46556 1.63029 6.37185 1.59241 6.30306 1.52558C6.23434 1.45883 6.19613 1.36873 6.19613 1.27523V0.425076C6.19613 0.331573 6.23434 0.241475 6.30306 0.174721C6.37185 0.107899 6.46556 0.0700126 6.56369 0.0700126Z" fill="#DFDFDF" stroke="black" stroke-width="0.140025"/>
</svg>
