<svg width="761" height="363" viewBox="0 0 761 363" fill="none" xmlns="http://www.w3.org/2000/svg">
<path d="M757.832 296.854C745.007 296.737 726.615 296.603 700.24 296.463C613.106 295.998 298.891 297.31 298.891 297.31L1.84393 294.317C1.84393 294.317 -23.7943 323.734 116.638 329.017C257.071 334.3 259.62 313.007 360.631 343.142C475.259 377.341 652.974 356.647 711.427 349.586C783.147 340.922 774.483 323.079 687.241 321.092C605.514 319.232 625.961 300.74 758.089 300.954C760.805 300.958 760.547 296.879 757.832 296.854Z" fill="#F0F6FF"/>
<path d="M0 297.286C0 297.286 0.695132 278.865 45.1836 275.042C89.672 271.219 104.617 275.737 126.862 272.609C149.106 269.481 187.338 263.92 207.497 252.798C227.656 241.676 251.29 225.34 274.925 247.584C298.559 269.829 306.901 287.207 334.358 284.426C361.816 281.646 384.408 275.737 399.006 281.646C413.604 287.554 427.854 296.591 427.159 296.939" fill="#5ABE56"/>
<path d="M423.654 297.356C423.654 297.356 424.169 283.724 457.09 280.895C490.012 278.066 501.071 281.409 517.532 279.095C533.993 276.78 562.284 272.665 577.202 264.434C592.12 256.204 609.609 244.116 627.099 260.576C644.588 277.037 650.761 289.897 671.08 287.839C691.398 285.782 708.116 281.409 718.919 285.782C729.721 290.154 740.266 296.841 739.752 297.099" fill="#5ABE56"/>
<g opacity="0.35">
<path d="M639.92 307.36C639.92 311.048 620.782 309.151 597.173 309.151C573.564 309.151 554.426 311.048 554.426 307.36C554.426 303.673 573.564 300.683 597.173 300.683C620.782 300.683 639.92 303.673 639.92 307.36Z" fill="#92A6C5"/>
</g>
<path d="M714.388 268.591C699.076 267.613 675.457 285.206 647.679 252.953C619.902 220.7 577.721 233.406 556.448 252.953C535.175 272.5 497.577 264.681 457.017 262.238C416.457 259.794 407.172 297.416 407.172 297.416H424.135C428.826 291.047 444.097 277.052 486.338 280.622C540.581 285.206 579.074 265.658 594.524 256.862C609.974 248.066 627.257 258.42 643.383 279.156C659.509 299.892 696.469 282.123 711.129 285.13C722.231 287.408 733.609 290.63 739.117 297.416H755.11C751.201 282.26 729.7 269.568 714.388 268.591Z" fill="#C4F4BE"/>
<path d="M507.352 209.949H499.533V164.285H507.352V209.949Z" fill="url(#paint0_linear_2036_2608)"/>
<path d="M701.194 209.838H693.375V164.174H701.194V209.838Z" fill="url(#paint1_linear_2036_2608)"/>
<path d="M737.125 164.285H468.748V146.91H737.125V164.285Z" fill="#6F83FF"/>
<path d="M737.125 197.081H468.748V179.706H737.125V197.081Z" fill="#6F83FF"/>
<path d="M468.748 151.494H737.125" stroke="url(#paint2_linear_2036_2608)" stroke-width="1.406" stroke-miterlimit="10"/>
<path d="M468.748 158.88H737.125" stroke="url(#paint3_linear_2036_2608)" stroke-width="1.406" stroke-miterlimit="10"/>
<path d="M468.748 184.7H737.125" stroke="url(#paint4_linear_2036_2608)" stroke-width="1.406" stroke-miterlimit="10"/>
<path d="M468.748 192.086H737.125" stroke="url(#paint5_linear_2036_2608)" stroke-width="1.406" stroke-miterlimit="10"/>
<path d="M627.404 296.934C626.671 296.282 618.281 296.934 618.281 296.934Z" fill="url(#paint6_linear_2036_2608)"/>
<path d="M737.125 217.279H468.748V209.949H737.125V217.279Z" fill="#6F83FF"/>
<path d="M482.917 297.416H475.098V222.166H482.917V297.416Z" fill="#0564FA"/>
<path d="M729.7 297.416H721.881V222.166H729.7V297.416Z" fill="#0564FA"/>
<path d="M725.793 297.416H724.49V222.166H725.793V297.416Z" fill="#0564FA"/>
<path d="M478.682 297.416H477.379V222.166H478.682V297.416Z" fill="#0564FA"/>
<path d="M613.423 121.115L618.884 125.583C619.205 125.492 619.527 125.401 619.85 125.289C619.85 125.289 617.614 118.221 618.381 114.592L616.4 114.611L618.27 115.346L613.423 121.115Z" fill="url(#paint7_linear_2036_2608)"/>
<path d="M606.273 125.043C606.273 125.043 612.426 127.41 618.884 125.583L613.423 121.115L618.269 115.346L616.4 114.611L607.879 114.697C607.879 114.697 609.054 120.929 606.273 125.043Z" fill="url(#paint8_linear_2036_2608)"/>
<path d="M606.273 125.043C606.273 125.043 612.426 127.41 618.884 125.583L615.783 123.046C614.484 121.983 614.305 120.065 615.384 118.781L618.269 115.346L616.4 114.611L607.879 114.697C607.879 114.697 609.054 120.929 606.273 125.043Z" fill="url(#paint9_linear_2036_2608)"/>
<path d="M625.711 93.9993L615.865 93.8208L604.575 94.3004L605.784 94.8912L605.961 107.807L609.394 115.082L613.242 117.785C613.386 117.792 613.531 117.786 613.674 117.765C619.16 116.962 624.764 109.919 625.052 107.454C625.371 104.723 626.033 97.7196 626.033 97.7196L625.711 93.9993Z" fill="url(#paint10_linear_2036_2608)"/>
<path d="M605.961 107.807L605.784 94.8913L604.575 94.3004L603.471 94.3469L602.748 97.2976C602.748 97.2976 602.638 103.369 602.866 106.203C603.088 108.954 607.472 117.465 613.242 117.785L609.394 115.082L605.961 107.807Z" fill="url(#paint11_linear_2036_2608)"/>
<path d="M605.93 105.611L605.784 94.8913L604.575 94.3004L603.471 94.3469L602.748 97.2976C602.748 97.2976 602.638 103.369 602.866 106.203C603.088 108.954 607.472 117.465 613.242 117.785L612.365 117.169C610.418 115.8 608.86 113.951 607.845 111.799L606.899 109.793C606.281 108.485 605.95 107.058 605.93 105.611Z" fill="url(#paint12_linear_2036_2608)"/>
<path d="M612.834 101.138C612.834 101.138 612.93 105.804 612.161 107.701C612.099 107.855 612.118 108.022 612.225 108.15C612.443 108.41 612.888 108.793 613.621 108.79" stroke="#FCAFA9" stroke-width="1.0545" stroke-miterlimit="10"/>
<path d="M605.604 69.0444L623.777 81.3542" stroke="#190784" stroke-width="1.406" stroke-miterlimit="10"/>
<path d="M608.641 63.3458L616.176 83.9623" stroke="#190784" stroke-width="1.406" stroke-miterlimit="10"/>
<path d="M609.829 78.5071C609.888 75.2345 612.03 72.4962 614.965 71.5113C614.869 71.5056 614.774 71.4932 614.678 71.4914C610.52 71.416 607.087 74.7253 607.012 78.8832C606.937 83.0412 610.247 86.4736 614.405 86.549C615.291 86.5651 616.139 86.4201 616.934 86.153C612.913 85.9276 609.756 82.5684 609.829 78.5071Z" fill="#A4A6D2"/>
<path d="M622.069 79.1562C622.143 75.0949 618.986 71.7367 614.964 71.5113C612.029 72.4962 609.888 75.2345 609.829 78.5071C609.755 82.5684 612.912 85.9276 616.933 86.153C619.868 85.1681 622.01 82.4288 622.069 79.1562Z" fill="#A4A6D2"/>
<path d="M602.013 90.2706C603.367 85.3352 607.135 81.6978 613.566 81.2083C613.741 81.1948 613.922 81.1883 614.1 81.1789C614.115 81.1459 614.124 81.1246 614.124 81.1246C613.465 81.1126 612.836 81.1374 612.225 81.184C605.794 81.6735 602.026 85.3109 600.673 90.2463C600.13 92.2238 600.09 94.3061 600.395 96.3332L602.111 107.738L602.497 101.412L601.736 96.3575C601.43 94.3304 601.471 92.2481 602.013 90.2706Z" fill="#A3A5D2"/>
<path d="M607.191 89.1563C612.245 85.0348 613.896 81.6297 614.101 81.1789C613.923 81.1883 613.741 81.1948 613.565 81.2083C607.134 81.6978 603.366 85.3352 602.013 90.2706C601.471 92.2481 601.431 94.3304 601.736 96.3575L602.496 101.412L602.748 97.2976C603.174 96.1714 604.308 95.4911 605.507 95.6164C605.711 95.6377 605.914 95.6512 606.117 95.6715C608.82 95.9355 611.527 96.0814 614.235 96.1177C614.808 96.1252 615.383 96.1356 615.957 96.1333C616.182 96.1325 616.409 96.12 616.633 96.1172C612.208 95.1279 603.002 92.572 607.191 89.1563Z" fill="#A3A5D2"/>
<path d="M627.518 92.2803C626.74 86.2828 622.736 81.6521 615.039 81.1743C614.735 81.1552 614.438 81.1302 614.124 81.1245C614.124 81.1245 608.344 84.1938 605.896 88.6704C603.303 93.4132 612.207 95.1279 616.633 96.1172C619.139 96.0913 621.646 95.9852 624.155 95.7648C624.166 95.764 624.178 95.7652 624.189 95.7644C625.05 95.7048 625.84 96.243 626.078 97.0753L625.889 107.852L627.463 96.2998C627.645 94.9678 627.691 93.6138 627.518 92.2803Z" fill="#A4A6D2"/>
<path d="M592.258 197.735V202.732C592.258 207.102 597.027 210.646 600.658 210.646H609.089L617.419 289.57H625.939C628.048 261.383 627.899 228.651 625.939 197.735H592.258Z" fill="#00335C"/>
<path d="M585.486 167.466C588.012 162.336 590.882 157.576 592.543 152.683C592.707 152.2 592.341 151.697 591.831 151.688L581.921 151.509C581.603 151.503 581.315 151.695 581.201 151.993C580.214 154.568 577.629 166.434 576.779 168.518C575.89 170.696 595.481 184.545 598.495 186.475C598.712 186.614 598.985 186.631 599.219 186.523L603.651 184.473C604.131 184.251 604.245 183.62 603.868 183.248C601.07 180.498 591.351 171.149 585.83 168.481C585.453 168.299 585.302 167.842 585.486 167.466ZM592.55 176.601C590.232 173.879 583.561 169.942 581.405 168.707C581.041 168.499 580.929 168.04 581.13 167.672C582.951 164.341 585.573 154.753 586.235 152.276C586.329 151.923 586.659 151.69 587.023 151.722C588.206 151.825 590.636 152.226 590.651 153.78C590.668 155.532 585.983 164.917 584.602 167.643C584.407 168.03 584.573 168.506 584.973 168.672C588.468 170.128 592.818 173.512 594.762 175.102C595.22 175.476 595.087 176.203 594.53 176.399L593.364 176.81C593.075 176.912 592.749 176.834 592.55 176.601Z" fill="url(#paint13_linear_2036_2608)"/>
<path d="M590.652 153.78C590.632 151.725 586.391 151.686 586.391 151.686C586.391 151.686 583.208 163.908 581.11 167.707C580.917 168.056 581.029 168.492 581.377 168.691C583.604 169.965 590.884 174.257 592.857 176.988L595.785 175.957C595.785 175.957 589.744 170.711 585.109 168.73C584.636 168.528 584.439 167.968 584.671 167.508C586.131 164.619 590.668 155.505 590.652 153.78Z" fill="url(#paint14_linear_2036_2608)"/>
<path d="M650.362 167.834C649.492 165.459 646.623 149.108 646.623 149.108L635.465 150.387L641.762 165.924C641.916 163.999 640.725 159.578 640.377 157.869C639.958 155.807 636.575 150.41 636.575 150.41L643.003 153.009C643.003 153.009 644.535 161.454 645.848 164.559C647.162 167.664 637.734 171.488 636.341 172.775C634.948 174.063 633.66 172.727 633.66 172.727C633.66 172.727 639.569 167.869 641.3 166.816C641.545 166.667 641.676 166.422 641.735 166.12C635.342 168.511 621.957 182.312 621.957 182.312L627.654 185.201C627.654 185.201 651.232 170.208 650.362 167.834Z" fill="url(#paint15_linear_2036_2608)"/>
<path d="M641.301 166.816C639.57 167.869 633.661 172.727 633.661 172.727C633.661 172.727 634.949 174.063 636.342 172.775C637.734 171.488 647.162 167.663 645.849 164.559C644.536 161.454 643.004 153.008 643.004 153.008L636.576 150.41C636.576 150.41 639.17 156.106 639.589 158.168C639.936 159.878 641.917 163.999 641.763 165.924L641.827 166.084C641.798 166.094 641.765 166.109 641.736 166.12C641.677 166.422 641.546 166.667 641.301 166.816Z" fill="url(#paint16_linear_2036_2608)"/>
<path d="M627.805 163.071C627.958 166.186 628.215 168.869 628.502 171.143C629.155 176.31 629.978 179.294 630.184 179.995C630.189 180.01 630.194 180.028 630.198 180.041C630.207 180.072 630.216 180.102 630.222 180.12C630.227 180.135 630.234 180.159 630.234 180.159L632.949 179.532C631.767 172.211 630.701 161.796 631.392 150.178L631.778 145.339C631.778 145.339 627.248 151.8 627.805 163.071Z" fill="url(#paint17_linear_2036_2608)"/>
<path d="M645.581 151.88L647.427 151.83C647.427 151.83 647.347 151.353 647.2 150.544C646.803 151.047 646.249 151.491 645.581 151.88Z" fill="url(#paint18_linear_2036_2608)"/>
<path d="M634.759 126.272C630.66 123.971 627.971 127.102 621.798 125.576C621.179 125.423 620.639 125.03 620.343 124.466C619.979 123.774 619.542 122.779 619.524 121.967C619.524 121.967 610.503 123.478 606.767 121.832C606.767 121.832 606.335 124.383 605.298 125.025C605.298 125.025 601.464 127.236 597.032 125.776C596.358 125.553 595.657 125.387 594.951 125.454C593.127 125.629 590.93 126.775 589.951 129.569L580.496 151.98C581.264 152.494 582.259 153.075 583.435 153.582C585.28 154.378 587.568 154.989 590.127 154.862C591.203 154.808 592.167 154.219 592.738 153.327C592.832 153.179 592.919 153.026 592.991 152.862L595.69 146.663C595.69 146.663 595.847 149.202 595.9 153.241C596.012 161.827 595.655 177.224 592.325 189.617L635.224 190.394C635.224 190.394 634.039 186.273 632.951 179.532L630.236 180.159C630.236 180.159 630.231 180.145 630.224 180.12C630.218 180.102 630.211 180.079 630.2 180.041C630.195 180.027 630.192 180.013 630.186 179.995C629.985 179.322 629.161 176.341 628.504 171.144C627.238 169.422 624.585 166.967 619.157 163.676C613.789 160.421 609.184 156.442 605.683 152.972C601.083 148.414 598.389 144.734 598.389 144.734C612.525 151.875 631.78 145.339 631.78 145.339L634.376 152.187L634.825 153.37C635.089 154.066 635.791 154.489 636.529 154.395C638.647 154.129 642.934 153.423 645.582 151.88C646.25 151.491 646.804 151.047 647.202 150.544C646.274 145.432 638.669 128.467 634.759 126.272Z" fill="white"/>
<path d="M630.235 180.159C630.235 180.159 630.227 180.135 630.223 180.12C630.23 180.145 630.235 180.159 630.235 180.159Z" fill="url(#paint19_linear_2036_2608)"/>
<path d="M630.235 180.159C630.235 180.159 630.227 180.135 630.223 180.12C630.23 180.145 630.235 180.159 630.235 180.159Z" fill="url(#paint20_linear_2036_2608)"/>
<path d="M630.198 180.042C630.194 180.029 630.188 180.01 630.184 179.995C630.189 180.013 630.193 180.027 630.198 180.042Z" fill="url(#paint21_linear_2036_2608)"/>
<path d="M630.198 180.042C630.194 180.029 630.188 180.01 630.184 179.995C630.189 180.013 630.193 180.027 630.198 180.042Z" fill="url(#paint22_linear_2036_2608)"/>
<path d="M632.947 179.532C631.603 171.208 630.406 158.884 631.776 145.339C631.776 145.339 612.521 151.875 598.385 144.734C598.385 144.734 606.732 156.147 619.153 163.676C624.581 166.967 627.234 169.422 628.5 171.144C628.5 171.142 628.499 171.139 628.499 171.137C629.252 177.096 630.232 180.159 630.232 180.159L632.947 179.532Z" fill="url(#paint23_linear_2036_2608)"/>
<path d="M609.166 129.332L617.761 129.488" stroke="url(#paint24_linear_2036_2608)" stroke-width="1.406" stroke-miterlimit="10"/>
<path d="M609.111 132.298L617.707 132.453" stroke="url(#paint25_linear_2036_2608)" stroke-width="1.406" stroke-miterlimit="10"/>
<path d="M616.891 302.204C616.891 302.204 616.324 304.376 616.891 305.852C617.457 307.328 625.56 307.415 626.358 306.547C627.157 305.679 626.625 302.509 626.625 302.509" fill="url(#paint26_linear_2036_2608)"/>
<path d="M617.419 289.57C617.419 289.57 618.104 297.125 617.038 301.207C615.973 305.288 620.842 304.853 623.733 304.853C623.733 304.853 626.928 305.027 626.624 302.509C626.32 299.99 625.33 293.826 625.939 289.57" fill="#00335C"/>
<path d="M624.495 300.599C622.897 300.252 618.941 300.599 618.941 300.599C618.941 300.599 619.778 297.212 618.941 292.827C618.941 292.827 623.24 293.174 624.076 292.827C623.785 295.418 623.924 298.008 624.495 300.599Z" fill="url(#paint27_linear_2036_2608)"/>
<path d="M617.328 210.896C603.011 238.757 576.686 286.573 576.686 286.573L568.397 280.493C578.625 248.787 588.729 218.656 597.949 199.713C597.949 199.713 614.313 196.836 617.328 210.896Z" fill="#00335C"/>
<path d="M568.586 277.638L579.275 283.955L576.602 287.147L567.164 281.57L568.586 277.638Z" fill="#00335C"/>
<path d="M557.541 294.954C557.541 294.954 555.426 298.081 555.785 299.838C556.034 301.054 559.519 302.448 561.645 303.19C562.738 303.573 563.927 303.527 564.984 303.053C567.201 302.055 570.873 299.914 571.654 296.414C572.79 291.325 557.541 294.954 557.541 294.954Z" fill="url(#paint28_linear_2036_2608)"/>
<path d="M569.224 282.122C569.224 282.122 566.186 289.222 559.541 293.201C552.895 297.179 562.052 300.681 563.876 300.572C565.699 300.462 571.149 297.344 571.654 296.414C572.159 295.485 575.519 285.461 575.519 285.461L569.224 282.122Z" fill="#00335C"/>
<path d="M571.651 288.953C571.651 288.953 570.278 295.031 565.849 296.013L561.754 293.406C561.754 293.406 566.958 290.185 567.815 287.096L571.651 288.953Z" fill="url(#paint29_linear_2036_2608)"/>
<path d="M636.867 196.911L636.7 203.599C636.522 207.548 633.642 210.646 630.151 210.646H617.464C617.464 210.646 605.495 211.194 597.82 199.933L636.867 196.911Z" fill="#00335C"/>
<path d="M587.033 167.521H642.325C643.307 167.521 644.097 168.33 644.074 169.313L643.318 200.995H586.148L585.284 169.319C585.257 168.334 586.048 167.521 587.033 167.521Z" fill="#0564F8"/>
<path d="M613.886 181.472C611.617 181.85 609.883 183.808 609.883 186.185C609.883 188.831 612.029 190.978 614.676 190.978C617.322 190.978 619.469 188.831 619.469 186.185C619.469 185.823 619.422 185.474 619.346 185.135C619.088 185.178 618.827 185.215 618.556 185.215C616.271 185.215 614.366 183.612 613.886 181.472Z" fill="white"/>
<path d="M152.908 154.613L147.629 236.902C147.576 237.735 147.619 238.572 147.76 239.395L153.426 299.066C157.92 302.768 162.791 302.741 168.078 298.61C166.642 265.797 172.117 254.03 168.857 238.696C168.677 237.847 168.686 236.984 168.91 236.146C175.437 211.757 181.991 181.752 188.557 149.484L152.908 154.613Z" fill="#38417F"/>
<path d="M177.643 166.71L183.344 212.692L176.584 223.804L168.084 165.391L177.643 166.71Z" fill="white"/>
<path d="M163.037 158.347L171.278 237.041C171.335 237.597 171.441 238.147 171.595 238.684C171.719 239.123 171.829 239.566 171.878 240.02L178.335 300.718C182.66 302.238 187.029 302.412 191.461 300.718C191.452 275.397 195.007 250.866 192.905 235.818C192.775 234.882 192.357 234.004 192.466 233.066C196.059 202.333 199.746 171.929 198.994 145.591L163.037 158.347Z" fill="#47539A"/>
<path d="M191.229 299.751C191.494 300.493 191.759 312.373 191.759 312.373H163.494C163.494 312.373 164.184 307.441 172.191 305.479C180.198 303.517 179.025 300.766 179.025 300.766C179.025 300.766 184.149 301.741 186.96 301.263C189.771 300.786 190.964 299.008 191.229 299.751Z" fill="#333333"/>
<path d="M167.362 297.029C167.677 297.865 168.215 311.318 168.215 311.318L136.19 311.88C136.19 311.88 136.872 306.279 145.906 303.896C154.939 301.514 153.556 298.422 153.556 298.422C153.556 298.422 159.38 299.423 162.556 298.826C165.731 298.23 167.047 296.194 167.362 297.029Z" fill="#535353"/>
<path d="M151.749 143.424C154.518 142.477 157.536 143.956 158.484 146.725C159.432 149.495 157.953 152.513 155.183 153.461C152.414 154.408 149.396 152.929 148.448 150.16C147.5 147.39 148.979 144.372 151.749 143.424Z" fill="#FEDCDA"/>
<path d="M202.528 60.1196C200.172 96.373 199.073 130.727 200.769 160.855C189.021 167.829 172.196 161.881 151.319 159.992C154.663 134.689 156.556 103.37 155.589 67.3165C155.76 61.0978 161.656 48.8424 166.44 48.7759L193.625 48.4016C198.62 48.3326 202.641 53.6256 202.528 60.1196Z" fill="#E49407"/>
<path d="M199.769 124.132C186.285 126.238 154.588 123.344 154.588 123.344L154.229 128.892C154.229 128.892 189.284 132.373 199.79 129.687" fill="#FFEF3F"/>
<path d="M199.851 138.042C186.368 140.149 153.586 137.235 153.586 137.235L153.092 142.716C153.092 142.716 189.44 146.053 199.946 143.367" fill="#FFEF3E"/>
<path d="M150.458 100.109C152.573 103.218 154.967 103.177 157.487 101.754L158.807 90.4403L149.926 89.4955L150.458 100.109Z" fill="url(#paint30_linear_2036_2608)"/>
<path d="M158.3 94.7977C152.258 96.4973 150.12 93.3328 150.12 93.3328L150.24 95.7385C150.24 95.7385 153.025 100.108 157.959 97.7085" fill="url(#paint31_linear_2036_2608)"/>
<path d="M152.628 95.5254C153.252 95.0318 154.211 95.2063 154.772 95.9158C155.333 96.6254 155.282 97.599 154.658 98.0926C154.034 98.5861 153.075 98.4116 152.514 97.7021C151.953 96.9925 152.004 96.0189 152.628 95.5254Z" fill="url(#paint32_linear_2036_2608)"/>
<path d="M167.26 42.3901C167.26 42.3901 169.044 47.5833 169.137 52.059C169.213 55.6837 178.131 53.0457 182.862 50.7838C184.16 50.1629 184.919 48.8561 184.482 47.4864C182.019 39.7455 182.694 27.3822 182.694 27.3822" fill="#FED8D2"/>
<path d="M183.654 14.3566C183.493 14.0765 183.364 13.7935 183.164 13.519C178.618 7.29441 152.395 16.1952 152.635 21.6038C152.635 21.6038 153.904 25.1453 154.362 29.2756C153.719 31.4164 152.927 34.2581 152.971 35.1269C153.018 36.0474 154.666 35.8849 155.863 35.6442C157.422 38.9626 159.941 42.5301 161.284 44.3243C161.83 45.054 162.715 45.4282 163.619 45.3192L164.625 45.1974C165.557 45.0854 166.44 44.7735 167.284 44.3762C167.694 44.1837 168.111 44.0098 168.488 43.7549L175.483 38.5235C178.39 36.8989 180.243 32.8032 180.491 30.5081C180.675 28.7894 182.389 26.9839 183.162 25.4371C184.484 22.7932 185.931 18.3181 183.654 14.3566Z" fill="url(#paint33_linear_2036_2608)"/>
<path d="M152.748 22.511C152.748 22.511 149.27 4.61538 165.007 1.91034C184.485 -1.43784 183.185 12.4441 184.926 18.6386L152.748 22.511Z" fill="#E49407"/>
<path d="M152.928 22.4886C152.928 22.4886 140.004 20.7704 144.252 19.3162C150.564 17.1552 170.625 20.3597 170.625 20.3597C163.138 20.9765 156.783 22.1579 152.928 22.4886Z" fill="#E49407"/>
<path d="M155.866 35.6441C155.866 35.6441 156.451 40.649 159.557 43.6964C162.663 46.7439 164.323 45.749 166.022 45.4829C171.288 44.6586 181.114 32.4329 180.903 29.1623C180.149 17.4489 172.093 24.6414 170.897 34.4802C170.137 40.7379 162.646 35.2968 160.009 35.0645C157.372 34.8322 155.866 35.6441 155.866 35.6441Z" fill="#994747"/>
<path d="M158.528 39.6365C158.528 39.6365 157.365 38.0353 157.612 37.9238C158.268 37.6258 160.498 38.0659 161.185 38.5299C161.873 38.9938 158.528 39.6365 158.528 39.6365Z" fill="url(#paint34_linear_2036_2608)"/>
<path d="M165.029 20.9316C165.029 20.9316 166.711 25.8134 168.514 27.5164C169.932 28.8563 173.347 27.366 176.275 28.3646C182 30.3187 185.802 28.8608 184.923 18.6386" fill="#823838"/>
<defs>
<linearGradient id="paint0_linear_2036_2608" x1="520.156" y1="37.9707" x2="505.752" y2="174.332" gradientUnits="userSpaceOnUse">
<stop offset="0.16" stop-color="white"/>
<stop offset="0.58" stop-color="#BABDFF"/>
<stop offset="1" stop-color="#757BFF"/>
</linearGradient>
<linearGradient id="paint1_linear_2036_2608" x1="713.672" y1="37.9707" x2="699.267" y2="174.332" gradientUnits="userSpaceOnUse">
<stop offset="0.16" stop-color="white"/>
<stop offset="0.58" stop-color="#BABDFF"/>
<stop offset="1" stop-color="#757BFF"/>
</linearGradient>
<linearGradient id="paint2_linear_2036_2608" x1="-nan" y1="-nan" x2="-nan" y2="-nan" gradientUnits="userSpaceOnUse">
<stop offset="0.16" stop-color="white"/>
<stop offset="0.58" stop-color="#BABDFF"/>
<stop offset="1" stop-color="#757BFF"/>
</linearGradient>
<linearGradient id="paint3_linear_2036_2608" x1="-nan" y1="-nan" x2="-nan" y2="-nan" gradientUnits="userSpaceOnUse">
<stop offset="0.16" stop-color="white"/>
<stop offset="0.58" stop-color="#BABDFF"/>
<stop offset="1" stop-color="#757BFF"/>
</linearGradient>
<linearGradient id="paint4_linear_2036_2608" x1="-nan" y1="-nan" x2="-nan" y2="-nan" gradientUnits="userSpaceOnUse">
<stop offset="0.16" stop-color="white"/>
<stop offset="0.58" stop-color="#BABDFF"/>
<stop offset="1" stop-color="#757BFF"/>
</linearGradient>
<linearGradient id="paint5_linear_2036_2608" x1="-nan" y1="-nan" x2="-nan" y2="-nan" gradientUnits="userSpaceOnUse">
<stop offset="0.16" stop-color="white"/>
<stop offset="0.58" stop-color="#BABDFF"/>
<stop offset="1" stop-color="#757BFF"/>
</linearGradient>
<linearGradient id="paint6_linear_2036_2608" x1="624.733" y1="299.902" x2="623.186" y2="295.855" gradientUnits="userSpaceOnUse">
<stop offset="0.16" stop-color="white"/>
<stop offset="0.58" stop-color="#FF9FC0"/>
<stop offset="1" stop-color="#FF3E80"/>
</linearGradient>
<linearGradient id="paint7_linear_2036_2608" x1="618.188" y1="120.129" x2="653.566" y2="127.783" gradientUnits="userSpaceOnUse">
<stop stop-color="#FFE8E1"/>
<stop offset="0.5" stop-color="#FDDCD5"/>
<stop offset="1" stop-color="#FCCFCA"/>
</linearGradient>
<linearGradient id="paint8_linear_2036_2608" x1="575.315" y1="112.509" x2="610.693" y2="120.164" gradientUnits="userSpaceOnUse">
<stop stop-color="#FFE8E1"/>
<stop offset="0.5" stop-color="#FDD3CD"/>
<stop offset="1" stop-color="#FCBEB8"/>
</linearGradient>
<linearGradient id="paint9_linear_2036_2608" x1="598.626" y1="120.752" x2="617.147" y2="121.087" gradientUnits="userSpaceOnUse">
<stop stop-color="#FFE8E1"/>
<stop offset="0.5" stop-color="#FDD3CD"/>
<stop offset="1" stop-color="#FCBEB8"/>
</linearGradient>
<linearGradient id="paint10_linear_2036_2608" x1="-2285.5" y1="48.9265" x2="-2348.07" y2="35.3867" gradientUnits="userSpaceOnUse">
<stop stop-color="#FFE8E1"/>
<stop offset="0.5" stop-color="#FDDCD5"/>
<stop offset="1" stop-color="#FCCFCA"/>
</linearGradient>
<linearGradient id="paint11_linear_2036_2608" x1="605.733" y1="106.218" x2="727.995" y2="132.673" gradientUnits="userSpaceOnUse">
<stop stop-color="#FFE8E1"/>
<stop offset="0.5" stop-color="#FDD3CD"/>
<stop offset="1" stop-color="#FCBEB8"/>
</linearGradient>
<linearGradient id="paint12_linear_2036_2608" x1="608.239" y1="129.724" x2="609.015" y2="100.412" gradientUnits="userSpaceOnUse">
<stop stop-color="#FFE8E1"/>
<stop offset="0.5" stop-color="#FDD3CD"/>
<stop offset="1" stop-color="#FCBEB8"/>
</linearGradient>
<linearGradient id="paint13_linear_2036_2608" x1="542.235" y1="157.853" x2="618.241" y2="174.3" gradientUnits="userSpaceOnUse">
<stop stop-color="#FFE8E1"/>
<stop offset="0.5" stop-color="#FDD3CC"/>
<stop offset="1" stop-color="#FCBFB7"/>
</linearGradient>
<linearGradient id="paint14_linear_2036_2608" x1="551.066" y1="156.058" x2="591.979" y2="164.911" gradientUnits="userSpaceOnUse">
<stop stop-color="#FFE8E1"/>
<stop offset="0.5" stop-color="#FDD3CC"/>
<stop offset="1" stop-color="#FCBFB7"/>
</linearGradient>
<linearGradient id="paint15_linear_2036_2608" x1="-2227.26" y1="105.712" x2="-2304.71" y2="88.9533" gradientUnits="userSpaceOnUse">
<stop stop-color="#FFE8E1"/>
<stop offset="0.5" stop-color="#FDD3CC"/>
<stop offset="1" stop-color="#FCBFB7"/>
</linearGradient>
<linearGradient id="paint16_linear_2036_2608" x1="620.413" y1="159.27" x2="651.747" y2="166.05" gradientUnits="userSpaceOnUse">
<stop stop-color="#FFE8E1"/>
<stop offset="0.5" stop-color="#FDD3CC"/>
<stop offset="1" stop-color="#FCBFB7"/>
</linearGradient>
<linearGradient id="paint17_linear_2036_2608" x1="548.33" y1="145.256" x2="652.742" y2="167.849" gradientUnits="userSpaceOnUse">
<stop stop-color="#FFE8E1"/>
<stop offset="0.5" stop-color="#FDDCD5"/>
<stop offset="1" stop-color="#FCCFCA"/>
</linearGradient>
<linearGradient id="paint18_linear_2036_2608" x1="648.991" y1="308.37" x2="646.124" y2="21.8785" gradientUnits="userSpaceOnUse">
<stop offset="0.16" stop-color="white"/>
<stop offset="0.43" stop-color="#DFECFF"/>
<stop offset="0.71" stop-color="#BEDAFF"/>
<stop offset="0.85" stop-color="#ADD1FF"/>
<stop offset="1" stop-color="#9CC7FF"/>
</linearGradient>
<linearGradient id="paint19_linear_2036_2608" x1="544.121" y1="161.797" x2="648.533" y2="184.39" gradientUnits="userSpaceOnUse">
<stop stop-color="#FFE8E1"/>
<stop offset="0.5" stop-color="#FDDCD5"/>
<stop offset="1" stop-color="#FCCFCA"/>
</linearGradient>
<linearGradient id="paint20_linear_2036_2608" x1="617.567" y1="100.567" x2="634.45" y2="201.764" gradientUnits="userSpaceOnUse">
<stop offset="0.16" stop-color="white"/>
<stop offset="0.43" stop-color="#DFECFF"/>
<stop offset="0.71" stop-color="#BEDAFF"/>
<stop offset="0.85" stop-color="#ADD1FF"/>
<stop offset="1" stop-color="#9CC7FF"/>
</linearGradient>
<linearGradient id="paint21_linear_2036_2608" x1="542.987" y1="161.558" x2="648.774" y2="184.448" gradientUnits="userSpaceOnUse">
<stop offset="0.16" stop-color="white"/>
<stop offset="0.43" stop-color="#DFECFF"/>
<stop offset="0.71" stop-color="#BEDAFF"/>
<stop offset="0.85" stop-color="#ADD1FF"/>
<stop offset="1" stop-color="#9CC7FF"/>
</linearGradient>
<linearGradient id="paint22_linear_2036_2608" x1="617.399" y1="99.522" x2="634.505" y2="202.051" gradientUnits="userSpaceOnUse">
<stop offset="0.16" stop-color="white"/>
<stop offset="0.43" stop-color="#DFECFF"/>
<stop offset="0.71" stop-color="#BEDAFF"/>
<stop offset="0.85" stop-color="#ADD1FF"/>
<stop offset="1" stop-color="#9CC7FF"/>
</linearGradient>
<linearGradient id="paint23_linear_2036_2608" x1="610.741" y1="99.466" x2="625.254" y2="239.121" gradientUnits="userSpaceOnUse">
<stop offset="0.16" stop-color="white"/>
<stop offset="0.43" stop-color="#DFECFF"/>
<stop offset="0.71" stop-color="#BEDAFF"/>
<stop offset="0.85" stop-color="#ADD1FF"/>
<stop offset="1" stop-color="#9CC7FF"/>
</linearGradient>
<linearGradient id="paint24_linear_2036_2608" x1="-nan" y1="-nan" x2="-nan" y2="-nan" gradientUnits="userSpaceOnUse">
<stop stop-color="#BEDAFF"/>
<stop offset="0.5" stop-color="#ADD1FF"/>
<stop offset="1" stop-color="#9CC7FF"/>
</linearGradient>
<linearGradient id="paint25_linear_2036_2608" x1="-nan" y1="-nan" x2="-nan" y2="-nan" gradientUnits="userSpaceOnUse">
<stop stop-color="#BEDAFF"/>
<stop offset="0.5" stop-color="#ADD1FF"/>
<stop offset="1" stop-color="#9CC7FF"/>
</linearGradient>
<linearGradient id="paint26_linear_2036_2608" x1="622.781" y1="304.789" x2="632.453" y2="322.132" gradientUnits="userSpaceOnUse">
<stop offset="0.16" stop-color="#FFEBAD"/>
<stop offset="0.58" stop-color="#9D97D6"/>
<stop offset="1" stop-color="#3A44FF"/>
</linearGradient>
<linearGradient id="paint27_linear_2036_2608" x1="620.827" y1="295.015" x2="631.719" y2="314.548" gradientUnits="userSpaceOnUse">
<stop offset="0.16" stop-color="#D7EBFF"/>
<stop offset="0.58" stop-color="#8897FF"/>
<stop offset="1" stop-color="#3A44FF"/>
</linearGradient>
<linearGradient id="paint28_linear_2036_2608" x1="502.805" y1="359.779" x2="512.722" y2="382.229" gradientUnits="userSpaceOnUse">
<stop offset="0.16" stop-color="#FFEBAD"/>
<stop offset="0.58" stop-color="#9D97D6"/>
<stop offset="1" stop-color="#3A44FF"/>
</linearGradient>
<linearGradient id="paint29_linear_2036_2608" x1="529.038" y1="296.079" x2="513.163" y2="369.195" gradientUnits="userSpaceOnUse">
<stop offset="0.16" stop-color="#D7EBFF"/>
<stop offset="0.58" stop-color="#8897FF"/>
<stop offset="1" stop-color="#3A44FF"/>
</linearGradient>
<linearGradient id="paint30_linear_2036_2608" x1="149.446" y1="145.962" x2="165.415" y2="-84.5703" gradientUnits="userSpaceOnUse">
<stop stop-color="#FFE8E1"/>
<stop offset="0.5" stop-color="#FDCACE"/>
<stop offset="1" stop-color="#FCADBB"/>
</linearGradient>
<linearGradient id="paint31_linear_2036_2608" x1="152.73" y1="108.586" x2="154.758" y2="79.3176" gradientUnits="userSpaceOnUse">
<stop stop-color="white"/>
<stop offset="0.35" stop-color="#E0E6FF"/>
<stop offset="0.69" stop-color="#C2CDFF"/>
<stop offset="0.85" stop-color="#9CAEFF"/>
<stop offset="1" stop-color="#758FFF"/>
</linearGradient>
<linearGradient id="paint32_linear_2036_2608" x1="153.722" y1="100.072" x2="154.714" y2="85.7542" gradientUnits="userSpaceOnUse">
<stop stop-color="white"/>
<stop offset="0.35" stop-color="#E0E6FF"/>
<stop offset="0.69" stop-color="#C2CDFF"/>
<stop offset="0.85" stop-color="#9CAEFF"/>
<stop offset="1" stop-color="#758FFF"/>
</linearGradient>
<linearGradient id="paint33_linear_2036_2608" x1="131.04" y1="-12.4567" x2="225.915" y2="83.4381" gradientUnits="userSpaceOnUse">
<stop stop-color="#FFE8E1"/>
<stop offset="0.5" stop-color="#FDD4CE"/>
<stop offset="1" stop-color="#FCC0BB"/>
</linearGradient>
<linearGradient id="paint34_linear_2036_2608" x1="154.232" y1="37.3173" x2="161.964" y2="37.7224" gradientUnits="userSpaceOnUse">
<stop stop-color="#FFE8E1"/>
<stop offset="0.5" stop-color="#FDD4CE"/>
<stop offset="1" stop-color="#FCC0BB"/>
</linearGradient>
</defs>
</svg>
