<svg width="56" height="54" viewBox="0 0 56 54" fill="none" xmlns="http://www.w3.org/2000/svg">
<rect width="56" height="54" rx="4" fill="white"/>
<path d="M22.8594 32.1104L33.1084 21.8613" stroke="#5E5E5E" stroke-width="2" stroke-linecap="round" stroke-linejoin="round"/>
<path d="M23.7135 23.5695C24.1852 23.5695 24.5675 23.1871 24.5675 22.7154C24.5675 22.2437 24.1852 21.8613 23.7135 21.8613C23.2418 21.8613 22.8594 22.2437 22.8594 22.7154C22.8594 23.1871 23.2418 23.5695 23.7135 23.5695Z" fill="#5E5E5E" stroke="#5E5E5E" stroke-width="2" stroke-linecap="round" stroke-linejoin="round"/>
<path d="M32.2545 32.1105C32.7262 32.1105 33.1086 31.7281 33.1086 31.2564C33.1086 30.7847 32.7262 30.4023 32.2545 30.4023C31.7828 30.4023 31.4004 30.7847 31.4004 31.2564C31.4004 31.7281 31.7828 32.1105 32.2545 32.1105Z" fill="#5E5E5E" stroke="#5E5E5E" stroke-width="2" stroke-linecap="round" stroke-linejoin="round"/>
<path d="M21.7394 13.8999C22.2378 13.0368 23.0586 12.407 24.0213 12.149C24.984 11.891 26.0098 12.0261 26.8729 12.5244L28.3523 13.3785C29.2119 13.8741 30.2326 14.0097 31.1918 13.7556L32.8252 13.3179C33.3032 13.1884 33.8022 13.1546 34.2933 13.2186C34.7844 13.2825 35.2581 13.4429 35.687 13.6906C36.1159 13.9382 36.4917 14.2682 36.7926 14.6616C37.0936 15.0549 37.3138 15.5039 37.4407 15.9827L37.8783 17.616C38.1379 18.5738 38.7656 19.39 39.6247 19.8866L41.104 20.7407C41.9671 21.2391 42.597 22.0599 42.8549 23.0226C43.1129 23.9853 42.9778 25.0111 42.4795 25.8742L41.6254 27.3535C41.1298 28.2132 40.9942 29.2339 41.2484 30.1931L41.686 31.8265C41.8156 32.3045 41.8493 32.8035 41.7854 33.2946C41.7214 33.7857 41.561 34.2594 41.3133 34.6883C41.0657 35.1172 40.7357 35.493 40.3424 35.7939C39.949 36.0949 39.5 36.3151 39.0213 36.442L37.3879 36.8796C36.4301 37.1391 35.6139 37.7669 35.1173 38.626L34.2632 40.1053C33.7649 40.9684 32.9441 41.5983 31.9813 41.8562C31.0186 42.1142 29.9929 41.9791 29.1297 41.4808L27.6504 40.6267C26.7908 40.1311 25.77 39.9955 24.8108 40.2496L23.1774 40.6873C22.6994 40.8168 22.2005 40.8506 21.7093 40.7866C21.2182 40.7227 20.7445 40.5623 20.3156 40.3146C19.8867 40.067 19.511 39.737 19.21 39.3436C18.909 38.9503 18.6888 38.5013 18.562 38.0226L18.1243 36.3892C17.8648 35.4314 17.237 34.6152 16.378 34.1186L14.8986 33.2645C14.0355 32.7661 13.4057 31.9453 13.1477 30.9826C12.8898 30.0199 13.0248 28.9941 13.5231 28.131L14.3772 26.6517C14.8729 25.7921 15.0084 24.7713 14.7543 23.8121L14.3166 22.1787C14.1871 21.7007 14.1533 21.2017 14.2173 20.7106C14.2812 20.2195 14.4417 19.7458 14.6893 19.3169C14.9369 18.888 15.2669 18.5122 15.6603 18.2113C16.0536 17.9103 16.5026 17.6901 16.9814 17.5632L18.6148 17.1256C19.5725 16.8661 20.3887 16.2383 20.8854 15.3793L21.7394 13.8999" stroke="#5E5E5E" stroke-width="2.5" stroke-linecap="round" stroke-linejoin="round"/>
</svg>
