<svg width="50" height="46" viewBox="0 0 50 46" fill="none" xmlns="http://www.w3.org/2000/svg">
<rect width="50" height="46" rx="4" fill="white"/>
<path fill-rule="evenodd" clip-rule="evenodd" d="M19.9843 12.505C20.3835 11.8137 21.0409 11.3092 21.812 11.1026C22.5832 10.896 23.4048 11.0041 24.0961 11.4033L25.281 12.0874C25.9695 12.4844 26.7872 12.5929 27.5554 12.3894L28.8637 12.0388C29.2466 11.9351 29.6463 11.9081 30.0396 11.9593C30.433 12.0105 30.8124 12.139 31.156 12.3373C31.4995 12.5357 31.8005 12.8 32.0415 13.1151C32.2826 13.4301 32.459 13.7898 32.5606 14.1732L32.9112 15.4815C33.119 16.2487 33.6219 16.9024 34.3099 17.3002L35.4948 17.9843C36.1862 18.3835 36.6907 19.0409 36.8973 19.812C37.1039 20.5832 36.9957 21.4048 36.5966 22.0961L35.9125 23.281C35.5155 23.9695 35.4069 24.7872 35.6105 25.5554L35.961 26.8637C36.0648 27.2466 36.0918 27.6463 36.0406 28.0396C35.9893 28.433 35.8609 28.8124 35.6625 29.156C35.4642 29.4995 35.1998 29.8005 34.8848 30.0415C34.5697 30.2826 34.2101 30.459 33.8266 30.5606L32.5183 30.9112C31.7512 31.119 31.0974 31.6219 30.6996 32.3099L30.0155 33.4948C29.6164 34.1862 28.9589 34.6907 28.1878 34.8973C27.4167 35.1039 26.5951 34.9957 25.9037 34.5966L24.7188 33.9125C24.0303 33.5155 23.2127 33.4069 22.4444 33.6105L21.1361 33.961C20.7532 34.0648 20.3536 34.0918 19.9602 34.0406C19.5668 33.9893 19.1874 33.8609 18.8439 33.6625C18.5003 33.4642 18.1994 33.1998 17.9583 32.8848C17.7172 32.5697 17.5408 32.2101 17.4392 31.8266L17.0887 30.5183C16.8808 29.7512 16.378 29.0974 15.6899 28.6996L14.505 28.0155C13.8137 27.6164 13.3092 26.9589 13.1026 26.1878C12.896 25.4167 13.0041 24.5951 13.4033 23.9037L14.0874 22.7188C14.4844 22.0303 14.5929 21.2127 14.3894 20.4444L14.0388 19.1361C13.9351 18.7532 13.9081 18.3536 13.9593 17.9602C14.0105 17.5668 14.139 17.1874 14.3373 16.8439C14.5357 16.5003 14.8 16.1994 15.1151 15.9583C15.4301 15.7172 15.7898 15.5408 16.1732 15.4392L17.4815 15.0887C18.2487 14.8808 18.9024 14.378 19.3002 13.6899L19.9843 12.505ZM29.905 18.0683C30.3541 18.5174 30.3541 19.2456 29.905 19.6947L21.6958 27.9039C21.2467 28.353 20.5186 28.353 20.0695 27.9039C19.6204 27.4548 19.6204 26.7266 20.0695 26.2775L28.2787 18.0683C28.7278 17.6192 29.4559 17.6192 29.905 18.0683ZM21.6356 21.1499C22.4716 21.1499 23.1493 20.4722 23.1493 19.6362C23.1493 18.8002 22.4716 18.1225 21.6356 18.1225C20.7996 18.1225 20.1219 18.8002 20.1219 19.6362C20.1219 20.4722 20.7996 21.1499 21.6356 21.1499ZM28.3631 27.8773C29.199 27.8773 29.8767 27.1996 29.8767 26.3637C29.8767 25.5277 29.199 24.85 28.3631 24.85C27.5271 24.85 26.8494 25.5277 26.8494 26.3637C26.8494 27.1996 27.5271 27.8773 28.3631 27.8773Z" fill="#1AA9F0"/>
</svg>
