<svg width="16" height="17" viewBox="0 0 16 17" fill="none" xmlns="http://www.w3.org/2000/svg">
<path d="M15.3333 3.06H12.6667V1.36C12.6667 0.609875 12.0688 0 11.3333 0H4.66667C3.93125 0 3.33333 0.609875 3.33333 1.36V3.06H0.666667C0.297917 3.06 0 3.36387 0 3.74V4.42C0 4.5135 0.075 4.59 0.166667 4.59H1.425L1.93958 15.7038C1.97292 16.4284 2.56042 17 3.27083 17H12.7292C13.4417 17 14.0271 16.4305 14.0604 15.7038L14.575 4.59H15.8333C15.925 4.59 16 4.5135 16 4.42V3.74C16 3.36387 15.7021 3.06 15.3333 3.06ZM11.1667 3.06H4.83333V1.53H11.1667V3.06Z" fill="#B8352C"/>
</svg>
