<svg width="312" height="323" viewBox="0 0 312 323" fill="none" xmlns="http://www.w3.org/2000/svg">
<path d="M175.155 204.159V314.607H135.354V204.159H175.155Z" fill="#544321"/>
<path d="M231.375 89.7313V139.483C231.375 181.218 197.488 215.104 155.753 215.104C114.017 215.104 80.1309 181.218 80.1309 139.483V89.7313C80.1309 47.9955 114.017 14.1094 155.753 14.1094C197.488 14.1094 231.375 47.9955 231.375 89.7313Z" fill="#86BF3B"/>
<path d="M6 316.752H306" stroke="#3A4517" stroke-width="11" stroke-linecap="round" stroke-linejoin="round"/>
<path d="M18.8023 274.756C19.1139 274.799 19.4363 274.821 19.7695 274.821C20.8477 274.821 21.6644 274.556 22.2196 274.022C22.7748 273.488 23.0507 272.858 23.0507 272.131C23.0507 271.601 22.9038 271.128 22.6137 270.716C22.3235 270.307 21.7432 269.86 20.8763 269.369L20.2029 268.989C19.8411 268.785 19.5581 268.606 19.3504 268.459C19.1426 268.309 18.9742 268.13 18.8525 267.922C18.7307 267.714 18.6698 267.51 18.6698 267.309C18.6698 267.016 18.7987 266.729 19.0566 266.446C19.3181 266.167 19.7193 266.023 20.2602 266.023C20.5181 266.023 20.776 266.052 21.0375 266.109C21.2954 266.167 21.7754 266.331 22.4704 266.604V265.396C21.6716 265.156 20.9086 265.035 20.1886 265.035C19.5868 265.035 19.0925 265.146 18.6984 265.364C18.3008 265.583 17.9892 265.884 17.7528 266.27C17.5199 266.657 17.4017 267.069 17.4017 267.51C17.4017 268.001 17.5486 268.448 17.8459 268.853C18.1396 269.254 18.7199 269.698 19.5796 270.186L20.2244 270.558C20.8763 270.927 21.2883 271.239 21.4531 271.497C21.6142 271.758 21.6966 272.041 21.6966 272.346C21.6966 272.754 21.5426 273.101 21.231 273.395C20.9229 273.685 20.4966 273.832 19.9629 273.832C19.6656 273.832 19.3468 273.796 18.9993 273.725C18.6519 273.653 18.1038 273.445 17.3516 273.101V274.413C18.0071 274.595 18.4871 274.71 18.8023 274.756ZM28.9396 274.524C29.1474 274.67 29.3659 274.746 29.5916 274.746C29.9319 274.746 30.2435 274.678 30.5265 274.545L30.4369 273.857C30.3331 273.875 30.2507 273.882 30.1969 273.882C30.068 273.882 29.9534 273.85 29.8531 273.789C29.7563 273.725 29.6811 273.635 29.6238 273.513C29.5701 273.395 29.5414 273.162 29.5414 272.818V269.716C29.5414 269.107 29.4411 268.667 29.2369 268.391C29.0328 268.115 28.7605 267.915 28.4166 267.786C28.0763 267.657 27.7002 267.592 27.2919 267.592C26.5432 267.592 25.748 267.764 24.9026 268.101V269.129C25.6763 268.724 26.3892 268.524 27.0411 268.524C27.3241 268.524 27.5569 268.567 27.7504 268.649C27.9402 268.735 28.0799 268.853 28.1695 269C28.259 269.15 28.302 269.39 28.302 269.716V270.544H28.0083C26.7187 270.544 25.7802 270.766 25.1928 271.203C24.6053 271.644 24.3116 272.199 24.3116 272.869C24.3116 273.481 24.5229 273.947 24.942 274.266C25.3647 274.584 25.8196 274.746 26.3068 274.746C26.6578 274.746 27.0125 274.66 27.3778 274.488C27.7432 274.316 28.1122 274.058 28.4847 273.718C28.5778 274.108 28.7283 274.377 28.9396 274.524ZM27.4674 273.56C27.1916 273.675 26.9229 273.732 26.6578 273.732C26.3605 273.732 26.1026 273.628 25.8805 273.424C25.662 273.216 25.551 272.965 25.551 272.668C25.551 272.235 25.7766 271.894 26.2244 271.64C26.6757 271.389 27.2345 271.264 27.8972 271.264L28.302 271.275V273.044C28.019 273.273 27.7396 273.442 27.4674 273.56ZM34.6853 274.588L37.3862 267.75H36.2328L34.1301 273.069L32.142 267.75H30.899L33.4423 274.588H34.6853ZM43.791 273.384C43.2644 273.574 42.874 273.693 42.6196 273.736C42.3653 273.778 42.111 273.8 41.8531 273.8C41.348 273.8 40.9325 273.71 40.6065 273.528C40.2769 273.345 40.0154 273.091 39.8184 272.761C39.625 272.435 39.4889 271.97 39.4208 271.364H43.816L43.8232 270.988C43.8232 269.856 43.5832 269.011 43.1068 268.441C42.6304 267.875 41.9928 267.592 41.1904 267.592C40.5957 267.592 40.0763 267.732 39.6357 268.015C39.1951 268.294 38.8369 268.724 38.5647 269.304C38.2925 269.885 38.1563 270.494 38.1563 271.138C38.1563 272.113 38.4644 272.955 39.0841 273.671C39.7002 274.387 40.5492 274.746 41.6274 274.746C42.2256 274.746 42.9492 274.62 43.791 274.366V273.384ZM39.976 269C40.2483 268.681 40.6316 268.524 41.1187 268.524C41.545 268.524 41.896 268.67 42.1719 268.964C42.4441 269.258 42.5838 269.749 42.5838 270.433H39.4781C39.5354 269.795 39.7002 269.315 39.976 269ZM53.4554 274.588V266.256H56.7617V265.267H48.8274V266.256H52.1337V274.588H53.4554ZM59.3551 274.588V270.075C59.6202 269.609 59.9175 269.258 60.2471 269.025C60.5766 268.792 60.9384 268.674 61.3289 268.674C61.4937 268.674 61.6835 268.71 61.8948 268.781V267.624C61.7551 267.603 61.6226 267.592 61.4972 267.592C61.0566 267.592 60.6483 267.718 60.2722 267.968C59.896 268.216 59.5916 268.57 59.3551 269.029V267.75H58.1157V274.588H59.3551ZM68.4859 273.384C67.9593 273.574 67.5689 273.693 67.3145 273.736C67.0602 273.778 66.8059 273.8 66.548 273.8C66.0429 273.8 65.6274 273.71 65.3014 273.528C64.9719 273.345 64.7104 273.091 64.5134 272.761C64.3199 272.435 64.1838 271.97 64.1157 271.364H68.511L68.5181 270.988C68.5181 269.856 68.2781 269.011 67.8017 268.441C67.3253 267.875 66.6877 267.592 65.8853 267.592C65.2907 267.592 64.7713 267.732 64.3307 268.015C63.8901 268.294 63.5319 268.724 63.2596 269.304C62.9874 269.885 62.8513 270.494 62.8513 271.138C62.8513 272.113 63.1593 272.955 63.779 273.671C64.3951 274.387 65.2441 274.746 66.3223 274.746C66.9205 274.746 67.6441 274.62 68.4859 274.366V273.384ZM64.671 269C64.9432 268.681 65.3265 268.524 65.8137 268.524C66.2399 268.524 66.591 268.67 66.8668 268.964C67.139 269.258 67.2787 269.749 67.2787 270.433H64.1731C64.2304 269.795 64.3951 269.315 64.671 269ZM75.6716 273.384C75.145 273.574 74.7546 273.693 74.5002 273.736C74.2459 273.778 73.988 273.8 73.7337 273.8C73.2286 273.8 72.8131 273.71 72.4835 273.528C72.1575 273.345 71.896 273.091 71.699 272.761C71.502 272.435 71.3695 271.97 71.3014 271.364H75.6966L75.7038 270.988C75.7038 269.856 75.4638 269.011 74.9874 268.441C74.511 267.875 73.8698 267.592 73.071 267.592C72.4728 267.592 71.9569 267.732 71.5128 268.015C71.0722 268.294 70.7175 268.724 70.4453 269.304C70.1731 269.885 70.0369 270.494 70.0369 271.138C70.0369 272.113 70.345 272.955 70.9611 273.671C71.5808 274.387 72.4262 274.746 73.5044 274.746C74.1062 274.746 74.8262 274.62 75.6716 274.366V273.384ZM71.8531 269C72.1289 268.681 72.5086 268.524 72.9957 268.524C73.4256 268.524 73.7766 268.67 74.0489 268.964C74.3247 269.258 74.4608 269.749 74.4608 270.433H71.3587C71.4125 269.795 71.5808 269.315 71.8531 269ZM79.576 274.746C80.0632 274.746 80.5038 274.656 80.9014 274.473C81.2954 274.294 81.5963 274.044 81.8005 273.725C82.0047 273.406 82.105 273.058 82.105 272.686C82.105 272.296 81.9975 271.934 81.779 271.601C81.5605 271.267 81.0483 270.934 80.2459 270.59L79.6441 270.34C79.3038 270.193 79.071 270.042 78.9384 269.892C78.8059 269.745 78.7378 269.58 78.7378 269.394C78.7378 269.158 78.8346 268.957 79.0351 268.781C79.2322 268.61 79.5331 268.524 79.9307 268.524C80.3462 268.524 80.9014 268.631 81.5963 268.839V267.8L81.3384 267.75C80.7725 267.646 80.2996 267.592 79.9163 267.592C79.1319 267.592 78.5408 267.775 78.1396 268.14C77.742 268.506 77.5414 268.964 77.5414 269.516C77.5414 269.956 77.6704 270.329 77.9247 270.63C78.1826 270.938 78.591 271.207 79.1498 271.436L79.8734 271.747C80.2996 271.923 80.5719 272.098 80.6901 272.27C80.8047 272.442 80.8656 272.618 80.8656 272.797C80.8656 273.087 80.7474 273.331 80.511 273.524C80.271 273.718 79.9772 273.814 79.6262 273.814C79.0244 273.814 78.3187 273.614 77.5092 273.209V274.348C78.3187 274.613 79.0065 274.746 79.576 274.746Z" fill="#3A4618"/>
<path d="M234.816 274.77C235.153 274.817 235.503 274.84 235.864 274.84C237.032 274.84 237.916 274.553 238.518 273.975C239.119 273.397 239.418 272.714 239.418 271.926C239.418 271.352 239.263 270.839 238.945 270.393C238.63 269.951 238.002 269.466 237.063 268.934L236.337 268.523C235.941 268.301 235.635 268.107 235.41 267.948C235.184 267.785 235.006 267.591 234.87 267.366C234.738 267.141 234.672 266.92 234.672 266.703C234.672 266.384 234.812 266.074 235.095 265.767C235.375 265.465 235.809 265.31 236.395 265.31C236.675 265.31 236.954 265.341 237.237 265.403C237.517 265.465 238.037 265.643 238.79 265.938V264.63C237.924 264.37 237.098 264.239 236.318 264.239C235.666 264.239 235.13 264.359 234.703 264.596C234.276 264.832 233.935 265.158 233.679 265.577C233.427 265.996 233.298 266.443 233.298 266.92C233.298 267.452 233.461 267.937 233.78 268.375C234.098 268.81 234.727 269.291 235.658 269.819L236.356 270.222C237.063 270.622 237.509 270.96 237.687 271.239C237.866 271.522 237.951 271.829 237.951 272.159C237.951 272.601 237.784 272.978 237.447 273.296C237.113 273.61 236.651 273.769 236.073 273.769C235.751 273.769 235.406 273.73 235.029 273.653C234.653 273.575 234.059 273.35 233.244 272.978V274.398C233.954 274.596 234.478 274.72 234.816 274.77ZM245.798 274.518C246.023 274.677 246.26 274.759 246.508 274.759C246.877 274.759 247.21 274.685 247.517 274.541L247.42 273.796C247.307 273.816 247.222 273.824 247.16 273.824C247.02 273.824 246.896 273.789 246.791 273.723C246.683 273.653 246.601 273.556 246.539 273.424C246.481 273.296 246.454 273.044 246.454 272.671V269.31C246.454 268.651 246.341 268.173 246.12 267.875C245.899 267.576 245.604 267.359 245.231 267.219C244.863 267.079 244.455 267.009 244.013 267.009C243.206 267.009 242.34 267.196 241.424 267.56V268.674C242.263 268.236 243.035 268.018 243.741 268.018C244.048 268.018 244.304 268.065 244.51 268.154C244.715 268.247 244.867 268.375 244.964 268.534C245.061 268.697 245.107 268.957 245.107 269.31V270.207H244.789C243.392 270.207 242.375 270.447 241.739 270.921C241.102 271.398 240.784 272 240.784 272.725C240.784 273.389 241.013 273.893 241.467 274.239C241.925 274.584 242.418 274.759 242.95 274.759C243.326 274.759 243.714 274.666 244.106 274.479C244.502 274.293 244.901 274.014 245.305 273.645C245.406 274.068 245.569 274.359 245.798 274.518ZM244.203 273.474C243.904 273.599 243.613 273.661 243.326 273.661C243.004 273.661 242.724 273.548 242.488 273.327C242.247 273.102 242.127 272.83 242.127 272.508C242.127 272.039 242.371 271.67 242.86 271.394C243.345 271.123 243.951 270.987 244.669 270.987L245.107 270.999V272.916C244.801 273.164 244.502 273.346 244.203 273.474ZM252.022 274.588L254.948 267.18H253.699L251.421 272.943L249.271 267.18H247.921L250.676 274.588H252.022ZM261.887 273.284C261.32 273.49 260.897 273.618 260.618 273.664C260.342 273.711 260.067 273.734 259.787 273.734C259.24 273.734 258.79 273.637 258.437 273.439C258.084 273.241 257.797 272.966 257.587 272.609C257.374 272.256 257.23 271.751 257.152 271.096H261.914L261.922 270.688C261.922 269.462 261.666 268.546 261.146 267.929C260.63 267.316 259.939 267.009 259.07 267.009C258.425 267.009 257.863 267.161 257.385 267.467C256.908 267.77 256.52 268.236 256.225 268.864C255.93 269.493 255.783 270.153 255.783 270.851C255.783 271.907 256.116 272.819 256.788 273.595C257.455 274.371 258.375 274.759 259.543 274.759C260.191 274.759 260.975 274.623 261.887 274.347V273.284ZM257.754 268.534C258.049 268.189 258.464 268.018 258.992 268.018C259.454 268.018 259.834 268.177 260.133 268.496C260.432 268.814 260.579 269.345 260.579 270.087H257.215C257.277 269.396 257.455 268.876 257.754 268.534ZM274.444 274.588V273.517H269.966V264.491H268.53V274.588H274.444ZM277.367 274.588V267.18H276.02V274.588H277.367ZM277.367 265.837V264.491H276.02V265.837H277.367ZM281.658 274.588V268.189H283.506V267.18H281.658V266.152C281.658 265.624 281.709 265.275 281.814 265.108C281.918 264.937 282.058 264.821 282.229 264.755C282.404 264.689 282.594 264.658 282.803 264.658C283.168 264.658 283.649 264.751 284.255 264.937V263.87C283.684 263.722 283.172 263.645 282.718 263.645C282.14 263.645 281.674 263.761 281.317 263.99C280.96 264.219 280.704 264.51 280.549 264.856C280.39 265.205 280.312 265.682 280.312 266.291V267.18H279.264V268.189H280.312V274.588H281.658ZM290.716 273.284C290.145 273.49 289.722 273.618 289.447 273.664C289.171 273.711 288.896 273.734 288.616 273.734C288.069 273.734 287.619 273.637 287.266 273.439C286.909 273.241 286.626 272.966 286.412 272.609C286.199 272.256 286.055 271.751 285.981 271.096H290.743L290.751 270.688C290.751 269.462 290.491 268.546 289.975 267.929C289.458 267.316 288.768 267.009 287.898 267.009C287.25 267.009 286.692 267.161 286.214 267.467C285.737 267.77 285.349 268.236 285.054 268.864C284.759 269.493 284.612 270.153 284.612 270.851C284.612 271.907 284.945 272.819 285.613 273.595C286.284 274.371 287.2 274.759 288.368 274.759C289.02 274.759 289.804 274.623 290.716 274.347V273.284ZM286.579 268.534C286.878 268.189 287.289 268.018 287.821 268.018C288.283 268.018 288.663 268.177 288.962 268.496C289.257 268.814 289.404 269.345 289.404 270.087H286.044C286.106 269.396 286.284 268.876 286.579 268.534Z" fill="#3A4618"/>
<path d="M50.0293 318.245V279.439" stroke="#3A4517" stroke-width="9"/>
<path d="M262.219 318.245V279.439" stroke="#3A4517" stroke-width="9"/>
<path d="M50.0284 281.105H10.209V259.364H89.5987V281.105H50.0284Z" stroke="#3A4517" stroke-width="6.6213" stroke-linecap="round" stroke-linejoin="round"/>
<path d="M262.342 281.105H221.9V259.364H301.29V281.105H262.342Z" stroke="#3A4517" stroke-width="6.6213"/>
<path d="M95.6377 85.0011C114.93 85.0011 130.594 100.665 130.594 119.957C130.594 139.249 114.93 154.913 95.6377 154.913C76.3455 154.913 60.6816 139.249 60.6816 119.957C60.6816 100.665 76.3455 85.0011 95.6377 85.0011Z" fill="#86BF3C"/>
<path d="M104.692 37.2194C123.985 37.2194 139.648 52.8832 139.648 72.1754C139.648 91.4677 123.985 107.131 104.692 107.131C85.4001 107.131 69.7363 91.4677 69.7363 72.1754C69.7363 52.8832 85.4001 37.2194 104.692 37.2194Z" fill="#86BF3C"/>
<path d="M131.349 8.55042C150.641 8.55042 166.305 24.2142 166.305 43.5065C166.305 62.7987 150.641 78.4625 131.349 78.4625C112.056 78.4625 96.3926 62.7987 96.3926 43.5065C96.3926 24.2142 112.056 8.55042 131.349 8.55042Z" fill="#86BF3C"/>
<path d="M164.042 0C183.334 0 198.998 15.6638 198.998 34.9561C198.998 54.2483 183.334 69.9121 164.042 69.9121C144.75 69.9121 129.086 54.2483 129.086 34.9561C129.086 15.6638 144.75 0 164.042 0Z" fill="#86BF3C"/>
<path d="M194.22 12.5741C213.512 12.5741 229.176 28.2379 229.176 47.5302C229.176 66.8224 213.512 82.4862 194.22 82.4862C174.927 82.4862 159.264 66.8224 159.264 47.5302C159.264 28.2379 174.927 12.5741 194.22 12.5741Z" fill="#86BF3C"/>
<path d="M204.782 44.7639C224.074 44.7639 239.738 60.4277 239.738 79.7199C239.738 99.0122 224.074 114.676 204.782 114.676C185.49 114.676 169.826 99.0122 169.826 79.7199C169.826 60.4277 185.49 44.7639 204.782 44.7639Z" fill="#86BF3C"/>
<path d="M206.794 85.504C226.086 85.504 241.75 101.168 241.75 120.46C241.75 139.752 226.086 155.416 206.794 155.416C187.502 155.416 171.838 139.752 171.838 120.46C171.838 101.168 187.502 85.504 206.794 85.504Z" fill="#86BF3C"/>
<path d="M198.745 124.232C218.037 124.232 233.701 139.896 233.701 159.188C233.701 178.481 218.037 194.144 198.745 194.144C179.453 194.144 163.789 178.481 163.789 159.188C163.789 139.896 179.453 124.232 198.745 124.232Z" fill="#86BF3C"/>
<path d="M142.917 152.398C162.209 152.398 177.873 168.062 177.873 187.354C177.873 206.647 162.209 222.311 142.917 222.311C123.625 222.311 107.961 206.647 107.961 187.354C107.961 168.062 123.625 152.398 142.917 152.398Z" fill="#86BF3C"/>
<path d="M113.243 129.765C132.535 129.765 148.199 145.429 148.199 164.721C148.199 184.013 132.535 199.677 113.243 199.677C93.9509 199.677 78.2871 184.013 78.2871 164.721C78.2871 145.429 93.9509 129.765 113.243 129.765Z" fill="#86BF3C"/>
<path d="M182.147 147.369C201.44 147.369 217.104 163.033 217.104 182.325C217.104 201.617 201.44 217.281 182.147 217.281C162.855 217.281 147.191 201.617 147.191 182.325C147.191 163.033 162.855 147.369 182.147 147.369Z" fill="#86BF3C"/>
</svg>
