<svg width="34" height="34" viewBox="0 0 34 34" fill="none" xmlns="http://www.w3.org/2000/svg">
<rect x="1" y="1" width="32" height="32" rx="6" stroke="#5A99EC" stroke-width="1.5"/>
<path fill-rule="evenodd" clip-rule="evenodd" d="M14.2847 25.2256C21.0298 25.2256 24.7314 19.6321 24.7314 14.7788C24.7314 14.6417 24.7314 14.4498 24.7314 14.3127C25.4443 13.8192 26.0476 13.1611 26.5685 12.4208C25.9105 12.695 25.1976 12.9143 24.4572 12.9966C25.1976 12.5305 25.7734 11.8176 26.075 10.9401C25.3621 11.3788 24.5669 11.653 23.7443 11.845C23.0588 11.1321 22.1266 10.6934 21.0572 10.6934C19.0008 10.6934 17.4105 12.3385 17.4105 14.3401C17.4105 14.6143 17.4379 14.9159 17.5201 15.1627C14.4766 15.0256 11.7895 13.545 9.95239 11.324C9.62336 11.8724 9.45885 12.503 9.45885 13.1611C9.45885 14.4498 10.1169 15.574 11.104 16.2046C10.5008 16.1772 9.92497 16.0127 9.45885 15.7385V15.7659C9.45885 17.5482 10.7201 19.0288 12.3927 19.3579C12.0637 19.4401 11.7347 19.495 11.433 19.495C11.1863 19.495 10.9669 19.4676 10.7476 19.4127C11.2137 20.8934 12.5847 21.9353 14.2024 21.9627C12.9411 22.9224 11.3782 23.553 9.65078 23.553C9.37659 23.553 9.07497 23.553 8.80078 23.5256C10.4185 24.5676 12.3653 25.1708 14.4217 25.1708L14.3395 25.1982L14.2847 25.2256Z" fill="#5A99EC"/>
</svg>
