<svg width="34" height="34" viewBox="0 0 34 34" fill="none" xmlns="http://www.w3.org/2000/svg">
<path fill-rule="evenodd" clip-rule="evenodd" d="M17 32.4645C8.47258 32.4645 1.53548 25.5548 1.53548 17C1.53548 8.47258 8.44516 1.53548 17 1.53548C25.5274 1.53548 32.4645 8.44516 32.4645 17C32.4645 25.5274 25.5548 32.4645 17 32.4645ZM17 0C7.59516 0 0 7.59516 0 17C0 26.4048 7.59516 34 17 34C26.4048 34 34 26.4048 34 17C34 7.59516 26.4048 0 17 0Z" fill="#5A99EC"/>
<path fill-rule="evenodd" clip-rule="evenodd" d="M14.2847 25.2257C21.0298 25.2257 24.7314 19.6321 24.7314 14.7789C24.7314 14.6418 24.7314 14.4499 24.7314 14.3128C25.4443 13.8192 26.0476 13.1612 26.5685 12.4208C25.9105 12.695 25.1976 12.9144 24.4572 12.9966C25.1976 12.5305 25.7734 11.8176 26.075 10.9402C25.3621 11.3789 24.5669 11.6531 23.7443 11.845C23.0588 11.1321 22.1266 10.6934 21.0572 10.6934C19.0008 10.6934 17.4105 12.3386 17.4105 14.3402C17.4105 14.6144 17.4379 14.916 17.5201 15.1628C14.4766 15.0257 11.7895 13.545 9.95239 11.3241C9.62336 11.8725 9.45885 12.5031 9.45885 13.1612C9.45885 14.4499 10.1169 15.5741 11.104 16.2047C10.5008 16.1773 9.92497 16.0128 9.45885 15.7386V15.766C9.45885 17.5483 10.7201 19.0289 12.3927 19.3579C12.0637 19.4402 11.7347 19.495 11.433 19.495C11.1863 19.495 10.9669 19.4676 10.7476 19.4128C11.2137 20.8934 12.5847 21.9354 14.2024 21.9628C12.9411 22.9225 11.3782 23.5531 9.65078 23.5531C9.37659 23.5531 9.07497 23.5531 8.80078 23.5257C10.4185 24.5676 12.3653 25.1708 14.4217 25.1708L14.3395 25.1983L14.2847 25.2257Z" fill="#5A99EC"/>
</svg>
