<svg width="80" height="80" viewBox="0 0 80 80" fill="none" xmlns="http://www.w3.org/2000/svg">
<circle cx="40" cy="40" r="39.4866" stroke="url(#paint0_linear_2494_2694)" stroke-width="1.02671"/>
<path fill-rule="evenodd" clip-rule="evenodd" d="M34.0422 47.2519H38.0034L37.9843 47.271C38.1993 47.271 38.3713 46.9168 38.5084 46.6345C38.5544 46.5398 38.5965 46.4532 38.6349 46.3908L43.3424 37.5499C43.4423 37.356 43.5422 37.1548 43.6432 36.9515C43.8711 36.4926 44.1047 36.0223 44.3566 35.598C45.6072 33.5292 45.5997 33.3287 45.5501 32.002C45.5382 31.6843 45.5239 31.302 45.5239 30.8139C45.4719 30.8065 45.4371 30.7962 45.404 30.7863C45.352 30.7708 45.3039 30.7565 45.1986 30.7565H33.5638C33.4385 30.7565 33.4044 30.7667 33.3361 30.7869C33.3106 30.7945 33.2802 30.8035 33.2385 30.8139V34.0479C33.7681 34.169 37.4324 34.1345 39.5295 34.1148C40.0846 34.1095 40.5299 34.1053 40.7782 34.1053C40.7239 34.3361 39.5525 36.4736 38.7738 37.8946C38.4548 38.4767 38.2017 38.9386 38.1182 39.0999C37.5192 40.2872 36.8305 41.5343 36.1457 42.7744C35.6054 43.7528 35.0675 44.7268 34.578 45.6636C34.5269 45.7586 34.4576 45.8752 34.3825 46.0017C34.0639 46.5378 33.6397 47.2519 34.0422 47.2519ZM22.4648 39.5783V38.4493C22.4648 36.1338 23.2494 33.3782 24.034 31.809C25.01 29.8763 25.9668 28.441 27.4211 26.9867C30.1959 24.2119 34.5398 22.0496 38.8071 22.0496H39.9936C42.3091 22.0496 45.0838 22.8724 46.6147 23.6379C50.3271 25.5132 52.9488 28.0009 54.7667 31.809C55.2938 32.9335 55.4612 33.7529 55.6776 34.8127C55.6969 34.9071 55.7165 35.0034 55.7369 35.1021C52.0436 35.9632 48.6049 38.3727 45.3708 40.937C41.6967 43.8648 38.5392 47.405 36.5299 50.2946C35.8602 49.2038 34.6163 47.9408 32.4539 46.4673C31.6693 45.9315 30.8848 45.5871 30.1193 45.3766C28.8755 45.0321 27.689 45.1278 26.6174 45.5488C25.8328 45.855 25.1056 46.3716 24.5124 47.0414C24.3402 46.7544 24.1871 46.4482 24.034 46.142L24.034 46.142C23.2686 44.6302 22.4648 41.8364 22.4648 39.5783ZM42.8017 55.5731C42.797 55.5741 42.7922 55.5751 42.7875 55.5761V55.5953C42.7922 55.5879 42.7969 55.5805 42.8017 55.5731ZM42.8017 55.5731C44.2509 55.2668 45.6417 54.7901 46.5573 54.3323C50.3462 52.4187 52.8531 50.0075 54.7284 46.1803C55.4556 44.6877 56.2402 42.1617 56.3167 39.9227L56.2211 39.9993L56.1594 40.0441C54.9153 40.9489 53.6231 41.8886 52.7383 42.7358C50.5185 44.8407 47.2845 48.9742 44.3758 53.2033C43.8259 53.9996 43.3136 54.7771 42.8017 55.5731ZM36.1562 53.7642C36.2015 53.7037 36.2752 53.5788 36.3113 53.3822C36.2496 53.5187 36.1978 53.6463 36.1562 53.7642ZM32.2334 48.183C36.0885 51.0583 36.4405 52.679 36.3113 53.3822C38.3134 48.9523 50.6863 35.1268 59.2122 35.9199C58.9025 36.1522 58.5891 36.3863 58.274 36.6217C55.2617 38.8721 52.0889 41.2424 50.4236 43.2778C46.3963 47.1084 38.8008 58.2015 37.1242 62.8987C35.2616 60.3424 33.6732 58.7808 32.0118 57.1476C31.6807 56.822 31.3467 56.4937 31.007 56.154C29.8627 55.0097 28.5239 54.0667 27.2456 53.1662C26.2407 52.4583 25.2731 51.7767 24.4667 51.0444L24.6711 49.818C25.5699 46.4554 28.9632 45.526 32.2334 48.183Z" fill="url(#paint1_linear_2494_2694)"/>
<defs>
<linearGradient id="paint0_linear_2494_2694" x1="0" y1="0" x2="81.5029" y2="1.42684" gradientUnits="userSpaceOnUse">
<stop stop-color="#1BACF4"/>
<stop offset="1" stop-color="#19EEB5"/>
</linearGradient>
<linearGradient id="paint1_linear_2494_2694" x1="22.4648" y1="22.0496" x2="59.9046" y2="22.6392" gradientUnits="userSpaceOnUse">
<stop stop-color="#1BACF4"/>
<stop offset="1" stop-color="#19EEB5"/>
</linearGradient>
</defs>
</svg>
