<svg width="87" height="87" viewBox="0 0 87 87" fill="none" xmlns="http://www.w3.org/2000/svg">
<rect width="87" height="87" rx="6" fill="#111111"/>
<path d="M43.4229 49.9898C46.1865 49.9898 48.4268 47.7494 48.4268 44.9859C48.4268 42.2223 46.1865 39.9819 43.4229 39.9819C40.6593 39.9819 38.4189 42.2223 38.4189 44.9859C38.4189 47.7494 40.6593 49.9898 43.4229 49.9898Z" fill="#191919"/>
<path d="M38.8094 29.4268L35.9477 32.5542H30.9907C29.2706 32.5542 27.8633 33.9616 27.8633 35.6817V54.4464C27.8633 56.1665 29.2706 57.5738 30.9907 57.5738H56.0103C57.7304 57.5738 59.1378 56.1665 59.1378 54.4464V35.6817C59.1378 33.9616 57.7304 32.5542 56.0103 32.5542H51.0533L48.1917 29.4268H38.8094ZM43.5005 52.8826C39.1847 52.8826 35.6819 49.3799 35.6819 45.064C35.6819 40.7481 39.1847 37.2454 43.5005 37.2454C47.8164 37.2454 51.3192 40.7481 51.3192 45.064C51.3192 49.3799 47.8164 52.8826 43.5005 52.8826Z" fill="#191919"/>
</svg>
