<svg width="41" height="40" viewBox="0 0 41 40" fill="none" xmlns="http://www.w3.org/2000/svg">
<path d="M31.5385 35.2C31.5385 34.7667 31.3824 34.3917 31.0703 34.075C30.7582 33.7583 30.3886 33.6 29.9615 33.6C29.5345 33.6 29.1649 33.7583 28.8528 34.075C28.5407 34.3917 28.3846 34.7667 28.3846 35.2C28.3846 35.6333 28.5407 36.0083 28.8528 36.325C29.1649 36.6417 29.5345 36.8 29.9615 36.8C30.3886 36.8 30.7582 36.6417 31.0703 36.325C31.3824 36.0083 31.5385 35.6333 31.5385 35.2ZM37.8462 35.2C37.8462 34.7667 37.6901 34.3917 37.378 34.075C37.0659 33.7583 36.6963 33.6 36.2692 33.6C35.8422 33.6 35.4726 33.7583 35.1605 34.075C34.8484 34.3917 34.6923 34.7667 34.6923 35.2C34.6923 35.6333 34.8484 36.0083 35.1605 36.325C35.4726 36.6417 35.8422 36.8 36.2692 36.8C36.6963 36.8 37.0659 36.6417 37.378 36.325C37.6901 36.0083 37.8462 35.6333 37.8462 35.2ZM41 29.6V37.6C41 38.2667 40.77 38.8333 40.3101 39.3C39.8502 39.7667 39.2917 40 38.6346 40H2.36538C1.70833 40 1.14984 39.7667 0.689904 39.3C0.229968 38.8333 0 38.2667 0 37.6V29.6C0 28.9333 0.229968 28.3667 0.689904 27.9C1.14984 27.4333 1.70833 27.2 2.36538 27.2H12.8864C13.2314 28.1333 13.8104 28.9 14.6235 29.5C15.4366 30.1 16.3442 30.4 17.3462 30.4H23.6538C24.6558 30.4 25.5634 30.1 26.3765 29.5C27.1896 28.9 27.7686 28.1333 28.1136 27.2H38.6346C39.2917 27.2 39.8502 27.4333 40.3101 27.9C40.77 28.3667 41 28.9333 41 29.6ZM32.9922 13.4C32.7129 14.0667 32.2284 14.4 31.5385 14.4H25.2308V25.6C25.2308 26.0333 25.0747 26.4083 24.7626 26.725C24.4505 27.0417 24.0809 27.2 23.6538 27.2H17.3462C16.9191 27.2 16.5495 27.0417 16.2374 26.725C15.9253 26.4083 15.7692 26.0333 15.7692 25.6V14.4H9.46154C8.77163 14.4 8.28706 14.0667 8.00781 13.4C7.72857 12.75 7.84355 12.175 8.35277 11.675L19.3912 0.475C19.6869 0.158333 20.0565 0 20.5 0C20.9435 0 21.3131 0.158333 21.6088 0.475L32.6472 11.675C33.1565 12.175 33.2714 12.75 32.9922 13.4Z" fill="#DFDFDF"/>
</svg>
