<svg width="27" height="24" viewBox="0 0 27 24" fill="none" xmlns="http://www.w3.org/2000/svg">
<path d="M24.84 4.36364H3.24C2.95357 4.36364 2.67886 4.2487 2.47633 4.04412C2.27379 3.83953 2.16 3.56205 2.16 3.27273C2.16 2.9834 2.27379 2.70592 2.47633 2.50134C2.67886 2.29675 2.95357 2.18182 3.24 2.18182H21.6C21.8864 2.18182 22.1611 2.06688 22.3637 1.8623C22.5662 1.65771 22.68 1.38024 22.68 1.09091C22.68 0.801582 22.5662 0.524105 22.3637 0.31952C22.1611 0.114935 21.8864 0 21.6 0H3.24C2.38179 0.00358959 1.55975 0.349547 0.9529 0.962526C0.346051 1.5755 0.0035537 2.40585 0 3.27273V20.7273C0.0035537 21.5941 0.346051 22.4245 0.9529 23.0375C1.55975 23.6505 2.38179 23.9964 3.24 24H24.84C25.4129 24 25.9623 23.7701 26.3674 23.361C26.7724 22.9518 27 22.3968 27 21.8182V6.54545C27 5.9668 26.7724 5.41185 26.3674 5.00268C25.9623 4.59351 25.4129 4.36364 24.84 4.36364ZM19.98 15.8182C19.6596 15.8182 19.3464 15.7222 19.08 15.5424C18.8136 15.3626 18.6059 15.107 18.4833 14.808C18.3607 14.509 18.3286 14.18 18.3911 13.8626C18.4536 13.5452 18.6079 13.2536 18.8345 13.0247C19.0611 12.7959 19.3497 12.64 19.664 12.5769C19.9782 12.5138 20.3039 12.5462 20.5999 12.67C20.896 12.7939 21.149 13.0036 21.327 13.2727C21.505 13.5418 21.6 13.8582 21.6 14.1818C21.6 14.6158 21.4293 15.032 21.1255 15.3389C20.8217 15.6458 20.4097 15.8182 19.98 15.8182Z" fill="#DFDFDF"/>
</svg>
