<svg width="34" height="34" viewBox="0 0 34 34" fill="none" xmlns="http://www.w3.org/2000/svg">
<rect x="1" y="1" width="32" height="32" rx="6" stroke="url(#paint0_linear_2686_2644)" stroke-width="1.5"/>
<path fill-rule="evenodd" clip-rule="evenodd" d="M15.0202 19.4237V14.0729L20.148 16.7762L15.0202 19.4237ZM26.3349 13.1532C26.3349 13.1532 26.1398 11.8434 25.5825 11.2582C24.8579 10.5057 24.0497 10.5057 23.6874 10.45C21.0398 10.2549 17.0267 10.2549 17.0267 10.2549C17.0267 10.2549 13.0136 10.2549 10.3661 10.45C10.0038 10.4778 9.19557 10.4778 8.47098 11.2582C7.88573 11.8434 7.71852 13.1532 7.71852 13.1532C7.71852 13.1532 7.52344 14.686 7.52344 16.2467V17.6959C7.52344 19.2287 7.71852 20.7893 7.71852 20.7893C7.71852 20.7893 7.9136 22.0991 8.47098 22.6844C9.19557 23.4369 10.1431 23.409 10.589 23.4926C12.1218 23.6319 17.0825 23.6877 17.0825 23.6877C17.0825 23.6877 21.0956 23.6877 23.7431 23.4926C24.1054 23.4647 24.9136 23.4647 25.6382 22.6844C26.2234 22.0991 26.3907 20.7893 26.3907 20.7893C26.3907 20.7893 26.5857 19.2565 26.5857 17.6959V16.2467C26.5857 14.7139 26.3907 13.1532 26.3907 13.1532H26.3628H26.3349Z" fill="url(#paint1_linear_2686_2644)"/>
<defs>
<linearGradient id="paint0_linear_2686_2644" x1="27.3529" y1="29.2353" x2="2.41176" y2="1.47059" gradientUnits="userSpaceOnUse">
<stop stop-color="#D21C0F"/>
<stop offset="1" stop-color="#D3533B"/>
</linearGradient>
<linearGradient id="paint1_linear_2686_2644" x1="23.2218" y1="22.1073" x2="13.7043" y2="7.07219" gradientUnits="userSpaceOnUse">
<stop stop-color="#D21C0F"/>
<stop offset="1" stop-color="#D3533B"/>
</linearGradient>
</defs>
</svg>
